<svg width="212" height="145" viewBox="0 0 212 145" fill="none" xmlns="http://www.w3.org/2000/svg">
<g opacity="0.32" filter="url(#filter0_f_7_6759)">
<ellipse cx="80" cy="12" rx="80" ry="12" transform="matrix(-1 0 0 1 172 72)" fill="url(#paint0_linear_7_6759)"/>
</g>
<g opacity="0.64" filter="url(#filter1_f_7_6759)">
<path d="M24 83C24 84.1046 44.1177 94 64 94C83.8823 94 100 93.1046 100 92C100 90.8954 83.8823 90 64 90C44.1177 90 24 81.8954 24 83Z" fill="url(#paint1_linear_7_6759)"/>
</g>
<g opacity="0.64" filter="url(#filter2_f_7_6759)">
<ellipse cx="36" cy="2" rx="36" ry="2" transform="matrix(-1 0 0 1 115 81)" fill="url(#paint2_linear_7_6759)"/>
</g>
<g opacity="0.64" filter="url(#filter3_f_7_6759)">
<path d="M62.1591 79.4993C61.9479 81.1426 83.6634 83.2885 110.662 86.7593C137.661 98.2301 155.719 97.7116 159.93 92.0683C160.141 90.425 138.426 86.2791 111.427 82.8083C84.4284 79.3375 62.3704 77.856 62.1591 79.4993Z" fill="url(#paint3_linear_7_6759)"/>
</g>
<g opacity="0.64" filter="url(#filter4_f_7_6759)">
<ellipse cx="16" cy="2" rx="16" ry="2" transform="matrix(-1 0 0 1 179 90)" fill="url(#paint4_linear_7_6759)"/>
</g>
<g filter="url(#filter5_iii_7_6759)">
<path d="M31.5781 35.5C10.2553 66.2191 32.2507 85.4444 61.5781 86.001C72.825 86.2144 94.0781 86.001 94.0781 69" stroke="#919597" stroke-width="16" stroke-linecap="round"/>
</g>
<path d="M178.578 82C178.578 94 167.833 94 154.578 94C130.578 94 130.578 88.6274 130.578 82C130.578 75.3726 141.323 70 154.578 70C167.833 70 178.578 70 178.578 82Z" fill="#919597"/>
<path d="M178.578 82C178.578 94 167.833 94 154.578 94C130.578 94 130.578 88.6274 130.578 82C130.578 75.3726 141.323 70 154.578 70C167.833 70 178.578 70 178.578 82Z" fill="black" fill-opacity="0.16" style="mix-blend-mode:overlay"/>
<g filter="url(#filter6_iii_7_6759)">
<path d="M178.578 82C178.578 94 167.833 94 154.578 94C130.578 94 130.578 88.6274 130.578 82C130.578 75.3726 141.323 70 154.578 70C167.833 70 178.578 70 178.578 82Z" fill="black" fill-opacity="0.16" style="mix-blend-mode:overlay"/>
</g>
<g style="mix-blend-mode:overlay" opacity="0.24">
<path d="M178.578 82C178.578 94 167.833 94 154.578 94C130.578 94 130.578 88.6274 130.578 82C130.578 75.3726 141.323 70 154.578 70C167.833 70 178.578 70 178.578 82Z" fill="url(#paint5_radial_7_6759)"/>
</g>
<mask id="mask0_7_6759" style="mask-type:alpha" maskUnits="userSpaceOnUse" x="130" y="70" width="49" height="24">
<path d="M178.578 82C178.578 94 167.833 94 154.578 94C130.578 94 130.578 88.6274 130.578 82C130.578 75.3726 141.323 70 154.578 70C167.833 70 178.578 70 178.578 82Z" fill="#D6D6D6"/>
</mask>
<g mask="url(#mask0_7_6759)">
<g style="mix-blend-mode:overlay" opacity="0.4" filter="url(#filter7_f_7_6759)">
<path d="M128.355 67.5268C125.496 78.1961 129.666 88.5834 137.668 90.7276C145.67 92.8717 173.206 97.1914 176.065 86.5221C178.923 75.8528 145.691 48.3605 137.689 46.2163C129.687 44.0722 131.214 56.8574 128.355 67.5268Z" fill="url(#paint6_linear_7_6759)"/>
</g>
</g>
<path fill-rule="evenodd" clip-rule="evenodd" d="M34.1237 21.1889C6.07532 45.313 19.6233 69.6941 30.1237 79.1891C43.6249 91.3976 55.4033 89.609 71.8355 87.1136C79.8829 85.8916 89.0465 84.5 100.075 84.5C104.607 84.5 109.864 85.1674 115.409 86.0084C119.762 90.6648 131.131 94 141.574 94C154.829 94 165.574 88.6274 165.574 82C165.574 81.4241 165.493 80.8578 165.336 80.3035C166.912 77.5697 167.89 74.0871 168.124 69.6889C171.123 13.1849 84.1243 -21.8162 34.1237 21.1889Z" fill="#919597"/>
<path fill-rule="evenodd" clip-rule="evenodd" d="M34.1237 21.1889C6.07532 45.313 19.6233 69.6941 30.1237 79.1891C43.6249 91.3976 55.4033 89.609 71.8355 87.1136C79.8829 85.8916 89.0465 84.5 100.075 84.5C104.607 84.5 109.864 85.1674 115.409 86.0084C119.762 90.6648 131.131 94 141.574 94C154.829 94 165.574 88.6274 165.574 82C165.574 81.4241 165.493 80.8578 165.336 80.3035C166.912 77.5697 167.89 74.0871 168.124 69.6889C171.123 13.1849 84.1243 -21.8162 34.1237 21.1889Z" fill="url(#paint7_linear_7_6759)" fill-opacity="0.12"/>
<g filter="url(#filter8_iiii_7_6759)">
<path fill-rule="evenodd" clip-rule="evenodd" d="M34.1237 21.1889C6.07532 45.313 19.6233 69.6941 30.1237 79.1891C43.6249 91.3976 55.4033 89.609 71.8355 87.1136C79.8829 85.8916 89.0465 84.5 100.075 84.5C104.607 84.5 109.864 85.1674 115.409 86.0084C119.762 90.6648 131.131 94 141.574 94C154.829 94 165.574 88.6274 165.574 82C165.574 81.4241 165.493 80.8578 165.336 80.3035C166.912 77.5697 167.89 74.0871 168.124 69.6889C171.123 13.1849 84.1243 -21.8162 34.1237 21.1889Z" fill="url(#paint8_linear_7_6759)" fill-opacity="0.12" style="mix-blend-mode:overlay"/>
</g>
<g style="mix-blend-mode:overlay" opacity="0.48" filter="url(#filter9_f_7_6759)">
<mask id="mask1_7_6759" style="mask-type:alpha" maskUnits="userSpaceOnUse" x="17" y="2" width="152" height="88">
<path d="M30.1237 79.1891C19.6233 69.6941 6.07532 45.313 34.1237 21.1889C84.1243 -21.8162 171.123 13.1849 168.124 69.6889C166.389 102.371 123.527 84.5 100.075 84.5C66.5266 84.5 50.2369 97.3765 30.1237 79.1891Z" fill="#D6D6D6"/>
</mask>
<g mask="url(#mask1_7_6759)">
<path d="M133.109 17.7119C135.678 22.1601 136.415 26.5423 137.76 25.7661C139.104 24.9899 138.112 20.7546 135.544 16.3064C132.976 11.8583 135.229 6.13299 129.456 11.3836C128.111 12.1598 130.541 13.2637 133.109 17.7119Z" fill="url(#paint9_linear_7_6759)"/>
<path d="M117.269 11.666C119.386 16.3459 119.405 20.9075 121.102 20.1398C122.8 19.372 122.46 14.9558 120.343 10.2759C118.226 5.59609 121.91 -0.275751 114.258 5.00814C112.561 5.77589 115.153 6.9862 117.269 11.666Z" fill="url(#paint10_linear_7_6759)"/>
<path d="M105.704 8.03875C105.03 13.209 106.251 17.5042 104.484 17.4004C102.717 17.2966 101.831 13.0211 102.505 7.85086C103.179 2.68063 98.2021 -1.49819 106.663 0.683177C108.43 0.786948 106.378 2.86852 105.704 8.03875Z" fill="url(#paint11_linear_7_6759)"/>
<path d="M89.1805 8.2625C87.1183 13.1281 87.1457 17.5278 85.4466 17.0725C83.7475 16.6172 84.0419 12.3038 86.104 7.43817C88.1662 2.57259 84.4361 -2.46887 92.1142 1.34034C93.8133 1.79561 91.2426 3.39691 89.1805 8.2625Z" fill="url(#paint12_linear_7_6759)"/>
<path d="M74.1865 9.06795C72.1853 14.0811 72.2763 18.4533 70.563 18.1451C68.8496 17.837 69.0831 13.5231 71.0842 8.50999C73.0854 3.49685 69.2656 -1.19853 77.0335 1.93588C78.7468 2.24404 76.1876 4.05481 74.1865 9.06795Z" fill="url(#paint13_linear_7_6759)"/>
<path d="M57.6904 12.4239C55.6892 17.437 55.7802 21.8093 54.0669 21.5011C52.3536 21.1929 52.587 16.8791 54.5881 11.8659C56.5893 6.85281 52.7695 2.15742 60.5374 5.29183C62.2507 5.59999 59.6915 7.41077 57.6904 12.4239Z" fill="url(#paint14_linear_7_6759)"/>
<path d="M41.8473 19.7106C40.5328 23.6696 41.2856 27.1511 39.4673 26.8791C37.6489 26.6071 37.2405 23.1771 38.5549 19.2181C39.8694 15.2591 35.2117 11.4622 43.7173 14.0782C45.5356 14.3502 43.1617 15.7516 41.8473 19.7106Z" fill="url(#paint15_linear_7_6759)"/>
</g>
</g>
<g style="mix-blend-mode:overlay" opacity="0.24">
<path d="M165.578 82C165.578 88.6274 154.833 94 141.578 94C128.323 94 113.578 88.6274 113.578 82C113.578 75.3726 128.323 70 141.578 70C154.833 70 165.578 75.3726 165.578 82Z" fill="url(#paint16_radial_7_6759)"/>
</g>
<g style="mix-blend-mode:overlay" opacity="0.48" filter="url(#filter10_f_7_6759)">
<path d="M165.078 82C165.078 85.0223 162.615 87.8931 158.325 90.0381C154.065 92.1681 148.145 93.5 141.578 93.5C135.01 93.5 128.074 92.1673 122.796 90.0221C120.155 88.9489 117.955 87.6828 116.424 86.2999C114.89 84.914 114.078 83.4599 114.078 82C114.078 80.5401 114.89 79.086 116.424 77.7001C117.955 76.3171 120.155 75.0511 122.796 73.9779C128.074 71.8327 135.01 70.5 141.578 70.5C148.145 70.5 154.065 71.8319 158.325 73.9619C162.615 76.1069 165.078 78.9777 165.078 82Z" stroke="url(#paint17_linear_7_6759)"/>
</g>
<g style="mix-blend-mode:overlay" opacity="0.4" filter="url(#filter11_f_7_6759)">
<path d="M83.6473 86.6246C100.444 73.7066 84.0319 38.7055 65.1799 33.961C39.4835 27.4939 15.2794 65.8727 32.3413 82.5295C36.536 86.6246 75.6277 92.7923 83.6473 86.6246Z" fill="url(#paint18_radial_7_6759)"/>
</g>
<g style="mix-blend-mode:overlay" opacity="0.64" filter="url(#filter12_f_7_6759)">
<path d="M83.3425 86.2283C91.4662 79.9805 91.6515 68.3057 87.3173 57.4126C85.1597 51.9896 81.8992 46.8206 78.0175 42.7183C74.1327 38.6129 69.6511 35.6019 65.0579 34.4459C52.4977 31.2848 40.2118 39.0755 33.1443 49.8481C26.0653 60.6383 24.4172 74.0947 32.6906 82.1717C33.1314 82.602 34.1086 83.1167 35.5944 83.6651C37.0558 84.2045 38.9379 84.752 41.1171 85.2783C45.474 86.3304 50.9837 87.2893 56.6164 87.9288C62.2504 88.5684 67.9914 88.8866 72.8142 88.6632C75.2258 88.5514 77.3961 88.3047 79.2029 87.8995C81.0183 87.4924 82.4241 86.9346 83.3425 86.2283Z" stroke="url(#paint19_linear_7_6759)"/>
</g>
<mask id="mask2_7_6759" style="mask-type:alpha" maskUnits="userSpaceOnUse" x="17" y="2" width="152" height="92">
<path fill-rule="evenodd" clip-rule="evenodd" d="M34.1237 21.1889C6.07532 45.313 19.6233 69.6941 30.1237 79.1891C43.6249 91.3976 55.4033 89.609 71.8355 87.1136C79.8829 85.8916 89.0465 84.5 100.075 84.5C104.607 84.5 109.864 85.1674 115.409 86.0084C119.762 90.6648 131.131 94 141.574 94C154.829 94 165.574 88.6274 165.574 82C165.574 81.4241 165.493 80.8578 165.336 80.3035C166.912 77.5697 167.89 74.0871 168.124 69.6889C171.123 13.1849 84.1243 -21.8162 34.1237 21.1889Z" fill="#D6D6D6"/>
</mask>
<g mask="url(#mask2_7_6759)">
<g style="mix-blend-mode:overlay" opacity="0.4" filter="url(#filter13_f_7_6759)">
<path d="M40.3128 98.2359C44.5293 113.972 49.5151 123.165 61.3174 120.003C73.1197 116.841 105.477 102.052 101.261 86.3153C94.5748 43.0002 80.0749 96.5001 36.5192 64.1326C24.7169 67.2951 36.0962 82.4995 40.3128 98.2359Z" fill="url(#paint20_linear_7_6759)"/>
</g>
</g>
<mask id="mask3_7_6759" style="mask-type:alpha" maskUnits="userSpaceOnUse" x="4" y="33" width="125" height="108">
<path fill-rule="evenodd" clip-rule="evenodd" d="M27.6504 55.2589C23.2995 40.4951 20.3655 30.5393 12.5768 35.0361C2.40796 40.9071 1.44505 59.347 8.8241 80.4468C8.6613 81.2875 8.57812 82.1389 8.57812 82.9994C8.57812 87.7983 11.1652 92.3153 15.724 96.2632C16.5495 97.8413 17.4177 99.4207 18.3281 100.998C34.8967 129.695 59.1846 146.691 72.5768 138.959C80.1679 134.576 74.5166 128.973 65.1787 119.715C62.3942 116.954 59.2818 113.868 56.0951 110.393C60.1218 110.79 64.2976 110.999 68.5781 110.999C101.715 110.999 128.578 98.4633 128.578 82.9994C128.578 67.5354 101.715 54.9994 68.5781 54.9994C53.6895 54.9994 40.0675 57.5301 29.5795 61.72C28.8972 59.4896 28.2599 57.3271 27.6504 55.2589Z" fill="#D6D6D6"/>
</mask>
<g mask="url(#mask3_7_6759)">
<g filter="url(#filter14_iiii_7_6759)">
<path d="M31.5781 35.4997C10.2553 66.2188 32.2507 85.4441 61.5781 86.0006C72.825 86.2141 94.0781 86.0006 94.0781 68.9996" stroke="#919597" stroke-width="16" stroke-linecap="round"/>
</g>
</g>
<g style="mix-blend-mode:multiply" opacity="0.16" filter="url(#filter15_f_7_6759)">
<path d="M197.075 54C197.075 71.9493 185.077 86 166.575 86C148.074 86 135.576 76.4493 135.576 58.5C135.576 40.5507 135.074 27.5 153.576 27.5C172.077 27.5 197.075 36.0507 197.075 54Z" fill="url(#paint21_linear_7_6759)"/>
</g>
<mask id="mask4_7_6759" style="mask-type:alpha" maskUnits="userSpaceOnUse" x="17" y="2" width="162" height="93">
<path fill-rule="evenodd" clip-rule="evenodd" d="M30.1276 79.1891C19.6272 69.6941 6.07922 45.313 34.1276 21.1889C84.1282 -21.8162 171.127 13.1849 168.128 69.6889C168.11 70.0123 168.089 70.3307 168.064 70.6442C174.41 71.7076 178.578 74.5266 178.578 82.0002C178.578 94.0002 167.833 94.0002 154.578 94.0002C151.515 94.0002 148.843 93.9127 146.511 93.7462C144.919 93.9126 143.269 94 141.578 94C131.135 94 119.766 90.6648 115.413 86.0084C109.868 85.1674 104.611 84.5 100.079 84.5C89.0505 84.5 79.8868 85.8916 71.8394 87.1136C55.4072 89.609 43.6288 91.3976 30.1276 79.1891Z" fill="url(#paint22_linear_7_6759)"/>
</mask>
<g mask="url(#mask4_7_6759)">
<g style="mix-blend-mode:overlay" opacity="0.4" filter="url(#filter16_f_7_6759)">
<path d="M197.075 54C197.075 71.9493 185.077 86 166.575 86C148.074 86 135.576 76.4493 135.576 58.5C135.576 40.5507 135.074 27.5 153.576 27.5C172.077 27.5 197.075 36.0507 197.075 54Z" fill="url(#paint23_linear_7_6759)"/>
</g>
</g>
<g filter="url(#filter17_d_7_6759)">
<g filter="url(#filter18_ii_7_6759)">
<path d="M142.934 52C134.434 73.4998 142.307 83.5 163.988 83.5C185.668 83.5 180.434 63.8256 177.511 60.9269" stroke="#2B2827" stroke-width="1.5" stroke-linecap="round"/>
<path d="M142.934 52C134.434 73.4998 142.307 83.5 163.988 83.5C185.668 83.5 180.434 63.8256 177.511 60.9269" stroke="url(#paint24_linear_7_6759)" stroke-opacity="0.4" stroke-width="1.5" stroke-linecap="round" style="mix-blend-mode:overlay"/>
<path d="M142.934 52C134.434 73.4998 142.307 83.5 163.988 83.5C185.668 83.5 180.434 63.8256 177.511 60.9269" stroke="url(#paint25_linear_7_6759)" stroke-opacity="0.16" stroke-width="1.5" stroke-linecap="round" style="mix-blend-mode:lighten"/>
</g>
<mask id="mask5_7_6759" style="mask-type:alpha" maskUnits="userSpaceOnUse" x="138" y="51" width="44" height="34">
<path fill-rule="evenodd" clip-rule="evenodd" d="M143.21 51.3025C143.595 51.4548 143.784 51.8906 143.631 52.2758C139.405 62.9663 139.368 70.5193 142.758 75.3836C146.153 80.2543 153.206 82.75 163.988 82.75C169.299 82.75 172.862 81.5454 175.207 79.7812C177.545 78.0229 178.75 75.6508 179.24 73.1561C179.731 70.6493 179.496 68.0326 178.952 65.8588C178.681 64.7745 178.337 63.814 177.979 63.0463C177.614 62.2644 177.257 61.7314 176.983 61.4595C176.689 61.1678 176.687 60.6929 176.978 60.3988C177.27 60.1047 177.745 60.1028 178.039 60.3944C178.496 60.8472 178.942 61.5631 179.338 62.412C179.741 63.275 180.116 64.3272 180.407 65.495C180.99 67.8253 181.256 70.6708 180.712 73.4449C180.165 76.2311 178.796 78.9587 176.109 80.98C173.43 82.9954 169.517 84.25 163.988 84.25C153.089 84.25 145.364 81.7456 141.528 76.2413C137.687 70.7305 137.963 62.5335 142.236 51.7243C142.389 51.3391 142.824 51.1503 143.21 51.3025Z" fill="url(#paint26_linear_7_6759)"/>
</mask>
<g mask="url(#mask5_7_6759)">
<g style="mix-blend-mode:multiply" opacity="0.4" filter="url(#filter19_f_7_6759)">
<circle cx="154.578" cy="68" r="16" fill="black"/>
</g>
</g>
</g>
<mask id="mask6_7_6759" style="mask-type:alpha" maskUnits="userSpaceOnUse" x="154" y="79" width="15" height="12">
<path d="M168.578 84C168.578 87.1812 163.221 90.9999 161.578 90.9999C159.935 90.9999 154.578 87.1812 154.578 84C154.578 80.8188 157.078 77.5 161.578 80.5C166.078 77.4999 168.578 80.8188 168.578 84Z" fill="#D9D9D9"/>
</mask>
<g mask="url(#mask6_7_6759)">
<g filter="url(#filter20_ii_7_6759)">
<rect x="154.578" y="79" width="14" height="12" fill="url(#paint27_radial_7_6759)"/>
</g>
<g opacity="0.64">
<mask id="path-38-outside-1_7_6759" maskUnits="userSpaceOnUse" x="157.578" y="83" width="7" height="3" fill="black">
<rect fill="white" x="157.578" y="83" width="7" height="3"/>
<path d="M158.961 85.5114C158.905 85.5114 158.851 85.5069 158.8 85.498C158.75 85.4898 158.705 85.4782 158.666 85.4634L158.773 85.1154C158.813 85.1296 158.85 85.1388 158.883 85.1429C158.917 85.1471 158.945 85.1447 158.969 85.1358C158.993 85.127 159.011 85.1101 159.022 85.0852L159.032 85.0604L158.553 83.6364H159.064L159.284 84.581H159.299L159.522 83.6364H160.037L159.54 85.1136C159.515 85.1888 159.479 85.2563 159.432 85.3161C159.385 85.3764 159.323 85.4241 159.247 85.459C159.171 85.4939 159.075 85.5114 158.961 85.5114ZM160.792 85.0249C160.644 85.0249 160.517 84.9956 160.412 84.937C160.307 84.8778 160.226 84.7955 160.17 84.6902C160.113 84.5842 160.085 84.4614 160.085 84.3217C160.085 84.1821 160.113 84.0595 160.17 83.9542C160.226 83.8482 160.307 83.766 160.412 83.7074C160.517 83.6482 160.644 83.6186 160.792 83.6186C160.94 83.6186 161.067 83.6482 161.172 83.7074C161.277 83.766 161.358 83.8482 161.414 83.9542C161.471 84.0595 161.499 84.1821 161.499 84.3217C161.499 84.4614 161.471 84.5842 161.414 84.6902C161.358 84.7955 161.277 84.8778 161.172 84.937C161.067 84.9956 160.94 85.0249 160.792 85.0249ZM160.796 84.6626C160.837 84.6626 160.873 84.6487 160.903 84.6209C160.933 84.5931 160.957 84.5534 160.973 84.502C160.99 84.4505 160.998 84.3892 160.998 84.3182C160.998 84.2466 160.99 84.1853 160.973 84.1344C160.957 84.0829 160.933 84.0433 160.903 84.0154C160.873 83.9876 160.837 83.9737 160.796 83.9737C160.752 83.9737 160.714 83.9876 160.683 84.0154C160.651 84.0433 160.627 84.0829 160.611 84.1344C160.594 84.1853 160.586 84.2466 160.586 84.3182C160.586 84.3892 160.594 84.4505 160.611 84.502C160.627 84.5534 160.651 84.5931 160.683 84.6209C160.714 84.6487 160.752 84.6626 160.796 84.6626ZM162.354 85.0249C162.207 85.0249 162.08 84.9956 161.975 84.937C161.869 84.8778 161.788 84.7955 161.732 84.6902C161.676 84.5842 161.648 84.4614 161.648 84.3217C161.648 84.1821 161.676 84.0595 161.732 83.9542C161.788 83.8482 161.869 83.766 161.975 83.7074C162.08 83.6482 162.207 83.6186 162.354 83.6186C162.502 83.6186 162.629 83.6482 162.734 83.7074C162.84 83.766 162.921 83.8482 162.977 83.9542C163.033 84.0595 163.061 84.1821 163.061 84.3217C163.061 84.4614 163.033 84.5842 162.977 84.6902C162.921 84.7955 162.84 84.8778 162.734 84.937C162.629 84.9956 162.502 85.0249 162.354 85.0249ZM162.358 84.6626C162.399 84.6626 162.435 84.6487 162.465 84.6209C162.496 84.5931 162.519 84.5534 162.536 84.502C162.552 84.4505 162.56 84.3892 162.56 84.3182C162.56 84.2466 162.552 84.1853 162.536 84.1344C162.519 84.0829 162.496 84.0433 162.465 84.0154C162.435 83.9876 162.399 83.9737 162.358 83.9737C162.314 83.9737 162.277 83.9876 162.245 84.0154C162.214 84.0433 162.19 84.0829 162.173 84.1344C162.157 84.1853 162.149 84.2466 162.149 84.3182C162.149 84.3892 162.157 84.4505 162.173 84.502C162.19 84.5534 162.214 84.5931 162.245 84.6209C162.277 84.6487 162.314 84.6626 162.358 84.6626ZM163.274 85V84.7301L163.871 84.0163V84.0092H163.296V83.6364H164.45V83.9347L163.906 84.62V84.6271H164.471V85H163.274Z"/>
</mask>
<g filter="url(#filter21_i_7_6759)">
<path d="M158.961 85.5114C158.905 85.5114 158.851 85.5069 158.8 85.498C158.75 85.4898 158.705 85.4782 158.666 85.4634L158.773 85.1154C158.813 85.1296 158.85 85.1388 158.883 85.1429C158.917 85.1471 158.945 85.1447 158.969 85.1358C158.993 85.127 159.011 85.1101 159.022 85.0852L159.032 85.0604L158.553 83.6364H159.064L159.284 84.581H159.299L159.522 83.6364H160.037L159.54 85.1136C159.515 85.1888 159.479 85.2563 159.432 85.3161C159.385 85.3764 159.323 85.4241 159.247 85.459C159.171 85.4939 159.075 85.5114 158.961 85.5114ZM160.792 85.0249C160.644 85.0249 160.517 84.9956 160.412 84.937C160.307 84.8778 160.226 84.7955 160.17 84.6902C160.113 84.5842 160.085 84.4614 160.085 84.3217C160.085 84.1821 160.113 84.0595 160.17 83.9542C160.226 83.8482 160.307 83.766 160.412 83.7074C160.517 83.6482 160.644 83.6186 160.792 83.6186C160.94 83.6186 161.067 83.6482 161.172 83.7074C161.277 83.766 161.358 83.8482 161.414 83.9542C161.471 84.0595 161.499 84.1821 161.499 84.3217C161.499 84.4614 161.471 84.5842 161.414 84.6902C161.358 84.7955 161.277 84.8778 161.172 84.937C161.067 84.9956 160.94 85.0249 160.792 85.0249ZM160.796 84.6626C160.837 84.6626 160.873 84.6487 160.903 84.6209C160.933 84.5931 160.957 84.5534 160.973 84.502C160.99 84.4505 160.998 84.3892 160.998 84.3182C160.998 84.2466 160.99 84.1853 160.973 84.1344C160.957 84.0829 160.933 84.0433 160.903 84.0154C160.873 83.9876 160.837 83.9737 160.796 83.9737C160.752 83.9737 160.714 83.9876 160.683 84.0154C160.651 84.0433 160.627 84.0829 160.611 84.1344C160.594 84.1853 160.586 84.2466 160.586 84.3182C160.586 84.3892 160.594 84.4505 160.611 84.502C160.627 84.5534 160.651 84.5931 160.683 84.6209C160.714 84.6487 160.752 84.6626 160.796 84.6626ZM162.354 85.0249C162.207 85.0249 162.08 84.9956 161.975 84.937C161.869 84.8778 161.788 84.7955 161.732 84.6902C161.676 84.5842 161.648 84.4614 161.648 84.3217C161.648 84.1821 161.676 84.0595 161.732 83.9542C161.788 83.8482 161.869 83.766 161.975 83.7074C162.08 83.6482 162.207 83.6186 162.354 83.6186C162.502 83.6186 162.629 83.6482 162.734 83.7074C162.84 83.766 162.921 83.8482 162.977 83.9542C163.033 84.0595 163.061 84.1821 163.061 84.3217C163.061 84.4614 163.033 84.5842 162.977 84.6902C162.921 84.7955 162.84 84.8778 162.734 84.937C162.629 84.9956 162.502 85.0249 162.354 85.0249ZM162.358 84.6626C162.399 84.6626 162.435 84.6487 162.465 84.6209C162.496 84.5931 162.519 84.5534 162.536 84.502C162.552 84.4505 162.56 84.3892 162.56 84.3182C162.56 84.2466 162.552 84.1853 162.536 84.1344C162.519 84.0829 162.496 84.0433 162.465 84.0154C162.435 83.9876 162.399 83.9737 162.358 83.9737C162.314 83.9737 162.277 83.9876 162.245 84.0154C162.214 84.0433 162.19 84.0829 162.173 84.1344C162.157 84.1853 162.149 84.2466 162.149 84.3182C162.149 84.3892 162.157 84.4505 162.173 84.502C162.19 84.5534 162.214 84.5931 162.245 84.6209C162.277 84.6487 162.314 84.6626 162.358 84.6626ZM163.274 85V84.7301L163.871 84.0163V84.0092H163.296V83.6364H164.45V83.9347L163.906 84.62V84.6271H164.471V85H163.274Z" fill="url(#paint28_linear_7_6759)"/>
</g>
<path d="M158.8 85.498L158.809 85.4488L158.809 85.4487L158.8 85.498ZM158.666 85.4634L158.619 85.4488L158.605 85.4934L158.648 85.5101L158.666 85.4634ZM158.773 85.1154L158.79 85.0683L158.74 85.0509L158.725 85.1008L158.773 85.1154ZM158.883 85.1429L158.877 85.1925L158.877 85.1926L158.883 85.1429ZM158.969 85.1358L158.952 85.0889L158.952 85.089L158.969 85.1358ZM159.022 85.0852L159.067 85.1049L159.067 85.1049L159.022 85.0852ZM159.032 85.0604L159.078 85.0801L159.086 85.0625L159.08 85.0444L159.032 85.0604ZM158.553 83.6364V83.5864H158.483L158.505 83.6523L158.553 83.6364ZM159.064 83.6364L159.113 83.625L159.104 83.5864H159.064V83.6364ZM159.284 84.581L159.236 84.5923L159.245 84.631H159.284V84.581ZM159.299 84.581V84.631H159.338L159.347 84.5925L159.299 84.581ZM159.522 83.6364V83.5864H159.483L159.474 83.6248L159.522 83.6364ZM160.037 83.6364L160.085 83.6523L160.107 83.5864H160.037V83.6364ZM159.54 85.1136L159.493 85.0977L159.493 85.0979L159.54 85.1136ZM159.432 85.3161L159.392 85.285L159.392 85.2854L159.432 85.3161ZM159.247 85.459L159.226 85.4135L159.226 85.4135L159.247 85.459ZM158.961 85.4614C158.908 85.4614 158.857 85.4571 158.809 85.4488L158.792 85.5473C158.846 85.5567 158.902 85.5614 158.961 85.5614V85.4614ZM158.809 85.4487C158.76 85.4408 158.719 85.4301 158.684 85.4168L158.648 85.5101C158.691 85.5264 158.739 85.5387 158.792 85.5474L158.809 85.4487ZM158.714 85.4781L158.821 85.13L158.725 85.1008L158.619 85.4488L158.714 85.4781ZM158.756 85.1626C158.799 85.1776 158.839 85.1879 158.877 85.1925L158.889 85.0933C158.86 85.0897 158.827 85.0816 158.79 85.0683L158.756 85.1626ZM158.877 85.1926C158.916 85.1974 158.953 85.1952 158.987 85.1826L158.952 85.089C158.938 85.0943 158.918 85.0968 158.889 85.0933L158.877 85.1926ZM158.986 85.1828C159.024 85.1689 159.052 85.1418 159.067 85.1049L158.976 85.0655C158.97 85.0784 158.963 85.085 158.952 85.0889L158.986 85.1828ZM159.067 85.1049L159.078 85.0801L158.986 85.0407L158.976 85.0655L159.067 85.1049ZM159.08 85.0444L158.6 83.6204L158.505 83.6523L158.985 85.0763L159.08 85.0444ZM158.553 83.6864H159.064V83.5864H158.553V83.6864ZM159.015 83.6477L159.236 84.5923L159.333 84.5696L159.113 83.625L159.015 83.6477ZM159.284 84.631H159.299V84.531H159.284V84.631ZM159.347 84.5925L159.571 83.6479L159.474 83.6248L159.25 84.5694L159.347 84.5925ZM159.522 83.6864H160.037V83.5864H159.522V83.6864ZM159.99 83.6204L159.493 85.0977L159.587 85.1296L160.085 83.6523L159.99 83.6204ZM159.493 85.0979C159.469 85.1678 159.436 85.23 159.392 85.285L159.471 85.3471C159.522 85.2826 159.561 85.2098 159.587 85.1293L159.493 85.0979ZM159.392 85.2854C159.351 85.3388 159.296 85.3816 159.226 85.4135L159.268 85.5045C159.351 85.4665 159.419 85.414 159.471 85.3467L159.392 85.2854ZM159.226 85.4135C159.158 85.4446 159.071 85.4614 158.961 85.4614V85.5614C159.08 85.5614 159.183 85.5432 159.268 85.5045L159.226 85.4135ZM160.412 84.937L160.388 84.9806L160.388 84.9807L160.412 84.937ZM160.17 84.6902L160.125 84.7136L160.126 84.7137L160.17 84.6902ZM160.17 83.9542L160.214 83.9777L160.214 83.9776L160.17 83.9542ZM160.412 83.7074L160.436 83.7511L160.437 83.751L160.412 83.7074ZM161.172 83.7074L161.147 83.751L161.148 83.7511L161.172 83.7074ZM161.414 83.9542L161.37 83.9776L161.37 83.9777L161.414 83.9542ZM161.414 84.6902L161.458 84.7137L161.458 84.7136L161.414 84.6902ZM161.172 84.937L161.196 84.9807L161.196 84.9806L161.172 84.937ZM160.903 84.6209L160.937 84.6577L160.937 84.6577L160.903 84.6209ZM160.973 84.502L161.021 84.5173L161.021 84.5173L160.973 84.502ZM160.973 84.1344L160.926 84.1497L160.926 84.1499L160.973 84.1344ZM160.903 84.0154L160.937 83.9787L160.937 83.9787L160.903 84.0154ZM160.611 84.1344L160.658 84.1499L160.658 84.1497L160.611 84.1344ZM160.611 84.502L160.658 84.4866L160.658 84.4866L160.611 84.502ZM160.792 84.9749C160.651 84.9749 160.533 84.9469 160.436 84.8933L160.388 84.9807C160.502 85.0442 160.637 85.0749 160.792 85.0749V84.9749ZM160.437 84.8934C160.339 84.8388 160.265 84.7634 160.214 84.6666L160.126 84.7137C160.186 84.8276 160.274 84.9168 160.388 84.9806L160.437 84.8934ZM160.214 84.6667C160.162 84.5691 160.135 84.4546 160.135 84.3217H160.035C160.035 84.4682 160.065 84.5993 160.125 84.7136L160.214 84.6667ZM160.135 84.3217C160.135 84.1889 160.162 84.0747 160.214 83.9777L160.126 83.9306C160.065 84.0444 160.035 84.1752 160.035 84.3217H160.135ZM160.214 83.9776C160.265 83.8803 160.339 83.805 160.436 83.7511L160.388 83.6637C160.274 83.727 160.186 83.8162 160.125 83.9308L160.214 83.9776ZM160.437 83.751C160.533 83.6968 160.651 83.6686 160.792 83.6686V83.5686C160.637 83.5686 160.502 83.5996 160.388 83.6638L160.437 83.751ZM160.792 83.6686C160.933 83.6686 161.051 83.6968 161.147 83.751L161.196 83.6638C161.082 83.5996 160.947 83.5686 160.792 83.5686V83.6686ZM161.148 83.7511C161.245 83.805 161.318 83.8803 161.37 83.9776L161.458 83.9308C161.398 83.8162 161.31 83.727 161.196 83.6637L161.148 83.7511ZM161.37 83.9777C161.422 84.0747 161.449 84.1889 161.449 84.3217H161.549C161.549 84.1752 161.519 84.0444 161.458 83.9306L161.37 83.9777ZM161.449 84.3217C161.449 84.4546 161.422 84.5691 161.37 84.6667L161.458 84.7136C161.519 84.5993 161.549 84.4682 161.549 84.3217H161.449ZM161.37 84.6666C161.319 84.7634 161.245 84.8388 161.147 84.8934L161.196 84.9806C161.31 84.9168 161.398 84.8276 161.458 84.7137L161.37 84.6666ZM161.148 84.8933C161.051 84.9469 160.933 84.9749 160.792 84.9749V85.0749C160.947 85.0749 161.082 85.0442 161.196 84.9807L161.148 84.8933ZM160.796 84.7126C160.849 84.7126 160.897 84.6941 160.937 84.6577L160.869 84.5841C160.848 84.6034 160.825 84.6126 160.796 84.6126V84.7126ZM160.937 84.6577C160.975 84.6224 161.002 84.5744 161.021 84.5173L160.926 84.4866C160.911 84.5324 160.891 84.5637 160.869 84.5841L160.937 84.6577ZM161.021 84.5173C161.039 84.4596 161.048 84.3929 161.048 84.3182H160.948C160.948 84.3855 160.94 84.4414 160.926 84.4866L161.021 84.5173ZM161.048 84.3182C161.048 84.243 161.039 84.1762 161.021 84.1189L160.926 84.1499C160.94 84.1944 160.948 84.2502 160.948 84.3182H161.048ZM161.021 84.1191C161.002 84.0619 160.975 84.0139 160.937 83.9787L160.869 84.0522C160.891 84.0726 160.911 84.1039 160.926 84.1497L161.021 84.1191ZM160.937 83.9787C160.897 83.9423 160.849 83.9237 160.796 83.9237V84.0237C160.825 84.0237 160.848 84.033 160.869 84.0522L160.937 83.9787ZM160.796 83.9237C160.74 83.9237 160.691 83.9417 160.65 83.978L160.716 84.0529C160.738 84.0335 160.763 84.0237 160.796 84.0237V83.9237ZM160.65 83.978C160.61 84.0133 160.582 84.0615 160.563 84.1191L160.658 84.1497C160.673 84.1043 160.693 84.0732 160.716 84.0529L160.65 83.978ZM160.563 84.1189C160.545 84.1762 160.536 84.243 160.536 84.3182H160.636C160.636 84.2502 160.644 84.1944 160.658 84.1499L160.563 84.1189ZM160.536 84.3182C160.536 84.3929 160.545 84.4596 160.563 84.5173L160.658 84.4866C160.644 84.4414 160.636 84.3855 160.636 84.3182H160.536ZM160.563 84.5173C160.582 84.5749 160.61 84.6231 160.65 84.6583L160.716 84.5835C160.693 84.5631 160.673 84.532 160.658 84.4866L160.563 84.5173ZM160.65 84.6583C160.691 84.6946 160.74 84.7126 160.796 84.7126V84.6126C160.763 84.6126 160.738 84.6028 160.716 84.5835L160.65 84.6583ZM161.975 84.937L161.95 84.9806L161.95 84.9807L161.975 84.937ZM161.732 84.6902L161.688 84.7136L161.688 84.7137L161.732 84.6902ZM161.732 83.9542L161.776 83.9777L161.776 83.9776L161.732 83.9542ZM161.975 83.7074L161.999 83.7511L161.999 83.751L161.975 83.7074ZM162.734 83.7074L162.71 83.751L162.71 83.7511L162.734 83.7074ZM162.977 83.9542L162.933 83.9776L162.933 83.9777L162.977 83.9542ZM162.977 84.6902L163.021 84.7137L163.021 84.7136L162.977 84.6902ZM162.734 84.937L162.759 84.9807L162.759 84.9806L162.734 84.937ZM162.465 84.6209L162.499 84.6577L162.499 84.6577L162.465 84.6209ZM162.536 84.502L162.583 84.5173L162.583 84.5173L162.536 84.502ZM162.536 84.1344L162.488 84.1497L162.488 84.1499L162.536 84.1344ZM162.465 84.0154L162.499 83.9787L162.499 83.9787L162.465 84.0154ZM162.173 84.1344L162.221 84.1499L162.221 84.1497L162.173 84.1344ZM162.173 84.502L162.221 84.4866L162.221 84.4866L162.173 84.502ZM162.354 84.9749C162.213 84.9749 162.095 84.9469 161.999 84.8933L161.95 84.9807C162.065 85.0442 162.2 85.0749 162.354 85.0749V84.9749ZM161.999 84.8934C161.902 84.8388 161.828 84.7634 161.776 84.6666L161.688 84.7137C161.749 84.8276 161.836 84.9168 161.95 84.9806L161.999 84.8934ZM161.776 84.6667C161.725 84.5691 161.698 84.4546 161.698 84.3217H161.598C161.598 84.4682 161.627 84.5993 161.688 84.7136L161.776 84.6667ZM161.698 84.3217C161.698 84.1889 161.725 84.0747 161.776 83.9777L161.688 83.9306C161.627 84.0444 161.598 84.1752 161.598 84.3217H161.698ZM161.776 83.9776C161.828 83.8803 161.902 83.805 161.999 83.7511L161.95 83.6637C161.836 83.727 161.749 83.8162 161.688 83.9308L161.776 83.9776ZM161.999 83.751C162.095 83.6968 162.213 83.6686 162.354 83.6686V83.5686C162.2 83.5686 162.064 83.5996 161.95 83.6638L161.999 83.751ZM162.354 83.6686C162.496 83.6686 162.614 83.6968 162.71 83.751L162.759 83.6638C162.645 83.5996 162.509 83.5686 162.354 83.5686V83.6686ZM162.71 83.7511C162.807 83.805 162.881 83.8803 162.933 83.9776L163.021 83.9308C162.96 83.8162 162.873 83.727 162.759 83.6637L162.71 83.7511ZM162.933 83.9777C162.984 84.0747 163.011 84.1889 163.011 84.3217H163.111C163.111 84.1752 163.082 84.0444 163.021 83.9306L162.933 83.9777ZM163.011 84.3217C163.011 84.4546 162.984 84.5691 162.933 84.6667L163.021 84.7136C163.082 84.5993 163.111 84.4682 163.111 84.3217H163.011ZM162.933 84.6666C162.881 84.7634 162.807 84.8388 162.71 84.8934L162.759 84.9806C162.873 84.9168 162.96 84.8276 163.021 84.7137L162.933 84.6666ZM162.71 84.8933C162.614 84.9469 162.496 84.9749 162.354 84.9749V85.0749C162.509 85.0749 162.644 85.0442 162.759 84.9807L162.71 84.8933ZM162.358 84.7126C162.412 84.7126 162.46 84.6941 162.499 84.6577L162.432 84.5841C162.411 84.6034 162.387 84.6126 162.358 84.6126V84.7126ZM162.499 84.6577C162.538 84.6224 162.565 84.5744 162.583 84.5173L162.488 84.4866C162.473 84.5324 162.454 84.5637 162.432 84.5841L162.499 84.6577ZM162.583 84.5173C162.602 84.4596 162.61 84.3929 162.61 84.3182H162.51C162.51 84.3855 162.503 84.4414 162.488 84.4866L162.583 84.5173ZM162.61 84.3182C162.61 84.243 162.602 84.1762 162.583 84.1189L162.488 84.1499C162.503 84.1944 162.51 84.2502 162.51 84.3182H162.61ZM162.583 84.1191C162.565 84.0619 162.538 84.0139 162.499 83.9787L162.432 84.0522C162.454 84.0726 162.473 84.1039 162.488 84.1497L162.583 84.1191ZM162.499 83.9787C162.46 83.9423 162.412 83.9237 162.358 83.9237V84.0237C162.387 84.0237 162.411 84.033 162.432 84.0522L162.499 83.9787ZM162.358 83.9237C162.303 83.9237 162.253 83.9417 162.212 83.978L162.278 84.0529C162.3 84.0335 162.326 84.0237 162.358 84.0237V83.9237ZM162.212 83.978C162.172 84.0133 162.144 84.0615 162.126 84.1191L162.221 84.1497C162.236 84.1043 162.255 84.0732 162.278 84.0529L162.212 83.978ZM162.126 84.1189C162.107 84.1762 162.099 84.243 162.099 84.3182H162.199C162.199 84.2502 162.206 84.1944 162.221 84.1499L162.126 84.1189ZM162.099 84.3182C162.099 84.3929 162.107 84.4596 162.126 84.5173L162.221 84.4866C162.206 84.4414 162.199 84.3855 162.199 84.3182H162.099ZM162.126 84.5173C162.144 84.5749 162.172 84.6231 162.212 84.6583L162.278 84.5835C162.255 84.5631 162.236 84.532 162.221 84.4866L162.126 84.5173ZM162.212 84.6583C162.253 84.6946 162.303 84.7126 162.358 84.7126V84.6126C162.326 84.6126 162.3 84.6028 162.278 84.5835L162.212 84.6583ZM163.274 85H163.224V85.05H163.274V85ZM163.274 84.7301L163.236 84.698L163.224 84.712V84.7301H163.274ZM163.871 84.0163L163.909 84.0484L163.921 84.0345V84.0163H163.871ZM163.871 84.0092H163.921V83.9592H163.871V84.0092ZM163.296 84.0092H163.246V84.0592H163.296V84.0092ZM163.296 83.6364V83.5864H163.246V83.6364H163.296ZM164.45 83.6364H164.5V83.5864H164.45V83.6364ZM164.45 83.9347L164.489 83.9657L164.5 83.9521V83.9347H164.45ZM163.906 84.62L163.867 84.589L163.856 84.6026V84.62H163.906ZM163.906 84.6271H163.856V84.6771H163.906V84.6271ZM164.471 84.6271H164.521V84.5771H164.471V84.6271ZM164.471 85V85.05H164.521V85H164.471ZM163.324 85V84.7301H163.224V85H163.324ZM163.313 84.7622L163.909 84.0484L163.832 83.9843L163.236 84.698L163.313 84.7622ZM163.921 84.0163V84.0092H163.821V84.0163H163.921ZM163.871 83.9592H163.296V84.0592H163.871V83.9592ZM163.346 84.0092V83.6364H163.246V84.0092H163.346ZM163.296 83.6864H164.45V83.5864H163.296V83.6864ZM164.4 83.6364V83.9347H164.5V83.6364H164.4ZM164.41 83.9036L163.867 84.589L163.946 84.6511L164.489 83.9657L164.41 83.9036ZM163.856 84.62V84.6271H163.956V84.62H163.856ZM163.906 84.6771H164.471V84.5771H163.906V84.6771ZM164.421 84.6271V85H164.521V84.6271H164.421ZM164.471 84.95H163.274V85.05H164.471V84.95Z" fill="url(#paint29_linear_7_6759)" fill-opacity="0.8" mask="url(#path-38-outside-1_7_6759)"/>
</g>
</g>
<g filter="url(#filter22_iiii_7_6759)">
<path d="M140.502 31.1876C145.057 19.9848 148.093 12.5162 150.508 13.1633C152.923 13.8103 162.444 24.6435 162.444 24.6435C166.083 24.5835 174.293 26.7834 174.293 26.7834L160.058 79.9093C160.058 79.9093 140.74 74.733 135.471 63.4861C130.203 52.2393 135.947 42.3905 140.502 31.1876Z" fill="#919597"/>
<path d="M140.502 31.1876C145.057 19.9848 148.093 12.5162 150.508 13.1633C152.923 13.8103 162.444 24.6435 162.444 24.6435C166.083 24.5835 174.293 26.7834 174.293 26.7834L160.058 79.9093C160.058 79.9093 140.74 74.733 135.471 63.4861C130.203 52.2393 135.947 42.3905 140.502 31.1876Z" fill="url(#paint30_linear_7_6759)" fill-opacity="0.24" style="mix-blend-mode:overlay"/>
<mask id="mask7_7_6759" style="mask-type:alpha" maskUnits="userSpaceOnUse" x="133" y="13" width="42" height="67">
<path d="M140.502 31.1877C145.057 19.9849 148.094 12.5163 150.509 13.1633C152.923 13.8103 162.444 24.6436 162.444 24.6436C166.083 24.5835 174.294 26.7835 174.294 26.7835L160.059 79.9094C160.059 79.9094 140.74 74.733 135.472 63.4862C130.203 52.2393 135.947 42.3905 140.502 31.1877Z" fill="black"/>
</mask>
<g mask="url(#mask7_7_6759)">
<path opacity="0.4" d="M140.528 36.8884C137.923 40.6923 147.705 13.9652 149.637 14.4829C151.569 15.0006 160.302 22.6033 160.833 24.5847C161.364 26.566 149.051 24.4405 140.528 36.8884Z" fill="url(#paint31_linear_7_6759)"/>
<g style="mix-blend-mode:overlay">
<path d="M140.528 36.8885C137.923 40.6923 147.705 13.9652 149.637 14.4829C151.569 15.0006 160.302 22.6034 160.833 24.5847C161.364 26.566 149.051 24.4405 140.528 36.8885Z" fill="url(#paint32_linear_7_6759)"/>
</g>
<g style="mix-blend-mode:overlay" opacity="0.64">
<path d="M140.528 36.8886C137.923 40.6924 147.705 13.9653 149.637 14.483C151.569 15.0007 160.302 22.6035 160.833 24.5848C161.364 26.5661 149.051 24.4407 140.528 36.8886Z" fill="url(#paint33_linear_7_6759)"/>
</g>
<g style="mix-blend-mode:overlay" opacity="0.24" filter="url(#filter23_f_7_6759)">
<ellipse cx="154.938" cy="52.6555" rx="11" ry="6" transform="rotate(11 154.938 52.6555)" fill="url(#paint34_radial_7_6759)"/>
</g>
<g style="mix-blend-mode:overlay" opacity="0.24" filter="url(#filter24_f_7_6759)">
<ellipse cx="135.222" cy="54.1544" rx="18.0388" ry="6" transform="rotate(90 135.222 54.1544)" fill="url(#paint35_radial_7_6759)"/>
</g>
<g style="mix-blend-mode:overlay" opacity="0.32" filter="url(#filter25_f_7_6759)">
<path d="M184.727 38.0749C183.268 43.5197 178.873 51.4237 171.631 49.4832C164.389 47.5426 153.135 32.3379 154.594 26.8931C156.053 21.4483 170.76 23.766 178.002 25.7065C185.244 27.6471 186.186 32.6301 184.727 38.0749Z" fill="url(#paint36_radial_7_6759)"/>
</g>
<g style="mix-blend-mode:overlay" opacity="0.4" filter="url(#filter26_f_7_6759)">
<path d="M169.577 54.4344C170.187 58.5599 169.854 65.1696 165.483 65.8156C161.112 66.4617 151.208 59.1203 150.598 54.9948C149.988 50.8693 158.449 48.4462 162.82 47.8001C167.191 47.154 168.967 50.3089 169.577 54.4344Z" fill="url(#paint37_radial_7_6759)"/>
</g>
<g style="mix-blend-mode:overlay" opacity="0.64" filter="url(#filter27_f_7_6759)">
<path d="M168.103 28.0972C164.789 33.8367 163.639 39.3764 162.103 38.4895C160.567 37.6026 162.008 32.2309 165.322 26.4914C168.635 20.7519 175.531 19.684 177.067 20.5709C178.603 21.4578 171.417 22.3577 168.103 28.0972Z" fill="url(#paint38_linear_7_6759)"/>
</g>
<g style="mix-blend-mode:overlay" opacity="0.56" filter="url(#filter28_f_7_6759)">
<path d="M150.781 73.6427C163.847 79.4597 175.724 82.7903 174.724 85.0655C174.571 87.5388 159.904 86.2992 147.044 77.6485C126.981 60.7235 134.199 53.7977 135.376 56.092C137.577 58.5993 135.201 66.7068 150.781 73.6427Z" fill="url(#paint39_linear_7_6759)"/>
</g>
<g style="mix-blend-mode:multiply" opacity="0.24" filter="url(#filter29_f_7_6759)">
<path d="M151.027 68.5945C160.623 72.8447 169.131 75.7607 168.695 76.7524C168.861 77.933 158.67 75.7232 148.905 70.1237C133.293 59.728 137.481 57.1671 138.54 58.407C140.324 59.8624 139.585 63.5268 151.027 68.5945Z" fill="url(#paint40_linear_7_6759)"/>
</g>
<g style="mix-blend-mode:overlay" opacity="0.4" filter="url(#filter30_f_7_6759)">
<path d="M139.981 52.7071C146.15 65.6109 154.666 75.0453 152.181 75.0613C149.861 75.9309 129.255 65.4263 131.901 50.1549C139.16 24.9304 143.954 28.1163 142.34 30.1274C137.785 41.3301 136.62 45.6767 139.981 52.7071Z" fill="url(#paint41_linear_7_6759)"/>
</g>
</g>
<mask id="mask8_7_6759" style="mask-type:alpha" maskUnits="userSpaceOnUse" x="133" y="13" width="42" height="67">
<path d="M140.502 31.1876C145.057 19.9848 148.093 12.5162 150.508 13.1633C152.923 13.8103 162.444 24.6435 162.444 24.6435C166.083 24.5835 174.293 26.7834 174.293 26.7834L160.058 79.9093C160.058 79.9093 140.74 74.733 135.471 63.4861C130.203 52.2393 135.947 42.3905 140.502 31.1876Z" fill="url(#paint42_linear_7_6759)"/>
</mask>
<g mask="url(#mask8_7_6759)">
<g filter="url(#filter31_di_7_6759)">
<path d="M157.716 46.1527C157.144 48.2866 156.503 43.7574 154.37 43.1856C152.236 42.6138 149.416 46.216 149.988 44.0822C150.56 41.9483 152.753 40.682 154.887 41.2538C157.021 41.8255 158.287 44.0189 157.716 46.1527Z" fill="url(#paint43_radial_7_6759)"/>
</g>
<path d="M171.169 53.8987C170.894 54.9246 168.404 57.2989 166.27 56.7271C164.136 56.1554 163.65 52.9835 163.925 51.9576C164.2 50.9317 165.56 50.8428 167.694 51.4145C169.828 51.9863 171.444 52.8728 171.169 53.8987Z" fill="url(#paint44_radial_7_6759)"/>
<g style="mix-blend-mode:soft-light">
<path d="M171.169 53.8987C170.894 54.9246 168.404 57.2989 166.27 56.7271C164.136 56.1554 163.65 52.9835 163.925 51.9576C164.2 50.9317 165.56 50.8428 167.694 51.4145C169.828 51.9863 171.444 52.8728 171.169 53.8987Z" fill="url(#paint45_linear_7_6759)"/>
</g>
<g filter="url(#filter32_f_7_6759)">
<path d="M164.938 65.5629C164.851 65.8861 162.052 64.7403 162.273 63.9177C162.401 63.4379 164.618 63.5315 165.418 63.7459C165.418 63.7459 165.066 65.0831 164.938 65.5629Z" fill="black" fill-opacity="0.4"/>
</g>
<path d="M163.915 59.7197L166.011 57.6931L163.941 65.4205C162.683 65.0836 162.038 63.6901 162.594 62.5133L163.915 59.7197Z" fill="url(#paint46_linear_7_6759)"/>
<path d="M163.915 59.7197L166.011 57.6931L163.941 65.4205C162.683 65.0836 162.038 63.6901 162.594 62.5133L163.915 59.7197Z" fill="url(#paint47_radial_7_6759)" fill-opacity="0.4"/>
<path d="M166.27 56.7272C165.235 60.5909 159.275 61.5822 158.379 57.2008" stroke="black" stroke-width="0.75" stroke-linecap="round" stroke-linejoin="round"/>
</g>
<path d="M147.659 52.7759C144.307 50.9486 141.639 50.1274 137.163 49.4457" stroke="black" stroke-width="0.5" stroke-linecap="round" stroke-linejoin="round"/>
<path d="M148.119 51.2964C146.125 49.4347 144.388 48.1131 141.093 47.148" stroke="black" stroke-width="0.5" stroke-linecap="round" stroke-linejoin="round"/>
<path d="M147.391 54.0917C144.734 53.4764 142.569 53.2002 139.232 54.012" stroke="black" stroke-width="0.5" stroke-linecap="round" stroke-linejoin="round"/>
<path d="M201.356 47.4934C203.013 35.514 204.117 27.5278 201.703 26.8808C199.288 26.2337 185.626 30.8553 185.626 30.8553C182.504 28.9835 174.294 26.7836 174.294 26.7836L160.059 79.9095C160.059 79.9095 179.377 85.0859 189.564 77.9801C199.75 70.8744 199.699 59.4728 201.356 47.4934Z" fill="#919597"/>
<path d="M201.356 47.4934C203.013 35.514 204.117 27.5278 201.703 26.8808C199.288 26.2337 185.626 30.8553 185.626 30.8553C182.504 28.9835 174.294 26.7836 174.294 26.7836L160.059 79.9095C160.059 79.9095 179.377 85.0859 189.564 77.9801C199.75 70.8744 199.699 59.4728 201.356 47.4934Z" fill="url(#paint48_linear_7_6759)" fill-opacity="0.24" style="mix-blend-mode:overlay"/>
<mask id="mask9_7_6759" style="mask-type:alpha" maskUnits="userSpaceOnUse" x="160" y="26" width="44" height="56">
<path d="M201.356 47.4934C203.013 35.514 204.117 27.5278 201.702 26.8807C199.288 26.2337 185.626 30.8553 185.626 30.8553C182.504 28.9835 174.294 26.7835 174.294 26.7835L160.059 79.9095C160.059 79.9095 179.377 85.0858 189.563 77.9801C199.75 70.8743 199.699 59.4728 201.356 47.4934Z" fill="black"/>
</mask>
<g mask="url(#mask9_7_6759)">
<path opacity="0.4" d="M198.483 52.4176C198.837 57.0141 203.729 28.9768 201.797 28.4591C199.865 27.9415 188.501 30.1591 187.05 31.6095C185.6 33.0599 197.326 37.376 198.483 52.4176Z" fill="url(#paint49_linear_7_6759)"/>
<g style="mix-blend-mode:overlay">
<path d="M198.483 52.4176C198.837 57.0141 203.729 28.9768 201.797 28.4591C199.865 27.9415 188.501 30.1591 187.05 31.6096C185.6 33.06 197.326 37.376 198.483 52.4176Z" fill="url(#paint50_linear_7_6759)"/>
</g>
<g style="mix-blend-mode:overlay" opacity="0.64">
<path d="M198.483 52.4178C198.837 57.0142 203.729 28.9769 201.797 28.4593C199.865 27.9416 188.501 30.1593 187.05 31.6097C185.6 33.0601 197.326 37.3762 198.483 52.4178Z" fill="url(#paint51_linear_7_6759)"/>
</g>
<g style="mix-blend-mode:overlay" opacity="0.24" filter="url(#filter33_f_7_6759)">
<ellipse cx="11" cy="6" rx="11" ry="6" transform="matrix(-0.945519 -0.325568 -0.325568 0.945519 190.474 56.7754)" fill="url(#paint52_radial_7_6759)"/>
</g>
<g style="mix-blend-mode:overlay" opacity="0.24" filter="url(#filter34_f_7_6759)">
<ellipse cx="18.0388" cy="6" rx="18.0388" ry="6" transform="matrix(-0.5 0.866025 0.866025 0.5 198.269 51.4012)" fill="url(#paint53_radial_7_6759)"/>
</g>
<g style="mix-blend-mode:overlay" opacity="0.32" filter="url(#filter35_f_7_6759)">
<path d="M159.613 31.3456C158.154 36.7903 158.008 45.8328 165.25 47.7734C172.492 49.7139 189.84 42.173 191.299 36.7282C192.758 31.2835 178.863 25.9373 171.621 23.9967C164.379 22.0562 161.072 25.9008 159.613 31.3456Z" fill="url(#paint54_radial_7_6759)"/>
</g>
<g style="mix-blend-mode:overlay" opacity="0.4" filter="url(#filter36_f_7_6759)">
<path d="M164.553 53.0881C161.962 56.356 158.946 62.2467 162.408 64.9916C165.87 67.7365 178.118 66.3309 180.709 63.0631C183.3 59.7952 177.184 53.4661 173.722 50.7212C170.26 47.9763 167.144 49.8203 164.553 53.0881Z" fill="url(#paint55_radial_7_6759)"/>
</g>
<g style="mix-blend-mode:overlay" opacity="0.64" filter="url(#filter37_f_7_6759)">
<path d="M178.998 31.0166C178.998 37.644 177.224 43.0166 178.998 43.0166C180.772 43.0166 182.21 37.644 182.21 31.0166C182.21 24.3892 176.772 20.0166 174.998 20.0166C173.224 20.0166 178.998 24.3892 178.998 31.0166Z" fill="url(#paint56_linear_7_6759)"/>
</g>
<g style="mix-blend-mode:overlay" opacity="0.56" filter="url(#filter38_f_7_6759)">
<path d="M171.227 79.1214C157.003 77.6258 145.051 74.5717 144.78 77.0421C143.676 79.2608 156.998 85.5206 172.46 84.4589C198.298 79.8328 195.51 70.226 193.343 71.6244C190.184 72.6955 188.187 80.9046 171.227 79.1214Z" fill="url(#paint57_linear_7_6759)"/>
</g>
<g style="mix-blend-mode:multiply" opacity="0.24" filter="url(#filter39_f_7_6759)">
<path d="M173.538 74.6264C163.102 73.5091 154.276 71.7804 154.158 72.8573C153.424 73.7966 163.354 76.9782 174.611 77.0118C193.329 75.8145 190.982 71.5027 189.446 72.0472C187.173 72.4156 185.981 75.9585 173.538 74.6264Z" fill="url(#paint58_linear_7_6759)"/>
</g>
<g style="mix-blend-mode:overlay" opacity="0.4" filter="url(#filter40_f_7_6759)">
<path d="M191.047 66.3903C179.253 74.4807 167.161 78.3932 169.305 79.6496C170.88 81.563 193.977 82.7686 199.321 68.2201C205.647 42.7457 199.902 43.1076 200.294 45.6562C198.638 57.6357 197.473 61.9823 191.047 66.3903Z" fill="url(#paint59_linear_7_6759)"/>
</g>
</g>
<mask id="mask10_7_6759" style="mask-type:alpha" maskUnits="userSpaceOnUse" x="160" y="26" width="44" height="56">
<path d="M201.356 47.4934C203.013 35.514 204.117 27.5278 201.703 26.8808C199.288 26.2337 185.626 30.8553 185.626 30.8553C182.504 28.9835 174.294 26.7836 174.294 26.7836L160.059 79.9095C160.059 79.9095 179.377 85.0859 189.564 77.9801C199.75 70.8744 199.699 59.4728 201.356 47.4934Z" fill="url(#paint60_linear_7_6759)"/>
</mask>
<g mask="url(#mask10_7_6759)">
<g filter="url(#filter41_di_7_6759)">
<path d="M178.966 51.8469C178.395 53.9807 181.214 50.3785 183.348 50.9503C185.482 51.5221 186.122 56.0513 186.694 53.9174C187.265 51.7835 185.999 49.5902 183.865 49.0184C181.731 48.4467 179.538 49.713 178.966 51.8469Z" fill="url(#paint61_radial_7_6759)"/>
</g>
<path d="M163.442 51.8283C163.167 52.8542 164.137 56.1555 166.27 56.7273C168.404 57.299 170.412 54.7953 170.686 53.7694C170.961 52.7435 169.828 51.9864 167.694 51.4147C165.56 50.8429 163.717 50.8024 163.442 51.8283Z" fill="url(#paint62_radial_7_6759)"/>
<g style="mix-blend-mode:soft-light">
<path d="M163.442 51.8283C163.167 52.8542 164.137 56.1555 166.27 56.7273C168.404 57.299 170.412 54.7953 170.686 53.7694C170.961 52.7435 169.828 51.9864 167.694 51.4147C165.56 50.8429 163.717 50.8024 163.442 51.8283Z" fill="url(#paint63_linear_7_6759)"/>
</g>
<g filter="url(#filter42_f_7_6759)">
<path d="M163.006 65.0454C162.92 65.3686 165.917 65.7757 166.137 64.9531C166.266 64.4733 164.299 63.4459 163.499 63.2315C163.499 63.2315 163.135 64.5656 163.006 65.0454Z" fill="black" fill-opacity="0.4"/>
</g>
<path d="M166.814 60.4962L166.012 57.6932L163.941 65.4206C165.199 65.7575 166.454 64.8734 166.561 63.576L166.814 60.4962Z" fill="url(#paint64_linear_7_6759)"/>
<path d="M166.814 60.4962L166.012 57.6932L163.941 65.4206C165.199 65.7575 166.454 64.8734 166.561 63.576L166.814 60.4962Z" fill="url(#paint65_radial_7_6759)" fill-opacity="0.4"/>
<path d="M166.27 56.7273C165.235 60.591 169.901 64.4293 172.868 61.0832" stroke="black" stroke-width="0.75" stroke-linecap="round" stroke-linejoin="round"/>
</g>
<path d="M184.364 62.6109C188.181 62.7045 190.901 63.3272 195.119 64.9748" stroke="black" stroke-width="0.5" stroke-linecap="round" stroke-linejoin="round"/>
<path d="M184.705 61.0997C187.363 60.4844 189.528 60.2082 192.864 61.02" stroke="black" stroke-width="0.5" stroke-linecap="round" stroke-linejoin="round"/>
<path d="M183.938 63.8843C186.547 64.6803 188.56 65.5235 191.043 67.8947" stroke="black" stroke-width="0.5" stroke-linecap="round" stroke-linejoin="round"/>
</g>
<defs>
<filter id="filter0_f_7_6759" x="0" y="60" width="184" height="48" filterUnits="userSpaceOnUse" color-interpolation-filters="sRGB">
<feFlood flood-opacity="0" result="BackgroundImageFix"/>
<feBlend mode="normal" in="SourceGraphic" in2="BackgroundImageFix" result="shape"/>
<feGaussianBlur stdDeviation="6" result="effect1_foregroundBlur_7_6759"/>
</filter>
<filter id="filter1_f_7_6759" x="16" y="74.8965" width="92" height="27.1035" filterUnits="userSpaceOnUse" color-interpolation-filters="sRGB">
<feFlood flood-opacity="0" result="BackgroundImageFix"/>
<feBlend mode="normal" in="SourceGraphic" in2="BackgroundImageFix" result="shape"/>
<feGaussianBlur stdDeviation="4" result="effect1_foregroundBlur_7_6759"/>
</filter>
<filter id="filter2_f_7_6759" x="35" y="73" width="88" height="20" filterUnits="userSpaceOnUse" color-interpolation-filters="sRGB">
<feFlood flood-opacity="0" result="BackgroundImageFix"/>
<feBlend mode="normal" in="SourceGraphic" in2="BackgroundImageFix" result="shape"/>
<feGaussianBlur stdDeviation="4" result="effect1_foregroundBlur_7_6759"/>
</filter>
<filter id="filter3_f_7_6759" x="54.1577" y="70.8289" width="113.774" height="33.1309" filterUnits="userSpaceOnUse" color-interpolation-filters="sRGB">
<feFlood flood-opacity="0" result="BackgroundImageFix"/>
<feBlend mode="normal" in="SourceGraphic" in2="BackgroundImageFix" result="shape"/>
<feGaussianBlur stdDeviation="4" result="effect1_foregroundBlur_7_6759"/>
</filter>
<filter id="filter4_f_7_6759" x="139" y="82" width="48" height="20" filterUnits="userSpaceOnUse" color-interpolation-filters="sRGB">
<feFlood flood-opacity="0" result="BackgroundImageFix"/>
<feBlend mode="normal" in="SourceGraphic" in2="BackgroundImageFix" result="shape"/>
<feGaussianBlur stdDeviation="4" result="effect1_foregroundBlur_7_6759"/>
</filter>
<filter id="filter5_iii_7_6759" x="11.0566" y="23.4993" width="93.0215" height="74.539" filterUnits="userSpaceOnUse" color-interpolation-filters="sRGB">
<feFlood flood-opacity="0" result="BackgroundImageFix"/>
<feBlend mode="normal" in="SourceGraphic" in2="BackgroundImageFix" result="shape"/>
<feColorMatrix in="SourceAlpha" type="matrix" values="0 0 0 0 0 0 0 0 0 0 0 0 0 0 0 0 0 0 127 0" result="hardAlpha"/>
<feOffset dy="4"/>
<feGaussianBlur stdDeviation="5"/>
<feComposite in2="hardAlpha" operator="arithmetic" k2="-1" k3="1"/>
<feColorMatrix type="matrix" values="0 0 0 0 1 0 0 0 0 1 0 0 0 0 1 0 0 0 0.35 0"/>
<feBlend mode="overlay" in2="shape" result="effect1_innerShadow_7_6759"/>
<feColorMatrix in="SourceAlpha" type="matrix" values="0 0 0 0 0 0 0 0 0 0 0 0 0 0 0 0 0 0 127 0" result="hardAlpha"/>
<feOffset dx="2" dy="-4"/>
<feGaussianBlur stdDeviation="4"/>
<feComposite in2="hardAlpha" operator="arithmetic" k2="-1" k3="1"/>
<feColorMatrix type="matrix" values="0 0 0 0 0 0 0 0 0 0 0 0 0 0 0 0 0 0 0.24 0"/>
<feBlend mode="overlay" in2="effect1_innerShadow_7_6759" result="effect2_innerShadow_7_6759"/>
<feColorMatrix in="SourceAlpha" type="matrix" values="0 0 0 0 0 0 0 0 0 0 0 0 0 0 0 0 0 0 127 0" result="hardAlpha"/>
<feOffset dx="-4"/>
<feGaussianBlur stdDeviation="4"/>
<feComposite in2="hardAlpha" operator="arithmetic" k2="-1" k3="1"/>
<feColorMatrix type="matrix" values="0 0 0 0 1 0 0 0 0 1 0 0 0 0 1 0 0 0 0.32 0"/>
<feBlend mode="overlay" in2="effect2_innerShadow_7_6759" result="effect3_innerShadow_7_6759"/>
</filter>
<filter id="filter6_iii_7_6759" x="126.578" y="66" width="54" height="40" filterUnits="userSpaceOnUse" color-interpolation-filters="sRGB">
<feFlood flood-opacity="0" result="BackgroundImageFix"/>
<feBlend mode="normal" in="SourceGraphic" in2="BackgroundImageFix" result="shape"/>
<feColorMatrix in="SourceAlpha" type="matrix" values="0 0 0 0 0 0 0 0 0 0 0 0 0 0 0 0 0 0 127 0" result="hardAlpha"/>
<feOffset dy="12"/>
<feGaussianBlur stdDeviation="12"/>
<feComposite in2="hardAlpha" operator="arithmetic" k2="-1" k3="1"/>
<feColorMatrix type="matrix" values="0 0 0 0 1 0 0 0 0 1 0 0 0 0 1 0 0 0 0.24 0"/>
<feBlend mode="overlay" in2="shape" result="effect1_innerShadow_7_6759"/>
<feColorMatrix in="SourceAlpha" type="matrix" values="0 0 0 0 0 0 0 0 0 0 0 0 0 0 0 0 0 0 127 0" result="hardAlpha"/>
<feOffset dx="2" dy="-4"/>
<feGaussianBlur stdDeviation="4"/>
<feComposite in2="hardAlpha" operator="arithmetic" k2="-1" k3="1"/>
<feColorMatrix type="matrix" values="0 0 0 0 0 0 0 0 0 0 0 0 0 0 0 0 0 0 0.4 0"/>
<feBlend mode="overlay" in2="effect1_innerShadow_7_6759" result="effect2_innerShadow_7_6759"/>
<feColorMatrix in="SourceAlpha" type="matrix" values="0 0 0 0 0 0 0 0 0 0 0 0 0 0 0 0 0 0 127 0" result="hardAlpha"/>
<feOffset dx="-4"/>
<feGaussianBlur stdDeviation="4"/>
<feComposite in2="hardAlpha" operator="arithmetic" k2="-1" k3="1"/>
<feColorMatrix type="matrix" values="0 0 0 0 1 0 0 0 0 1 0 0 0 0 1 0 0 0 0.32 0"/>
<feBlend mode="overlay" in2="effect2_innerShadow_7_6759" result="effect3_innerShadow_7_6759"/>
</filter>
<filter id="filter7_f_7_6759" x="115.454" y="33.9787" width="72.7844" height="71.4513" filterUnits="userSpaceOnUse" color-interpolation-filters="sRGB">
<feFlood flood-opacity="0" result="BackgroundImageFix"/>
<feBlend mode="normal" in="SourceGraphic" in2="BackgroundImageFix" result="shape"/>
<feGaussianBlur stdDeviation="6" result="effect1_foregroundBlur_7_6759"/>
</filter>
<filter id="filter8_iiii_7_6759" x="13.4558" y="-2" width="156.743" height="108" filterUnits="userSpaceOnUse" color-interpolation-filters="sRGB">
<feFlood flood-opacity="0" result="BackgroundImageFix"/>
<feBlend mode="normal" in="SourceGraphic" in2="BackgroundImageFix" result="shape"/>
<feColorMatrix in="SourceAlpha" type="matrix" values="0 0 0 0 0 0 0 0 0 0 0 0 0 0 0 0 0 0 127 0" result="hardAlpha"/>
<feOffset dy="12"/>
<feGaussianBlur stdDeviation="16"/>
<feComposite in2="hardAlpha" operator="arithmetic" k2="-1" k3="1"/>
<feColorMatrix type="matrix" values="0 0 0 0 1 0 0 0 0 1 0 0 0 0 1 0 0 0 0.48 0"/>
<feBlend mode="overlay" in2="shape" result="effect1_innerShadow_7_6759"/>
<feColorMatrix in="SourceAlpha" type="matrix" values="0 0 0 0 0 0 0 0 0 0 0 0 0 0 0 0 0 0 127 0" result="hardAlpha"/>
<feOffset dx="2" dy="-4"/>
<feGaussianBlur stdDeviation="4"/>
<feComposite in2="hardAlpha" operator="arithmetic" k2="-1" k3="1"/>
<feColorMatrix type="matrix" values="0 0 0 0 0 0 0 0 0 0 0 0 0 0 0 0 0 0 0.4 0"/>
<feBlend mode="overlay" in2="effect1_innerShadow_7_6759" result="effect2_innerShadow_7_6759"/>
<feColorMatrix in="SourceAlpha" type="matrix" values="0 0 0 0 0 0 0 0 0 0 0 0 0 0 0 0 0 0 127 0" result="hardAlpha"/>
<feOffset dx="2" dy="-4"/>
<feGaussianBlur stdDeviation="6"/>
<feComposite in2="hardAlpha" operator="arithmetic" k2="-1" k3="1"/>
<feColorMatrix type="matrix" values="0 0 0 0 0 0 0 0 0 0 0 0 0 0 0 0 0 0 0.32 0"/>
<feBlend mode="overlay" in2="effect2_innerShadow_7_6759" result="effect3_innerShadow_7_6759"/>
<feColorMatrix in="SourceAlpha" type="matrix" values="0 0 0 0 0 0 0 0 0 0 0 0 0 0 0 0 0 0 127 0" result="hardAlpha"/>
<feOffset dx="-4"/>
<feGaussianBlur stdDeviation="6"/>
<feComposite in2="hardAlpha" operator="arithmetic" k2="-1" k3="1"/>
<feColorMatrix type="matrix" values="0 0 0 0 1 0 0 0 0 1 0 0 0 0 1 0 0 0 0.56 0"/>
<feBlend mode="overlay" in2="effect3_innerShadow_7_6759" result="effect4_innerShadow_7_6759"/>
</filter>
<filter id="filter9_f_7_6759" x="35.7844" y="0" width="104.575" height="28.894" filterUnits="userSpaceOnUse" color-interpolation-filters="sRGB">
<feFlood flood-opacity="0" result="BackgroundImageFix"/>
<feBlend mode="normal" in="SourceGraphic" in2="BackgroundImageFix" result="shape"/>
<feGaussianBlur stdDeviation="1" result="effect1_foregroundBlur_7_6759"/>
</filter>
<filter id="filter10_f_7_6759" x="110.578" y="67" width="58" height="30" filterUnits="userSpaceOnUse" color-interpolation-filters="sRGB">
<feFlood flood-opacity="0" result="BackgroundImageFix"/>
<feBlend mode="normal" in="SourceGraphic" in2="BackgroundImageFix" result="shape"/>
<feGaussianBlur stdDeviation="1.5" result="effect1_foregroundBlur_7_6759"/>
</filter>
<filter id="filter11_f_7_6759" x="26.1328" y="32.7344" width="65" height="57" filterUnits="userSpaceOnUse" color-interpolation-filters="sRGB">
<feFlood flood-opacity="0" result="BackgroundImageFix"/>
<feBlend mode="normal" in="SourceGraphic" in2="BackgroundImageFix" result="shape"/>
<feGaussianBlur stdDeviation="0.25" result="effect1_foregroundBlur_7_6759"/>
</filter>
<filter id="filter12_f_7_6759" x="23.6328" y="30.2344" width="70" height="62" filterUnits="userSpaceOnUse" color-interpolation-filters="sRGB">
<feFlood flood-opacity="0" result="BackgroundImageFix"/>
<feBlend mode="normal" in="SourceGraphic" in2="BackgroundImageFix" result="shape"/>
<feGaussianBlur stdDeviation="1.5" result="effect1_foregroundBlur_7_6759"/>
</filter>
<filter id="filter13_f_7_6759" x="19.3157" y="52.1326" width="94.3215" height="80.4902" filterUnits="userSpaceOnUse" color-interpolation-filters="sRGB">
<feFlood flood-opacity="0" result="BackgroundImageFix"/>
<feBlend mode="normal" in="SourceGraphic" in2="BackgroundImageFix" result="shape"/>
<feGaussianBlur stdDeviation="6" result="effect1_foregroundBlur_7_6759"/>
</filter>
<filter id="filter14_iiii_7_6759" x="11.0566" y="23.499" width="93.0215" height="74.539" filterUnits="userSpaceOnUse" color-interpolation-filters="sRGB">
<feFlood flood-opacity="0" result="BackgroundImageFix"/>
<feBlend mode="normal" in="SourceGraphic" in2="BackgroundImageFix" result="shape"/>
<feColorMatrix in="SourceAlpha" type="matrix" values="0 0 0 0 0 0 0 0 0 0 0 0 0 0 0 0 0 0 127 0" result="hardAlpha"/>
<feOffset dy="4"/>
<feGaussianBlur stdDeviation="5"/>
<feComposite in2="hardAlpha" operator="arithmetic" k2="-1" k3="1"/>
<feColorMatrix type="matrix" values="0 0 0 0 1 0 0 0 0 1 0 0 0 0 1 0 0 0 0.4 0"/>
<feBlend mode="overlay" in2="shape" result="effect1_innerShadow_7_6759"/>
<feColorMatrix in="SourceAlpha" type="matrix" values="0 0 0 0 0 0 0 0 0 0 0 0 0 0 0 0 0 0 127 0" result="hardAlpha"/>
<feOffset dx="2" dy="-4"/>
<feGaussianBlur stdDeviation="4"/>
<feComposite in2="hardAlpha" operator="arithmetic" k2="-1" k3="1"/>
<feColorMatrix type="matrix" values="0 0 0 0 0 0 0 0 0 0 0 0 0 0 0 0 0 0 0.24 0"/>
<feBlend mode="normal" in2="effect1_innerShadow_7_6759" result="effect2_innerShadow_7_6759"/>
<feColorMatrix in="SourceAlpha" type="matrix" values="0 0 0 0 0 0 0 0 0 0 0 0 0 0 0 0 0 0 127 0" result="hardAlpha"/>
<feOffset dx="2" dy="-4"/>
<feGaussianBlur stdDeviation="6"/>
<feComposite in2="hardAlpha" operator="arithmetic" k2="-1" k3="1"/>
<feColorMatrix type="matrix" values="0 0 0 0 0 0 0 0 0 0 0 0 0 0 0 0 0 0 0.32 0"/>
<feBlend mode="overlay" in2="effect2_innerShadow_7_6759" result="effect3_innerShadow_7_6759"/>
<feColorMatrix in="SourceAlpha" type="matrix" values="0 0 0 0 0 0 0 0 0 0 0 0 0 0 0 0 0 0 127 0" result="hardAlpha"/>
<feOffset dx="-4"/>
<feGaussianBlur stdDeviation="4"/>
<feComposite in2="hardAlpha" operator="arithmetic" k2="-1" k3="1"/>
<feColorMatrix type="matrix" values="0 0 0 0 1 0 0 0 0 1 0 0 0 0 1 0 0 0 0.24 0"/>
<feBlend mode="overlay" in2="effect3_innerShadow_7_6759" result="effect4_innerShadow_7_6759"/>
</filter>
<filter id="filter15_f_7_6759" x="129.574" y="21.5" width="73.5012" height="70.5" filterUnits="userSpaceOnUse" color-interpolation-filters="sRGB">
<feFlood flood-opacity="0" result="BackgroundImageFix"/>
<feBlend mode="normal" in="SourceGraphic" in2="BackgroundImageFix" result="shape"/>
<feGaussianBlur stdDeviation="3" result="effect1_foregroundBlur_7_6759"/>
</filter>
<filter id="filter16_f_7_6759" x="129.574" y="21.5" width="73.5012" height="70.5" filterUnits="userSpaceOnUse" color-interpolation-filters="sRGB">
<feFlood flood-opacity="0" result="BackgroundImageFix"/>
<feBlend mode="normal" in="SourceGraphic" in2="BackgroundImageFix" result="shape"/>
<feGaussianBlur stdDeviation="3" result="effect1_foregroundBlur_7_6759"/>
</filter>
<filter id="filter17_d_7_6759" x="133.328" y="48.7498" width="49.1804" height="40.0002" filterUnits="userSpaceOnUse" color-interpolation-filters="sRGB">
<feFlood flood-opacity="0" result="BackgroundImageFix"/>
<feColorMatrix in="SourceAlpha" type="matrix" values="0 0 0 0 0 0 0 0 0 0 0 0 0 0 0 0 0 0 127 0" result="hardAlpha"/>
<feOffset dx="-2" dy="1"/>
<feGaussianBlur stdDeviation="1.75"/>
<feComposite in2="hardAlpha" operator="out"/>
<feColorMatrix type="matrix" values="0 0 0 0 0 0 0 0 0 0 0 0 0 0 0 0 0 0 0.24 0"/>
<feBlend mode="normal" in2="BackgroundImageFix" result="effect1_dropShadow_7_6759"/>
<feBlend mode="normal" in="SourceGraphic" in2="effect1_dropShadow_7_6759" result="shape"/>
</filter>
<filter id="filter18_ii_7_6759" x="138.578" y="51.2498" width="42.9304" height="33.2502" filterUnits="userSpaceOnUse" color-interpolation-filters="sRGB">
<feFlood flood-opacity="0" result="BackgroundImageFix"/>
<feBlend mode="normal" in="SourceGraphic" in2="BackgroundImageFix" result="shape"/>
<feColorMatrix in="SourceAlpha" type="matrix" values="0 0 0 0 0 0 0 0 0 0 0 0 0 0 0 0 0 0 127 0" result="hardAlpha"/>
<feOffset dx="-0.25" dy="0.25"/>
<feGaussianBlur stdDeviation="0.25"/>
<feComposite in2="hardAlpha" operator="arithmetic" k2="-1" k3="1"/>
<feColorMatrix type="matrix" values="0 0 0 0 1 0 0 0 0 1 0 0 0 0 1 0 0 0 0.48 0"/>
<feBlend mode="normal" in2="shape" result="effect1_innerShadow_7_6759"/>
<feColorMatrix in="SourceAlpha" type="matrix" values="0 0 0 0 0 0 0 0 0 0 0 0 0 0 0 0 0 0 127 0" result="hardAlpha"/>
<feOffset dx="0.5" dy="0.25"/>
<feGaussianBlur stdDeviation="0.25"/>
<feComposite in2="hardAlpha" operator="arithmetic" k2="-1" k3="1"/>
<feColorMatrix type="matrix" values="0 0 0 0 0 0 0 0 0 0 0 0 0 0 0 0 0 0 0.4 0"/>
<feBlend mode="overlay" in2="effect1_innerShadow_7_6759" result="effect2_innerShadow_7_6759"/>
</filter>
<filter id="filter19_f_7_6759" x="132.578" y="46" width="44" height="44" filterUnits="userSpaceOnUse" color-interpolation-filters="sRGB">
<feFlood flood-opacity="0" result="BackgroundImageFix"/>
<feBlend mode="normal" in="SourceGraphic" in2="BackgroundImageFix" result="shape"/>
<feGaussianBlur stdDeviation="3" result="effect1_foregroundBlur_7_6759"/>
</filter>
<filter id="filter20_ii_7_6759" x="153.578" y="78.75" width="16" height="12.75" filterUnits="userSpaceOnUse" color-interpolation-filters="sRGB">
<feFlood flood-opacity="0" result="BackgroundImageFix"/>
<feBlend mode="normal" in="SourceGraphic" in2="BackgroundImageFix" result="shape"/>
<feColorMatrix in="SourceAlpha" type="matrix" values="0 0 0 0 0 0 0 0 0 0 0 0 0 0 0 0 0 0 127 0" result="hardAlpha"/>
<feOffset dx="1" dy="-0.25"/>
<feGaussianBlur stdDeviation="0.75"/>
<feComposite in2="hardAlpha" operator="arithmetic" k2="-1" k3="1"/>
<feColorMatrix type="matrix" values="0 0 0 0 0 0 0 0 0 0 0 0 0 0 0 0 0 0 0.32 0"/>
<feBlend mode="normal" in2="shape" result="effect1_innerShadow_7_6759"/>
<feColorMatrix in="SourceAlpha" type="matrix" values="0 0 0 0 0 0 0 0 0 0 0 0 0 0 0 0 0 0 127 0" result="hardAlpha"/>
<feOffset dx="-1" dy="0.5"/>
<feGaussianBlur stdDeviation="0.75"/>
<feComposite in2="hardAlpha" operator="arithmetic" k2="-1" k3="1"/>
<feColorMatrix type="matrix" values="0 0 0 0 1 0 0 0 0 1 0 0 0 0 1 0 0 0 0.56 0"/>
<feBlend mode="normal" in2="effect1_innerShadow_7_6759" result="effect2_innerShadow_7_6759"/>
</filter>
<filter id="filter21_i_7_6759" x="158.403" y="83.6186" width="6.06821" height="2.04273" filterUnits="userSpaceOnUse" color-interpolation-filters="sRGB">
<feFlood flood-opacity="0" result="BackgroundImageFix"/>
<feBlend mode="normal" in="SourceGraphic" in2="BackgroundImageFix" result="shape"/>
<feColorMatrix in="SourceAlpha" type="matrix" values="0 0 0 0 0 0 0 0 0 0 0 0 0 0 0 0 0 0 127 0" result="hardAlpha"/>
<feOffset dx="-0.15" dy="0.15"/>
<feGaussianBlur stdDeviation="0.125"/>
<feComposite in2="hardAlpha" operator="arithmetic" k2="-1" k3="1"/>
<feColorMatrix type="matrix" values="0 0 0 0 0 0 0 0 0 0 0 0 0 0 0 0 0 0 0.48 0"/>
<feBlend mode="normal" in2="shape" result="effect1_innerShadow_7_6759"/>
</filter>
<filter id="filter22_iiii_7_6759" x="120.768" y="0.84082" width="94.1462" height="92.3179" filterUnits="userSpaceOnUse" color-interpolation-filters="sRGB">
<feFlood flood-opacity="0" result="BackgroundImageFix"/>
<feBlend mode="normal" in="SourceGraphic" in2="BackgroundImageFix" result="shape"/>
<feColorMatrix in="SourceAlpha" type="matrix" values="0 0 0 0 0 0 0 0 0 0 0 0 0 0 0 0 0 0 127 0" result="hardAlpha"/>
<feOffset dx="2" dy="-4"/>
<feGaussianBlur stdDeviation="4"/>
<feComposite in2="hardAlpha" operator="arithmetic" k2="-1" k3="1"/>
<feColorMatrix type="matrix" values="0 0 0 0 0 0 0 0 0 0 0 0 0 0 0 0 0 0 0.16 0"/>
<feBlend mode="overlay" in2="shape" result="effect1_innerShadow_7_6759"/>
<feColorMatrix in="SourceAlpha" type="matrix" values="0 0 0 0 0 0 0 0 0 0 0 0 0 0 0 0 0 0 127 0" result="hardAlpha"/>
<feOffset dx="3" dy="-6"/>
<feGaussianBlur stdDeviation="4"/>
<feComposite in2="hardAlpha" operator="arithmetic" k2="-1" k3="1"/>
<feColorMatrix type="matrix" values="0 0 0 0 0 0 0 0 0 0 0 0 0 0 0 0 0 0 0.24 0"/>
<feBlend mode="overlay" in2="effect1_innerShadow_7_6759" result="effect2_innerShadow_7_6759"/>
<feColorMatrix in="SourceAlpha" type="matrix" values="0 0 0 0 0 0 0 0 0 0 0 0 0 0 0 0 0 0 127 0" result="hardAlpha"/>
<feOffset dx="-4" dy="2"/>
<feGaussianBlur stdDeviation="2"/>
<feComposite in2="hardAlpha" operator="arithmetic" k2="-1" k3="1"/>
<feColorMatrix type="matrix" values="0 0 0 0 1 0 0 0 0 1 0 0 0 0 1 0 0 0 0.32 0"/>
<feBlend mode="overlay" in2="effect2_innerShadow_7_6759" result="effect3_innerShadow_7_6759"/>
<feColorMatrix in="SourceAlpha" type="matrix" values="0 0 0 0 0 0 0 0 0 0 0 0 0 0 0 0 0 0 127 0" result="hardAlpha"/>
<feOffset/>
<feGaussianBlur stdDeviation="2"/>
<feComposite in2="hardAlpha" operator="arithmetic" k2="-1" k3="1"/>
<feColorMatrix type="matrix" values="0 0 0 0 1 0 0 0 0 1 0 0 0 0 1 0 0 0 0.24 0"/>
<feBlend mode="overlay" in2="effect3_innerShadow_7_6759" result="effect4_innerShadow_7_6759"/>
</filter>
<filter id="filter23_f_7_6759" x="140.079" y="42.4012" width="29.7188" height="20.5086" filterUnits="userSpaceOnUse" color-interpolation-filters="sRGB">
<feFlood flood-opacity="0" result="BackgroundImageFix"/>
<feBlend mode="normal" in="SourceGraphic" in2="BackgroundImageFix" result="shape"/>
<feGaussianBlur stdDeviation="2" result="effect1_foregroundBlur_7_6759"/>
</filter>
<filter id="filter24_f_7_6759" x="123.222" y="30.1156" width="24" height="48.0776" filterUnits="userSpaceOnUse" color-interpolation-filters="sRGB">
<feFlood flood-opacity="0" result="BackgroundImageFix"/>
<feBlend mode="normal" in="SourceGraphic" in2="BackgroundImageFix" result="shape"/>
<feGaussianBlur stdDeviation="3" result="effect1_foregroundBlur_7_6759"/>
</filter>
<filter id="filter25_f_7_6759" x="150.465" y="19.5145" width="38.845" height="34.2686" filterUnits="userSpaceOnUse" color-interpolation-filters="sRGB">
<feFlood flood-opacity="0" result="BackgroundImageFix"/>
<feBlend mode="normal" in="SourceGraphic" in2="BackgroundImageFix" result="shape"/>
<feGaussianBlur stdDeviation="2" result="effect1_foregroundBlur_7_6759"/>
</filter>
<filter id="filter26_f_7_6759" x="144.567" y="41.7159" width="31.2441" height="30.1397" filterUnits="userSpaceOnUse" color-interpolation-filters="sRGB">
<feFlood flood-opacity="0" result="BackgroundImageFix"/>
<feBlend mode="normal" in="SourceGraphic" in2="BackgroundImageFix" result="shape"/>
<feGaussianBlur stdDeviation="3" result="effect1_foregroundBlur_7_6759"/>
</filter>
<filter id="filter27_f_7_6759" x="159.488" y="18.2951" width="19.7915" height="22.2884" filterUnits="userSpaceOnUse" color-interpolation-filters="sRGB">
<feFlood flood-opacity="0" result="BackgroundImageFix"/>
<feBlend mode="normal" in="SourceGraphic" in2="BackgroundImageFix" result="shape"/>
<feGaussianBlur stdDeviation="1" result="effect1_foregroundBlur_7_6759"/>
</filter>
<filter id="filter28_f_7_6759" x="129.152" y="51.6653" width="49.6309" height="38.525" filterUnits="userSpaceOnUse" color-interpolation-filters="sRGB">
<feFlood flood-opacity="0" result="BackgroundImageFix"/>
<feBlend mode="normal" in="SourceGraphic" in2="BackgroundImageFix" result="shape"/>
<feGaussianBlur stdDeviation="2" result="effect1_foregroundBlur_7_6759"/>
</filter>
<filter id="filter29_f_7_6759" x="131.233" y="52.1192" width="43.4778" height="30.9415" filterUnits="userSpaceOnUse" color-interpolation-filters="sRGB">
<feFlood flood-opacity="0" result="BackgroundImageFix"/>
<feBlend mode="normal" in="SourceGraphic" in2="BackgroundImageFix" result="shape"/>
<feGaussianBlur stdDeviation="3" result="effect1_foregroundBlur_7_6759"/>
</filter>
<filter id="filter30_f_7_6759" x="125.667" y="22.7987" width="32.9568" height="58.3128" filterUnits="userSpaceOnUse" color-interpolation-filters="sRGB">
<feFlood flood-opacity="0" result="BackgroundImageFix"/>
<feBlend mode="normal" in="SourceGraphic" in2="BackgroundImageFix" result="shape"/>
<feGaussianBlur stdDeviation="3" result="effect1_foregroundBlur_7_6759"/>
</filter>
<filter id="filter31_di_7_6759" x="148.913" y="40.1165" width="9.9397" height="8.60385" filterUnits="userSpaceOnUse" color-interpolation-filters="sRGB">
<feFlood flood-opacity="0" result="BackgroundImageFix"/>
<feColorMatrix in="SourceAlpha" type="matrix" values="0 0 0 0 0 0 0 0 0 0 0 0 0 0 0 0 0 0 127 0" result="hardAlpha"/>
<feOffset dy="1"/>
<feGaussianBlur stdDeviation="0.5"/>
<feComposite in2="hardAlpha" operator="out"/>
<feColorMatrix type="matrix" values="0 0 0 0 1 0 0 0 0 1 0 0 0 0 1 0 0 0 0.16 0"/>
<feBlend mode="overlay" in2="BackgroundImageFix" result="effect1_dropShadow_7_6759"/>
<feBlend mode="normal" in="SourceGraphic" in2="effect1_dropShadow_7_6759" result="shape"/>
<feColorMatrix in="SourceAlpha" type="matrix" values="0 0 0 0 0 0 0 0 0 0 0 0 0 0 0 0 0 0 127 0" result="hardAlpha"/>
<feOffset dy="-1"/>
<feGaussianBlur stdDeviation="0.5"/>
<feComposite in2="hardAlpha" operator="arithmetic" k2="-1" k3="1"/>
<feColorMatrix type="matrix" values="0 0 0 0 0.491667 0 0 0 0 0.483472 0 0 0 0 0.483472 0 0 0 0.35 0"/>
<feBlend mode="normal" in2="shape" result="effect2_innerShadow_7_6759"/>
</filter>
<filter id="filter32_f_7_6759" x="160.26" y="61.5706" width="7.15796" height="6.04831" filterUnits="userSpaceOnUse" color-interpolation-filters="sRGB">
<feFlood flood-opacity="0" result="BackgroundImageFix"/>
<feBlend mode="normal" in="SourceGraphic" in2="BackgroundImageFix" result="shape"/>
<feGaussianBlur stdDeviation="1" result="effect1_foregroundBlur_7_6759"/>
</filter>
<filter id="filter33_f_7_6759" x="163.536" y="48.1575" width="29.1687" height="21.4196" filterUnits="userSpaceOnUse" color-interpolation-filters="sRGB">
<feFlood flood-opacity="0" result="BackgroundImageFix"/>
<feBlend mode="normal" in="SourceGraphic" in2="BackgroundImageFix" result="shape"/>
<feGaussianBlur stdDeviation="2" result="effect1_foregroundBlur_7_6759"/>
</filter>
<filter id="filter34_f_7_6759" x="178.034" y="48.1128" width="32.8218" height="43.8209" filterUnits="userSpaceOnUse" color-interpolation-filters="sRGB">
<feFlood flood-opacity="0" result="BackgroundImageFix"/>
<feBlend mode="normal" in="SourceGraphic" in2="BackgroundImageFix" result="shape"/>
<feGaussianBlur stdDeviation="3" result="effect1_foregroundBlur_7_6759"/>
</filter>
<filter id="filter35_f_7_6759" x="154.814" y="19.4868" width="40.5911" height="32.5982" filterUnits="userSpaceOnUse" color-interpolation-filters="sRGB">
<feFlood flood-opacity="0" result="BackgroundImageFix"/>
<feBlend mode="normal" in="SourceGraphic" in2="BackgroundImageFix" result="shape"/>
<feGaussianBlur stdDeviation="2" result="effect1_foregroundBlur_7_6759"/>
</filter>
<filter id="filter36_f_7_6759" x="154.848" y="43.3884" width="32.4836" height="29.0614" filterUnits="userSpaceOnUse" color-interpolation-filters="sRGB">
<feFlood flood-opacity="0" result="BackgroundImageFix"/>
<feBlend mode="normal" in="SourceGraphic" in2="BackgroundImageFix" result="shape"/>
<feGaussianBlur stdDeviation="3" result="effect1_foregroundBlur_7_6759"/>
</filter>
<filter id="filter37_f_7_6759" x="172.659" y="18.0166" width="11.5503" height="27" filterUnits="userSpaceOnUse" color-interpolation-filters="sRGB">
<feFlood flood-opacity="0" result="BackgroundImageFix"/>
<feBlend mode="normal" in="SourceGraphic" in2="BackgroundImageFix" result="shape"/>
<feGaussianBlur stdDeviation="1" result="effect1_foregroundBlur_7_6759"/>
</filter>
<filter id="filter38_f_7_6759" x="140.716" y="67.4867" width="57.9561" height="21.0924" filterUnits="userSpaceOnUse" color-interpolation-filters="sRGB">
<feFlood flood-opacity="0" result="BackgroundImageFix"/>
<feBlend mode="normal" in="SourceGraphic" in2="BackgroundImageFix" result="shape"/>
<feGaussianBlur stdDeviation="2" result="effect1_foregroundBlur_7_6759"/>
</filter>
<filter id="filter39_f_7_6759" x="148.12" y="65.9999" width="48.3376" height="17.0119" filterUnits="userSpaceOnUse" color-interpolation-filters="sRGB">
<feFlood flood-opacity="0" result="BackgroundImageFix"/>
<feBlend mode="normal" in="SourceGraphic" in2="BackgroundImageFix" result="shape"/>
<feGaussianBlur stdDeviation="3" result="effect1_foregroundBlur_7_6759"/>
</filter>
<filter id="filter40_f_7_6759" x="163.056" y="38.5242" width="45.2534" height="48.2526" filterUnits="userSpaceOnUse" color-interpolation-filters="sRGB">
<feFlood flood-opacity="0" result="BackgroundImageFix"/>
<feBlend mode="normal" in="SourceGraphic" in2="BackgroundImageFix" result="shape"/>
<feGaussianBlur stdDeviation="3" result="effect1_foregroundBlur_7_6759"/>
</filter>
<filter id="filter41_di_7_6759" x="177.891" y="47.8811" width="9.9397" height="8.60385" filterUnits="userSpaceOnUse" color-interpolation-filters="sRGB">
<feFlood flood-opacity="0" result="BackgroundImageFix"/>
<feColorMatrix in="SourceAlpha" type="matrix" values="0 0 0 0 0 0 0 0 0 0 0 0 0 0 0 0 0 0 127 0" result="hardAlpha"/>
<feOffset dy="1"/>
<feGaussianBlur stdDeviation="0.5"/>
<feComposite in2="hardAlpha" operator="out"/>
<feColorMatrix type="matrix" values="0 0 0 0 1 0 0 0 0 1 0 0 0 0 1 0 0 0 0.16 0"/>
<feBlend mode="overlay" in2="BackgroundImageFix" result="effect1_dropShadow_7_6759"/>
<feBlend mode="normal" in="SourceGraphic" in2="effect1_dropShadow_7_6759" result="shape"/>
<feColorMatrix in="SourceAlpha" type="matrix" values="0 0 0 0 0 0 0 0 0 0 0 0 0 0 0 0 0 0 127 0" result="hardAlpha"/>
<feOffset dy="-1"/>
<feGaussianBlur stdDeviation="0.5"/>
<feComposite in2="hardAlpha" operator="arithmetic" k2="-1" k3="1"/>
<feColorMatrix type="matrix" values="0 0 0 0 0.491667 0 0 0 0 0.483472 0 0 0 0 0.483472 0 0 0 0.35 0"/>
<feBlend mode="normal" in2="shape" result="effect2_innerShadow_7_6759"/>
</filter>
<filter id="filter42_f_7_6759" x="161.005" y="61.2315" width="7.13843" height="6.2052" filterUnits="userSpaceOnUse" color-interpolation-filters="sRGB">
<feFlood flood-opacity="0" result="BackgroundImageFix"/>
<feBlend mode="normal" in="SourceGraphic" in2="BackgroundImageFix" result="shape"/>
<feGaussianBlur stdDeviation="1" result="effect1_foregroundBlur_7_6759"/>
</filter>
<linearGradient id="paint0_linear_7_6759" x1="-11.6667" y1="-37" x2="87.0977" y2="8.64107" gradientUnits="userSpaceOnUse">
<stop stop-opacity="0"/>
<stop offset="1"/>
</linearGradient>
<linearGradient id="paint1_linear_7_6759" x1="105.25" y1="83.8334" x2="84.1553" y2="110.154" gradientUnits="userSpaceOnUse">
<stop stop-opacity="0"/>
<stop offset="1"/>
</linearGradient>
<linearGradient id="paint2_linear_7_6759" x1="-5.25" y1="-6.16667" x2="15.8446" y2="20.1537" gradientUnits="userSpaceOnUse">
<stop stop-opacity="0"/>
<stop offset="1"/>
</linearGradient>
<linearGradient id="paint3_linear_7_6759" x1="168.621" y1="80.8348" x2="132.067" y2="113.048" gradientUnits="userSpaceOnUse">
<stop stop-opacity="0"/>
<stop offset="1"/>
</linearGradient>
<linearGradient id="paint4_linear_7_6759" x1="-2.33333" y1="-6.16667" x2="16" y2="4" gradientUnits="userSpaceOnUse">
<stop stop-opacity="0"/>
<stop offset="1"/>
</linearGradient>
<radialGradient id="paint5_radial_7_6759" cx="0" cy="0" r="1" gradientUnits="userSpaceOnUse" gradientTransform="translate(152.578 97.5) rotate(-100.305) scale(11.1803 16.012)">
<stop/>
<stop offset="1" stop-opacity="0"/>
</radialGradient>
<linearGradient id="paint6_linear_7_6759" x1="142.844" y1="71.409" x2="145.156" y2="78.9295" gradientUnits="userSpaceOnUse">
<stop/>
<stop offset="1" stop-opacity="0.64"/>
</linearGradient>
<linearGradient id="paint7_linear_7_6759" x1="271.499" y1="-66.5" x2="16.999" y2="94" gradientUnits="userSpaceOnUse">
<stop/>
<stop offset="1" stop-opacity="0"/>
</linearGradient>
<linearGradient id="paint8_linear_7_6759" x1="271.499" y1="-66.5" x2="16.999" y2="94" gradientUnits="userSpaceOnUse">
<stop/>
<stop offset="1" stop-opacity="0"/>
</linearGradient>
<linearGradient id="paint9_linear_7_6759" x1="129.378" y1="9.12747" x2="138.678" y2="25.2359" gradientUnits="userSpaceOnUse">
<stop/>
<stop offset="1" stop-opacity="0"/>
</linearGradient>
<linearGradient id="paint10_linear_7_6759" x1="114.596" y1="2.66792" x2="122.262" y2="19.6153" gradientUnits="userSpaceOnUse">
<stop/>
<stop offset="1" stop-opacity="0"/>
</linearGradient>
<linearGradient id="paint11_linear_7_6759" x1="105.717" y1="-1.39378" x2="104.613" y2="17.408" gradientUnits="userSpaceOnUse">
<stop/>
<stop offset="1" stop-opacity="0"/>
</linearGradient>
<linearGradient id="paint12_linear_7_6759" x1="91.7538" y1="-0.858502" x2="86.8485" y2="17.4481" gradientUnits="userSpaceOnUse">
<stop/>
<stop offset="1" stop-opacity="0"/>
</linearGradient>
<linearGradient id="paint13_linear_7_6759" x1="76.6396" y1="-0.219733" x2="73.2496" y2="18.6283" gradientUnits="userSpaceOnUse">
<stop/>
<stop offset="1" stop-opacity="0"/>
</linearGradient>
<linearGradient id="paint14_linear_7_6759" x1="60.1435" y1="3.13622" x2="56.7535" y2="21.9843" gradientUnits="userSpaceOnUse">
<stop/>
<stop offset="1" stop-opacity="0"/>
</linearGradient>
<linearGradient id="paint15_linear_7_6759" x1="42.9853" y1="12.3563" x2="40.7833" y2="27.0759" gradientUnits="userSpaceOnUse">
<stop/>
<stop offset="1" stop-opacity="0"/>
</linearGradient>
<radialGradient id="paint16_radial_7_6759" cx="0" cy="0" r="1" gradientUnits="userSpaceOnUse" gradientTransform="translate(141.578 101) rotate(-56.9293) scale(25.6564 36.7439)">
<stop/>
<stop offset="1" stop-opacity="0"/>
</radialGradient>
<linearGradient id="paint17_linear_7_6759" x1="141.578" y1="94" x2="142.593" y2="73.6754" gradientUnits="userSpaceOnUse">
<stop/>
<stop offset="1" stop-opacity="0"/>
</linearGradient>
<radialGradient id="paint18_radial_7_6759" cx="0" cy="0" r="1" gradientUnits="userSpaceOnUse" gradientTransform="translate(84.0806 35.5) rotate(79.5085) scale(27.4591 22.5287)">
<stop stop-color="white"/>
<stop offset="1" stop-color="white" stop-opacity="0"/>
</radialGradient>
<linearGradient id="paint19_linear_7_6759" x1="77.5806" y1="33" x2="63.6257" y2="50.6991" gradientUnits="userSpaceOnUse">
<stop/>
<stop offset="1" stop-opacity="0"/>
</linearGradient>
<linearGradient id="paint20_linear_7_6759" x1="53.6826" y1="91.5096" x2="62.1818" y2="99.4106" gradientUnits="userSpaceOnUse">
<stop/>
<stop offset="1" stop-opacity="0.64"/>
</linearGradient>
<linearGradient id="paint21_linear_7_6759" x1="164.075" y1="51.5" x2="189.051" y2="59.7705" gradientUnits="userSpaceOnUse">
<stop/>
<stop offset="1" stop-opacity="0.64"/>
</linearGradient>
<linearGradient id="paint22_linear_7_6759" x1="-22.204" y1="111.319" x2="105.685" y2="-27.7438" gradientUnits="userSpaceOnUse">
<stop stop-color="#D5D5D5"/>
<stop offset="1" stop-color="#B4B4B4"/>
</linearGradient>
<linearGradient id="paint23_linear_7_6759" x1="164.075" y1="51.5" x2="189.051" y2="59.7705" gradientUnits="userSpaceOnUse">
<stop/>
<stop offset="1" stop-opacity="0.64"/>
</linearGradient>
<linearGradient id="paint24_linear_7_6759" x1="176.078" y1="69.5" x2="145.078" y2="82.5" gradientUnits="userSpaceOnUse">
<stop stop-color="white"/>
<stop offset="1" stop-color="white" stop-opacity="0"/>
</linearGradient>
<linearGradient id="paint25_linear_7_6759" x1="176.078" y1="69.5" x2="145.078" y2="82.5" gradientUnits="userSpaceOnUse">
<stop stop-color="white"/>
<stop offset="1" stop-color="white" stop-opacity="0"/>
</linearGradient>
<linearGradient id="paint26_linear_7_6759" x1="146.744" y1="85.4574" x2="169.957" y2="56.6241" gradientUnits="userSpaceOnUse">
<stop stop-color="#503622"/>
<stop offset="1" stop-color="#A38C7B"/>
</linearGradient>
<radialGradient id="paint27_radial_7_6759" cx="0" cy="0" r="1" gradientUnits="userSpaceOnUse" gradientTransform="translate(156.936 89.875) rotate(94.7619) scale(41.5059 48.0314)">
<stop offset="0.0729167" stop-color="#946459"/>
<stop offset="0.197917" stop-color="#E9B4A1"/>
<stop offset="0.270833" stop-color="#C18B77"/>
<stop offset="0.416465" stop-color="#CB9988"/>
<stop offset="0.494396" stop-color="#8B584A"/>
<stop offset="0.582197" stop-color="#9D6857"/>
<stop offset="0.708863" stop-color="#69423B"/>
<stop offset="0.815698" stop-color="#AF7662"/>
<stop offset="0.962916" stop-color="#835145"/>
</radialGradient>
<linearGradient id="paint28_linear_7_6759" x1="161.578" y1="85.5" x2="161.578" y2="81" gradientUnits="userSpaceOnUse">
<stop/>
<stop offset="1" stop-opacity="0"/>
</linearGradient>
<linearGradient id="paint29_linear_7_6759" x1="163.578" y1="80.5" x2="162.578" y2="86" gradientUnits="userSpaceOnUse">
<stop stop-color="white"/>
<stop offset="1" stop-color="white" stop-opacity="0"/>
</linearGradient>
<linearGradient id="paint30_linear_7_6759" x1="160.015" y1="15.7106" x2="143.968" y2="75.598" gradientUnits="userSpaceOnUse">
<stop stop-color="white"/>
<stop offset="1" stop-color="white" stop-opacity="0"/>
</linearGradient>
<linearGradient id="paint31_linear_7_6759" x1="144.521" y1="-3.4527" x2="152.283" y2="26.5497" gradientUnits="userSpaceOnUse">
<stop/>
<stop offset="1" stop-opacity="0"/>
</linearGradient>
<linearGradient id="paint32_linear_7_6759" x1="144.521" y1="-3.45267" x2="152.283" y2="26.5497" gradientUnits="userSpaceOnUse">
<stop/>
<stop offset="1" stop-opacity="0"/>
</linearGradient>
<linearGradient id="paint33_linear_7_6759" x1="144.521" y1="-3.45255" x2="152.283" y2="26.5498" gradientUnits="userSpaceOnUse">
<stop/>
<stop offset="1" stop-opacity="0"/>
</linearGradient>
<radialGradient id="paint34_radial_7_6759" cx="0" cy="0" r="1" gradientUnits="userSpaceOnUse" gradientTransform="translate(154.938 52.6555) rotate(90) scale(6 11)">
<stop stop-color="white"/>
<stop offset="1" stop-color="white" stop-opacity="0"/>
</radialGradient>
<radialGradient id="paint35_radial_7_6759" cx="0" cy="0" r="1" gradientUnits="userSpaceOnUse" gradientTransform="translate(135.222 54.1544) rotate(90) scale(6 18.0388)">
<stop stop-color="white"/>
<stop offset="1" stop-color="white" stop-opacity="0"/>
</radialGradient>
<radialGradient id="paint36_radial_7_6759" cx="0" cy="0" r="1" gradientUnits="userSpaceOnUse" gradientTransform="translate(171.614 34.5612) rotate(105) scale(10.2064 13.5758)">
<stop stop-color="white"/>
<stop offset="1" stop-color="white" stop-opacity="0"/>
</radialGradient>
<radialGradient id="paint37_radial_7_6759" cx="0" cy="0" r="1" gradientUnits="userSpaceOnUse" gradientTransform="translate(161.663 55.6042) rotate(81.5917) scale(7.55103 8)">
<stop/>
<stop offset="1" stop-opacity="0"/>
</radialGradient>
<linearGradient id="paint38_linear_7_6759" x1="174.518" y1="22.5632" x2="164.018" y2="40.7497" gradientUnits="userSpaceOnUse">
<stop/>
<stop offset="1" stop-opacity="0"/>
</linearGradient>
<linearGradient id="paint39_linear_7_6759" x1="136.143" y1="66.5002" x2="166.021" y2="77.1548" gradientUnits="userSpaceOnUse">
<stop stop-opacity="0"/>
<stop offset="1"/>
</linearGradient>
<linearGradient id="paint40_linear_7_6759" x1="140.208" y1="63.5301" x2="162.383" y2="70.2432" gradientUnits="userSpaceOnUse">
<stop stop-opacity="0"/>
<stop offset="1"/>
</linearGradient>
<linearGradient id="paint41_linear_7_6759" x1="140.525" y1="36.4282" x2="142.998" y2="68.0534" gradientUnits="userSpaceOnUse">
<stop stop-color="white"/>
<stop offset="1" stop-color="white" stop-opacity="0"/>
</linearGradient>
<linearGradient id="paint42_linear_7_6759" x1="202.943" y1="39.6365" x2="142.154" y2="77.1825" gradientUnits="userSpaceOnUse">
<stop stop-color="#F5F5F5"/>
<stop offset="1" stop-color="#BCBCBC"/>
</linearGradient>
<radialGradient id="paint43_radial_7_6759" cx="0" cy="0" r="1" gradientUnits="userSpaceOnUse" gradientTransform="translate(153.852 45.1175) rotate(105) scale(8)">
<stop stop-color="#474747"/>
<stop offset="1"/>
</radialGradient>
<radialGradient id="paint44_radial_7_6759" cx="0" cy="0" r="1" gradientUnits="userSpaceOnUse" gradientTransform="translate(167.435 52.3805) rotate(105) scale(4.5 6.13636)">
<stop stop-color="#474747"/>
<stop offset="1"/>
</radialGradient>
<linearGradient id="paint45_linear_7_6759" x1="167.533" y1="51.3714" x2="166.578" y2="54.9347" gradientUnits="userSpaceOnUse">
<stop stop-color="#EFEFEF"/>
<stop offset="1" stop-color="#EFEFEF" stop-opacity="0"/>
</linearGradient>
<linearGradient id="paint46_linear_7_6759" x1="163.751" y1="62.2639" x2="161.103" y2="68.2836" gradientUnits="userSpaceOnUse">
<stop stop-color="#FF919D"/>
<stop offset="1" stop-color="#FFBAC1"/>
</linearGradient>
<radialGradient id="paint47_radial_7_6759" cx="0" cy="0" r="1" gradientUnits="userSpaceOnUse" gradientTransform="translate(164.847 62.0397) rotate(112.125) scale(4.03113 1.25973)">
<stop stop-color="white"/>
<stop offset="1" stop-color="white" stop-opacity="0"/>
</radialGradient>
<linearGradient id="paint48_linear_7_6759" x1="192.196" y1="24.3334" x2="176.149" y2="84.2208" gradientUnits="userSpaceOnUse">
<stop stop-color="white"/>
<stop offset="1" stop-color="white" stop-opacity="0"/>
</linearGradient>
<linearGradient id="paint49_linear_7_6759" x1="215.196" y1="15.4848" x2="193.473" y2="37.5865" gradientUnits="userSpaceOnUse">
<stop/>
<stop offset="1" stop-opacity="0"/>
</linearGradient>
<linearGradient id="paint50_linear_7_6759" x1="215.196" y1="15.4848" x2="193.473" y2="37.5865" gradientUnits="userSpaceOnUse">
<stop/>
<stop offset="1" stop-opacity="0"/>
</linearGradient>
<linearGradient id="paint51_linear_7_6759" x1="215.196" y1="15.4849" x2="193.473" y2="37.5867" gradientUnits="userSpaceOnUse">
<stop/>
<stop offset="1" stop-opacity="0"/>
</linearGradient>
<radialGradient id="paint52_radial_7_6759" cx="0" cy="0" r="1" gradientUnits="userSpaceOnUse" gradientTransform="translate(11 6) rotate(90) scale(6 11)">
<stop stop-color="white"/>
<stop offset="1" stop-color="white" stop-opacity="0"/>
</radialGradient>
<radialGradient id="paint53_radial_7_6759" cx="0" cy="0" r="1" gradientUnits="userSpaceOnUse" gradientTransform="translate(18.0388 6) rotate(90) scale(6 18.0388)">
<stop stop-color="white"/>
<stop offset="1" stop-color="white" stop-opacity="0"/>
</radialGradient>
<radialGradient id="paint54_radial_7_6759" cx="0" cy="0" r="1" gradientUnits="userSpaceOnUse" gradientTransform="translate(172.726 34.8593) rotate(105) scale(10.2064 13.5758)">
<stop stop-color="white"/>
<stop offset="1" stop-color="white" stop-opacity="0"/>
</radialGradient>
<radialGradient id="paint55_radial_7_6759" cx="0" cy="0" r="1" gradientUnits="userSpaceOnUse" gradientTransform="translate(170.822 58.0582) rotate(128.408) scale(7.55103 8)">
<stop/>
<stop offset="1" stop-opacity="0"/>
</radialGradient>
<linearGradient id="paint56_linear_7_6759" x1="176.21" y1="23.0166" x2="176.21" y2="44.0166" gradientUnits="userSpaceOnUse">
<stop/>
<stop offset="1" stop-opacity="0"/>
</linearGradient>
<linearGradient id="paint57_linear_7_6759" x1="187.475" y1="80.2548" x2="156.272" y2="74.5426" gradientUnits="userSpaceOnUse">
<stop stop-opacity="0"/>
<stop offset="1"/>
</linearGradient>
<linearGradient id="paint58_linear_7_6759" x1="185.44" y1="75.65" x2="162.879" y2="70.3762" gradientUnits="userSpaceOnUse">
<stop stop-opacity="0"/>
<stop offset="1"/>
</linearGradient>
<linearGradient id="paint59_linear_7_6759" x1="198.716" y1="52.0206" x2="180.762" y2="78.1723" gradientUnits="userSpaceOnUse">
<stop stop-color="white"/>
<stop offset="1" stop-color="white" stop-opacity="0"/>
</linearGradient>
<linearGradient id="paint60_linear_7_6759" x1="143.056" y1="23.5898" x2="176.928" y2="86.5001" gradientUnits="userSpaceOnUse">
<stop stop-color="#F5F5F5"/>
<stop offset="1" stop-color="#BCBCBC"/>
</linearGradient>
<radialGradient id="paint61_radial_7_6759" cx="0" cy="0" r="1" gradientUnits="userSpaceOnUse" gradientTransform="translate(182.83 52.8821) rotate(105) scale(8)">
<stop stop-color="#474747"/>
<stop offset="1"/>
</radialGradient>
<radialGradient id="paint62_radial_7_6759" cx="0" cy="0" r="1" gradientUnits="userSpaceOnUse" gradientTransform="translate(167.435 52.3806) rotate(105) scale(4.5 6.13636)">
<stop stop-color="#474747"/>
<stop offset="1"/>
</radialGradient>
<linearGradient id="paint63_linear_7_6759" x1="167.855" y1="51.4578" x2="166.9" y2="55.0211" gradientUnits="userSpaceOnUse">
<stop stop-color="#EFEFEF"/>
<stop offset="1" stop-color="#EFEFEF" stop-opacity="0"/>
</linearGradient>
<linearGradient id="paint64_linear_7_6759" x1="165.684" y1="62.7816" x2="164.967" y2="69.319" gradientUnits="userSpaceOnUse">
<stop stop-color="#FF919D"/>
<stop offset="1" stop-color="#FFBAC1"/>
</linearGradient>
<radialGradient id="paint65_radial_7_6759" cx="0" cy="0" r="1" gradientUnits="userSpaceOnUse" gradientTransform="translate(164.847 62.0399) rotate(97.875) scale(4.03113 1.25973)">
<stop stop-color="white"/>
<stop offset="1" stop-color="white" stop-opacity="0"/>
</radialGradient>
</defs>
</svg>
