<svg width="1440" height="1024" viewBox="0 0 1440 1024" fill="none" xmlns="http://www.w3.org/2000/svg">
<g clip-path="url(#clip0_19_13594)">
<rect width="1440" height="1024" fill="url(#paint0_linear_19_13594)"/>
<path d="M-82.76 34.2558C-664.619 -221.402 64.5328 -413.532 351.665 -287.372C638.797 -161.211 884.303 96.7603 802.465 283.018C720.627 469.276 505.133 554.734 321.147 473.894C137.16 393.054 231.938 222.595 -82.76 34.2558Z" fill="#D9D9D9" fill-opacity="0.14"/>
<path d="M-128.418 68.2668L-128.445 68.2507L-128.474 68.2381C-204.799 34.7023 -259.598 2.22079 -296.484 -28.6772C-333.376 -59.5791 -352.305 -88.8582 -356.99 -115.983C-361.671 -143.084 -352.148 -168.138 -331.9 -190.648C-311.643 -213.168 -280.67 -233.118 -242.535 -249.956C-166.267 -283.63 -61.4874 -304.803 43.0674 -309.279C147.627 -313.755 251.893 -301.529 327.147 -268.464C477.792 -202.274 617.505 -101.509 708.814 7.11672C800.143 115.768 842.936 232.137 800.101 329.625C714.303 524.895 488.389 614.479 295.513 529.734C209.491 491.937 181.658 435.486 147.809 366.832C143.736 358.573 139.577 350.136 135.218 341.534C94.6238 261.417 36.8522 167.177 -128.418 68.2668Z" stroke="black" stroke-opacity="0.3"/>
<path d="M894.699 944.43C440.901 1085.07 759.801 623.507 983.739 554.102C1207.68 484.698 1472.3 508.92 1516.77 652.413C1561.25 795.906 1480.97 948.282 1337.48 992.755C1193.99 1037.23 1164.54 896.236 894.699 944.43Z" fill="#D9D9D9" fill-opacity="0.14"/>
<path d="M860.527 980.344L860.497 980.35L860.467 980.359C797.97 999.728 748.806 1008.72 711.096 1009.49C673.38 1010.27 647.182 1002.82 630.548 989.381C613.934 975.957 606.78 956.488 607.288 933.018C607.798 909.532 615.981 882.072 630.016 852.764C658.083 794.152 709.484 728.282 769.298 672.283C829.115 616.281 897.296 570.198 958.9 551.105C1082.25 512.877 1216.79 500.438 1326.6 517.306C1436.44 534.18 1521.35 580.34 1545.77 659.131C1594.71 817.021 1506.38 984.686 1348.49 1033.62C1278.08 1055.44 1232.7 1036.67 1177.46 1013.82C1170.81 1011.08 1164.02 1008.27 1157.03 1005.46C1091.91 979.356 1009.34 953.765 860.527 980.344Z" stroke="black" stroke-opacity="0.3"/>
</g>
<defs>
<linearGradient id="paint0_linear_19_13594" x1="720" y1="24" x2="720" y2="1024" gradientUnits="userSpaceOnUse">
<stop stop-color="#847BAA"/>
<stop offset="1" stop-color="#7EC1D0"/>
</linearGradient>
<clipPath id="clip0_19_13594">
<rect width="1440" height="1024" fill="white"/>
</clipPath>
</defs>
</svg>
