<svg width="404" height="134" viewBox="0 0 404 134" fill="none" xmlns="http://www.w3.org/2000/svg">
<path d="M3.85298 81V30.0909H24.8828C28.6944 30.0909 31.9839 30.8366 34.7514 32.3281C37.5355 33.803 39.6816 35.8662 41.1896 38.5178C42.6977 41.1527 43.4517 44.2185 43.4517 47.7152C43.4517 51.2285 42.6811 54.3026 41.1399 56.9375C39.6153 59.5559 37.4361 61.5859 34.6023 63.0277C31.7685 64.4695 28.4044 65.1903 24.5099 65.1903H11.5341V55.4957H22.223C24.0791 55.4957 25.6286 55.1726 26.8714 54.5263C28.1309 53.88 29.0838 52.9768 29.7301 51.8168C30.3764 50.6401 30.6996 49.273 30.6996 47.7152C30.6996 46.1409 30.3764 44.782 29.7301 43.6385C29.0838 42.4785 28.1309 41.5836 26.8714 40.9538C25.612 40.3241 24.0625 40.0092 22.223 40.0092H16.1577V81H3.85298ZM58.9134 81.6463C56.4773 81.6463 54.3146 81.2403 52.4254 80.4283C50.5528 79.5997 49.0696 78.3568 47.9759 76.6996C46.8987 75.0258 46.3601 72.9295 46.3601 70.4105C46.3601 68.2893 46.733 66.4995 47.4787 65.0412C48.2244 63.5829 49.2519 62.398 50.5611 61.4865C51.8703 60.575 53.3783 59.8873 55.0852 59.4233C56.7921 58.9427 58.6151 58.6196 60.554 58.4538C62.7249 58.255 64.4732 58.0478 65.799 57.8324C67.1248 57.6004 68.0859 57.2772 68.6825 56.8629C69.2957 56.4321 69.6023 55.8272 69.6023 55.0483V54.924C69.6023 53.648 69.1631 52.6619 68.2848 51.9659C67.4065 51.2699 66.2216 50.9219 64.7301 50.9219C63.1226 50.9219 61.83 51.2699 60.8523 51.9659C59.8745 52.6619 59.2531 53.6231 58.9879 54.8494L47.777 54.4517C48.1084 52.1316 48.9619 50.0601 50.3374 48.2372C51.7294 46.3977 53.6352 44.956 56.0547 43.9119C58.4908 42.8513 61.4157 42.321 64.8295 42.321C67.2656 42.321 69.5111 42.611 71.5661 43.191C73.621 43.7545 75.4107 44.5831 76.9354 45.6768C78.46 46.754 79.6366 48.0798 80.4652 49.6541C81.3104 51.2285 81.733 53.0265 81.733 55.0483V81H70.2983V75.6804H70C69.3205 76.973 68.4505 78.0668 67.3899 78.9616C66.3459 79.8565 65.1113 80.5277 63.6861 80.9751C62.2775 81.4226 60.6866 81.6463 58.9134 81.6463ZM62.6669 73.6918C63.9761 73.6918 65.1527 73.4266 66.1967 72.8963C67.2573 72.366 68.1025 71.6368 68.7322 70.7088C69.362 69.7642 69.6768 68.6705 69.6768 67.4276V63.7983C69.3288 63.9806 68.9063 64.1463 68.4091 64.2955C67.9285 64.4446 67.3982 64.5855 66.8182 64.718C66.2382 64.8506 65.6416 64.9666 65.0284 65.0661C64.4152 65.1655 63.8269 65.2566 63.2635 65.3395C62.12 65.5218 61.1423 65.8035 60.3303 66.1847C59.5348 66.5658 58.9216 67.063 58.4908 67.6761C58.0765 68.2727 57.8693 68.9853 57.8693 69.8139C57.8693 71.0734 58.3168 72.0346 59.2116 72.6974C60.1231 73.3603 61.2749 73.6918 62.6669 73.6918ZM96.2997 81L86.3565 42.8182H98.5618L103.707 67.2784H104.031L109.549 42.8182H121.456L127.124 67.1044H127.447L132.443 42.8182H144.648L134.68 81H121.68L115.714 58.7521H115.291L109.325 81H96.2997ZM161.682 59.2244V81H149.527V42.8182H161.086V49.8281H161.508C162.354 47.4915 163.795 45.6603 165.834 44.3345C167.872 42.9922 170.3 42.321 173.117 42.321C175.802 42.321 178.13 42.9259 180.102 44.1357C182.091 45.3288 183.632 47.0026 184.726 49.157C185.836 51.2947 186.383 53.7971 186.366 56.6641V81H174.211V59.0504C174.227 56.9292 173.689 55.272 172.595 54.0788C171.518 52.8857 170.018 52.2891 168.096 52.2891C166.82 52.2891 165.693 52.5708 164.715 53.1342C163.754 53.6811 163.008 54.4683 162.478 55.4957C161.964 56.5232 161.699 57.7661 161.682 59.2244ZM207.837 81.5469C205.02 81.5469 202.46 80.8177 200.156 79.3594C197.853 77.901 196.013 75.7135 194.638 72.7969C193.262 69.8802 192.575 66.2592 192.575 61.9339C192.575 57.4429 193.287 53.7474 194.712 50.8473C196.138 47.9472 198.002 45.8011 200.305 44.4091C202.625 43.017 205.12 42.321 207.788 42.321C209.793 42.321 211.508 42.669 212.933 43.3651C214.358 44.0445 215.535 44.9228 216.463 46C217.391 47.0772 218.095 48.1958 218.576 49.3558H218.825V30.0909H230.98V81H218.949V74.8104H218.576C218.062 75.987 217.333 77.089 216.388 78.1165C215.444 79.1439 214.259 79.9725 212.834 80.6023C211.425 81.232 209.76 81.5469 207.837 81.5469ZM212.063 72.076C213.538 72.076 214.798 71.6617 215.842 70.8331C216.886 69.9879 217.689 68.803 218.253 67.2784C218.816 65.7538 219.098 63.964 219.098 61.9091C219.098 59.821 218.816 58.023 218.253 56.5149C217.706 55.0069 216.902 53.8468 215.842 53.0348C214.798 52.2228 213.538 51.8168 212.063 51.8168C210.555 51.8168 209.279 52.2311 208.235 53.0597C207.191 53.8883 206.396 55.0566 205.849 56.5646C205.318 58.0727 205.053 59.8542 205.053 61.9091C205.053 63.964 205.327 65.7538 205.874 67.2784C206.42 68.803 207.208 69.9879 208.235 70.8331C209.279 71.6617 210.555 72.076 212.063 72.076ZM238.667 81V42.8182H250.475V49.7784H250.873C251.569 47.2595 252.704 45.3868 254.278 44.1605C255.853 42.9176 257.684 42.2962 259.772 42.2962C260.335 42.2962 260.915 42.3376 261.512 42.4205C262.108 42.4867 262.664 42.5945 263.177 42.7436V53.3082C262.597 53.1094 261.835 52.9519 260.89 52.8359C259.962 52.7199 259.134 52.6619 258.405 52.6619C256.963 52.6619 255.662 52.9851 254.502 53.6314C253.358 54.2611 252.455 55.1477 251.792 56.2912C251.146 57.4181 250.823 58.7438 250.823 60.2685V81H238.667Z" fill="#3A364C"/>
<g opacity="0.32" filter="url(#filter0_f_29_18773)">
<path d="M287 79.5C287 96.897 314.61 100 342.5 100C370.39 100 392 68.897 392 51.5C392 34.103 377.39 36 349.5 36C321.61 36 287 46.103 287 79.5Z" fill="url(#paint0_linear_29_18773)"/>
</g>
<path fill-rule="evenodd" clip-rule="evenodd" d="M349.594 96.6334C367.068 93.2341 392.004 66.8717 392.004 46.4998C392.004 24.6845 371.409 6.99976 346.004 6.99976C331.673 6.99976 318.873 12.6269 310.437 21.4484C298.203 33.5505 291.004 55.6631 291.004 67.4998C291.004 84.3444 293.084 97.9998 332.004 97.9998C340.785 97.9998 346.35 97.5214 349.594 96.6334Z" fill="#919597"/>
<g filter="url(#filter1_iiii_29_18773)">
<path fill-rule="evenodd" clip-rule="evenodd" d="M349.594 96.6334C367.068 93.2341 392.004 66.8717 392.004 46.4998C392.004 24.6845 371.409 6.99976 346.004 6.99976C331.673 6.99976 318.873 12.6269 310.437 21.4484C298.203 33.5505 291.004 55.6631 291.004 67.4998C291.004 84.3444 293.084 97.9998 332.004 97.9998C340.786 97.9998 346.35 97.5214 349.594 96.6334Z" fill="url(#paint1_linear_29_18773)" fill-opacity="0.24" style="mix-blend-mode:overlay"/>
</g>
<g style="mix-blend-mode:overlay" opacity="0.24">
<path d="M334 67.4999C334 84.3446 378.92 97.9999 332 97.9999C293.08 97.9999 291 84.3446 291 67.4999C291 50.6552 305.58 12.9999 328.5 12.9999C351.42 12.9999 334 50.6552 334 67.4999Z" fill="url(#paint2_linear_29_18773)"/>
</g>
<g style="mix-blend-mode:overlay" opacity="0.32">
<mask id="mask0_29_18773" style="mask-type:alpha" maskUnits="userSpaceOnUse" x="291" y="7" width="101" height="91">
<path fill-rule="evenodd" clip-rule="evenodd" d="M349.59 96.6336C367.064 93.2344 392 66.8719 392 46.5C392 24.6847 371.405 6.99997 346 6.99997C331.669 6.99997 318.869 12.6271 310.433 21.4486C298.199 33.5507 291 55.6633 291 67.5C291 84.3447 293.08 98 332 98C340.782 98 346.346 97.5216 349.59 96.6336Z" fill="#919597"/>
</mask>
<g mask="url(#mask0_29_18773)">
<g filter="url(#filter2_f_29_18773)">
<path d="M356.16 54.8814C353.431 50.0094 349.683 46.9466 351.219 46.0598C352.755 45.173 356.212 48.4037 358.941 53.2757C361.671 58.1476 360.043 61.8126 360.043 61.8126C358.507 62.6994 358.89 59.7533 356.16 54.8814Z" fill="url(#paint3_linear_29_18773)"/>
<path fill-rule="evenodd" clip-rule="evenodd" d="M352.896 50.0099C351.036 48.3798 347.849 45.5869 343.671 44.4987C338.238 43.0837 335.522 41.8007 334.889 40.7604C333.55 41.2692 329.661 40.7748 322.551 38.8165C317.081 37.3095 311.771 37.8171 308.673 38.1134C306.858 38.2869 305.802 38.3879 305.914 37.9698C306.217 36.8377 314.427 34.3773 323.101 36.7666C326.796 37.7844 330.356 37.7044 332.893 37.6474C333.741 37.6283 334.475 37.6118 335.062 37.6398C335.224 37.5578 335.438 37.5867 335.703 37.6989C336.216 37.7782 336.53 37.9339 336.598 38.2239C336.882 38.4183 337.197 38.6481 337.542 38.8996C339.147 40.0707 341.398 41.7138 344.22 42.4488C350.844 44.174 355.035 49.9699 354.732 51.1021C354.62 51.5201 353.985 50.9643 352.896 50.0099Z" fill="url(#paint4_linear_29_18773)"/>
<path d="M302.963 40.7593C308.219 38.8729 313.057 39.0206 312.48 37.3436C311.903 35.6667 307.173 35.8365 301.917 37.7229C296.661 39.6093 290.95 35.8166 295.485 43.443C296.063 45.12 297.707 42.6457 302.963 40.7593Z" fill="url(#paint5_linear_29_18773)"/>
</g>
<g filter="url(#filter3_f_29_18773)">
<path d="M362.922 47.4647C360.193 42.5928 356.444 39.53 357.98 38.6432C359.516 37.7563 362.974 40.9871 365.703 45.859C368.432 50.731 366.805 54.396 366.805 54.396C365.269 55.2828 365.651 52.3367 362.922 47.4647Z" fill="url(#paint6_linear_29_18773)"/>
<path fill-rule="evenodd" clip-rule="evenodd" d="M359.658 42.5933C357.798 40.9631 354.61 38.1703 350.433 37.0821C344.899 35.6408 342.184 34.3366 341.617 33.2862C340.237 33.8107 335.935 33.2238 327.919 31.0159C321.862 29.3473 316.036 29.7127 312.636 29.9259C310.645 30.0508 309.486 30.1235 309.598 29.7054C309.901 28.5732 318.865 26.3205 328.468 28.9659C332.559 30.0929 336.473 30.1102 339.262 30.1225C340.319 30.1272 341.214 30.1312 341.897 30.1945C342.037 30.1543 342.211 30.1816 342.416 30.2626C342.944 30.3579 343.27 30.5207 343.351 30.8015C343.638 30.9971 343.955 31.2289 344.304 31.483C345.908 32.6541 348.16 34.2972 350.982 35.0322C357.605 36.7574 361.797 42.5533 361.493 43.6854C361.381 44.1035 360.747 43.5477 359.658 42.5933Z" fill="url(#paint7_linear_29_18773)"/>
<path d="M307.725 32.3427C312.981 30.4563 317.819 30.604 317.242 28.927C316.664 27.25 311.935 27.4199 306.679 29.3063C301.423 31.1926 295.711 27.4 300.247 35.0264C300.824 36.7034 302.469 34.2291 307.725 32.3427Z" fill="url(#paint8_linear_29_18773)"/>
</g>
<g filter="url(#filter4_f_29_18773)">
<path fill-rule="evenodd" clip-rule="evenodd" d="M316.123 23.613C319.068 23.2101 324.052 22.5283 329.124 23.9216C335.49 25.6703 339.087 26.2097 340.505 25.7576C341.507 26.8582 344.891 28.1894 351.279 29.858C356.368 31.1874 360.344 34.2699 362.693 36.0914C364.104 37.1858 364.929 37.825 365.055 37.355C365.39 36.1029 360.034 29.719 351.887 27.5908C348.481 26.7011 345.709 24.8899 343.708 23.5825C343.224 23.2662 342.785 22.9794 342.393 22.7422C342.298 22.4452 341.968 22.298 341.448 22.2362C340.968 22.0299 340.608 21.9922 340.377 22.202C339.919 22.2114 339.396 22.2403 338.818 22.2722C336.432 22.4041 333.126 22.5868 329.732 21.6544C321.612 19.4239 313.781 22.2743 313.446 23.5264C313.32 23.9964 314.353 23.855 316.123 23.613Z" fill="url(#paint9_linear_29_18773)"/>
<path d="M366.9 40.7879C363.002 36.7884 358.589 34.8001 359.843 33.546C361.097 32.2918 365.273 34.5176 369.17 38.5172C373.068 42.5167 372.444 46.4781 372.444 46.4781C371.19 47.7322 370.797 44.7875 366.9 40.7879Z" fill="url(#paint10_linear_29_18773)"/>
<path d="M311.644 25.9543C317.111 24.8177 321.882 25.6374 321.543 23.8964C321.205 22.1554 316.498 21.6654 311.031 22.8019C305.563 23.9384 300.435 19.3878 303.865 27.5712C304.204 29.3122 306.176 27.0908 311.644 25.9543Z" fill="url(#paint11_linear_29_18773)"/>
</g>
<g filter="url(#filter5_f_29_18773)">
<path fill-rule="evenodd" clip-rule="evenodd" d="M320.884 18.1963C323.829 17.7934 328.814 17.1116 333.886 18.5049C340.252 20.2537 343.848 20.7931 345.267 20.341C346.269 21.4416 349.653 22.7727 356.041 24.4413C361.13 25.7708 365.105 28.8533 367.455 30.6748C368.866 31.7692 369.69 32.4084 369.816 31.9384C370.152 30.6862 364.795 24.3024 356.648 22.1742C353.243 21.2845 350.471 19.4732 348.47 18.1659C347.986 17.8496 347.547 17.5627 347.155 17.3256C347.06 17.0285 346.73 16.8814 346.21 16.8196C345.729 16.6133 345.37 16.5756 345.139 16.7854C344.681 16.7948 344.157 16.8237 343.58 16.8556C341.194 16.9875 337.888 17.1701 334.493 16.2377C326.374 14.0073 318.543 16.8577 318.207 18.1098C318.081 18.5798 319.115 18.4384 320.884 18.1963Z" fill="url(#paint12_linear_29_18773)"/>
<path d="M371.661 35.3713C367.764 31.3717 363.351 29.3835 364.605 28.1293C365.859 26.8752 370.035 29.1009 373.932 33.1005C377.829 37.1001 377.206 41.0614 377.206 41.0614C375.952 42.3156 375.559 39.3709 371.661 35.3713Z" fill="url(#paint13_linear_29_18773)"/>
<path d="M316.405 20.5376C321.873 19.4011 326.644 20.2208 326.305 18.4798C325.967 16.7387 321.26 16.2488 315.793 17.3853C310.325 18.5218 305.197 13.9711 308.627 22.1546C308.965 23.8956 310.938 21.6742 316.405 20.5376Z" fill="url(#paint14_linear_29_18773)"/>
</g>
<g filter="url(#filter6_f_29_18773)">
<path fill-rule="evenodd" clip-rule="evenodd" d="M372.21 24.5512C369.174 22.4649 364.106 18.9821 357.755 17.3186C349.695 15.2075 345.369 13.7332 344.059 12.5137C342.313 12.9139 337.83 12.0275 329.796 9.8265C323.465 8.09174 317.334 8.57379 313.662 8.86253C311.389 9.04119 310.058 9.14584 310.203 8.60567C310.582 7.19245 320.233 4.4596 330.482 7.26768C334.676 8.41691 338.718 8.38914 341.675 8.36883C342.51 8.36309 343.259 8.35795 343.9 8.38008C344.187 8.22907 344.602 8.28319 345.136 8.48448C345.704 8.57733 346.093 8.73855 346.266 9.01498C346.831 9.3162 347.477 9.69462 348.196 10.1167C350.747 11.6128 354.233 13.6578 358.441 14.7598C368.721 17.4525 375.712 24.6447 375.334 26.0579C375.189 26.5981 374.088 25.8419 372.21 24.5512Z" fill="url(#paint15_linear_29_18773)"/>
<path d="M377.757 30.1197C374.076 25.8827 369.841 23.6987 371.092 22.4479C372.343 21.197 376.341 23.6179 380.021 27.8548C383.702 32.0918 382.993 36.1475 382.993 36.1475C381.742 37.3983 381.437 34.3566 377.757 30.1197Z" fill="url(#paint16_linear_29_18773)"/>
<path d="M306.157 11.2879C311.578 9.83346 316.31 10.3908 315.972 8.6544C315.635 6.91795 310.966 6.68939 305.546 8.14381C300.125 9.59823 295.035 5.29892 298.445 13.357C298.783 15.0935 300.736 12.7423 306.157 11.2879Z" fill="url(#paint17_linear_29_18773)"/>
</g>
<g filter="url(#filter7_f_29_18773)">
<path fill-rule="evenodd" clip-rule="evenodd" d="M375.968 19.1345C372.932 17.0483 367.863 13.5655 361.513 11.902C353.453 9.7909 349.127 8.31655 347.817 7.0971C346.071 7.4973 341.588 6.61091 333.554 4.40987C327.222 2.67511 321.092 3.15716 317.419 3.44591C315.147 3.62456 313.816 3.72922 313.961 3.18905C314.34 1.77583 323.991 -0.957023 334.24 1.85105C338.434 3.00028 342.476 2.97252 345.433 2.95221C346.268 2.94647 347.017 2.94133 347.658 2.96346C347.945 2.81244 348.359 2.86656 348.894 3.06786C349.462 3.16071 349.85 3.32192 350.023 3.59835C350.589 3.89957 351.234 4.27799 351.954 4.70011C354.505 6.1962 357.991 8.24118 362.198 9.34319C372.478 12.0359 379.47 19.2281 379.091 20.6413C378.947 21.1815 377.846 20.4253 375.968 19.1345Z" fill="url(#paint18_linear_29_18773)"/>
<path d="M381.514 24.703C377.834 20.4661 373.599 18.2821 374.85 17.0312C376.101 15.7804 380.099 18.2013 383.779 22.4382C387.46 26.6752 386.751 30.7309 386.751 30.7309C385.5 31.9817 385.195 28.94 381.514 24.703Z" fill="url(#paint19_linear_29_18773)"/>
<path d="M309.915 5.87125C315.335 4.41684 320.067 4.97422 319.73 3.23777C319.392 1.50132 314.724 1.27277 309.304 2.72719C303.883 4.1816 298.792 -0.117709 302.203 7.94042C302.54 9.67687 304.494 7.32567 309.915 5.87125Z" fill="url(#paint20_linear_29_18773)"/>
</g>
</g>
</g>
<mask id="mask1_29_18773" style="mask-type:alpha" maskUnits="userSpaceOnUse" x="291" y="6" width="101" height="92">
<path fill-rule="evenodd" clip-rule="evenodd" d="M349.59 96.6334C367.064 93.2341 392 66.8717 392 46.4998C392 24.6845 371.405 6.99976 346 6.99976C331.669 6.99976 318.869 12.6269 310.433 21.4484C298.199 33.5505 291 55.6631 291 67.4998C291 84.3444 293.08 97.9998 332 97.9998C340.782 97.9998 346.346 97.5214 349.59 96.6334Z" fill="#919597"/>
</mask>
<g mask="url(#mask1_29_18773)">
<g style="mix-blend-mode:overlay" opacity="0.64" filter="url(#filter8_f_29_18773)">
<ellipse cx="322.402" cy="53.2341" rx="31" ry="17.5" fill="url(#paint21_linear_29_18773)"/>
</g>
</g>
<g filter="url(#filter9_d_29_18773)">
<g filter="url(#filter10_ii_29_18773)">
<path d="M305.696 41C297.196 62.4998 305.069 72.5 326.75 72.5C348.43 72.5 343.196 52.8256 340.273 49.9269" stroke="#2B2827" stroke-width="1.5" stroke-linecap="round"/>
<path d="M305.696 41C297.196 62.4998 305.069 72.5 326.75 72.5C348.43 72.5 343.196 52.8256 340.273 49.9269" stroke="url(#paint22_linear_29_18773)" stroke-opacity="0.4" stroke-width="1.5" stroke-linecap="round" style="mix-blend-mode:overlay"/>
<path d="M305.696 41C297.196 62.4998 305.069 72.5 326.75 72.5C348.43 72.5 343.196 52.8256 340.273 49.9269" stroke="url(#paint23_linear_29_18773)" stroke-opacity="0.16" stroke-width="1.5" stroke-linecap="round" style="mix-blend-mode:lighten"/>
</g>
<mask id="mask2_29_18773" style="mask-type:alpha" maskUnits="userSpaceOnUse" x="301" y="40" width="43" height="34">
<path fill-rule="evenodd" clip-rule="evenodd" d="M305.971 40.3025C306.357 40.4548 306.545 40.8906 306.393 41.2758C302.167 51.9663 302.13 59.5193 305.52 64.3836C308.915 69.2543 315.968 71.75 326.749 71.75C332.06 71.75 335.624 70.5454 337.969 68.7812C340.307 67.0229 341.512 64.6508 342.001 62.1561C342.493 59.6493 342.257 57.0326 341.714 54.8588C341.443 53.7745 341.099 52.814 340.74 52.0463C340.376 51.2644 340.019 50.7314 339.745 50.4595C339.451 50.1678 339.449 49.6929 339.74 49.3988C340.032 49.1047 340.507 49.1028 340.801 49.3944C341.257 49.8472 341.704 50.5631 342.1 51.412C342.502 52.275 342.877 53.3272 343.169 54.495C343.752 56.8253 344.018 59.6708 343.473 62.4449C342.927 65.2311 341.558 67.9587 338.871 69.98C336.191 71.9954 332.279 73.25 326.749 73.25C315.851 73.25 308.126 70.7456 304.29 65.2413C300.448 59.7305 300.725 51.5335 304.998 40.7243C305.15 40.3391 305.586 40.1503 305.971 40.3025Z" fill="url(#paint24_linear_29_18773)"/>
</mask>
<g mask="url(#mask2_29_18773)">
<g style="mix-blend-mode:multiply" opacity="0.4" filter="url(#filter11_f_29_18773)">
<circle cx="317.34" cy="57" r="16" fill="black"/>
</g>
</g>
</g>
<mask id="mask3_29_18773" style="mask-type:alpha" maskUnits="userSpaceOnUse" x="317" y="68" width="15" height="11">
<ellipse cx="324.34" cy="73.5" rx="7" ry="5.5" fill="#D9D9D9"/>
</mask>
<g mask="url(#mask3_29_18773)">
<g filter="url(#filter12_ii_29_18773)">
<rect x="317.34" y="68" width="14" height="12" fill="url(#paint25_radial_29_18773)"/>
</g>
<g opacity="0.64">
<mask id="path-32-outside-1_29_18773" maskUnits="userSpaceOnUse" x="320.34" y="72" width="7" height="3" fill="black">
<rect fill="white" x="320.34" y="72" width="7" height="3"/>
<path d="M321.723 74.5114C321.667 74.5114 321.613 74.5069 321.562 74.498C321.511 74.4898 321.467 74.4782 321.428 74.4634L321.535 74.1154C321.575 74.1296 321.612 74.1388 321.645 74.1429C321.678 74.1471 321.707 74.1447 321.731 74.1358C321.755 74.127 321.773 74.1101 321.783 74.0852L321.794 74.0604L321.314 72.6364H321.826L322.046 73.581H322.06L322.284 72.6364H322.799L322.302 74.1136C322.277 74.1888 322.241 74.2563 322.193 74.3161C322.147 74.3764 322.085 74.4241 322.009 74.459C321.932 74.4939 321.837 74.5114 321.723 74.5114ZM323.554 74.0249C323.406 74.0249 323.279 73.9956 323.174 73.937C323.068 73.8778 322.988 73.7955 322.931 73.6902C322.875 73.5842 322.847 73.4614 322.847 73.3217C322.847 73.1821 322.875 73.0595 322.931 72.9542C322.988 72.8482 323.068 72.766 323.174 72.7074C323.279 72.6482 323.406 72.6186 323.554 72.6186C323.702 72.6186 323.828 72.6482 323.934 72.7074C324.039 72.766 324.12 72.8482 324.176 72.9542C324.232 73.0595 324.26 73.1821 324.26 73.3217C324.26 73.4614 324.232 73.5842 324.176 73.6902C324.12 73.7955 324.039 73.8778 323.934 73.937C323.828 73.9956 323.702 74.0249 323.554 74.0249ZM323.557 73.6626C323.599 73.6626 323.634 73.6487 323.665 73.6209C323.695 73.5931 323.718 73.5534 323.735 73.502C323.751 73.4505 323.76 73.3892 323.76 73.3182C323.76 73.2466 323.751 73.1853 323.735 73.1344C323.718 73.0829 323.695 73.0433 323.665 73.0154C323.634 72.9876 323.599 72.9737 323.557 72.9737C323.513 72.9737 323.476 72.9876 323.445 73.0154C323.413 73.0433 323.389 73.0829 323.373 73.1344C323.356 73.1853 323.348 73.2466 323.348 73.3182C323.348 73.3892 323.356 73.4505 323.373 73.502C323.389 73.5534 323.413 73.5931 323.445 73.6209C323.476 73.6487 323.513 73.6626 323.557 73.6626ZM325.116 74.0249C324.968 74.0249 324.842 73.9956 324.736 73.937C324.631 73.8778 324.55 73.7955 324.494 73.6902C324.438 73.5842 324.41 73.4614 324.41 73.3217C324.41 73.1821 324.438 73.0595 324.494 72.9542C324.55 72.8482 324.631 72.766 324.736 72.7074C324.842 72.6482 324.968 72.6186 325.116 72.6186C325.264 72.6186 325.391 72.6482 325.496 72.7074C325.602 72.766 325.682 72.8482 325.739 72.9542C325.795 73.0595 325.823 73.1821 325.823 73.3217C325.823 73.4614 325.795 73.5842 325.739 73.6902C325.682 73.7955 325.602 73.8778 325.496 73.937C325.391 73.9956 325.264 74.0249 325.116 74.0249ZM325.12 73.6626C325.161 73.6626 325.197 73.6487 325.227 73.6209C325.257 73.5931 325.281 73.5534 325.297 73.502C325.314 73.4505 325.322 73.3892 325.322 73.3182C325.322 73.2466 325.314 73.1853 325.297 73.1344C325.281 73.0829 325.257 73.0433 325.227 73.0154C325.197 72.9876 325.161 72.9737 325.12 72.9737C325.076 72.9737 325.038 72.9876 325.007 73.0154C324.976 73.0433 324.952 73.0829 324.935 73.1344C324.919 73.1853 324.91 73.2466 324.91 73.3182C324.91 73.3892 324.919 73.4505 324.935 73.502C324.952 73.5534 324.976 73.5931 325.007 73.6209C325.038 73.6487 325.076 73.6626 325.12 73.6626ZM326.036 74V73.7301L326.633 73.0163V73.0092H326.057V72.6364H327.211V72.9347L326.668 73.62V73.6271H327.233V74H326.036Z"/>
</mask>
<g filter="url(#filter13_i_29_18773)">
<path d="M321.723 74.5114C321.667 74.5114 321.613 74.5069 321.562 74.498C321.511 74.4898 321.467 74.4782 321.428 74.4634L321.535 74.1154C321.575 74.1296 321.612 74.1388 321.645 74.1429C321.678 74.1471 321.707 74.1447 321.731 74.1358C321.755 74.127 321.773 74.1101 321.783 74.0852L321.794 74.0604L321.314 72.6364H321.826L322.046 73.581H322.06L322.284 72.6364H322.799L322.302 74.1136C322.277 74.1888 322.241 74.2563 322.193 74.3161C322.147 74.3764 322.085 74.4241 322.009 74.459C321.932 74.4939 321.837 74.5114 321.723 74.5114ZM323.554 74.0249C323.406 74.0249 323.279 73.9956 323.174 73.937C323.068 73.8778 322.988 73.7955 322.931 73.6902C322.875 73.5842 322.847 73.4614 322.847 73.3217C322.847 73.1821 322.875 73.0595 322.931 72.9542C322.988 72.8482 323.068 72.766 323.174 72.7074C323.279 72.6482 323.406 72.6186 323.554 72.6186C323.702 72.6186 323.828 72.6482 323.934 72.7074C324.039 72.766 324.12 72.8482 324.176 72.9542C324.232 73.0595 324.26 73.1821 324.26 73.3217C324.26 73.4614 324.232 73.5842 324.176 73.6902C324.12 73.7955 324.039 73.8778 323.934 73.937C323.828 73.9956 323.702 74.0249 323.554 74.0249ZM323.557 73.6626C323.599 73.6626 323.634 73.6487 323.665 73.6209C323.695 73.5931 323.718 73.5534 323.735 73.502C323.751 73.4505 323.76 73.3892 323.76 73.3182C323.76 73.2466 323.751 73.1853 323.735 73.1344C323.718 73.0829 323.695 73.0433 323.665 73.0154C323.634 72.9876 323.599 72.9737 323.557 72.9737C323.513 72.9737 323.476 72.9876 323.445 73.0154C323.413 73.0433 323.389 73.0829 323.373 73.1344C323.356 73.1853 323.348 73.2466 323.348 73.3182C323.348 73.3892 323.356 73.4505 323.373 73.502C323.389 73.5534 323.413 73.5931 323.445 73.6209C323.476 73.6487 323.513 73.6626 323.557 73.6626ZM325.116 74.0249C324.968 74.0249 324.842 73.9956 324.736 73.937C324.631 73.8778 324.55 73.7955 324.494 73.6902C324.438 73.5842 324.41 73.4614 324.41 73.3217C324.41 73.1821 324.438 73.0595 324.494 72.9542C324.55 72.8482 324.631 72.766 324.736 72.7074C324.842 72.6482 324.968 72.6186 325.116 72.6186C325.264 72.6186 325.391 72.6482 325.496 72.7074C325.602 72.766 325.682 72.8482 325.739 72.9542C325.795 73.0595 325.823 73.1821 325.823 73.3217C325.823 73.4614 325.795 73.5842 325.739 73.6902C325.682 73.7955 325.602 73.8778 325.496 73.937C325.391 73.9956 325.264 74.0249 325.116 74.0249ZM325.12 73.6626C325.161 73.6626 325.197 73.6487 325.227 73.6209C325.257 73.5931 325.281 73.5534 325.297 73.502C325.314 73.4505 325.322 73.3892 325.322 73.3182C325.322 73.2466 325.314 73.1853 325.297 73.1344C325.281 73.0829 325.257 73.0433 325.227 73.0154C325.197 72.9876 325.161 72.9737 325.12 72.9737C325.076 72.9737 325.038 72.9876 325.007 73.0154C324.976 73.0433 324.952 73.0829 324.935 73.1344C324.919 73.1853 324.91 73.2466 324.91 73.3182C324.91 73.3892 324.919 73.4505 324.935 73.502C324.952 73.5534 324.976 73.5931 325.007 73.6209C325.038 73.6487 325.076 73.6626 325.12 73.6626ZM326.036 74V73.7301L326.633 73.0163V73.0092H326.057V72.6364H327.211V72.9347L326.668 73.62V73.6271H327.233V74H326.036Z" fill="url(#paint26_linear_29_18773)"/>
</g>
<path d="M321.562 74.498L321.571 74.4488L321.57 74.4487L321.562 74.498ZM321.428 74.4634L321.38 74.4488L321.367 74.4934L321.41 74.5101L321.428 74.4634ZM321.535 74.1154L321.551 74.0683L321.502 74.0509L321.487 74.1008L321.535 74.1154ZM321.645 74.1429L321.639 74.1925L321.639 74.1926L321.645 74.1429ZM321.731 74.1358L321.714 74.0889L321.713 74.089L321.731 74.1358ZM321.783 74.0852L321.829 74.1049L321.829 74.1049L321.783 74.0852ZM321.794 74.0604L321.84 74.0801L321.847 74.0625L321.841 74.0444L321.794 74.0604ZM321.314 72.6364V72.5864H321.245L321.267 72.6523L321.314 72.6364ZM321.826 72.6364L321.875 72.625L321.866 72.5864H321.826V72.6364ZM322.046 73.581L321.997 73.5923L322.006 73.631H322.046V73.581ZM322.06 73.581V73.631H322.1L322.109 73.5925L322.06 73.581ZM322.284 72.6364V72.5864H322.244L322.235 72.6248L322.284 72.6364ZM322.799 72.6364L322.846 72.6523L322.868 72.5864H322.799V72.6364ZM322.302 74.1136L322.254 74.0977L322.254 74.0979L322.302 74.1136ZM322.193 74.3161L322.154 74.285L322.154 74.2854L322.193 74.3161ZM322.009 74.459L321.988 74.4135L321.988 74.4135L322.009 74.459ZM321.723 74.4614C321.669 74.4614 321.619 74.4571 321.571 74.4488L321.554 74.5473C321.608 74.5567 321.664 74.5614 321.723 74.5614V74.4614ZM321.57 74.4487C321.522 74.4408 321.481 74.4301 321.446 74.4168L321.41 74.5101C321.453 74.5264 321.501 74.5387 321.554 74.5474L321.57 74.4487ZM321.476 74.4781L321.582 74.13L321.487 74.1008L321.38 74.4488L321.476 74.4781ZM321.518 74.1626C321.561 74.1776 321.601 74.1879 321.639 74.1925L321.651 74.0933C321.622 74.0897 321.589 74.0816 321.551 74.0683L321.518 74.1626ZM321.639 74.1926C321.678 74.1974 321.715 74.1952 321.748 74.1826L321.713 74.089C321.699 74.0943 321.679 74.0968 321.651 74.0933L321.639 74.1926ZM321.748 74.1828C321.786 74.1689 321.813 74.1418 321.829 74.1049L321.737 74.0655C321.732 74.0784 321.724 74.085 321.714 74.0889L321.748 74.1828ZM321.829 74.1049L321.84 74.0801L321.748 74.0407L321.737 74.0655L321.829 74.1049ZM321.841 74.0444L321.362 72.6204L321.267 72.6523L321.747 74.0763L321.841 74.0444ZM321.314 72.6864H321.826V72.5864H321.314V72.6864ZM321.777 72.6477L321.997 73.5923L322.095 73.5696L321.875 72.625L321.777 72.6477ZM322.046 73.631H322.06V73.531H322.046V73.631ZM322.109 73.5925L322.333 72.6479L322.235 72.6248L322.012 73.5694L322.109 73.5925ZM322.284 72.6864H322.799V72.5864H322.284V72.6864ZM322.751 72.6204L322.254 74.0977L322.349 74.1296L322.846 72.6523L322.751 72.6204ZM322.254 74.0979C322.231 74.1678 322.198 74.23 322.154 74.285L322.233 74.3471C322.284 74.2826 322.323 74.2098 322.349 74.1293L322.254 74.0979ZM322.154 74.2854C322.113 74.3388 322.058 74.3816 321.988 74.4135L322.03 74.5045C322.112 74.4665 322.181 74.414 322.233 74.3467L322.154 74.2854ZM321.988 74.4135C321.92 74.4446 321.832 74.4614 321.723 74.4614V74.5614C321.842 74.5614 321.945 74.5432 322.03 74.5045L321.988 74.4135ZM323.174 73.937L323.149 73.9806L323.149 73.9807L323.174 73.937ZM322.931 73.6902L322.887 73.7136L322.887 73.7137L322.931 73.6902ZM322.931 72.9542L322.975 72.9777L322.976 72.9776L322.931 72.9542ZM323.174 72.7074L323.198 72.7511L323.198 72.751L323.174 72.7074ZM323.934 72.7074L323.909 72.751L323.909 72.7511L323.934 72.7074ZM324.176 72.9542L324.132 72.9776L324.132 72.9777L324.176 72.9542ZM324.176 73.6902L324.22 73.7137L324.22 73.7136L324.176 73.6902ZM323.934 73.937L323.958 73.9807L323.958 73.9806L323.934 73.937ZM323.665 73.6209L323.699 73.6577L323.699 73.6577L323.665 73.6209ZM323.735 73.502L323.782 73.5173L323.782 73.5173L323.735 73.502ZM323.735 73.1344L323.687 73.1497L323.687 73.1499L323.735 73.1344ZM323.665 73.0154L323.699 72.9787L323.699 72.9787L323.665 73.0154ZM323.373 73.1344L323.42 73.1499L323.42 73.1497L323.373 73.1344ZM323.373 73.502L323.42 73.4866L323.42 73.4866L323.373 73.502ZM323.554 73.9749C323.412 73.9749 323.294 73.9469 323.198 73.8933L323.149 73.9807C323.264 74.0442 323.399 74.0749 323.554 74.0749V73.9749ZM323.198 73.8934C323.101 73.8388 323.027 73.7634 322.975 73.6666L322.887 73.7137C322.948 73.8276 323.036 73.9168 323.149 73.9806L323.198 73.8934ZM322.976 73.6667C322.924 73.5691 322.897 73.4546 322.897 73.3217H322.797C322.797 73.4682 322.827 73.5993 322.887 73.7136L322.976 73.6667ZM322.897 73.3217C322.897 73.1889 322.924 73.0747 322.975 72.9777L322.887 72.9306C322.827 73.0444 322.797 73.1752 322.797 73.3217H322.897ZM322.976 72.9776C323.027 72.8803 323.101 72.805 323.198 72.7511L323.149 72.6637C323.036 72.727 322.948 72.8162 322.887 72.9308L322.976 72.9776ZM323.198 72.751C323.295 72.6968 323.412 72.6686 323.554 72.6686V72.5686C323.399 72.5686 323.264 72.5996 323.149 72.6638L323.198 72.751ZM323.554 72.6686C323.695 72.6686 323.813 72.6968 323.909 72.751L323.958 72.6638C323.844 72.5996 323.708 72.5686 323.554 72.5686V72.6686ZM323.909 72.7511C324.006 72.805 324.08 72.8803 324.132 72.9776L324.22 72.9308C324.159 72.8162 324.072 72.727 323.958 72.6637L323.909 72.7511ZM324.132 72.9777C324.184 73.0747 324.21 73.1889 324.21 73.3217H324.31C324.31 73.1752 324.281 73.0444 324.22 72.9306L324.132 72.9777ZM324.21 73.3217C324.21 73.4546 324.184 73.5691 324.132 73.6667L324.22 73.7136C324.281 73.5993 324.31 73.4682 324.31 73.3217H324.21ZM324.132 73.6666C324.08 73.7634 324.006 73.8388 323.909 73.8934L323.958 73.9806C324.072 73.9168 324.159 73.8276 324.22 73.7137L324.132 73.6666ZM323.909 73.8933C323.813 73.9469 323.695 73.9749 323.554 73.9749V74.0749C323.708 74.0749 323.844 74.0442 323.958 73.9807L323.909 73.8933ZM323.557 73.7126C323.611 73.7126 323.659 73.6941 323.699 73.6577L323.631 73.5841C323.61 73.6034 323.586 73.6126 323.557 73.6126V73.7126ZM323.699 73.6577C323.737 73.6224 323.764 73.5744 323.782 73.5173L323.687 73.4866C323.672 73.5324 323.653 73.5637 323.631 73.5841L323.699 73.6577ZM323.782 73.5173C323.801 73.4596 323.81 73.3929 323.81 73.3182H323.71C323.71 73.3855 323.702 73.4414 323.687 73.4866L323.782 73.5173ZM323.81 73.3182C323.81 73.243 323.801 73.1762 323.782 73.1189L323.687 73.1499C323.702 73.1944 323.71 73.2502 323.71 73.3182H323.81ZM323.782 73.1191C323.764 73.0619 323.737 73.0139 323.699 72.9787L323.631 73.0522C323.653 73.0726 323.672 73.1039 323.687 73.1497L323.782 73.1191ZM323.699 72.9787C323.659 72.9423 323.611 72.9237 323.557 72.9237V73.0237C323.586 73.0237 323.61 73.033 323.631 73.0522L323.699 72.9787ZM323.557 72.9237C323.502 72.9237 323.452 72.9417 323.411 72.978L323.478 73.0529C323.499 73.0335 323.525 73.0237 323.557 73.0237V72.9237ZM323.411 72.978C323.372 73.0133 323.344 73.0615 323.325 73.1191L323.42 73.1497C323.435 73.1043 323.455 73.0732 323.478 73.0529L323.411 72.978ZM323.325 73.1189C323.306 73.1762 323.298 73.243 323.298 73.3182H323.398C323.398 73.2502 323.406 73.1944 323.42 73.1499L323.325 73.1189ZM323.298 73.3182C323.298 73.3929 323.306 73.4596 323.325 73.5173L323.42 73.4866C323.406 73.4414 323.398 73.3855 323.398 73.3182H323.298ZM323.325 73.5173C323.344 73.5749 323.372 73.6231 323.411 73.6583L323.478 73.5835C323.455 73.5631 323.435 73.532 323.42 73.4866L323.325 73.5173ZM323.411 73.6583C323.452 73.6946 323.502 73.7126 323.557 73.7126V73.6126C323.525 73.6126 323.499 73.6028 323.478 73.5835L323.411 73.6583ZM324.736 73.937L324.712 73.9806L324.712 73.9807L324.736 73.937ZM324.494 73.6902L324.45 73.7136L324.45 73.7137L324.494 73.6902ZM324.494 72.9542L324.538 72.9777L324.538 72.9776L324.494 72.9542ZM324.736 72.7074L324.761 72.7511L324.761 72.751L324.736 72.7074ZM325.496 72.7074L325.472 72.751L325.472 72.7511L325.496 72.7074ZM325.739 72.9542L325.694 72.9776L325.694 72.9777L325.739 72.9542ZM325.739 73.6902L325.783 73.7137L325.783 73.7136L325.739 73.6902ZM325.496 73.937L325.52 73.9807L325.521 73.9806L325.496 73.937ZM325.227 73.6209L325.261 73.6577L325.261 73.6577L325.227 73.6209ZM325.297 73.502L325.345 73.5173L325.345 73.5173L325.297 73.502ZM325.297 73.1344L325.25 73.1497L325.25 73.1499L325.297 73.1344ZM325.227 73.0154L325.261 72.9787L325.261 72.9787L325.227 73.0154ZM324.935 73.1344L324.983 73.1499L324.983 73.1497L324.935 73.1344ZM324.935 73.502L324.983 73.4866L324.983 73.4866L324.935 73.502ZM325.116 73.9749C324.975 73.9749 324.857 73.9469 324.761 73.8933L324.712 73.9807C324.826 74.0442 324.962 74.0749 325.116 74.0749V73.9749ZM324.761 73.8934C324.664 73.8388 324.59 73.7634 324.538 73.6666L324.45 73.7137C324.511 73.8276 324.598 73.9168 324.712 73.9806L324.761 73.8934ZM324.538 73.6667C324.486 73.5691 324.46 73.4546 324.46 73.3217H324.36C324.36 73.4682 324.389 73.5993 324.45 73.7136L324.538 73.6667ZM324.46 73.3217C324.46 73.1889 324.486 73.0747 324.538 72.9777L324.45 72.9306C324.389 73.0444 324.36 73.1752 324.36 73.3217H324.46ZM324.538 72.9776C324.59 72.8803 324.664 72.805 324.761 72.7511L324.712 72.6637C324.598 72.727 324.51 72.8162 324.45 72.9308L324.538 72.9776ZM324.761 72.751C324.857 72.6968 324.975 72.6686 325.116 72.6686V72.5686C324.962 72.5686 324.826 72.5996 324.712 72.6638L324.761 72.751ZM325.116 72.6686C325.258 72.6686 325.375 72.6968 325.472 72.751L325.521 72.6638C325.406 72.5996 325.271 72.5686 325.116 72.5686V72.6686ZM325.472 72.7511C325.569 72.805 325.643 72.8803 325.694 72.9776L325.783 72.9308C325.722 72.8162 325.634 72.727 325.52 72.6637L325.472 72.7511ZM325.694 72.9777C325.746 73.0747 325.773 73.1889 325.773 73.3217H325.873C325.873 73.1752 325.843 73.0444 325.783 72.9306L325.694 72.9777ZM325.773 73.3217C325.773 73.4546 325.746 73.5691 325.694 73.6667L325.783 73.7136C325.843 73.5993 325.873 73.4682 325.873 73.3217H325.773ZM325.694 73.6666C325.643 73.7634 325.569 73.8388 325.472 73.8934L325.521 73.9806C325.634 73.9168 325.722 73.8276 325.783 73.7137L325.694 73.6666ZM325.472 73.8933C325.375 73.9469 325.258 73.9749 325.116 73.9749V74.0749C325.271 74.0749 325.406 74.0442 325.52 73.9807L325.472 73.8933ZM325.12 73.7126C325.174 73.7126 325.222 73.6941 325.261 73.6577L325.193 73.5841C325.172 73.6034 325.149 73.6126 325.12 73.6126V73.7126ZM325.261 73.6577C325.299 73.6224 325.327 73.5744 325.345 73.5173L325.25 73.4866C325.235 73.5324 325.215 73.5637 325.193 73.5841L325.261 73.6577ZM325.345 73.5173C325.363 73.4596 325.372 73.3929 325.372 73.3182H325.272C325.272 73.3855 325.264 73.4414 325.25 73.4866L325.345 73.5173ZM325.372 73.3182C325.372 73.243 325.364 73.1762 325.345 73.1189L325.25 73.1499C325.264 73.1944 325.272 73.2502 325.272 73.3182H325.372ZM325.345 73.1191C325.327 73.0619 325.299 73.0139 325.261 72.9787L325.193 73.0522C325.215 73.0726 325.235 73.1039 325.25 73.1497L325.345 73.1191ZM325.261 72.9787C325.222 72.9423 325.174 72.9237 325.12 72.9237V73.0237C325.149 73.0237 325.172 73.033 325.193 73.0522L325.261 72.9787ZM325.12 72.9237C325.064 72.9237 325.015 72.9417 324.974 72.978L325.04 73.0529C325.062 73.0335 325.088 73.0237 325.12 73.0237V72.9237ZM324.974 72.978C324.934 73.0133 324.906 73.0615 324.888 73.1191L324.983 73.1497C324.997 73.1043 325.017 73.0732 325.04 73.0529L324.974 72.978ZM324.888 73.1189C324.869 73.1762 324.86 73.243 324.86 73.3182H324.96C324.96 73.2502 324.968 73.1944 324.983 73.1499L324.888 73.1189ZM324.86 73.3182C324.86 73.3929 324.869 73.4596 324.888 73.5173L324.983 73.4866C324.968 73.4414 324.96 73.3855 324.96 73.3182H324.86ZM324.888 73.5173C324.906 73.5749 324.934 73.6231 324.974 73.6583L325.04 73.5835C325.017 73.5631 324.997 73.532 324.983 73.4866L324.888 73.5173ZM324.974 73.6583C325.015 73.6946 325.064 73.7126 325.12 73.7126V73.6126C325.088 73.6126 325.062 73.6028 325.04 73.5835L324.974 73.6583ZM326.036 74H325.986V74.05H326.036V74ZM326.036 73.7301L325.998 73.698L325.986 73.712V73.7301H326.036ZM326.633 73.0163L326.671 73.0484L326.683 73.0345V73.0163H326.633ZM326.633 73.0092H326.683V72.9592H326.633V73.0092ZM326.057 73.0092H326.007V73.0592H326.057V73.0092ZM326.057 72.6364V72.5864H326.007V72.6364H326.057ZM327.211 72.6364H327.261V72.5864H327.211V72.6364ZM327.211 72.9347L327.251 72.9657L327.261 72.9521V72.9347H327.211ZM326.668 73.62L326.629 73.589L326.618 73.6026V73.62H326.668ZM326.668 73.6271H326.618V73.6771H326.668V73.6271ZM327.233 73.6271H327.283V73.5771H327.233V73.6271ZM327.233 74V74.05H327.283V74H327.233ZM326.086 74V73.7301H325.986V74H326.086ZM326.074 73.7622L326.671 73.0484L326.594 72.9843L325.998 73.698L326.074 73.7622ZM326.683 73.0163V73.0092H326.583V73.0163H326.683ZM326.633 72.9592H326.057V73.0592H326.633V72.9592ZM326.107 73.0092V72.6364H326.007V73.0092H326.107ZM326.057 72.6864H327.211V72.5864H326.057V72.6864ZM327.161 72.6364V72.9347H327.261V72.6364H327.161ZM327.172 72.9036L326.629 73.589L326.707 73.6511L327.251 72.9657L327.172 72.9036ZM326.618 73.62V73.6271H326.718V73.62H326.618ZM326.668 73.6771H327.233V73.5771H326.668V73.6771ZM327.183 73.6271V74H327.283V73.6271H327.183ZM327.233 73.95H326.036V74.05H327.233V73.95Z" fill="url(#paint27_linear_29_18773)" fill-opacity="0.8" mask="url(#path-32-outside-1_29_18773)"/>
</g>
</g>
<g filter="url(#filter14_iiii_29_18773)">
<path d="M292.839 24C294.34 12 295.34 4 297.84 4C300.34 4 312.34 12 312.34 12C315.84 11 324.339 11 324.339 11V66C324.339 66 304.34 66 296.34 56.5C288.34 47 291.339 36 292.839 24Z" fill="#919597"/>
<path d="M292.839 24C294.34 12 295.34 4 297.84 4C300.34 4 312.34 12 312.34 12C315.84 11 324.339 11 324.339 11V66C324.339 66 304.34 66 296.34 56.5C288.34 47 291.339 36 292.839 24Z" fill="url(#paint28_linear_29_18773)" fill-opacity="0.24" style="mix-blend-mode:overlay"/>
<mask id="mask4_29_18773" style="mask-type:alpha" maskUnits="userSpaceOnUse" x="291" y="4" width="34" height="62">
<path d="M292.84 24C294.34 12 295.34 4 297.84 4C300.34 4 312.34 12 312.34 12C315.84 11 324.34 11 324.34 11V66C324.34 66 304.34 66 296.34 56.5C288.34 47 291.339 36 292.84 24Z" fill="black"/>
</mask>
<g mask="url(#mask4_29_18773)">
<path opacity="0.4" d="M294.34 29.4999C292.809 33.8482 295.34 5.50007 297.34 5.50009C299.34 5.50011 309.743 10.5835 310.769 12.3599C311.794 14.1363 299.35 15.2703 294.34 29.4999Z" fill="url(#paint29_linear_29_18773)"/>
<g style="mix-blend-mode:overlay">
<path d="M294.34 29.4999C292.809 33.8482 295.34 5.5001 297.34 5.50012C299.34 5.50014 309.743 10.5836 310.769 12.36C311.794 14.1364 299.35 15.2703 294.34 29.4999Z" fill="url(#paint30_linear_29_18773)"/>
</g>
<g style="mix-blend-mode:overlay" opacity="0.64">
<path d="M294.34 29.5001C292.809 33.8484 295.34 5.50023 297.34 5.50024C299.34 5.50026 309.743 10.5837 310.769 12.3601C311.794 14.1365 299.35 15.2704 294.34 29.5001Z" fill="url(#paint31_linear_29_18773)"/>
</g>
<g style="mix-blend-mode:overlay" opacity="0.24" filter="url(#filter15_f_29_18773)">
<ellipse cx="312.34" cy="41.0001" rx="11" ry="6" transform="rotate(-4 312.34 41.0001)" fill="url(#paint32_radial_29_18773)"/>
</g>
<g style="mix-blend-mode:overlay" opacity="0.24" filter="url(#filter16_f_29_18773)">
<ellipse cx="293.684" cy="47.5508" rx="18.0388" ry="6" transform="rotate(75 293.684 47.5508)" fill="url(#paint33_radial_29_18773)"/>
</g>
<g style="mix-blend-mode:overlay" opacity="0.32" filter="url(#filter17_f_29_18773)">
<path d="M337.34 19.2064C337.34 24.8432 335.141 33.6154 327.643 33.6154C320.145 33.6154 305.34 21.8413 305.34 16.2045C305.34 10.5677 320.145 9 327.643 9C335.141 9 337.34 13.5696 337.34 19.2064Z" fill="url(#paint34_radial_29_18773)"/>
</g>
<g style="mix-blend-mode:overlay" opacity="0.4" filter="url(#filter18_f_29_18773)">
<path d="M326.941 38.9294C328.597 42.7565 329.986 49.2272 325.932 50.9825C321.877 52.7378 310.41 48.21 308.753 44.3829C307.096 40.5558 314.642 36.0253 318.697 34.27C322.751 32.5147 325.284 35.1023 326.941 38.9294Z" fill="url(#paint35_radial_29_18773)"/>
</g>
<g style="mix-blend-mode:overlay" opacity="0.64" filter="url(#filter19_f_29_18773)">
<path d="M318.7 13.8712C316.985 20.2728 317.308 25.9214 315.594 25.4623C313.881 25.0032 313.882 19.4416 315.598 13.04C317.313 6.63839 323.697 3.82223 325.411 4.28131C327.124 4.74039 320.415 7.46963 318.7 13.8712Z" fill="url(#paint36_linear_29_18773)"/>
</g>
<g style="mix-blend-mode:overlay" opacity="0.56" filter="url(#filter20_f_29_18773)">
<path d="M313.756 62.3482C327.882 64.5851 340.217 64.7283 339.84 67.1848C340.332 69.6135 325.844 72.2121 311.183 67.1846C287.423 56.029 292.603 47.4711 294.333 49.3826C297.108 51.2349 296.912 59.681 313.756 62.3482Z" fill="url(#paint37_linear_29_18773)"/>
</g>
<g style="mix-blend-mode:multiply" opacity="0.24" filter="url(#filter21_f_29_18773)">
<path d="M312.687 57.4083C323.056 59.03 332.029 59.6446 331.865 60.7154C332.331 61.8127 321.915 62.3158 311.033 59.4346C293.263 53.4336 296.646 49.8761 297.989 50.7997C300.089 51.7438 300.324 55.4746 312.687 57.4083Z" fill="url(#paint38_linear_29_18773)"/>
</g>
<g style="mix-blend-mode:overlay" opacity="0.4" filter="url(#filter22_f_29_18773)">
<path d="M297.906 44.921C307.205 55.7885 317.872 62.6973 315.476 63.3559C313.459 64.7965 290.837 59.983 289.441 44.5471C289.923 18.3034 295.379 20.1399 294.341 22.5002C292.84 34.5001 292.84 39.0001 297.906 44.921Z" fill="url(#paint39_linear_29_18773)"/>
</g>
</g>
<mask id="mask5_29_18773" style="mask-type:alpha" maskUnits="userSpaceOnUse" x="291" y="4" width="34" height="62">
<path d="M292.839 24C294.34 12 295.34 4 297.84 4C300.34 4 312.34 12 312.34 12C315.84 11 324.339 11 324.339 11V66C324.339 66 304.34 66 296.34 56.5C288.34 47 291.339 36 292.839 24Z" fill="url(#paint40_linear_29_18773)"/>
</mask>
<g mask="url(#mask5_29_18773)">
<g filter="url(#filter23_di_29_18773)">
<path d="M305.34 30.6409C305.34 28.4317 307.13 32.6409 309.34 32.6409C311.549 32.6409 313.34 28.4317 313.34 30.6409C313.34 32.85 311.549 34.6409 309.34 34.6409C307.13 34.6409 305.34 32.85 305.34 30.6409Z" fill="url(#paint41_radial_29_18773)"/>
</g>
<path d="M328.34 38C328.34 39.0621 326.549 42 324.34 42C322.13 42 320.84 39.0621 320.84 38C320.84 36.9379 322.13 36.5 324.34 36.5C326.549 36.5 328.34 36.9379 328.34 38Z" fill="url(#paint42_radial_29_18773)"/>
<g style="mix-blend-mode:soft-light">
<path d="M328.34 38C328.34 39.0621 326.549 42 324.34 42C322.13 42 320.84 39.0621 320.84 38C320.84 36.9379 322.13 36.5 324.34 36.5C326.549 36.5 328.34 36.9379 328.34 38Z" fill="url(#paint43_linear_29_18773)"/>
</g>
<path d="M324.34 42C324.34 46 318.84 48.5 316.84 44.5" stroke="black" stroke-width="0.75" stroke-linecap="round" stroke-linejoin="round"/>
</g>
<path d="M305.34 43.0003C301.629 42.1028 298.84 42.0001 294.34 42.5001" stroke="black" stroke-width="0.5" stroke-linecap="round" stroke-linejoin="round"/>
<path d="M305.401 41.4522C302.993 40.17 300.974 39.3429 297.541 39.2635" stroke="black" stroke-width="0.5" stroke-linecap="round" stroke-linejoin="round"/>
<path d="M305.422 44.3405C302.696 44.4341 300.533 44.7276 297.52 46.3752" stroke="black" stroke-width="0.5" stroke-linecap="round" stroke-linejoin="round"/>
<path d="M355.84 24C354.34 12 353.34 4 350.84 4C348.34 4 336.34 12 336.34 12C332.84 11 324.34 11 324.34 11V66C324.34 66 344.34 66 352.34 56.5C360.34 47 357.34 36 355.84 24Z" fill="#919597"/>
<path d="M355.84 24C354.34 12 353.34 4 350.84 4C348.34 4 336.34 12 336.34 12C332.84 11 324.34 11 324.34 11V66C324.34 66 344.34 66 352.34 56.5C360.34 47 357.34 36 355.84 24Z" fill="url(#paint44_linear_29_18773)" fill-opacity="0.24" style="mix-blend-mode:overlay"/>
<mask id="mask6_29_18773" style="mask-type:alpha" maskUnits="userSpaceOnUse" x="324" y="4" width="34" height="62">
<path d="M355.84 24C354.34 12 353.34 4 350.84 4C348.34 4 336.34 12 336.34 12C332.84 11 324.34 11 324.34 11V66C324.34 66 344.34 66 352.34 56.5C360.34 47 357.34 36 355.84 24Z" fill="black"/>
</mask>
<g mask="url(#mask6_29_18773)">
<path opacity="0.4" d="M354.34 29.4999C355.871 33.8482 353.34 5.50007 351.34 5.50009C349.34 5.50011 338.936 10.5835 337.911 12.3599C336.885 14.1363 349.329 15.2703 354.34 29.4999Z" fill="url(#paint45_linear_29_18773)"/>
<g style="mix-blend-mode:overlay">
<path d="M354.34 29.4999C355.871 33.8482 353.34 5.5001 351.34 5.50012C349.34 5.50014 338.936 10.5836 337.911 12.36C336.885 14.1364 349.329 15.2703 354.34 29.4999Z" fill="url(#paint46_linear_29_18773)"/>
</g>
<g style="mix-blend-mode:overlay" opacity="0.64">
<path d="M354.34 29.5001C355.871 33.8484 353.34 5.50023 351.34 5.50024C349.34 5.50026 338.936 10.5837 337.911 12.3601C336.885 14.1365 349.329 15.2704 354.34 29.5001Z" fill="url(#paint47_linear_29_18773)"/>
</g>
<g style="mix-blend-mode:overlay" opacity="0.24" filter="url(#filter24_f_29_18773)">
<ellipse cx="11" cy="6" rx="11" ry="6" transform="matrix(-0.997564 -0.0697565 -0.0697565 0.997564 347.732 35.7821)" fill="url(#paint48_radial_29_18773)"/>
</g>
<g style="mix-blend-mode:overlay" opacity="0.24" filter="url(#filter25_f_29_18773)">
<ellipse cx="18.0388" cy="6" rx="18.0388" ry="6" transform="matrix(-0.258819 0.965926 0.965926 0.258819 353.869 28.5737)" fill="url(#paint49_radial_29_18773)"/>
</g>
<g style="mix-blend-mode:overlay" opacity="0.32" filter="url(#filter26_f_29_18773)">
<path d="M311.34 19.2064C311.34 24.8432 313.539 33.6154 321.037 33.6154C328.534 33.6154 343.34 21.8413 343.34 16.2045C343.34 10.5677 328.534 9 321.037 9C313.539 9 311.34 13.5696 311.34 19.2064Z" fill="url(#paint50_radial_29_18773)"/>
</g>
<g style="mix-blend-mode:overlay" opacity="0.4" filter="url(#filter27_f_29_18773)">
<path d="M321.739 38.9294C320.082 42.7565 318.693 49.2272 322.748 50.9825C326.803 52.7378 338.27 48.21 339.927 44.3829C341.583 40.5558 334.038 36.0253 329.983 34.27C325.928 32.5147 323.396 35.1023 321.739 38.9294Z" fill="url(#paint51_radial_29_18773)"/>
</g>
<g style="mix-blend-mode:overlay" opacity="0.64" filter="url(#filter28_f_29_18773)">
<path d="M329.98 13.8712C331.695 20.2728 331.372 25.9214 333.085 25.4623C334.799 25.0032 334.797 19.4416 333.082 13.04C331.367 6.63839 324.982 3.82223 323.269 4.28131C321.556 4.74039 328.264 7.46963 329.98 13.8712Z" fill="url(#paint52_linear_29_18773)"/>
</g>
<g style="mix-blend-mode:overlay" opacity="0.56" filter="url(#filter29_f_29_18773)">
<path d="M334.924 62.3482C320.797 64.5851 308.463 64.7283 308.84 67.1848C308.348 69.6135 322.836 72.2121 337.497 67.1846C361.256 56.029 356.077 47.4711 354.346 49.3826C351.571 51.2349 351.768 59.681 334.924 62.3482Z" fill="url(#paint53_linear_29_18773)"/>
</g>
<g style="mix-blend-mode:multiply" opacity="0.24" filter="url(#filter30_f_29_18773)">
<path d="M335.992 57.4083C325.623 59.03 316.651 59.6446 316.815 60.7154C316.349 61.8127 326.764 62.3158 337.647 59.4346C355.417 53.4336 352.034 49.8761 350.691 50.7997C348.591 51.7438 348.356 55.4746 335.992 57.4083Z" fill="url(#paint54_linear_29_18773)"/>
</g>
<g style="mix-blend-mode:overlay" opacity="0.4" filter="url(#filter31_f_29_18773)">
<path d="M350.774 44.921C341.475 55.7885 330.807 62.6973 333.204 63.3559C335.22 64.7965 357.843 59.983 359.239 44.5471C358.756 18.3034 353.301 20.1399 354.339 22.5002C355.84 34.5001 355.84 39.0001 350.774 44.921Z" fill="url(#paint55_linear_29_18773)"/>
</g>
</g>
<mask id="mask7_29_18773" style="mask-type:alpha" maskUnits="userSpaceOnUse" x="324" y="4" width="34" height="62">
<path d="M355.84 24C354.34 12 353.34 4 350.84 4C348.34 4 336.34 12 336.34 12C332.84 11 324.34 11 324.34 11V66C324.34 66 344.34 66 352.34 56.5C360.34 47 357.34 36 355.84 24Z" fill="url(#paint56_linear_29_18773)"/>
</mask>
<g mask="url(#mask7_29_18773)">
<g filter="url(#filter32_di_29_18773)">
<path d="M343.34 30.6409C343.34 28.4317 341.549 32.6409 339.34 32.6409C337.131 32.6409 335.34 28.4317 335.34 30.6409C335.34 32.85 337.131 34.6409 339.34 34.6409C341.549 34.6409 343.34 32.85 343.34 30.6409Z" fill="url(#paint57_radial_29_18773)"/>
</g>
<path d="M320.34 38C320.34 39.0621 322.131 42 324.34 42C326.549 42 327.84 39.0621 327.84 38C327.84 36.9379 326.549 36.5 324.34 36.5C322.131 36.5 320.34 36.9379 320.34 38Z" fill="url(#paint58_radial_29_18773)"/>
<g style="mix-blend-mode:soft-light">
<path d="M320.34 38C320.34 39.0621 322.131 42 324.34 42C326.549 42 327.84 39.0621 327.84 38C327.84 36.9379 326.549 36.5 324.34 36.5C322.131 36.5 320.34 36.9379 320.34 38Z" fill="url(#paint59_linear_29_18773)"/>
</g>
<path d="M324.34 42C324.34 46 329.84 48.5 331.84 44.5" stroke="black" stroke-width="0.75" stroke-linecap="round" stroke-linejoin="round"/>
</g>
<path d="M343.34 43.0003C347.05 42.1028 349.84 42.0001 354.34 42.5001" stroke="black" stroke-width="0.5" stroke-linecap="round" stroke-linejoin="round"/>
<path d="M343.278 41.4522C345.686 40.17 347.706 39.3429 351.139 39.2635" stroke="black" stroke-width="0.5" stroke-linecap="round" stroke-linejoin="round"/>
<path d="M343.258 44.3405C345.984 44.4341 348.147 44.7276 351.159 46.3752" stroke="black" stroke-width="0.5" stroke-linecap="round" stroke-linejoin="round"/>
</g>
<defs>
<filter id="filter0_f_29_18773" x="275" y="23.9392" width="129" height="88.0608" filterUnits="userSpaceOnUse" color-interpolation-filters="sRGB">
<feFlood flood-opacity="0" result="BackgroundImageFix"/>
<feBlend mode="normal" in="SourceGraphic" in2="BackgroundImageFix" result="shape"/>
<feGaussianBlur stdDeviation="6" result="effect1_foregroundBlur_29_18773"/>
</filter>
<filter id="filter1_iiii_29_18773" x="287.004" y="2.99976" width="113" height="107" filterUnits="userSpaceOnUse" color-interpolation-filters="sRGB">
<feFlood flood-opacity="0" result="BackgroundImageFix"/>
<feBlend mode="normal" in="SourceGraphic" in2="BackgroundImageFix" result="shape"/>
<feColorMatrix in="SourceAlpha" type="matrix" values="0 0 0 0 0 0 0 0 0 0 0 0 0 0 0 0 0 0 127 0" result="hardAlpha"/>
<feOffset dy="12"/>
<feGaussianBlur stdDeviation="16"/>
<feComposite in2="hardAlpha" operator="arithmetic" k2="-1" k3="1"/>
<feColorMatrix type="matrix" values="0 0 0 0 1 0 0 0 0 1 0 0 0 0 1 0 0 0 0.4 0"/>
<feBlend mode="overlay" in2="shape" result="effect1_innerShadow_29_18773"/>
<feColorMatrix in="SourceAlpha" type="matrix" values="0 0 0 0 0 0 0 0 0 0 0 0 0 0 0 0 0 0 127 0" result="hardAlpha"/>
<feOffset dx="2" dy="-4"/>
<feGaussianBlur stdDeviation="4"/>
<feComposite in2="hardAlpha" operator="arithmetic" k2="-1" k3="1"/>
<feColorMatrix type="matrix" values="0 0 0 0 0 0 0 0 0 0 0 0 0 0 0 0 0 0 0.24 0"/>
<feBlend mode="normal" in2="effect1_innerShadow_29_18773" result="effect2_innerShadow_29_18773"/>
<feColorMatrix in="SourceAlpha" type="matrix" values="0 0 0 0 0 0 0 0 0 0 0 0 0 0 0 0 0 0 127 0" result="hardAlpha"/>
<feOffset dx="8" dy="-4"/>
<feGaussianBlur stdDeviation="8"/>
<feComposite in2="hardAlpha" operator="arithmetic" k2="-1" k3="1"/>
<feColorMatrix type="matrix" values="0 0 0 0 0 0 0 0 0 0 0 0 0 0 0 0 0 0 0.24 0"/>
<feBlend mode="overlay" in2="effect2_innerShadow_29_18773" result="effect3_innerShadow_29_18773"/>
<feColorMatrix in="SourceAlpha" type="matrix" values="0 0 0 0 0 0 0 0 0 0 0 0 0 0 0 0 0 0 127 0" result="hardAlpha"/>
<feOffset dx="-4"/>
<feGaussianBlur stdDeviation="6"/>
<feComposite in2="hardAlpha" operator="arithmetic" k2="-1" k3="1"/>
<feColorMatrix type="matrix" values="0 0 0 0 1 0 0 0 0 1 0 0 0 0 1 0 0 0 0.56 0"/>
<feBlend mode="overlay" in2="effect3_innerShadow_29_18773" result="effect4_innerShadow_29_18773"/>
</filter>
<filter id="filter2_f_29_18773" x="291.837" y="33.7585" width="70.6876" height="30.2111" filterUnits="userSpaceOnUse" color-interpolation-filters="sRGB">
<feFlood flood-opacity="0" result="BackgroundImageFix"/>
<feBlend mode="normal" in="SourceGraphic" in2="BackgroundImageFix" result="shape"/>
<feGaussianBlur stdDeviation="1" result="effect1_foregroundBlur_29_18773"/>
</filter>
<filter id="filter3_f_29_18773" x="296.599" y="25.7297" width="72.6876" height="30.8232" filterUnits="userSpaceOnUse" color-interpolation-filters="sRGB">
<feFlood flood-opacity="0" result="BackgroundImageFix"/>
<feBlend mode="normal" in="SourceGraphic" in2="BackgroundImageFix" result="shape"/>
<feGaussianBlur stdDeviation="1" result="effect1_foregroundBlur_29_18773"/>
</filter>
<filter id="filter4_f_29_18773" x="300.756" y="18.8273" width="73.7246" height="29.9432" filterUnits="userSpaceOnUse" color-interpolation-filters="sRGB">
<feFlood flood-opacity="0" result="BackgroundImageFix"/>
<feBlend mode="normal" in="SourceGraphic" in2="BackgroundImageFix" result="shape"/>
<feGaussianBlur stdDeviation="1" result="effect1_foregroundBlur_29_18773"/>
</filter>
<filter id="filter5_f_29_18773" x="305.518" y="13.4106" width="73.7246" height="29.9432" filterUnits="userSpaceOnUse" color-interpolation-filters="sRGB">
<feFlood flood-opacity="0" result="BackgroundImageFix"/>
<feBlend mode="normal" in="SourceGraphic" in2="BackgroundImageFix" result="shape"/>
<feGaussianBlur stdDeviation="1" result="effect1_foregroundBlur_29_18773"/>
</filter>
<filter id="filter6_f_29_18773" x="295.341" y="4.04901" width="89.7068" height="34.3823" filterUnits="userSpaceOnUse" color-interpolation-filters="sRGB">
<feFlood flood-opacity="0" result="BackgroundImageFix"/>
<feBlend mode="normal" in="SourceGraphic" in2="BackgroundImageFix" result="shape"/>
<feGaussianBlur stdDeviation="1" result="effect1_foregroundBlur_29_18773"/>
</filter>
<filter id="filter7_f_29_18773" x="299.099" y="-1.36761" width="89.7068" height="34.3823" filterUnits="userSpaceOnUse" color-interpolation-filters="sRGB">
<feFlood flood-opacity="0" result="BackgroundImageFix"/>
<feBlend mode="normal" in="SourceGraphic" in2="BackgroundImageFix" result="shape"/>
<feGaussianBlur stdDeviation="1" result="effect1_foregroundBlur_29_18773"/>
</filter>
<filter id="filter8_f_29_18773" x="283.402" y="27.7341" width="78" height="51" filterUnits="userSpaceOnUse" color-interpolation-filters="sRGB">
<feFlood flood-opacity="0" result="BackgroundImageFix"/>
<feBlend mode="normal" in="SourceGraphic" in2="BackgroundImageFix" result="shape"/>
<feGaussianBlur stdDeviation="4" result="effect1_foregroundBlur_29_18773"/>
</filter>
<filter id="filter9_d_29_18773" x="296.09" y="37.7498" width="49.1803" height="40.0002" filterUnits="userSpaceOnUse" color-interpolation-filters="sRGB">
<feFlood flood-opacity="0" result="BackgroundImageFix"/>
<feColorMatrix in="SourceAlpha" type="matrix" values="0 0 0 0 0 0 0 0 0 0 0 0 0 0 0 0 0 0 127 0" result="hardAlpha"/>
<feOffset dx="-2" dy="1"/>
<feGaussianBlur stdDeviation="1.75"/>
<feComposite in2="hardAlpha" operator="out"/>
<feColorMatrix type="matrix" values="0 0 0 0 0 0 0 0 0 0 0 0 0 0 0 0 0 0 0.24 0"/>
<feBlend mode="normal" in2="BackgroundImageFix" result="effect1_dropShadow_29_18773"/>
<feBlend mode="normal" in="SourceGraphic" in2="effect1_dropShadow_29_18773" result="shape"/>
</filter>
<filter id="filter10_ii_29_18773" x="301.34" y="40.2498" width="42.9303" height="33.2502" filterUnits="userSpaceOnUse" color-interpolation-filters="sRGB">
<feFlood flood-opacity="0" result="BackgroundImageFix"/>
<feBlend mode="normal" in="SourceGraphic" in2="BackgroundImageFix" result="shape"/>
<feColorMatrix in="SourceAlpha" type="matrix" values="0 0 0 0 0 0 0 0 0 0 0 0 0 0 0 0 0 0 127 0" result="hardAlpha"/>
<feOffset dx="-0.25" dy="0.25"/>
<feGaussianBlur stdDeviation="0.25"/>
<feComposite in2="hardAlpha" operator="arithmetic" k2="-1" k3="1"/>
<feColorMatrix type="matrix" values="0 0 0 0 1 0 0 0 0 1 0 0 0 0 1 0 0 0 0.48 0"/>
<feBlend mode="normal" in2="shape" result="effect1_innerShadow_29_18773"/>
<feColorMatrix in="SourceAlpha" type="matrix" values="0 0 0 0 0 0 0 0 0 0 0 0 0 0 0 0 0 0 127 0" result="hardAlpha"/>
<feOffset dx="0.5" dy="0.25"/>
<feGaussianBlur stdDeviation="0.25"/>
<feComposite in2="hardAlpha" operator="arithmetic" k2="-1" k3="1"/>
<feColorMatrix type="matrix" values="0 0 0 0 0 0 0 0 0 0 0 0 0 0 0 0 0 0 0.4 0"/>
<feBlend mode="overlay" in2="effect1_innerShadow_29_18773" result="effect2_innerShadow_29_18773"/>
</filter>
<filter id="filter11_f_29_18773" x="295.34" y="35" width="44" height="44" filterUnits="userSpaceOnUse" color-interpolation-filters="sRGB">
<feFlood flood-opacity="0" result="BackgroundImageFix"/>
<feBlend mode="normal" in="SourceGraphic" in2="BackgroundImageFix" result="shape"/>
<feGaussianBlur stdDeviation="3" result="effect1_foregroundBlur_29_18773"/>
</filter>
<filter id="filter12_ii_29_18773" x="316.34" y="67.75" width="16" height="12.75" filterUnits="userSpaceOnUse" color-interpolation-filters="sRGB">
<feFlood flood-opacity="0" result="BackgroundImageFix"/>
<feBlend mode="normal" in="SourceGraphic" in2="BackgroundImageFix" result="shape"/>
<feColorMatrix in="SourceAlpha" type="matrix" values="0 0 0 0 0 0 0 0 0 0 0 0 0 0 0 0 0 0 127 0" result="hardAlpha"/>
<feOffset dx="1" dy="-0.25"/>
<feGaussianBlur stdDeviation="0.75"/>
<feComposite in2="hardAlpha" operator="arithmetic" k2="-1" k3="1"/>
<feColorMatrix type="matrix" values="0 0 0 0 0 0 0 0 0 0 0 0 0 0 0 0 0 0 0.32 0"/>
<feBlend mode="normal" in2="shape" result="effect1_innerShadow_29_18773"/>
<feColorMatrix in="SourceAlpha" type="matrix" values="0 0 0 0 0 0 0 0 0 0 0 0 0 0 0 0 0 0 127 0" result="hardAlpha"/>
<feOffset dx="-1" dy="0.5"/>
<feGaussianBlur stdDeviation="0.75"/>
<feComposite in2="hardAlpha" operator="arithmetic" k2="-1" k3="1"/>
<feColorMatrix type="matrix" values="0 0 0 0 1 0 0 0 0 1 0 0 0 0 1 0 0 0 0.56 0"/>
<feBlend mode="normal" in2="effect1_innerShadow_29_18773" result="effect2_innerShadow_29_18773"/>
</filter>
<filter id="filter13_i_29_18773" x="321.164" y="72.6186" width="6.06818" height="2.04273" filterUnits="userSpaceOnUse" color-interpolation-filters="sRGB">
<feFlood flood-opacity="0" result="BackgroundImageFix"/>
<feBlend mode="normal" in="SourceGraphic" in2="BackgroundImageFix" result="shape"/>
<feColorMatrix in="SourceAlpha" type="matrix" values="0 0 0 0 0 0 0 0 0 0 0 0 0 0 0 0 0 0 127 0" result="hardAlpha"/>
<feOffset dx="-0.15" dy="0.15"/>
<feGaussianBlur stdDeviation="0.125"/>
<feComposite in2="hardAlpha" operator="arithmetic" k2="-1" k3="1"/>
<feColorMatrix type="matrix" values="0 0 0 0 0 0 0 0 0 0 0 0 0 0 0 0 0 0 0.48 0"/>
<feBlend mode="normal" in2="shape" result="effect1_innerShadow_29_18773"/>
</filter>
<filter id="filter14_iiii_29_18773" x="284.34" y="-6" width="79" height="76" filterUnits="userSpaceOnUse" color-interpolation-filters="sRGB">
<feFlood flood-opacity="0" result="BackgroundImageFix"/>
<feBlend mode="normal" in="SourceGraphic" in2="BackgroundImageFix" result="shape"/>
<feColorMatrix in="SourceAlpha" type="matrix" values="0 0 0 0 0 0 0 0 0 0 0 0 0 0 0 0 0 0 127 0" result="hardAlpha"/>
<feOffset dx="2" dy="-4"/>
<feGaussianBlur stdDeviation="4"/>
<feComposite in2="hardAlpha" operator="arithmetic" k2="-1" k3="1"/>
<feColorMatrix type="matrix" values="0 0 0 0 0 0 0 0 0 0 0 0 0 0 0 0 0 0 0.16 0"/>
<feBlend mode="overlay" in2="shape" result="effect1_innerShadow_29_18773"/>
<feColorMatrix in="SourceAlpha" type="matrix" values="0 0 0 0 0 0 0 0 0 0 0 0 0 0 0 0 0 0 127 0" result="hardAlpha"/>
<feOffset dx="3" dy="-6"/>
<feGaussianBlur stdDeviation="4"/>
<feComposite in2="hardAlpha" operator="arithmetic" k2="-1" k3="1"/>
<feColorMatrix type="matrix" values="0 0 0 0 0 0 0 0 0 0 0 0 0 0 0 0 0 0 0.24 0"/>
<feBlend mode="overlay" in2="effect1_innerShadow_29_18773" result="effect2_innerShadow_29_18773"/>
<feColorMatrix in="SourceAlpha" type="matrix" values="0 0 0 0 0 0 0 0 0 0 0 0 0 0 0 0 0 0 127 0" result="hardAlpha"/>
<feOffset dx="-4" dy="2"/>
<feGaussianBlur stdDeviation="2"/>
<feComposite in2="hardAlpha" operator="arithmetic" k2="-1" k3="1"/>
<feColorMatrix type="matrix" values="0 0 0 0 1 0 0 0 0 1 0 0 0 0 1 0 0 0 0.32 0"/>
<feBlend mode="overlay" in2="effect2_innerShadow_29_18773" result="effect3_innerShadow_29_18773"/>
<feColorMatrix in="SourceAlpha" type="matrix" values="0 0 0 0 0 0 0 0 0 0 0 0 0 0 0 0 0 0 127 0" result="hardAlpha"/>
<feOffset/>
<feGaussianBlur stdDeviation="2"/>
<feComposite in2="hardAlpha" operator="arithmetic" k2="-1" k3="1"/>
<feColorMatrix type="matrix" values="0 0 0 0 1 0 0 0 0 1 0 0 0 0 1 0 0 0 0.24 0"/>
<feBlend mode="overlay" in2="effect3_innerShadow_29_18773" result="effect4_innerShadow_29_18773"/>
</filter>
<filter id="filter15_f_29_18773" x="297.358" y="30.9651" width="29.9627" height="20.07" filterUnits="userSpaceOnUse" color-interpolation-filters="sRGB">
<feFlood flood-opacity="0" result="BackgroundImageFix"/>
<feBlend mode="normal" in="SourceGraphic" in2="BackgroundImageFix" result="shape"/>
<feGaussianBlur stdDeviation="2" result="effect1_foregroundBlur_29_18773"/>
</filter>
<filter id="filter16_f_29_18773" x="280.241" y="24.0565" width="26.8849" height="46.9886" filterUnits="userSpaceOnUse" color-interpolation-filters="sRGB">
<feFlood flood-opacity="0" result="BackgroundImageFix"/>
<feBlend mode="normal" in="SourceGraphic" in2="BackgroundImageFix" result="shape"/>
<feGaussianBlur stdDeviation="3" result="effect1_foregroundBlur_29_18773"/>
</filter>
<filter id="filter17_f_29_18773" x="301.34" y="5" width="40" height="32.6154" filterUnits="userSpaceOnUse" color-interpolation-filters="sRGB">
<feFlood flood-opacity="0" result="BackgroundImageFix"/>
<feBlend mode="normal" in="SourceGraphic" in2="BackgroundImageFix" result="shape"/>
<feGaussianBlur stdDeviation="2" result="effect1_foregroundBlur_29_18773"/>
</filter>
<filter id="filter18_f_29_18773" x="302.519" y="27.7091" width="32.0611" height="29.6629" filterUnits="userSpaceOnUse" color-interpolation-filters="sRGB">
<feFlood flood-opacity="0" result="BackgroundImageFix"/>
<feBlend mode="normal" in="SourceGraphic" in2="BackgroundImageFix" result="shape"/>
<feGaussianBlur stdDeviation="3" result="effect1_foregroundBlur_29_18773"/>
</filter>
<filter id="filter19_f_29_18773" x="312.31" y="2.23315" width="15.3781" height="25.2553" filterUnits="userSpaceOnUse" color-interpolation-filters="sRGB">
<feFlood flood-opacity="0" result="BackgroundImageFix"/>
<feBlend mode="normal" in="SourceGraphic" in2="BackgroundImageFix" result="shape"/>
<feGaussianBlur stdDeviation="1" result="effect1_foregroundBlur_29_18773"/>
</filter>
<filter id="filter20_f_29_18773" x="288.635" y="45.1145" width="55.2174" height="28.9466" filterUnits="userSpaceOnUse" color-interpolation-filters="sRGB">
<feFlood flood-opacity="0" result="BackgroundImageFix"/>
<feBlend mode="normal" in="SourceGraphic" in2="BackgroundImageFix" result="shape"/>
<feGaussianBlur stdDeviation="2" result="effect1_foregroundBlur_29_18773"/>
</filter>
<filter id="filter21_f_29_18773" x="290.823" y="44.6546" width="47.057" height="22.9269" filterUnits="userSpaceOnUse" color-interpolation-filters="sRGB">
<feFlood flood-opacity="0" result="BackgroundImageFix"/>
<feBlend mode="normal" in="SourceGraphic" in2="BackgroundImageFix" result="shape"/>
<feGaussianBlur stdDeviation="3" result="effect1_foregroundBlur_29_18773"/>
</filter>
<filter id="filter22_f_29_18773" x="283.441" y="15.2448" width="38.3769" height="54.3537" filterUnits="userSpaceOnUse" color-interpolation-filters="sRGB">
<feFlood flood-opacity="0" result="BackgroundImageFix"/>
<feBlend mode="normal" in="SourceGraphic" in2="BackgroundImageFix" result="shape"/>
<feGaussianBlur stdDeviation="3" result="effect1_foregroundBlur_29_18773"/>
</filter>
<filter id="filter23_di_29_18773" x="304.34" y="28.9998" width="10" height="7.64108" filterUnits="userSpaceOnUse" color-interpolation-filters="sRGB">
<feFlood flood-opacity="0" result="BackgroundImageFix"/>
<feColorMatrix in="SourceAlpha" type="matrix" values="0 0 0 0 0 0 0 0 0 0 0 0 0 0 0 0 0 0 127 0" result="hardAlpha"/>
<feOffset dy="1"/>
<feGaussianBlur stdDeviation="0.5"/>
<feComposite in2="hardAlpha" operator="out"/>
<feColorMatrix type="matrix" values="0 0 0 0 1 0 0 0 0 1 0 0 0 0 1 0 0 0 0.16 0"/>
<feBlend mode="overlay" in2="BackgroundImageFix" result="effect1_dropShadow_29_18773"/>
<feBlend mode="normal" in="SourceGraphic" in2="effect1_dropShadow_29_18773" result="shape"/>
<feColorMatrix in="SourceAlpha" type="matrix" values="0 0 0 0 0 0 0 0 0 0 0 0 0 0 0 0 0 0 127 0" result="hardAlpha"/>
<feOffset dy="-1"/>
<feGaussianBlur stdDeviation="0.5"/>
<feComposite in2="hardAlpha" operator="arithmetic" k2="-1" k3="1"/>
<feColorMatrix type="matrix" values="0 0 0 0 0.491667 0 0 0 0 0.483472 0 0 0 0 0.483472 0 0 0 0.35 0"/>
<feBlend mode="normal" in2="shape" result="effect2_innerShadow_29_18773"/>
</filter>
<filter id="filter24_f_29_18773" x="321.359" y="30.9651" width="29.9627" height="20.07" filterUnits="userSpaceOnUse" color-interpolation-filters="sRGB">
<feFlood flood-opacity="0" result="BackgroundImageFix"/>
<feBlend mode="normal" in="SourceGraphic" in2="BackgroundImageFix" result="shape"/>
<feGaussianBlur stdDeviation="2" result="effect1_foregroundBlur_29_18773"/>
</filter>
<filter id="filter25_f_29_18773" x="341.554" y="24.0565" width="26.8849" height="46.9886" filterUnits="userSpaceOnUse" color-interpolation-filters="sRGB">
<feFlood flood-opacity="0" result="BackgroundImageFix"/>
<feBlend mode="normal" in="SourceGraphic" in2="BackgroundImageFix" result="shape"/>
<feGaussianBlur stdDeviation="3" result="effect1_foregroundBlur_29_18773"/>
</filter>
<filter id="filter26_f_29_18773" x="307.34" y="5" width="40" height="32.6154" filterUnits="userSpaceOnUse" color-interpolation-filters="sRGB">
<feFlood flood-opacity="0" result="BackgroundImageFix"/>
<feBlend mode="normal" in="SourceGraphic" in2="BackgroundImageFix" result="shape"/>
<feGaussianBlur stdDeviation="2" result="effect1_foregroundBlur_29_18773"/>
</filter>
<filter id="filter27_f_29_18773" x="314.099" y="27.7091" width="32.0611" height="29.6629" filterUnits="userSpaceOnUse" color-interpolation-filters="sRGB">
<feFlood flood-opacity="0" result="BackgroundImageFix"/>
<feBlend mode="normal" in="SourceGraphic" in2="BackgroundImageFix" result="shape"/>
<feGaussianBlur stdDeviation="3" result="effect1_foregroundBlur_29_18773"/>
</filter>
<filter id="filter28_f_29_18773" x="320.991" y="2.23315" width="15.3781" height="25.2553" filterUnits="userSpaceOnUse" color-interpolation-filters="sRGB">
<feFlood flood-opacity="0" result="BackgroundImageFix"/>
<feBlend mode="normal" in="SourceGraphic" in2="BackgroundImageFix" result="shape"/>
<feGaussianBlur stdDeviation="1" result="effect1_foregroundBlur_29_18773"/>
</filter>
<filter id="filter29_f_29_18773" x="304.828" y="45.1145" width="55.2174" height="28.9466" filterUnits="userSpaceOnUse" color-interpolation-filters="sRGB">
<feFlood flood-opacity="0" result="BackgroundImageFix"/>
<feBlend mode="normal" in="SourceGraphic" in2="BackgroundImageFix" result="shape"/>
<feGaussianBlur stdDeviation="2" result="effect1_foregroundBlur_29_18773"/>
</filter>
<filter id="filter30_f_29_18773" x="310.8" y="44.6546" width="47.057" height="22.9269" filterUnits="userSpaceOnUse" color-interpolation-filters="sRGB">
<feFlood flood-opacity="0" result="BackgroundImageFix"/>
<feBlend mode="normal" in="SourceGraphic" in2="BackgroundImageFix" result="shape"/>
<feGaussianBlur stdDeviation="3" result="effect1_foregroundBlur_29_18773"/>
</filter>
<filter id="filter31_f_29_18773" x="326.862" y="15.2448" width="38.3769" height="54.3537" filterUnits="userSpaceOnUse" color-interpolation-filters="sRGB">
<feFlood flood-opacity="0" result="BackgroundImageFix"/>
<feBlend mode="normal" in="SourceGraphic" in2="BackgroundImageFix" result="shape"/>
<feGaussianBlur stdDeviation="3" result="effect1_foregroundBlur_29_18773"/>
</filter>
<filter id="filter32_di_29_18773" x="334.34" y="28.9998" width="10" height="7.64108" filterUnits="userSpaceOnUse" color-interpolation-filters="sRGB">
<feFlood flood-opacity="0" result="BackgroundImageFix"/>
<feColorMatrix in="SourceAlpha" type="matrix" values="0 0 0 0 0 0 0 0 0 0 0 0 0 0 0 0 0 0 127 0" result="hardAlpha"/>
<feOffset dy="1"/>
<feGaussianBlur stdDeviation="0.5"/>
<feComposite in2="hardAlpha" operator="out"/>
<feColorMatrix type="matrix" values="0 0 0 0 1 0 0 0 0 1 0 0 0 0 1 0 0 0 0.16 0"/>
<feBlend mode="overlay" in2="BackgroundImageFix" result="effect1_dropShadow_29_18773"/>
<feBlend mode="normal" in="SourceGraphic" in2="effect1_dropShadow_29_18773" result="shape"/>
<feColorMatrix in="SourceAlpha" type="matrix" values="0 0 0 0 0 0 0 0 0 0 0 0 0 0 0 0 0 0 127 0" result="hardAlpha"/>
<feOffset dy="-1"/>
<feGaussianBlur stdDeviation="0.5"/>
<feComposite in2="hardAlpha" operator="arithmetic" k2="-1" k3="1"/>
<feColorMatrix type="matrix" values="0 0 0 0 0.491667 0 0 0 0 0.483472 0 0 0 0 0.483472 0 0 0 0.35 0"/>
<feBlend mode="normal" in2="shape" result="effect2_innerShadow_29_18773"/>
</filter>
<linearGradient id="paint0_linear_29_18773" x1="391.365" y1="-61.125" x2="316.628" y2="-52.8196" gradientUnits="userSpaceOnUse">
<stop stop-opacity="0"/>
<stop offset="1"/>
</linearGradient>
<linearGradient id="paint1_linear_29_18773" x1="363.503" y1="-4.00001" x2="327.274" y2="109.57" gradientUnits="userSpaceOnUse">
<stop stop-color="white"/>
<stop offset="1"/>
</linearGradient>
<linearGradient id="paint2_linear_29_18773" x1="291" y1="97.9999" x2="329" y2="68.9999" gradientUnits="userSpaceOnUse">
<stop/>
<stop offset="1" stop-opacity="0"/>
</linearGradient>
<linearGradient id="paint3_linear_29_18773" x1="362.151" y1="63.0972" x2="352.041" y2="45.5852" gradientUnits="userSpaceOnUse">
<stop stop-opacity="0"/>
<stop offset="1"/>
</linearGradient>
<linearGradient id="paint4_linear_29_18773" x1="318.638" y1="46.0968" x2="329.374" y2="29.4329" gradientUnits="userSpaceOnUse">
<stop stop-opacity="0"/>
<stop offset="1"/>
</linearGradient>
<linearGradient id="paint5_linear_29_18773" x1="293.051" y1="43.0295" x2="312.171" y2="36.4461" gradientUnits="userSpaceOnUse">
<stop/>
<stop offset="1" stop-opacity="0"/>
</linearGradient>
<linearGradient id="paint6_linear_29_18773" x1="368.913" y1="55.6806" x2="358.802" y2="38.1685" gradientUnits="userSpaceOnUse">
<stop stop-opacity="0"/>
<stop offset="1"/>
</linearGradient>
<linearGradient id="paint7_linear_29_18773" x1="325.4" y1="38.6802" x2="336.136" y2="22.0162" gradientUnits="userSpaceOnUse">
<stop stop-opacity="0"/>
<stop offset="1"/>
</linearGradient>
<linearGradient id="paint8_linear_29_18773" x1="297.813" y1="34.6128" x2="316.933" y2="28.0295" gradientUnits="userSpaceOnUse">
<stop/>
<stop offset="1" stop-opacity="0"/>
</linearGradient>
<linearGradient id="paint9_linear_29_18773" x1="320.842" y1="30.4815" x2="331.657" y2="12.1148" gradientUnits="userSpaceOnUse">
<stop stop-opacity="0"/>
<stop offset="1"/>
</linearGradient>
<linearGradient id="paint10_linear_29_18773" x1="374.813" y1="47.1733" x2="360.514" y2="32.8747" gradientUnits="userSpaceOnUse">
<stop stop-opacity="0"/>
<stop offset="1"/>
</linearGradient>
<linearGradient id="paint11_linear_29_18773" x1="301.513" y1="26.8229" x2="321.362" y2="22.9646" gradientUnits="userSpaceOnUse">
<stop/>
<stop offset="1" stop-opacity="0"/>
</linearGradient>
<linearGradient id="paint12_linear_29_18773" x1="325.604" y1="25.0648" x2="336.418" y2="6.6982" gradientUnits="userSpaceOnUse">
<stop stop-opacity="0"/>
<stop offset="1"/>
</linearGradient>
<linearGradient id="paint13_linear_29_18773" x1="379.575" y1="41.7567" x2="365.276" y2="27.4581" gradientUnits="userSpaceOnUse">
<stop stop-opacity="0"/>
<stop offset="1"/>
</linearGradient>
<linearGradient id="paint14_linear_29_18773" x1="306.274" y1="21.4063" x2="326.124" y2="17.5479" gradientUnits="userSpaceOnUse">
<stop/>
<stop offset="1" stop-opacity="0"/>
</linearGradient>
<linearGradient id="paint15_linear_29_18773" x1="319.759" y1="16.5553" x2="330.783" y2="-3.88955" gradientUnits="userSpaceOnUse">
<stop stop-opacity="0"/>
<stop offset="1"/>
</linearGradient>
<linearGradient id="paint16_linear_29_18773" x1="385.276" y1="36.9371" x2="370.939" y2="22.6008" gradientUnits="userSpaceOnUse">
<stop stop-opacity="0"/>
<stop offset="1"/>
</linearGradient>
<linearGradient id="paint17_linear_29_18773" x1="296.111" y1="12.7353" x2="316.013" y2="8.8667" gradientUnits="userSpaceOnUse">
<stop/>
<stop offset="1" stop-opacity="0"/>
</linearGradient>
<linearGradient id="paint18_linear_29_18773" x1="323.517" y1="11.1387" x2="334.541" y2="-9.30618" gradientUnits="userSpaceOnUse">
<stop stop-opacity="0"/>
<stop offset="1"/>
</linearGradient>
<linearGradient id="paint19_linear_29_18773" x1="389.033" y1="31.5205" x2="374.697" y2="17.1842" gradientUnits="userSpaceOnUse">
<stop stop-opacity="0"/>
<stop offset="1"/>
</linearGradient>
<linearGradient id="paint20_linear_29_18773" x1="299.869" y1="7.31864" x2="319.771" y2="3.45007" gradientUnits="userSpaceOnUse">
<stop/>
<stop offset="1" stop-opacity="0"/>
</linearGradient>
<linearGradient id="paint21_linear_29_18773" x1="322.402" y1="53.2341" x2="341.775" y2="64.2586" gradientUnits="userSpaceOnUse">
<stop/>
<stop offset="1" stop-opacity="0.64"/>
</linearGradient>
<linearGradient id="paint22_linear_29_18773" x1="338.84" y1="58.5" x2="307.84" y2="71.5" gradientUnits="userSpaceOnUse">
<stop stop-color="white"/>
<stop offset="1" stop-color="white" stop-opacity="0"/>
</linearGradient>
<linearGradient id="paint23_linear_29_18773" x1="338.84" y1="58.5" x2="307.84" y2="71.5" gradientUnits="userSpaceOnUse">
<stop stop-color="white"/>
<stop offset="1" stop-color="white" stop-opacity="0"/>
</linearGradient>
<linearGradient id="paint24_linear_29_18773" x1="309.506" y1="74.4574" x2="332.719" y2="45.6241" gradientUnits="userSpaceOnUse">
<stop stop-color="#503622"/>
<stop offset="1" stop-color="#A38C7B"/>
</linearGradient>
<radialGradient id="paint25_radial_29_18773" cx="0" cy="0" r="1" gradientUnits="userSpaceOnUse" gradientTransform="translate(319.697 78.875) rotate(94.7619) scale(41.5059 48.0314)">
<stop offset="0.0729167" stop-color="#D5D4DF"/>
<stop offset="0.197917" stop-color="#847EAC"/>
<stop offset="0.270833" stop-color="#DFDCEF"/>
<stop offset="0.416465" stop-color="#DFDCEF"/>
<stop offset="0.494396" stop-color="#847BAA"/>
<stop offset="0.582197" stop-color="#DFDCEF"/>
<stop offset="0.708863" stop-color="#847BAA"/>
<stop offset="0.815698" stop-color="#DFDCEF"/>
<stop offset="0.962916" stop-color="#847BAA"/>
</radialGradient>
<linearGradient id="paint26_linear_29_18773" x1="324.34" y1="74.5" x2="324.34" y2="70" gradientUnits="userSpaceOnUse">
<stop/>
<stop offset="1" stop-opacity="0"/>
</linearGradient>
<linearGradient id="paint27_linear_29_18773" x1="326.34" y1="69.5" x2="325.34" y2="75" gradientUnits="userSpaceOnUse">
<stop stop-color="white"/>
<stop offset="1" stop-color="white" stop-opacity="0"/>
</linearGradient>
<linearGradient id="paint28_linear_29_18773" x1="307.682" y1="4" x2="307.682" y2="66" gradientUnits="userSpaceOnUse">
<stop stop-color="white"/>
<stop offset="1" stop-color="white" stop-opacity="0"/>
</linearGradient>
<linearGradient id="paint29_linear_29_18773" x1="287.755" y1="-10.5" x2="303.018" y2="16.471" gradientUnits="userSpaceOnUse">
<stop/>
<stop offset="1" stop-opacity="0"/>
</linearGradient>
<linearGradient id="paint30_linear_29_18773" x1="287.755" y1="-10.5" x2="303.018" y2="16.471" gradientUnits="userSpaceOnUse">
<stop/>
<stop offset="1" stop-opacity="0"/>
</linearGradient>
<linearGradient id="paint31_linear_29_18773" x1="287.755" y1="-10.4999" x2="303.018" y2="16.4712" gradientUnits="userSpaceOnUse">
<stop/>
<stop offset="1" stop-opacity="0"/>
</linearGradient>
<radialGradient id="paint32_radial_29_18773" cx="0" cy="0" r="1" gradientUnits="userSpaceOnUse" gradientTransform="translate(312.34 41.0001) rotate(90) scale(6 11)">
<stop stop-color="white"/>
<stop offset="1" stop-color="white" stop-opacity="0"/>
</radialGradient>
<radialGradient id="paint33_radial_29_18773" cx="0" cy="0" r="1" gradientUnits="userSpaceOnUse" gradientTransform="translate(293.684 47.5508) rotate(90) scale(6 18.0388)">
<stop stop-color="white"/>
<stop offset="1" stop-color="white" stop-opacity="0"/>
</radialGradient>
<radialGradient id="paint34_radial_29_18773" cx="0" cy="0" r="1" gradientUnits="userSpaceOnUse" gradientTransform="translate(323.764 19.2064) rotate(90) scale(10.2064 13.5758)">
<stop stop-color="white"/>
<stop offset="1" stop-color="white" stop-opacity="0"/>
</radialGradient>
<radialGradient id="paint35_radial_29_18773" cx="0" cy="0" r="1" gradientUnits="userSpaceOnUse" gradientTransform="translate(319.599 42.1077) rotate(66.5917) scale(7.55103 8)">
<stop/>
<stop offset="1" stop-opacity="0"/>
</radialGradient>
<linearGradient id="paint36_linear_29_18773" x1="323.464" y1="6.86549" x2="318.029" y2="27.1499" gradientUnits="userSpaceOnUse">
<stop/>
<stop offset="1" stop-opacity="0"/>
</linearGradient>
<linearGradient id="paint37_linear_29_18773" x1="297.768" y1="59.2377" x2="329.386" y2="61.796" gradientUnits="userSpaceOnUse">
<stop stop-opacity="0"/>
<stop offset="1"/>
</linearGradient>
<linearGradient id="paint38_linear_29_18773" x1="300.926" y1="55.3166" x2="324.083" y2="56.0616" gradientUnits="userSpaceOnUse">
<stop stop-opacity="0"/>
<stop offset="1"/>
</linearGradient>
<linearGradient id="paint39_linear_29_18773" x1="294.218" y1="29.0562" x2="304.792" y2="58.9637" gradientUnits="userSpaceOnUse">
<stop stop-color="white"/>
<stop offset="1" stop-color="white" stop-opacity="0"/>
</linearGradient>
<linearGradient id="paint40_linear_29_18773" x1="355.34" y1="16" x2="306.34" y2="68" gradientUnits="userSpaceOnUse">
<stop stop-color="#F5F5F5"/>
<stop offset="1" stop-color="#BCBCBC"/>
</linearGradient>
<radialGradient id="paint41_radial_29_18773" cx="0" cy="0" r="1" gradientUnits="userSpaceOnUse" gradientTransform="translate(309.34 30.6409) rotate(-90) scale(8)">
<stop stop-color="#474747"/>
<stop offset="1"/>
</radialGradient>
<radialGradient id="paint42_radial_29_18773" cx="0" cy="0" r="1" gradientUnits="userSpaceOnUse" gradientTransform="translate(324.34 37.5) rotate(90) scale(4.5 6.13636)">
<stop stop-color="#474747"/>
<stop offset="1"/>
</radialGradient>
<linearGradient id="paint43_linear_29_18773" x1="324.173" y1="36.5" x2="324.173" y2="40.189" gradientUnits="userSpaceOnUse">
<stop stop-color="#EFEFEF"/>
<stop offset="1" stop-color="#EFEFEF" stop-opacity="0"/>
</linearGradient>
<linearGradient id="paint44_linear_29_18773" x1="340.998" y1="4" x2="340.998" y2="66" gradientUnits="userSpaceOnUse">
<stop stop-color="white"/>
<stop offset="1" stop-color="white" stop-opacity="0"/>
</linearGradient>
<linearGradient id="paint45_linear_29_18773" x1="360.924" y1="-10.5" x2="345.661" y2="16.471" gradientUnits="userSpaceOnUse">
<stop/>
<stop offset="1" stop-opacity="0"/>
</linearGradient>
<linearGradient id="paint46_linear_29_18773" x1="360.924" y1="-10.5" x2="345.661" y2="16.471" gradientUnits="userSpaceOnUse">
<stop/>
<stop offset="1" stop-opacity="0"/>
</linearGradient>
<linearGradient id="paint47_linear_29_18773" x1="360.924" y1="-10.4999" x2="345.661" y2="16.4712" gradientUnits="userSpaceOnUse">
<stop/>
<stop offset="1" stop-opacity="0"/>
</linearGradient>
<radialGradient id="paint48_radial_29_18773" cx="0" cy="0" r="1" gradientUnits="userSpaceOnUse" gradientTransform="translate(11 6) rotate(90) scale(6 11)">
<stop stop-color="white"/>
<stop offset="1" stop-color="white" stop-opacity="0"/>
</radialGradient>
<radialGradient id="paint49_radial_29_18773" cx="0" cy="0" r="1" gradientUnits="userSpaceOnUse" gradientTransform="translate(18.0388 6) rotate(90) scale(6 18.0388)">
<stop stop-color="white"/>
<stop offset="1" stop-color="white" stop-opacity="0"/>
</radialGradient>
<radialGradient id="paint50_radial_29_18773" cx="0" cy="0" r="1" gradientUnits="userSpaceOnUse" gradientTransform="translate(324.916 19.2064) rotate(90) scale(10.2064 13.5758)">
<stop stop-color="white"/>
<stop offset="1" stop-color="white" stop-opacity="0"/>
</radialGradient>
<radialGradient id="paint51_radial_29_18773" cx="0" cy="0" r="1" gradientUnits="userSpaceOnUse" gradientTransform="translate(329.081 42.1077) rotate(113.408) scale(7.55103 8)">
<stop/>
<stop offset="1" stop-opacity="0"/>
</radialGradient>
<linearGradient id="paint52_linear_29_18773" x1="325.216" y1="6.86549" x2="330.651" y2="27.1499" gradientUnits="userSpaceOnUse">
<stop/>
<stop offset="1" stop-opacity="0"/>
</linearGradient>
<linearGradient id="paint53_linear_29_18773" x1="350.912" y1="59.2377" x2="319.293" y2="61.796" gradientUnits="userSpaceOnUse">
<stop stop-opacity="0"/>
<stop offset="1"/>
</linearGradient>
<linearGradient id="paint54_linear_29_18773" x1="347.754" y1="55.3166" x2="324.597" y2="56.0616" gradientUnits="userSpaceOnUse">
<stop stop-opacity="0"/>
<stop offset="1"/>
</linearGradient>
<linearGradient id="paint55_linear_29_18773" x1="354.462" y1="29.0562" x2="343.888" y2="58.9637" gradientUnits="userSpaceOnUse">
<stop stop-color="white"/>
<stop offset="1" stop-color="white" stop-opacity="0"/>
</linearGradient>
<linearGradient id="paint56_linear_29_18773" x1="293.34" y1="16" x2="342.34" y2="68" gradientUnits="userSpaceOnUse">
<stop stop-color="#F5F5F5"/>
<stop offset="1" stop-color="#BCBCBC"/>
</linearGradient>
<radialGradient id="paint57_radial_29_18773" cx="0" cy="0" r="1" gradientUnits="userSpaceOnUse" gradientTransform="translate(339.34 30.6409) rotate(-90) scale(8)">
<stop stop-color="#474747"/>
<stop offset="1"/>
</radialGradient>
<radialGradient id="paint58_radial_29_18773" cx="0" cy="0" r="1" gradientUnits="userSpaceOnUse" gradientTransform="translate(324.34 37.5) rotate(90) scale(4.5 6.13636)">
<stop stop-color="#474747"/>
<stop offset="1"/>
</radialGradient>
<linearGradient id="paint59_linear_29_18773" x1="324.507" y1="36.5" x2="324.507" y2="40.189" gradientUnits="userSpaceOnUse">
<stop stop-color="#EFEFEF"/>
<stop offset="1" stop-color="#EFEFEF" stop-opacity="0"/>
</linearGradient>
</defs>
</svg>
