<svg width="129" height="134" viewBox="0 0 129 134" fill="none" xmlns="http://www.w3.org/2000/svg">
<g opacity="0.32" filter="url(#filter0_f_17_11558)">
<path d="M12 79.5C12 96.897 39.6096 100 67.5 100C95.3904 100 117 68.897 117 51.5C117 34.103 102.39 36 74.5 36C46.6096 36 12 46.103 12 79.5Z" fill="url(#paint0_linear_17_11558)"/>
</g>
<path fill-rule="evenodd" clip-rule="evenodd" d="M74.594 96.6334C92.0676 93.2341 117.004 66.8717 117.004 46.4998C117.004 24.6845 96.409 6.99976 71.0039 6.99976C56.6733 6.99976 43.8732 12.6269 35.4368 21.4484C23.2033 33.5505 16.0039 55.6631 16.0039 67.4998C16.0039 84.3444 18.0841 97.9998 57.0039 97.9998C65.7855 97.9998 71.35 97.5214 74.594 96.6334Z" fill="#919597"/>
<g filter="url(#filter1_iiii_17_11558)">
<path fill-rule="evenodd" clip-rule="evenodd" d="M74.594 96.6334C92.0676 93.2341 117.004 66.8717 117.004 46.4998C117.004 24.6845 96.409 6.99976 71.0039 6.99976C56.6733 6.99976 43.8732 12.6269 35.4368 21.4484C23.2033 33.5505 16.0039 55.6631 16.0039 67.4998C16.0039 84.3444 18.0841 97.9998 57.0039 97.9998C65.7855 97.9998 71.35 97.5214 74.594 96.6334Z" fill="url(#paint1_linear_17_11558)" fill-opacity="0.24" style="mix-blend-mode:overlay"/>
</g>
<g style="mix-blend-mode:overlay" opacity="0.24">
<path d="M59 67.4999C59 84.3446 103.92 97.9999 57 97.9999C18.0802 97.9999 16 84.3446 16 67.4999C16 50.6552 30.5802 12.9999 53.5 12.9999C76.4198 12.9999 59 50.6552 59 67.4999Z" fill="url(#paint2_linear_17_11558)"/>
</g>
<g style="mix-blend-mode:overlay" opacity="0.32">
<mask id="mask0_17_11558" style="mask-type:alpha" maskUnits="userSpaceOnUse" x="16" y="7" width="101" height="91">
<path fill-rule="evenodd" clip-rule="evenodd" d="M74.5901 96.6336C92.0637 93.2344 117 66.8719 117 46.5C117 24.6848 96.4051 7 71 7C56.6693 7 43.8693 12.6272 35.4329 21.4487C23.1994 33.5507 16 55.6633 16 67.5C16 84.3447 18.0802 98 57 98C65.7816 98 71.3461 97.5217 74.5901 96.6336Z" fill="#919597"/>
</mask>
<g mask="url(#mask0_17_11558)">
<g filter="url(#filter2_f_17_11558)">
<path d="M81.1603 54.8814C78.4311 50.0094 74.6825 46.9466 76.2185 46.0598C77.7545 45.173 81.2122 48.4037 83.9414 53.2757C86.6706 58.1476 85.0431 61.8126 85.0431 61.8126C83.5071 62.6994 83.8895 59.7533 81.1603 54.8814Z" fill="url(#paint3_linear_17_11558)"/>
<path fill-rule="evenodd" clip-rule="evenodd" d="M77.8962 50.01C76.0358 48.3798 72.8486 45.587 68.6709 44.4988C63.2382 43.0837 60.5222 41.8008 59.8885 40.7605C58.5499 41.2692 54.6607 40.7749 47.5514 38.8165C42.0805 37.3096 36.7714 37.8172 33.6725 38.1135C31.8583 38.2869 30.8017 38.388 30.9137 37.9699C31.2171 36.8377 39.4269 34.3774 48.1006 36.7666C51.7957 37.7844 55.3555 37.7044 57.8928 37.6474C58.7411 37.6284 59.4751 37.6119 60.0616 37.6398C60.2238 37.5578 60.4381 37.5868 60.7028 37.699C61.2165 37.7782 61.5302 37.9339 61.598 38.224C61.8823 38.4183 62.1972 38.6481 62.5419 38.8997C64.1468 40.0708 66.3985 41.7139 69.2201 42.4489C75.8437 44.1741 80.035 49.97 79.7316 51.1021C79.6196 51.5202 78.9853 50.9644 77.8962 50.01Z" fill="url(#paint4_linear_17_11558)"/>
<path d="M27.9629 40.7593C33.219 38.8729 38.0574 39.0206 37.48 37.3436C36.9025 35.6667 32.1735 35.8365 26.9174 37.7229C21.6613 39.6093 15.9497 35.8166 20.4852 43.443C21.0627 45.12 22.7068 42.6457 27.9629 40.7593Z" fill="url(#paint5_linear_17_11558)"/>
</g>
<g filter="url(#filter3_f_17_11558)">
<path d="M87.922 47.4647C85.1928 42.5928 81.4443 39.53 82.9803 38.6432C84.5163 37.7563 87.9739 40.9871 90.7031 45.859C93.4324 50.731 91.8048 54.396 91.8048 54.396C90.2688 55.2828 90.6512 52.3367 87.922 47.4647Z" fill="url(#paint6_linear_17_11558)"/>
<path fill-rule="evenodd" clip-rule="evenodd" d="M84.6579 42.5932C82.7975 40.9631 79.6103 38.1702 75.4326 37.082C69.8993 35.6408 67.1842 34.3365 66.6172 33.2861C65.237 33.8107 60.9346 33.2237 52.919 31.0158C46.8617 29.3473 41.036 29.7126 37.6357 29.9259C35.645 30.0507 34.4856 30.1234 34.5976 29.7053C34.901 28.5732 43.8647 26.3205 53.4683 28.9659C57.5595 30.0928 61.4726 30.1101 64.2617 30.1225C65.3186 30.1272 66.214 30.1311 66.8966 30.1945C67.0374 30.1542 67.211 30.1816 67.4164 30.2625C67.9441 30.3578 68.2701 30.5207 68.3512 30.8014C68.6377 30.997 68.9555 31.2289 69.3036 31.4829C70.9085 32.654 73.1602 34.2972 75.9819 35.0321C82.6054 36.7573 86.7967 42.5532 86.4934 43.6854C86.3813 44.1034 85.747 43.5476 84.6579 42.5932Z" fill="url(#paint7_linear_17_11558)"/>
<path d="M32.7246 32.3427C37.9807 30.4563 42.8191 30.604 42.2417 28.927C41.6643 27.25 36.9352 27.4199 31.6791 29.3063C26.423 31.1926 20.7115 27.4 25.2469 35.0264C25.8244 36.7034 27.4686 34.2291 32.7246 32.3427Z" fill="url(#paint8_linear_17_11558)"/>
</g>
<g filter="url(#filter4_f_17_11558)">
<path fill-rule="evenodd" clip-rule="evenodd" d="M41.1227 23.613C44.0678 23.2101 49.052 22.5283 54.1241 23.9216C60.4902 25.6703 64.0867 26.2097 65.5049 25.7576C66.5071 26.8583 69.8915 28.1894 76.2791 29.858C81.3683 31.1874 85.3438 34.27 87.6929 36.0914C89.1044 37.1859 89.9287 37.825 90.0546 37.355C90.3901 36.1029 85.0337 29.719 76.8866 27.5908C73.4809 26.7012 70.709 24.8899 68.7082 23.5825C68.2242 23.2662 67.7853 22.9794 67.3934 22.7423C67.2984 22.4452 66.9681 22.2981 66.4485 22.2363C65.9676 22.03 65.608 21.9922 65.3771 22.202C64.9192 22.2115 64.3957 22.2404 63.8184 22.2723C61.432 22.4041 58.1258 22.5868 54.7316 21.6544C46.6119 19.4239 38.7811 22.2743 38.4456 23.5265C38.3197 23.9964 39.3531 23.8551 41.1227 23.613Z" fill="url(#paint9_linear_17_11558)"/>
<path d="M91.8996 40.7879C88.0024 36.7884 83.5889 34.8001 84.8431 33.546C86.0972 32.2918 90.2732 34.5176 94.1704 38.5172C98.0676 42.5167 97.4441 46.4781 97.4441 46.4781C96.1899 47.7322 95.7968 44.7875 91.8996 40.7879Z" fill="url(#paint10_linear_17_11558)"/>
<path d="M36.6436 25.9543C42.111 24.8177 46.8818 25.6374 46.5434 23.8964C46.205 22.1554 41.4983 21.6654 36.0308 22.8019C30.5634 23.9384 25.4352 19.3878 28.8652 27.5712C29.2036 29.3122 31.1761 27.0908 36.6436 25.9543Z" fill="url(#paint11_linear_17_11558)"/>
</g>
<g filter="url(#filter5_f_17_11558)">
<path fill-rule="evenodd" clip-rule="evenodd" d="M45.8844 18.1964C48.8295 17.7935 53.8137 17.1117 58.8858 18.505C65.2519 20.2537 68.8484 20.7931 70.2667 20.341C71.2688 21.4416 74.6532 22.7728 81.0408 24.4414C86.13 25.7708 90.1055 28.8533 92.4546 30.6748C93.8661 31.7692 94.6904 32.4084 94.8163 31.9384C95.1518 30.6863 89.7954 24.3024 81.6483 22.1742C78.2426 21.2845 75.4707 19.4733 73.47 18.1659C72.9859 17.8496 72.547 17.5628 72.1552 17.3257C72.0601 17.0286 71.7298 16.8814 71.2102 16.8196C70.7293 16.6134 70.3697 16.5756 70.1388 16.7854C69.6809 16.7948 69.1574 16.8238 68.5801 16.8557C66.1937 16.9875 62.8875 17.1702 59.4933 16.2378C51.3736 14.0073 43.5428 16.8577 43.2073 18.1098C43.0814 18.5798 44.1148 18.4384 45.8844 18.1964Z" fill="url(#paint12_linear_17_11558)"/>
<path d="M96.6613 35.3713C92.7642 31.3717 88.3506 29.3835 89.6048 28.1293C90.8589 26.8752 95.0349 29.1009 98.9321 33.1005C102.829 37.1001 102.206 41.0614 102.206 41.0614C100.952 42.3156 100.559 39.3709 96.6613 35.3713Z" fill="url(#paint13_linear_17_11558)"/>
<path d="M41.4053 20.5376C46.8728 19.4011 51.6435 20.2208 51.3051 18.4798C50.9667 16.7387 46.26 16.2488 40.7925 17.3853C35.3251 18.5218 30.1969 13.9711 33.6269 22.1546C33.9653 23.8956 35.9378 21.6742 41.4053 20.5376Z" fill="url(#paint14_linear_17_11558)"/>
</g>
<g filter="url(#filter6_f_17_11558)">
<path fill-rule="evenodd" clip-rule="evenodd" d="M97.21 24.5513C94.174 22.465 89.1057 18.9822 82.755 17.3187C74.6953 15.2076 70.3691 13.7333 69.0587 12.5138C67.3133 12.914 62.8298 12.0276 54.7963 9.82659C48.4646 8.09183 42.3339 8.57388 38.6616 8.86263C36.3895 9.04128 35.0584 9.14594 35.2032 8.60577C35.5818 7.19255 45.2328 4.45969 55.4819 7.26777C59.6764 8.417 63.7183 8.38923 66.6753 8.36892C67.5104 8.36319 68.2589 8.35804 68.9 8.38018C69.1869 8.22916 69.6016 8.28328 70.1358 8.48458C70.7038 8.57743 71.0926 8.73864 71.2656 9.01507C71.8314 9.31629 72.4766 9.69471 73.1962 10.1168C75.7469 11.6129 79.2334 13.6579 83.4406 14.7599C93.7206 17.4526 100.712 24.6448 100.334 26.058C100.189 26.5982 99.0884 25.842 97.21 24.5513Z" fill="url(#paint15_linear_17_11558)"/>
<path d="M102.757 30.1197C99.076 25.8827 94.8413 23.6987 96.0922 22.4479C97.343 21.197 101.341 23.6179 105.021 27.8548C108.702 32.0918 107.993 36.1475 107.993 36.1475C106.742 37.3983 106.437 34.3566 102.757 30.1197Z" fill="url(#paint16_linear_17_11558)"/>
<path d="M31.1569 11.2879C36.5776 9.83346 41.3096 10.3908 40.9721 8.6544C40.6345 6.91795 35.9665 6.68939 30.5458 8.14381C25.1251 9.59823 20.0346 5.29892 23.445 13.357C23.7826 15.0935 25.7362 12.7423 31.1569 11.2879Z" fill="url(#paint17_linear_17_11558)"/>
</g>
<g filter="url(#filter7_f_17_11558)">
<path fill-rule="evenodd" clip-rule="evenodd" d="M100.968 19.1346C97.9318 17.0484 92.8635 13.5656 86.5128 11.9021C78.4531 9.79099 74.1269 8.31664 72.8165 7.0972C71.0711 7.49739 66.5876 6.611 58.5541 4.40996C52.2225 2.67521 46.0917 3.15725 42.4194 3.446C40.1473 3.62465 38.8162 3.72931 38.961 3.18914C39.3396 1.77592 48.9906 -0.956931 59.2397 1.85114C63.4342 3.00037 67.4761 2.97261 70.4331 2.9523C71.2682 2.94656 72.0168 2.94142 72.6578 2.96355C72.9447 2.81253 73.3594 2.86665 73.8936 3.06795C74.4616 3.1608 74.8504 3.32202 75.0234 3.59845C75.5892 3.89966 76.2344 4.27808 76.9541 4.7002C79.5047 6.19629 82.9912 8.24127 87.1984 9.34328C97.4784 12.036 104.47 19.2282 104.091 20.6414C103.947 21.1816 102.846 20.4254 100.968 19.1346Z" fill="url(#paint18_linear_17_11558)"/>
<path d="M106.514 24.703C102.834 20.4661 98.5991 18.2821 99.85 17.0312C101.101 15.7804 105.099 18.2013 108.779 22.4382C112.46 26.6752 111.751 30.7309 111.751 30.7309C110.5 31.9817 110.195 28.94 106.514 24.703Z" fill="url(#paint19_linear_17_11558)"/>
<path d="M34.9147 5.87125C40.3354 4.41684 45.0674 4.97422 44.7299 3.23777C44.3923 1.50132 39.7243 1.27277 34.3036 2.72719C28.8829 4.1816 23.7924 -0.117709 27.2029 7.94042C27.5404 9.67687 29.4941 7.32567 34.9147 5.87125Z" fill="url(#paint20_linear_17_11558)"/>
</g>
</g>
</g>
<mask id="mask1_17_11558" style="mask-type:alpha" maskUnits="userSpaceOnUse" x="16" y="6" width="101" height="92">
<path fill-rule="evenodd" clip-rule="evenodd" d="M74.5901 96.6334C92.0637 93.2341 117 66.8717 117 46.4998C117 24.6845 96.4051 6.99976 71 6.99976C56.6693 6.99976 43.8693 12.6269 35.4329 21.4484C23.1994 33.5505 16 55.6631 16 67.4998C16 84.3444 18.0802 97.9998 57 97.9998C65.7816 97.9998 71.3461 97.5214 74.5901 96.6334Z" fill="#919597"/>
</mask>
<g mask="url(#mask1_17_11558)">
<g style="mix-blend-mode:overlay" opacity="0.64" filter="url(#filter8_f_17_11558)">
<ellipse cx="47.4023" cy="53.2341" rx="31" ry="17.5" fill="url(#paint21_linear_17_11558)"/>
</g>
</g>
<g filter="url(#filter9_d_17_11558)">
<g filter="url(#filter10_ii_17_11558)">
<path d="M30.6957 41C22.1957 62.4998 30.0689 72.5 51.7495 72.5C73.4301 72.5 68.1956 52.8256 65.2728 49.9269" stroke="#2B2827" stroke-width="1.5" stroke-linecap="round"/>
<path d="M30.6957 41C22.1957 62.4998 30.0689 72.5 51.7495 72.5C73.4301 72.5 68.1956 52.8256 65.2728 49.9269" stroke="url(#paint22_linear_17_11558)" stroke-opacity="0.4" stroke-width="1.5" stroke-linecap="round" style="mix-blend-mode:overlay"/>
<path d="M30.6957 41C22.1957 62.4998 30.0689 72.5 51.7495 72.5C73.4301 72.5 68.1956 52.8256 65.2728 49.9269" stroke="url(#paint23_linear_17_11558)" stroke-opacity="0.16" stroke-width="1.5" stroke-linecap="round" style="mix-blend-mode:lighten"/>
</g>
<mask id="mask2_17_11558" style="mask-type:alpha" maskUnits="userSpaceOnUse" x="26" y="40" width="43" height="34">
<path fill-rule="evenodd" clip-rule="evenodd" d="M30.9713 40.3025C31.3565 40.4548 31.5453 40.8905 31.3931 41.2757C27.1665 51.9663 27.1295 59.5192 30.5201 64.3835C33.9151 69.2543 40.9677 71.75 51.7494 71.75C57.0604 71.75 60.6237 70.5453 62.9691 68.7812C65.3068 67.0229 66.5119 64.6508 67.0014 62.156C67.4932 59.6492 67.2574 57.0326 66.714 54.8587C66.4429 53.7744 66.0986 52.8139 65.7404 52.0462C65.3755 51.2644 65.0188 50.7313 64.7446 50.4594C64.4505 50.1677 64.4485 49.6929 64.7402 49.3988C65.0319 49.1047 65.5067 49.1027 65.8008 49.3944C66.2573 49.8471 66.7035 50.563 67.0997 51.4119C67.5024 52.275 67.8772 53.3271 68.1692 54.4949C68.7517 56.8253 69.0176 59.6707 68.4733 62.4448C67.9267 65.231 66.558 67.9587 63.8708 69.9799C61.1913 71.9953 57.2788 73.25 51.7494 73.25C40.8505 73.25 33.1262 70.7455 29.2895 65.2412C25.4483 59.7304 25.7247 51.5334 29.9981 40.7242C30.1504 40.339 30.5861 40.1502 30.9713 40.3025Z" fill="url(#paint24_linear_17_11558)"/>
</mask>
<g mask="url(#mask2_17_11558)">
<g style="mix-blend-mode:multiply" opacity="0.4" filter="url(#filter11_f_17_11558)">
<circle cx="42.3398" cy="57" r="16" fill="black"/>
</g>
</g>
</g>
<mask id="mask3_17_11558" style="mask-type:alpha" maskUnits="userSpaceOnUse" x="42" y="68" width="15" height="12">
<path d="M56.3398 73.5C56.3398 76.6812 50.9827 80 49.3399 80C47.697 80 42.3399 76.6812 42.3399 73.5C42.3399 70.3188 42.2922 68 49.3399 68C56.3875 68 56.3398 70.3188 56.3398 73.5Z" fill="#D9D9D9"/>
</mask>
<g mask="url(#mask3_17_11558)">
<g filter="url(#filter12_ii_17_11558)">
<rect x="42.3398" y="68" width="14" height="12" fill="url(#paint25_radial_17_11558)"/>
</g>
<g opacity="0.64">
<mask id="path-31-outside-1_17_11558" maskUnits="userSpaceOnUse" x="45.3398" y="72" width="8" height="3" fill="black">
<rect fill="white" x="45.3398" y="72" width="8" height="3"/>
<path d="M46.0269 74V72.1818H46.8117C46.9466 72.1818 47.0647 72.2085 47.1659 72.2617C47.2671 72.315 47.3458 72.3899 47.402 72.4863C47.4583 72.5828 47.4864 72.6955 47.4864 72.8246C47.4864 72.9548 47.4574 73.0675 47.3994 73.1628C47.342 73.2581 47.2612 73.3315 47.157 73.383C47.0534 73.4345 46.9324 73.4602 46.7939 73.4602H46.3252V73.0767H46.6945C46.7525 73.0767 46.8019 73.0666 46.8427 73.0465C46.8842 73.0258 46.9158 72.9965 46.9377 72.9586C46.9602 72.9208 46.9715 72.8761 46.9715 72.8246C46.9715 72.7725 46.9602 72.7281 46.9377 72.6914C46.9158 72.6541 46.8842 72.6257 46.8427 72.6062C46.8019 72.5861 46.7525 72.576 46.6945 72.576H46.5205V74H46.0269ZM47.9935 74.0213C47.9065 74.0213 47.8296 74.0071 47.7627 73.9787C47.6964 73.9497 47.6443 73.9059 47.6064 73.8473C47.5686 73.7887 47.5496 73.7141 47.5496 73.6236C47.5496 73.549 47.5624 73.4854 47.5878 73.4327C47.6133 73.3794 47.6488 73.3359 47.6943 73.3022C47.7399 73.2685 47.7929 73.2427 47.8532 73.225C47.9142 73.2072 47.9799 73.1957 48.0503 73.1903C48.1267 73.1844 48.1879 73.1773 48.2341 73.169C48.2809 73.1602 48.3146 73.148 48.3353 73.1326C48.356 73.1167 48.3664 73.0956 48.3664 73.0696V73.0661C48.3664 73.0305 48.3528 73.0033 48.3256 72.9844C48.2983 72.9654 48.2634 72.956 48.2208 72.956C48.174 72.956 48.1359 72.9663 48.1063 72.987C48.0773 73.0072 48.0598 73.0382 48.0539 73.0803H47.6029C47.6088 72.9974 47.6352 72.921 47.6819 72.8512C47.7293 72.7808 47.7982 72.7246 47.8888 72.6825C47.9793 72.6399 48.0924 72.6186 48.2279 72.6186C48.3256 72.6186 48.4131 72.6301 48.4907 72.6532C48.5682 72.6757 48.6342 72.7074 48.6887 72.7482C48.7431 72.7885 48.7845 72.8358 48.8129 72.8903C48.8419 72.9441 48.8564 73.0027 48.8564 73.0661V74H48.3983V73.8082H48.3877C48.3605 73.8591 48.3273 73.9003 48.2883 73.9316C48.2498 73.963 48.2057 73.9858 48.156 74C48.1069 74.0142 48.0527 74.0213 47.9935 74.0213ZM48.1533 73.7124C48.1906 73.7124 48.2255 73.7047 48.2581 73.6893C48.2912 73.6739 48.3182 73.6517 48.3389 73.6227C48.3596 73.5937 48.3699 73.5585 48.3699 73.517V73.4034C48.3569 73.4087 48.343 73.4138 48.3282 73.4185C48.314 73.4232 48.2986 73.4277 48.282 73.4318C48.2661 73.436 48.2489 73.4398 48.2306 73.4434C48.2128 73.4469 48.1942 73.4502 48.1746 73.4531C48.1367 73.459 48.1057 73.4688 48.0814 73.4824C48.0577 73.4954 48.04 73.5117 48.0281 73.5312C48.0169 73.5502 48.0113 73.5715 48.0113 73.5952C48.0113 73.633 48.0246 73.6621 48.0512 73.6822C48.0779 73.7023 48.1119 73.7124 48.1533 73.7124ZM49.3321 74L48.9912 72.6364H49.4812L49.6375 73.4673H49.6481L49.8221 72.6364H50.298L50.4791 73.4602H50.4897L50.6389 72.6364H51.129L50.788 74H50.2589L50.0672 73.2685H50.053L49.8612 74H49.3321ZM51.7682 73.233V74H51.2781V72.6364H51.7433V72.8956H51.7575C51.7871 72.8092 51.8392 72.7414 51.9138 72.6923C51.9889 72.6432 52.0765 72.6186 52.1765 72.6186C52.273 72.6186 52.3568 72.6408 52.4278 72.6852C52.4994 72.729 52.5547 72.7894 52.5938 72.8663C52.6334 72.9432 52.653 73.0311 52.6524 73.13V74H52.1623V73.233C52.1629 73.1655 52.1458 73.1125 52.1108 73.074C52.0765 73.0356 52.0286 73.0163 51.967 73.0163C51.9268 73.0163 51.8916 73.0252 51.8614 73.043C51.8318 73.0601 51.809 73.085 51.793 73.1175C51.777 73.1495 51.7687 73.188 51.7682 73.233Z"/>
</mask>
<g filter="url(#filter13_i_17_11558)">
<path d="M46.0269 74V72.1818H46.8117C46.9466 72.1818 47.0647 72.2085 47.1659 72.2617C47.2671 72.315 47.3458 72.3899 47.402 72.4863C47.4583 72.5828 47.4864 72.6955 47.4864 72.8246C47.4864 72.9548 47.4574 73.0675 47.3994 73.1628C47.342 73.2581 47.2612 73.3315 47.157 73.383C47.0534 73.4345 46.9324 73.4602 46.7939 73.4602H46.3252V73.0767H46.6945C46.7525 73.0767 46.8019 73.0666 46.8427 73.0465C46.8842 73.0258 46.9158 72.9965 46.9377 72.9586C46.9602 72.9208 46.9715 72.8761 46.9715 72.8246C46.9715 72.7725 46.9602 72.7281 46.9377 72.6914C46.9158 72.6541 46.8842 72.6257 46.8427 72.6062C46.8019 72.5861 46.7525 72.576 46.6945 72.576H46.5205V74H46.0269ZM47.9935 74.0213C47.9065 74.0213 47.8296 74.0071 47.7627 73.9787C47.6964 73.9497 47.6443 73.9059 47.6064 73.8473C47.5686 73.7887 47.5496 73.7141 47.5496 73.6236C47.5496 73.549 47.5624 73.4854 47.5878 73.4327C47.6133 73.3794 47.6488 73.3359 47.6943 73.3022C47.7399 73.2685 47.7929 73.2427 47.8532 73.225C47.9142 73.2072 47.9799 73.1957 48.0503 73.1903C48.1267 73.1844 48.1879 73.1773 48.2341 73.169C48.2809 73.1602 48.3146 73.148 48.3353 73.1326C48.356 73.1167 48.3664 73.0956 48.3664 73.0696V73.0661C48.3664 73.0305 48.3528 73.0033 48.3256 72.9844C48.2983 72.9654 48.2634 72.956 48.2208 72.956C48.174 72.956 48.1359 72.9663 48.1063 72.987C48.0773 73.0072 48.0598 73.0382 48.0539 73.0803H47.6029C47.6088 72.9974 47.6352 72.921 47.6819 72.8512C47.7293 72.7808 47.7982 72.7246 47.8888 72.6825C47.9793 72.6399 48.0924 72.6186 48.2279 72.6186C48.3256 72.6186 48.4131 72.6301 48.4907 72.6532C48.5682 72.6757 48.6342 72.7074 48.6887 72.7482C48.7431 72.7885 48.7845 72.8358 48.8129 72.8903C48.8419 72.9441 48.8564 73.0027 48.8564 73.0661V74H48.3983V73.8082H48.3877C48.3605 73.8591 48.3273 73.9003 48.2883 73.9316C48.2498 73.963 48.2057 73.9858 48.156 74C48.1069 74.0142 48.0527 74.0213 47.9935 74.0213ZM48.1533 73.7124C48.1906 73.7124 48.2255 73.7047 48.2581 73.6893C48.2912 73.6739 48.3182 73.6517 48.3389 73.6227C48.3596 73.5937 48.3699 73.5585 48.3699 73.517V73.4034C48.3569 73.4087 48.343 73.4138 48.3282 73.4185C48.314 73.4232 48.2986 73.4277 48.282 73.4318C48.2661 73.436 48.2489 73.4398 48.2306 73.4434C48.2128 73.4469 48.1942 73.4502 48.1746 73.4531C48.1367 73.459 48.1057 73.4688 48.0814 73.4824C48.0577 73.4954 48.04 73.5117 48.0281 73.5312C48.0169 73.5502 48.0113 73.5715 48.0113 73.5952C48.0113 73.633 48.0246 73.6621 48.0512 73.6822C48.0779 73.7023 48.1119 73.7124 48.1533 73.7124ZM49.3321 74L48.9912 72.6364H49.4812L49.6375 73.4673H49.6481L49.8221 72.6364H50.298L50.4791 73.4602H50.4897L50.6389 72.6364H51.129L50.788 74H50.2589L50.0672 73.2685H50.053L49.8612 74H49.3321ZM51.7682 73.233V74H51.2781V72.6364H51.7433V72.8956H51.7575C51.7871 72.8092 51.8392 72.7414 51.9138 72.6923C51.9889 72.6432 52.0765 72.6186 52.1765 72.6186C52.273 72.6186 52.3568 72.6408 52.4278 72.6852C52.4994 72.729 52.5547 72.7894 52.5938 72.8663C52.6334 72.9432 52.653 73.0311 52.6524 73.13V74H52.1623V73.233C52.1629 73.1655 52.1458 73.1125 52.1108 73.074C52.0765 73.0356 52.0286 73.0163 51.967 73.0163C51.9268 73.0163 51.8916 73.0252 51.8614 73.043C51.8318 73.0601 51.809 73.085 51.793 73.1175C51.777 73.1495 51.7687 73.188 51.7682 73.233Z" fill="url(#paint26_linear_17_11558)"/>
</g>
<path d="M46.0269 74H45.9769V74.05H46.0269V74ZM46.0269 72.1818V72.1318H45.9769V72.1818H46.0269ZM47.1659 72.2617L47.1426 72.306L47.1426 72.306L47.1659 72.2617ZM47.402 72.4863L47.4452 72.4612L47.4452 72.4612L47.402 72.4863ZM47.3994 73.1628L47.3567 73.1368L47.3565 73.137L47.3994 73.1628ZM47.157 73.383L47.1348 73.3382L47.1347 73.3382L47.157 73.383ZM46.3252 73.4602H46.2752V73.5102H46.3252V73.4602ZM46.3252 73.0767V73.0267H46.2752V73.0767H46.3252ZM46.8427 73.0465L46.8648 73.0914L46.8651 73.0912L46.8427 73.0465ZM46.9377 72.9586L46.8947 72.9331L46.8944 72.9336L46.9377 72.9586ZM46.9377 72.6914L46.8946 72.7167L46.8951 72.7175L46.9377 72.6914ZM46.8427 72.6062L46.8206 72.651L46.8214 72.6514L46.8427 72.6062ZM46.5205 72.576V72.526H46.4705V72.576H46.5205ZM46.5205 74V74.05H46.5705V74H46.5205ZM46.0769 74V72.1818H45.9769V74H46.0769ZM46.0269 72.2318H46.8117V72.1318H46.0269V72.2318ZM46.8117 72.2318C46.9399 72.2318 47.0498 72.2571 47.1426 72.306L47.1892 72.2175C47.0796 72.1598 46.9533 72.1318 46.8117 72.1318V72.2318ZM47.1426 72.306C47.2357 72.355 47.3074 72.4233 47.3588 72.5115L47.4452 72.4612C47.3842 72.3564 47.2985 72.275 47.1892 72.2175L47.1426 72.306ZM47.3588 72.5115C47.41 72.5992 47.4364 72.703 47.4364 72.8246H47.5364C47.5364 72.6881 47.5066 72.5664 47.4452 72.4612L47.3588 72.5115ZM47.4364 72.8246C47.4364 72.9472 47.4091 73.0506 47.3567 73.1368L47.4421 73.1888C47.5056 73.0845 47.5364 72.9624 47.5364 72.8246H47.4364ZM47.3565 73.137C47.3043 73.2237 47.2308 73.2907 47.1348 73.3382L47.1792 73.4278C47.2915 73.3723 47.3796 73.2925 47.4422 73.1886L47.3565 73.137ZM47.1347 73.3382C47.0393 73.3857 46.9262 73.4102 46.7939 73.4102V73.5102C46.9386 73.5102 47.0675 73.4833 47.1793 73.4278L47.1347 73.3382ZM46.7939 73.4102H46.3252V73.5102H46.7939V73.4102ZM46.3752 73.4602V73.0767H46.2752V73.4602H46.3752ZM46.3252 73.1267H46.6945V73.0267H46.3252V73.1267ZM46.6945 73.1267C46.7581 73.1267 46.8155 73.1157 46.8648 73.0914L46.8206 73.0017C46.7883 73.0176 46.7468 73.0267 46.6945 73.0267V73.1267ZM46.8651 73.0912C46.9147 73.0664 46.9539 73.0305 46.981 72.9837L46.8944 72.9336C46.8777 72.9625 46.8536 72.9852 46.8204 73.0018L46.8651 73.0912ZM46.9807 72.9842C47.0085 72.9373 47.0215 72.8835 47.0215 72.8246H46.9215C46.9215 72.8686 46.9119 72.9042 46.8947 72.9331L46.9807 72.9842ZM47.0215 72.8246C47.0215 72.7652 47.0086 72.7113 46.9804 72.6653L46.8951 72.7175C46.9118 72.7449 46.9215 72.7798 46.9215 72.8246H47.0215ZM46.9808 72.6661C46.9535 72.6196 46.914 72.5845 46.8641 72.561L46.8214 72.6514C46.8543 72.6669 46.8781 72.6886 46.8946 72.7167L46.9808 72.6661ZM46.8648 72.5613C46.8155 72.537 46.7581 72.526 46.6945 72.526V72.626C46.7468 72.626 46.7883 72.6351 46.8206 72.651L46.8648 72.5613ZM46.6945 72.526H46.5205V72.626H46.6945V72.526ZM46.4705 72.576V74H46.5705V72.576H46.4705ZM46.5205 73.95H46.0269V74.05H46.5205V73.95ZM47.7627 73.9787L47.7427 74.0245L47.7431 74.0247L47.7627 73.9787ZM47.6064 73.8473L47.5645 73.8744L47.5645 73.8744L47.6064 73.8473ZM47.5878 73.4327L47.6328 73.4545L47.6329 73.4543L47.5878 73.4327ZM47.6943 73.3022L47.7241 73.3424L47.7241 73.3424L47.6943 73.3022ZM47.8532 73.225L47.8393 73.177L47.8391 73.177L47.8532 73.225ZM48.0503 73.1903L48.0541 73.2402L48.0542 73.2402L48.0503 73.1903ZM48.2341 73.169L48.2429 73.2183L48.2434 73.2182L48.2341 73.169ZM48.3353 73.1326L48.3651 73.1728L48.3659 73.1722L48.3353 73.1326ZM48.3256 72.9844L48.297 73.0254L48.297 73.0254L48.3256 72.9844ZM48.1063 72.987L48.1348 73.0281L48.1349 73.028L48.1063 72.987ZM48.0539 73.0803V73.1303H48.0973L48.1034 73.0872L48.0539 73.0803ZM47.6029 73.0803L47.553 73.0767L47.5492 73.1303H47.6029V73.0803ZM47.6819 72.8512L47.6404 72.8233L47.6404 72.8234L47.6819 72.8512ZM47.8888 72.6825L47.9098 72.7279L47.9101 72.7278L47.8888 72.6825ZM48.4907 72.6532L48.4764 72.7012L48.4767 72.7013L48.4907 72.6532ZM48.6887 72.7482L48.6587 72.7882L48.6589 72.7884L48.6887 72.7482ZM48.8129 72.8903L48.7686 72.9134L48.7689 72.914L48.8129 72.8903ZM48.8564 74V74.05H48.9064V74H48.8564ZM48.3983 74H48.3483V74.05H48.3983V74ZM48.3983 73.8082H48.4483V73.7582H48.3983V73.8082ZM48.3877 73.8082V73.7582H48.3577L48.3436 73.7847L48.3877 73.8082ZM48.2883 73.9316L48.257 73.8927L48.2567 73.8929L48.2883 73.9316ZM48.156 74L48.1422 73.9519L48.1421 73.952L48.156 74ZM48.2581 73.6893L48.237 73.6439L48.2367 73.6441L48.2581 73.6893ZM48.3389 73.6227L48.2982 73.5936L48.2982 73.5936L48.3389 73.6227ZM48.3699 73.4034H48.4199V73.3289L48.351 73.3571L48.3699 73.4034ZM48.3282 73.4185L48.313 73.3709L48.3124 73.3711L48.3282 73.4185ZM48.282 73.4318L48.2699 73.3833L48.2695 73.3834L48.282 73.4318ZM48.2306 73.4434L48.2211 73.3943L48.2208 73.3943L48.2306 73.4434ZM48.1746 73.4531L48.1671 73.4037L48.1669 73.4037L48.1746 73.4531ZM48.0814 73.4824L48.1055 73.5262L48.1059 73.526L48.0814 73.4824ZM48.0281 73.5312L47.9854 73.5053L47.9852 73.5057L48.0281 73.5312ZM48.0512 73.6822L48.0814 73.6423L48.0814 73.6423L48.0512 73.6822ZM47.9935 73.9713C47.9119 73.9713 47.8418 73.958 47.7822 73.9327L47.7431 74.0247C47.8173 74.0562 47.9011 74.0713 47.9935 74.0713V73.9713ZM47.7827 73.9329C47.7251 73.9077 47.6808 73.8702 47.6484 73.8202L47.5645 73.8744C47.6079 73.9416 47.6677 73.9917 47.7427 74.0245L47.7827 73.9329ZM47.6484 73.8202C47.6171 73.7717 47.5996 73.7073 47.5996 73.6236H47.4996C47.4996 73.7209 47.52 73.8057 47.5645 73.8744L47.6484 73.8202ZM47.5996 73.6236C47.5996 73.5545 47.6114 73.4988 47.6328 73.4545L47.5428 73.411C47.5133 73.472 47.4996 73.5435 47.4996 73.6236H47.5996ZM47.6329 73.4543C47.655 73.4081 47.6854 73.3711 47.7241 73.3424L47.6646 73.262C47.6122 73.3008 47.5715 73.3508 47.5427 73.4112L47.6329 73.4543ZM47.7241 73.3424C47.7645 73.3125 47.812 73.2892 47.8674 73.2729L47.8391 73.177C47.7738 73.1962 47.7154 73.2244 47.6646 73.262L47.7241 73.3424ZM47.8672 73.273C47.9245 73.2563 47.9868 73.2453 48.0541 73.2402L48.0466 73.1405C47.9731 73.146 47.9039 73.1581 47.8393 73.177L47.8672 73.273ZM48.0542 73.2402C48.1313 73.2342 48.1944 73.227 48.2429 73.2182L48.2253 73.1198C48.1815 73.1277 48.1221 73.1346 48.0465 73.1405L48.0542 73.2402ZM48.2434 73.2182C48.2924 73.2089 48.3352 73.195 48.3651 73.1728L48.3055 73.0925C48.294 73.101 48.2694 73.1114 48.2248 73.1199L48.2434 73.2182ZM48.3659 73.1722C48.3988 73.1468 48.4164 73.1112 48.4164 73.0696H48.3164C48.3164 73.0801 48.3133 73.0865 48.3048 73.093L48.3659 73.1722ZM48.4164 73.0696V73.0661H48.3164V73.0696H48.4164ZM48.4164 73.0661C48.4164 73.0155 48.3958 72.9724 48.3541 72.9433L48.297 73.0254C48.3097 73.0343 48.3164 73.0455 48.3164 73.0661H48.4164ZM48.3541 72.9433C48.3164 72.9171 48.2707 72.906 48.2208 72.906V73.006C48.2561 73.006 48.2803 73.0138 48.297 73.0254L48.3541 72.9433ZM48.2208 72.906C48.1668 72.906 48.1178 72.918 48.0776 72.9461L48.1349 73.028C48.154 73.0147 48.1813 73.006 48.2208 73.006V72.906ZM48.0778 72.946C48.035 72.9756 48.0118 73.0205 48.0044 73.0733L48.1034 73.0872C48.1078 73.056 48.1195 73.0387 48.1348 73.0281L48.0778 72.946ZM48.0539 73.0303H47.6029V73.1303H48.0539V73.0303ZM47.6528 73.0838C47.6581 73.0097 47.6815 72.9417 47.7235 72.879L47.6404 72.8234C47.5888 72.9004 47.5596 72.9851 47.553 73.0767L47.6528 73.0838ZM47.7234 72.8791C47.7648 72.8175 47.8261 72.7667 47.9098 72.7279L47.8677 72.6372C47.7704 72.6824 47.6937 72.7441 47.6404 72.8233L47.7234 72.8791ZM47.9101 72.7278C47.992 72.6892 48.0973 72.6686 48.2279 72.6686V72.5686C48.0875 72.5686 47.9666 72.5906 47.8675 72.6373L47.9101 72.7278ZM48.2279 72.6686C48.3217 72.6686 48.4044 72.6797 48.4764 72.7012L48.5049 72.6053C48.4219 72.5806 48.3294 72.5686 48.2279 72.5686V72.6686ZM48.4767 72.7013C48.5495 72.7224 48.6098 72.7516 48.6587 72.7882L48.7187 72.7082C48.6586 72.6632 48.5869 72.6291 48.5046 72.6052L48.4767 72.7013ZM48.6589 72.7884C48.7079 72.8246 48.7441 72.8663 48.7686 72.9134L48.8573 72.8671C48.825 72.8053 48.7783 72.7523 48.7184 72.708L48.6589 72.7884ZM48.7689 72.914C48.7939 72.9603 48.8064 73.0107 48.8064 73.0661H48.9064C48.9064 72.9948 48.89 72.928 48.857 72.8666L48.7689 72.914ZM48.8064 73.0661V74H48.9064V73.0661H48.8064ZM48.8564 73.95H48.3983V74.05H48.8564V73.95ZM48.4483 74V73.8082H48.3483V74H48.4483ZM48.3983 73.7582H48.3877V73.8582H48.3983V73.7582ZM48.3436 73.7847C48.3191 73.8305 48.29 73.8661 48.257 73.8927L48.3196 73.9706C48.3646 73.9344 48.4019 73.8878 48.4318 73.8318L48.3436 73.7847ZM48.2567 73.8929C48.2237 73.9198 48.1857 73.9395 48.1422 73.9519L48.1697 74.0481C48.2257 74.0321 48.2759 74.0062 48.3199 73.9704L48.2567 73.8929ZM48.1421 73.952C48.0981 73.9647 48.0487 73.9713 47.9935 73.9713V74.0713C48.0567 74.0713 48.1156 74.0637 48.1699 74.048L48.1421 73.952ZM48.1533 73.7624C48.1977 73.7624 48.24 73.7531 48.2794 73.7345L48.2367 73.6441C48.2111 73.6562 48.1835 73.6624 48.1533 73.6624V73.7624ZM48.2791 73.7346C48.3199 73.7157 48.3537 73.688 48.3796 73.6518L48.2982 73.5936C48.2826 73.6154 48.2625 73.6321 48.237 73.6439L48.2791 73.7346ZM48.3796 73.6518C48.4073 73.613 48.4199 73.5671 48.4199 73.517H48.3199C48.3199 73.5498 48.3119 73.5744 48.2982 73.5936L48.3796 73.6518ZM48.4199 73.517V73.4034H48.3199V73.517H48.4199ZM48.351 73.3571C48.3393 73.3619 48.3267 73.3665 48.313 73.3709L48.3435 73.4661C48.3594 73.461 48.3745 73.4556 48.3889 73.4497L48.351 73.3571ZM48.3124 73.3711C48.2996 73.3753 48.2854 73.3794 48.2699 73.3833L48.2942 73.4803C48.3118 73.4759 48.3285 73.4711 48.344 73.4659L48.3124 73.3711ZM48.2695 73.3834C48.2547 73.3873 48.2385 73.3909 48.2211 73.3943L48.2401 73.4924C48.2593 73.4887 48.2775 73.4847 48.2946 73.4802L48.2695 73.3834ZM48.2208 73.3943C48.2038 73.3977 48.186 73.4008 48.1671 73.4037L48.1821 73.5026C48.2024 73.4995 48.2218 73.4961 48.2404 73.4924L48.2208 73.3943ZM48.1669 73.4037C48.1252 73.4102 48.088 73.4214 48.0569 73.4388L48.1059 73.526C48.1234 73.5162 48.1483 73.5078 48.1823 73.5025L48.1669 73.4037ZM48.0573 73.4386C48.0274 73.4551 48.0025 73.477 47.9854 73.5053L48.0709 73.5572C48.0774 73.5464 48.0881 73.5358 48.1055 73.5262L48.0573 73.4386ZM47.9852 73.5057C47.969 73.533 47.9613 73.5632 47.9613 73.5952H48.0613C48.0613 73.5798 48.0648 73.5674 48.0711 73.5568L47.9852 73.5057ZM47.9613 73.5952C47.9613 73.6463 47.9801 73.6911 48.0211 73.7221L48.0814 73.6423C48.069 73.633 48.0613 73.6198 48.0613 73.5952H47.9613ZM48.0211 73.7221C48.0583 73.7502 48.1037 73.7624 48.1533 73.7624V73.6624C48.1201 73.6624 48.0974 73.6544 48.0814 73.6423L48.0211 73.7221ZM49.3321 74L49.2836 74.0121L49.293 74.05H49.3321V74ZM48.9912 72.6364V72.5864H48.9271L48.9427 72.6485L48.9912 72.6364ZM49.4812 72.6364L49.5304 72.6271L49.5227 72.5864H49.4812V72.6364ZM49.6375 73.4673L49.5883 73.4766L49.596 73.5173H49.6375V73.4673ZM49.6481 73.4673V73.5173H49.6887L49.6971 73.4776L49.6481 73.4673ZM49.8221 72.6364V72.5864H49.7815L49.7732 72.6261L49.8221 72.6364ZM50.298 72.6364L50.3468 72.6256L50.3382 72.5864H50.298V72.6364ZM50.4791 73.4602L50.4303 73.471L50.4389 73.5102H50.4791V73.4602ZM50.4897 73.4602V73.5102H50.5315L50.5389 73.4691L50.4897 73.4602ZM50.6389 72.6364V72.5864H50.5971L50.5897 72.6275L50.6389 72.6364ZM51.129 72.6364L51.1775 72.6485L51.193 72.5864H51.129V72.6364ZM50.788 74V74.05H50.8271L50.8365 74.0121L50.788 74ZM50.2589 74L50.2106 74.0127L50.2203 74.05H50.2589V74ZM50.0672 73.2685L50.1155 73.2558L50.1057 73.2185H50.0672V73.2685ZM50.053 73.2685V73.2185H50.0144L50.0046 73.2558L50.053 73.2685ZM49.8612 74V74.05H49.8998L49.9096 74.0127L49.8612 74ZM49.3806 73.9879L49.0397 72.6242L48.9427 72.6485L49.2836 74.0121L49.3806 73.9879ZM48.9912 72.6864H49.4812V72.5864H48.9912V72.6864ZM49.4321 72.6456L49.5883 73.4766L49.6866 73.4581L49.5304 72.6271L49.4321 72.6456ZM49.6375 73.5173H49.6481V73.4173H49.6375V73.5173ZM49.6971 73.4776L49.8711 72.6466L49.7732 72.6261L49.5992 73.4571L49.6971 73.4776ZM49.8221 72.6864H50.298V72.5864H49.8221V72.6864ZM50.2492 72.6471L50.4303 73.471L50.5279 73.4495L50.3468 72.6256L50.2492 72.6471ZM50.4791 73.5102H50.4897V73.4102H50.4791V73.5102ZM50.5389 73.4691L50.6881 72.6453L50.5897 72.6275L50.4405 73.4513L50.5389 73.4691ZM50.6389 72.6864H51.129V72.5864H50.6389V72.6864ZM51.0804 72.6242L50.7395 73.9879L50.8365 74.0121L51.1775 72.6485L51.0804 72.6242ZM50.788 73.95H50.2589V74.05H50.788V73.95ZM50.3073 73.9873L50.1155 73.2558L50.0188 73.2811L50.2106 74.0127L50.3073 73.9873ZM50.0672 73.2185H50.053V73.3185H50.0672V73.2185ZM50.0046 73.2558L49.8128 73.9873L49.9096 74.0127L50.1013 73.2811L50.0046 73.2558ZM49.8612 73.95H49.3321V74.05H49.8612V73.95ZM51.7682 73.233L51.7182 73.2323V73.233H51.7682ZM51.7682 74V74.05H51.8182V74H51.7682ZM51.2781 74H51.2281V74.05H51.2781V74ZM51.2781 72.6364V72.5864H51.2281V72.6364H51.2781ZM51.7433 72.6364H51.7933V72.5864H51.7433V72.6364ZM51.7433 72.8956H51.6933V72.9456H51.7433V72.8956ZM51.7575 72.8956V72.9456H51.7932L51.8048 72.9118L51.7575 72.8956ZM51.9138 72.6923L51.8864 72.6504L51.8862 72.6505L51.9138 72.6923ZM52.4278 72.6852L52.4013 72.7276L52.4017 72.7278L52.4278 72.6852ZM52.5938 72.8663L52.5492 72.8889L52.5493 72.8892L52.5938 72.8663ZM52.6524 73.13L52.6024 73.1297V73.13H52.6524ZM52.6524 74V74.05H52.7024V74H52.6524ZM52.1623 74H52.1123V74.05H52.1623V74ZM52.1623 73.233L52.1123 73.2325V73.233H52.1623ZM52.1108 73.074L52.0735 73.1073L52.0738 73.1076L52.1108 73.074ZM51.8614 73.043L51.8865 73.0862L51.8867 73.0861L51.8614 73.043ZM51.793 73.1175L51.8377 73.1399L51.8379 73.1396L51.793 73.1175ZM51.7182 73.233V74H51.8182V73.233H51.7182ZM51.7682 73.95H51.2781V74.05H51.7682V73.95ZM51.3281 74V72.6364H51.2281V74H51.3281ZM51.2781 72.6864H51.7433V72.5864H51.2781V72.6864ZM51.6933 72.6364V72.8956H51.7933V72.6364H51.6933ZM51.7433 72.9456H51.7575V72.8456H51.7433V72.9456ZM51.8048 72.9118C51.8309 72.8356 51.8762 72.7769 51.9413 72.734L51.8862 72.6505C51.8022 72.7059 51.7433 72.7828 51.7102 72.8794L51.8048 72.9118ZM51.9411 72.7341C52.0072 72.6909 52.0851 72.6686 52.1765 72.6686V72.5686C52.0679 72.5686 51.9706 72.5954 51.8864 72.6504L51.9411 72.7341ZM52.1765 72.6686C52.2651 72.6686 52.3394 72.6889 52.4013 72.7276L52.4543 72.6428C52.3742 72.5927 52.2809 72.5686 52.1765 72.5686V72.6686ZM52.4017 72.7278C52.4652 72.7667 52.5142 72.82 52.5492 72.8889L52.6384 72.8437C52.5952 72.7587 52.5336 72.6913 52.4539 72.6425L52.4017 72.7278ZM52.5493 72.8892C52.5848 72.958 52.6029 73.0377 52.6024 73.1297L52.7024 73.1303C52.703 73.0245 52.6821 72.9285 52.6382 72.8434L52.5493 72.8892ZM52.6024 73.13V74H52.7024V73.13H52.6024ZM52.6524 73.95H52.1623V74.05H52.6524V73.95ZM52.2123 74V73.233H52.1123V74H52.2123ZM52.2123 73.2334C52.213 73.1572 52.1935 73.0907 52.1479 73.0404L52.0738 73.1076C52.098 73.1343 52.1128 73.1738 52.1123 73.2325L52.2123 73.2334ZM52.1481 73.0408C52.1025 72.9896 52.0398 72.9663 51.967 72.9663V73.0663C52.0173 73.0663 52.0505 73.0816 52.0735 73.1073L52.1481 73.0408ZM51.967 72.9663C51.9192 72.9663 51.875 72.977 51.836 72.9999L51.8867 73.0861C51.9081 73.0735 51.9343 73.0663 51.967 73.0663V72.9663ZM51.8363 72.9997C51.7976 73.0221 51.7682 73.0546 51.7481 73.0955L51.8379 73.1396C51.8498 73.1153 51.8659 73.0981 51.8865 73.0862L51.8363 72.9997ZM51.7483 73.0952C51.7282 73.1354 51.7188 73.1817 51.7182 73.2323L51.8182 73.2336C51.8187 73.1943 51.8259 73.1636 51.8377 73.1399L51.7483 73.0952Z" fill="url(#paint27_linear_17_11558)" fill-opacity="0.8" mask="url(#path-31-outside-1_17_11558)"/>
</g>
</g>
<g filter="url(#filter14_iiii_17_11558)">
<path d="M17.8394 24C19.3396 12 20.3396 4 22.8396 4C25.3396 4 37.3396 12 37.3396 12C40.8396 11 49.3395 11 49.3395 11V66C49.3395 66 29.3395 66 21.3396 56.5C13.3396 47 16.3392 36 17.8394 24Z" fill="#919597"/>
<path d="M17.8394 24C19.3396 12 20.3396 4 22.8396 4C25.3396 4 37.3396 12 37.3396 12C40.8396 11 49.3395 11 49.3395 11V66C49.3395 66 29.3395 66 21.3396 56.5C13.3396 47 16.3392 36 17.8394 24Z" fill="url(#paint28_linear_17_11558)" fill-opacity="0.24" style="mix-blend-mode:overlay"/>
<mask id="mask4_17_11558" style="mask-type:alpha" maskUnits="userSpaceOnUse" x="16" y="4" width="34" height="62">
<path d="M17.8397 24C19.3399 12 20.3399 4 22.8398 4C25.3398 4 37.3398 12 37.3398 12C40.8398 11 49.3397 11 49.3397 11V66C49.3397 66 29.3398 66 21.3398 56.5C13.3398 47 16.3394 36 17.8397 24Z" fill="black"/>
</mask>
<g mask="url(#mask4_17_11558)">
<path opacity="0.4" d="M19.3398 29.4999C17.8086 33.8482 20.3397 5.5001 22.3398 5.50012C24.34 5.50014 34.7432 10.5836 35.7688 12.36C36.7945 14.1364 24.3504 15.2703 19.3398 29.4999Z" fill="url(#paint29_linear_17_11558)"/>
<g style="mix-blend-mode:overlay">
<path d="M19.3398 29.4999C17.8086 33.8482 20.3397 5.5001 22.3398 5.50012C24.34 5.50014 34.7432 10.5836 35.7688 12.36C36.7945 14.1364 24.3504 15.2703 19.3398 29.4999Z" fill="url(#paint30_linear_17_11558)"/>
</g>
<g style="mix-blend-mode:overlay" opacity="0.64">
<path d="M19.3398 29.5001C17.8086 33.8484 20.3397 5.50023 22.3398 5.50024C24.34 5.50026 34.7432 10.5837 35.7688 12.3601C36.7945 14.1365 24.3504 15.2704 19.3398 29.5001Z" fill="url(#paint31_linear_17_11558)"/>
</g>
<g style="mix-blend-mode:overlay" opacity="0.24" filter="url(#filter15_f_17_11558)">
<ellipse cx="37.3397" cy="41.0002" rx="11" ry="6" transform="rotate(-4 37.3397 41.0002)" fill="url(#paint32_radial_17_11558)"/>
</g>
<g style="mix-blend-mode:overlay" opacity="0.24" filter="url(#filter16_f_17_11558)">
<ellipse cx="18.6835" cy="47.5508" rx="18.0388" ry="6" transform="rotate(75 18.6835 47.5508)" fill="url(#paint33_radial_17_11558)"/>
</g>
<g style="mix-blend-mode:overlay" opacity="0.32" filter="url(#filter17_f_17_11558)">
<path d="M62.3398 19.2064C62.3398 24.8432 60.1406 33.6154 52.6429 33.6154C45.1452 33.6154 30.3398 21.8413 30.3398 16.2045C30.3398 10.5677 45.1452 9 52.6429 9C60.1406 9 62.3398 13.5696 62.3398 19.2064Z" fill="url(#paint34_radial_17_11558)"/>
</g>
<g style="mix-blend-mode:overlay" opacity="0.4" filter="url(#filter18_f_17_11558)">
<path d="M51.9405 38.9294C53.5973 42.7565 54.9863 49.2272 50.9317 50.9825C46.877 52.7378 35.4099 48.21 33.7531 44.3829C32.0963 40.5558 39.642 36.0253 43.6967 34.27C47.7513 32.5147 50.2837 35.1023 51.9405 38.9294Z" fill="url(#paint35_radial_17_11558)"/>
</g>
<g style="mix-blend-mode:overlay" opacity="0.64" filter="url(#filter19_f_17_11558)">
<path d="M43.7 13.8712C41.9847 20.2728 42.3075 25.9214 40.5942 25.4623C38.8809 25.0032 38.8825 19.4416 40.5978 13.04C42.3131 6.63839 48.6974 3.82223 50.4108 4.28131C52.1241 4.74039 45.4153 7.46963 43.7 13.8712Z" fill="url(#paint36_linear_17_11558)"/>
</g>
<g style="mix-blend-mode:overlay" opacity="0.56" filter="url(#filter20_f_17_11558)">
<path d="M38.7559 62.3482C52.8825 64.5851 65.217 64.7283 64.8398 67.1848C65.3316 69.6135 50.8439 72.2121 36.183 67.1846C12.4235 56.029 17.6029 47.4711 19.3335 49.3826C22.1082 51.2349 21.9119 59.681 38.7559 62.3482Z" fill="url(#paint37_linear_17_11558)"/>
</g>
<g style="mix-blend-mode:multiply" opacity="0.24" filter="url(#filter21_f_17_11558)">
<path d="M37.6872 57.4083C48.0563 59.03 57.0291 59.6446 56.8647 60.7154C57.3307 61.8127 46.9152 62.3158 36.0331 59.4346C18.2629 53.4336 21.6455 49.8761 22.989 50.7997C25.0888 51.7438 25.3236 55.4746 37.6872 57.4083Z" fill="url(#paint38_linear_17_11558)"/>
</g>
<g style="mix-blend-mode:overlay" opacity="0.4" filter="url(#filter22_f_17_11558)">
<path d="M22.906 44.921C32.2046 55.7885 42.8722 62.6973 40.4758 63.3559C38.4594 64.7965 15.8371 59.983 14.4406 44.5471C14.9233 18.3034 20.3788 20.1399 19.3405 22.5002C17.8398 34.5001 17.8398 39.0001 22.906 44.921Z" fill="url(#paint39_linear_17_11558)"/>
</g>
</g>
<mask id="mask5_17_11558" style="mask-type:alpha" maskUnits="userSpaceOnUse" x="16" y="4" width="34" height="62">
<path d="M17.8394 24C19.3396 12 20.3396 4 22.8396 4C25.3396 4 37.3396 12 37.3396 12C40.8396 11 49.3395 11 49.3395 11V66C49.3395 66 29.3395 66 21.3396 56.5C13.3396 47 16.3392 36 17.8394 24Z" fill="url(#paint40_linear_17_11558)"/>
</mask>
<g mask="url(#mask5_17_11558)">
<g filter="url(#filter23_di_17_11558)">
<path d="M30.3396 30.6409C30.3396 28.4317 32.1305 32.6409 34.3396 32.6409C36.5487 32.6409 38.3396 28.4317 38.3396 30.6409C38.3396 32.85 36.5487 34.6409 34.3396 34.6409C32.1305 34.6409 30.3396 32.85 30.3396 30.6409Z" fill="url(#paint41_radial_17_11558)"/>
</g>
<path d="M53.3396 38C53.3396 39.0621 51.5487 42 49.3396 42C47.1305 42 45.8396 39.0621 45.8396 38C45.8396 36.9379 47.1305 36.5 49.3396 36.5C51.5487 36.5 53.3396 36.9379 53.3396 38Z" fill="url(#paint42_radial_17_11558)"/>
<g style="mix-blend-mode:soft-light">
<path d="M53.3396 38C53.3396 39.0621 51.5487 42 49.3396 42C47.1305 42 45.8396 39.0621 45.8396 38C45.8396 36.9379 47.1305 36.5 49.3396 36.5C51.5487 36.5 53.3396 36.9379 53.3396 38Z" fill="url(#paint43_linear_17_11558)"/>
</g>
<path d="M49.3396 42C49.3396 46 43.8396 48.5 41.8396 44.5" stroke="black" stroke-width="0.75" stroke-linecap="round" stroke-linejoin="round"/>
</g>
<path d="M30.3398 43.0002C26.6291 42.1028 23.8399 42.0001 19.3399 42.5001" stroke="black" stroke-width="0.5" stroke-linecap="round" stroke-linejoin="round"/>
<path d="M30.4012 41.4522C27.9934 40.17 25.9738 39.3429 22.541 39.2635" stroke="black" stroke-width="0.5" stroke-linecap="round" stroke-linejoin="round"/>
<path d="M30.4217 44.3406C27.6954 44.4341 25.5329 44.7276 22.5203 46.3752" stroke="black" stroke-width="0.5" stroke-linecap="round" stroke-linejoin="round"/>
<path d="M80.8403 24C79.3401 12 78.34 4 75.8401 4C73.3401 4 61.3401 12 61.3401 12C57.8401 11 49.3402 11 49.3402 11V66C49.3402 66 69.3402 66 77.3401 56.5C85.3401 47 82.3405 36 80.8403 24Z" fill="#919597"/>
<path d="M80.8403 24C79.3401 12 78.34 4 75.8401 4C73.3401 4 61.3401 12 61.3401 12C57.8401 11 49.3402 11 49.3402 11V66C49.3402 66 69.3402 66 77.3401 56.5C85.3401 47 82.3405 36 80.8403 24Z" fill="url(#paint44_linear_17_11558)" fill-opacity="0.24" style="mix-blend-mode:overlay"/>
<mask id="mask6_17_11558" style="mask-type:alpha" maskUnits="userSpaceOnUse" x="49" y="4" width="34" height="62">
<path d="M80.84 24C79.3398 12 78.3398 4 75.8398 4C73.3399 4 61.3399 12 61.3399 12C57.8398 11 49.34 11 49.34 11V66C49.34 66 69.3399 66 77.3399 56.5C85.3399 47 82.3402 36 80.84 24Z" fill="black"/>
</mask>
<g mask="url(#mask6_17_11558)">
<path opacity="0.4" d="M79.3399 29.4999C80.871 33.8482 78.34 5.5001 76.3398 5.50012C74.3397 5.50014 63.9364 10.5836 62.9108 12.36C61.8852 14.1364 74.3293 15.2703 79.3399 29.4999Z" fill="url(#paint45_linear_17_11558)"/>
<g style="mix-blend-mode:overlay">
<path d="M79.3399 29.4999C80.871 33.8482 78.34 5.5001 76.3398 5.50012C74.3397 5.50014 63.9364 10.5836 62.9108 12.36C61.8852 14.1364 74.3293 15.2703 79.3399 29.4999Z" fill="url(#paint46_linear_17_11558)"/>
</g>
<g style="mix-blend-mode:overlay" opacity="0.64">
<path d="M79.3399 29.5001C80.871 33.8484 78.34 5.50023 76.3398 5.50024C74.3397 5.50026 63.9364 10.5837 62.9108 12.3601C61.8852 14.1365 74.3293 15.2704 79.3399 29.5001Z" fill="url(#paint47_linear_17_11558)"/>
</g>
<g style="mix-blend-mode:overlay" opacity="0.24" filter="url(#filter24_f_17_11558)">
<ellipse cx="11" cy="6" rx="11" ry="6" transform="matrix(-0.997564 -0.0697565 -0.0697565 0.997564 72.7317 35.7821)" fill="url(#paint48_radial_17_11558)"/>
</g>
<g style="mix-blend-mode:overlay" opacity="0.24" filter="url(#filter25_f_17_11558)">
<ellipse cx="18.0388" cy="6" rx="18.0388" ry="6" transform="matrix(-0.258819 0.965926 0.965926 0.258819 78.8694 28.5737)" fill="url(#paint49_radial_17_11558)"/>
</g>
<g style="mix-blend-mode:overlay" opacity="0.32" filter="url(#filter26_f_17_11558)">
<path d="M36.3398 19.2064C36.3398 24.8432 38.5391 33.6154 46.0368 33.6154C53.5345 33.6154 68.3398 21.8413 68.3398 16.2045C68.3398 10.5677 53.5345 9 46.0368 9C38.5391 9 36.3398 13.5696 36.3398 19.2064Z" fill="url(#paint50_radial_17_11558)"/>
</g>
<g style="mix-blend-mode:overlay" opacity="0.4" filter="url(#filter27_f_17_11558)">
<path d="M46.7392 38.9294C45.0824 42.7565 43.6934 49.2272 47.748 50.9825C51.8027 52.7378 63.2698 48.21 64.9266 44.3829C66.5834 40.5558 59.0377 36.0253 54.983 34.27C50.9284 32.5147 48.396 35.1023 46.7392 38.9294Z" fill="url(#paint51_radial_17_11558)"/>
</g>
<g style="mix-blend-mode:overlay" opacity="0.64" filter="url(#filter28_f_17_11558)">
<path d="M54.9796 13.8712C56.6949 20.2728 56.3722 25.9214 58.0855 25.4623C59.7988 25.0032 59.7972 19.4416 58.0819 13.04C56.3666 6.63839 49.9822 3.82223 48.2689 4.28131C46.5556 4.74039 53.2643 7.46963 54.9796 13.8712Z" fill="url(#paint52_linear_17_11558)"/>
</g>
<g style="mix-blend-mode:overlay" opacity="0.56" filter="url(#filter29_f_17_11558)">
<path d="M59.9238 62.3482C45.7972 64.5851 33.4626 64.7283 33.8398 67.1848C33.348 69.6135 47.8358 72.2121 62.4966 67.1846C86.2562 56.029 81.0768 47.4711 79.3462 49.3826C76.5715 51.2349 76.7678 59.681 59.9238 62.3482Z" fill="url(#paint53_linear_17_11558)"/>
</g>
<g style="mix-blend-mode:multiply" opacity="0.24" filter="url(#filter30_f_17_11558)">
<path d="M60.9925 57.4083C50.6234 59.03 41.6506 59.6446 41.815 60.7154C41.349 61.8127 51.7644 62.3158 62.6466 59.4346C80.4168 53.4336 77.0341 49.8761 75.6907 50.7997C73.5909 51.7438 73.3561 55.4746 60.9925 57.4083Z" fill="url(#paint54_linear_17_11558)"/>
</g>
<g style="mix-blend-mode:overlay" opacity="0.4" filter="url(#filter31_f_17_11558)">
<path d="M75.7737 44.921C66.475 55.7885 55.8075 62.6973 58.2039 63.3559C60.2202 64.7965 82.8426 59.983 84.2391 44.5471C83.7563 18.3034 78.3009 20.1399 79.3392 22.5002C80.8398 34.5001 80.8398 39.0001 75.7737 44.921Z" fill="url(#paint55_linear_17_11558)"/>
</g>
</g>
<mask id="mask7_17_11558" style="mask-type:alpha" maskUnits="userSpaceOnUse" x="49" y="4" width="34" height="62">
<path d="M80.8403 24C79.3401 12 78.34 4 75.8401 4C73.3401 4 61.3401 12 61.3401 12C57.8401 11 49.3402 11 49.3402 11V66C49.3402 66 69.3402 66 77.3401 56.5C85.3401 47 82.3405 36 80.8403 24Z" fill="url(#paint56_linear_17_11558)"/>
</mask>
<g mask="url(#mask7_17_11558)">
<g filter="url(#filter32_di_17_11558)">
<path d="M68.3401 30.6409C68.3401 28.4317 66.5492 32.6409 64.3401 32.6409C62.1309 32.6409 60.3401 28.4317 60.3401 30.6409C60.3401 32.85 62.1309 34.6409 64.3401 34.6409C66.5492 34.6409 68.3401 32.85 68.3401 30.6409Z" fill="url(#paint57_radial_17_11558)"/>
</g>
<path d="M45.3401 38C45.3401 39.0621 47.1309 42 49.3401 42C51.5492 42 52.8401 39.0621 52.8401 38C52.8401 36.9379 51.5492 36.5 49.3401 36.5C47.1309 36.5 45.3401 36.9379 45.3401 38Z" fill="url(#paint58_radial_17_11558)"/>
<g style="mix-blend-mode:soft-light">
<path d="M45.3401 38C45.3401 39.0621 47.1309 42 49.3401 42C51.5492 42 52.8401 39.0621 52.8401 38C52.8401 36.9379 51.5492 36.5 49.3401 36.5C47.1309 36.5 45.3401 36.9379 45.3401 38Z" fill="url(#paint59_linear_17_11558)"/>
</g>
<path d="M49.3401 42C49.3401 46 54.8401 48.5 56.8401 44.5" stroke="black" stroke-width="0.75" stroke-linecap="round" stroke-linejoin="round"/>
</g>
<path d="M68.3398 43.0002C72.0506 42.1028 74.8398 42.0001 79.3398 42.5001" stroke="black" stroke-width="0.5" stroke-linecap="round" stroke-linejoin="round"/>
<path d="M68.2785 41.4522C70.6863 40.17 72.7058 39.3429 76.1387 39.2635" stroke="black" stroke-width="0.5" stroke-linecap="round" stroke-linejoin="round"/>
<path d="M68.2579 44.3406C70.9843 44.4341 73.1468 44.7276 76.1594 46.3752" stroke="black" stroke-width="0.5" stroke-linecap="round" stroke-linejoin="round"/>
</g>
<defs>
<filter id="filter0_f_17_11558" x="0" y="23.9392" width="129" height="88.0608" filterUnits="userSpaceOnUse" color-interpolation-filters="sRGB">
<feFlood flood-opacity="0" result="BackgroundImageFix"/>
<feBlend mode="normal" in="SourceGraphic" in2="BackgroundImageFix" result="shape"/>
<feGaussianBlur stdDeviation="6" result="effect1_foregroundBlur_17_11558"/>
</filter>
<filter id="filter1_iiii_17_11558" x="12.0039" y="2.99976" width="113" height="107" filterUnits="userSpaceOnUse" color-interpolation-filters="sRGB">
<feFlood flood-opacity="0" result="BackgroundImageFix"/>
<feBlend mode="normal" in="SourceGraphic" in2="BackgroundImageFix" result="shape"/>
<feColorMatrix in="SourceAlpha" type="matrix" values="0 0 0 0 0 0 0 0 0 0 0 0 0 0 0 0 0 0 127 0" result="hardAlpha"/>
<feOffset dy="12"/>
<feGaussianBlur stdDeviation="16"/>
<feComposite in2="hardAlpha" operator="arithmetic" k2="-1" k3="1"/>
<feColorMatrix type="matrix" values="0 0 0 0 1 0 0 0 0 1 0 0 0 0 1 0 0 0 0.4 0"/>
<feBlend mode="overlay" in2="shape" result="effect1_innerShadow_17_11558"/>
<feColorMatrix in="SourceAlpha" type="matrix" values="0 0 0 0 0 0 0 0 0 0 0 0 0 0 0 0 0 0 127 0" result="hardAlpha"/>
<feOffset dx="2" dy="-4"/>
<feGaussianBlur stdDeviation="4"/>
<feComposite in2="hardAlpha" operator="arithmetic" k2="-1" k3="1"/>
<feColorMatrix type="matrix" values="0 0 0 0 0 0 0 0 0 0 0 0 0 0 0 0 0 0 0.24 0"/>
<feBlend mode="normal" in2="effect1_innerShadow_17_11558" result="effect2_innerShadow_17_11558"/>
<feColorMatrix in="SourceAlpha" type="matrix" values="0 0 0 0 0 0 0 0 0 0 0 0 0 0 0 0 0 0 127 0" result="hardAlpha"/>
<feOffset dx="8" dy="-4"/>
<feGaussianBlur stdDeviation="8"/>
<feComposite in2="hardAlpha" operator="arithmetic" k2="-1" k3="1"/>
<feColorMatrix type="matrix" values="0 0 0 0 0 0 0 0 0 0 0 0 0 0 0 0 0 0 0.24 0"/>
<feBlend mode="overlay" in2="effect2_innerShadow_17_11558" result="effect3_innerShadow_17_11558"/>
<feColorMatrix in="SourceAlpha" type="matrix" values="0 0 0 0 0 0 0 0 0 0 0 0 0 0 0 0 0 0 127 0" result="hardAlpha"/>
<feOffset dx="-4"/>
<feGaussianBlur stdDeviation="6"/>
<feComposite in2="hardAlpha" operator="arithmetic" k2="-1" k3="1"/>
<feColorMatrix type="matrix" values="0 0 0 0 1 0 0 0 0 1 0 0 0 0 1 0 0 0 0.56 0"/>
<feBlend mode="overlay" in2="effect3_innerShadow_17_11558" result="effect4_innerShadow_17_11558"/>
</filter>
<filter id="filter2_f_17_11558" x="16.8372" y="33.7585" width="70.6875" height="30.2111" filterUnits="userSpaceOnUse" color-interpolation-filters="sRGB">
<feFlood flood-opacity="0" result="BackgroundImageFix"/>
<feBlend mode="normal" in="SourceGraphic" in2="BackgroundImageFix" result="shape"/>
<feGaussianBlur stdDeviation="1" result="effect1_foregroundBlur_17_11558"/>
</filter>
<filter id="filter3_f_17_11558" x="21.5989" y="25.7296" width="72.6875" height="30.8234" filterUnits="userSpaceOnUse" color-interpolation-filters="sRGB">
<feFlood flood-opacity="0" result="BackgroundImageFix"/>
<feBlend mode="normal" in="SourceGraphic" in2="BackgroundImageFix" result="shape"/>
<feGaussianBlur stdDeviation="1" result="effect1_foregroundBlur_17_11558"/>
</filter>
<filter id="filter4_f_17_11558" x="25.7561" y="18.8273" width="73.7246" height="29.9432" filterUnits="userSpaceOnUse" color-interpolation-filters="sRGB">
<feFlood flood-opacity="0" result="BackgroundImageFix"/>
<feBlend mode="normal" in="SourceGraphic" in2="BackgroundImageFix" result="shape"/>
<feGaussianBlur stdDeviation="1" result="effect1_foregroundBlur_17_11558"/>
</filter>
<filter id="filter5_f_17_11558" x="30.5178" y="13.4106" width="73.7246" height="29.9432" filterUnits="userSpaceOnUse" color-interpolation-filters="sRGB">
<feFlood flood-opacity="0" result="BackgroundImageFix"/>
<feBlend mode="normal" in="SourceGraphic" in2="BackgroundImageFix" result="shape"/>
<feGaussianBlur stdDeviation="1" result="effect1_foregroundBlur_17_11558"/>
</filter>
<filter id="filter6_f_17_11558" x="20.3411" y="4.04907" width="89.7068" height="34.3822" filterUnits="userSpaceOnUse" color-interpolation-filters="sRGB">
<feFlood flood-opacity="0" result="BackgroundImageFix"/>
<feBlend mode="normal" in="SourceGraphic" in2="BackgroundImageFix" result="shape"/>
<feGaussianBlur stdDeviation="1" result="effect1_foregroundBlur_17_11558"/>
</filter>
<filter id="filter7_f_17_11558" x="24.0989" y="-1.36755" width="89.7068" height="34.3822" filterUnits="userSpaceOnUse" color-interpolation-filters="sRGB">
<feFlood flood-opacity="0" result="BackgroundImageFix"/>
<feBlend mode="normal" in="SourceGraphic" in2="BackgroundImageFix" result="shape"/>
<feGaussianBlur stdDeviation="1" result="effect1_foregroundBlur_17_11558"/>
</filter>
<filter id="filter8_f_17_11558" x="8.40234" y="27.7341" width="78" height="51" filterUnits="userSpaceOnUse" color-interpolation-filters="sRGB">
<feFlood flood-opacity="0" result="BackgroundImageFix"/>
<feBlend mode="normal" in="SourceGraphic" in2="BackgroundImageFix" result="shape"/>
<feGaussianBlur stdDeviation="4" result="effect1_foregroundBlur_17_11558"/>
</filter>
<filter id="filter9_d_17_11558" x="21.0896" y="37.7498" width="49.1804" height="40.0002" filterUnits="userSpaceOnUse" color-interpolation-filters="sRGB">
<feFlood flood-opacity="0" result="BackgroundImageFix"/>
<feColorMatrix in="SourceAlpha" type="matrix" values="0 0 0 0 0 0 0 0 0 0 0 0 0 0 0 0 0 0 127 0" result="hardAlpha"/>
<feOffset dx="-2" dy="1"/>
<feGaussianBlur stdDeviation="1.75"/>
<feComposite in2="hardAlpha" operator="out"/>
<feColorMatrix type="matrix" values="0 0 0 0 0 0 0 0 0 0 0 0 0 0 0 0 0 0 0.24 0"/>
<feBlend mode="normal" in2="BackgroundImageFix" result="effect1_dropShadow_17_11558"/>
<feBlend mode="normal" in="SourceGraphic" in2="effect1_dropShadow_17_11558" result="shape"/>
</filter>
<filter id="filter10_ii_17_11558" x="26.3396" y="40.2498" width="42.9304" height="33.2502" filterUnits="userSpaceOnUse" color-interpolation-filters="sRGB">
<feFlood flood-opacity="0" result="BackgroundImageFix"/>
<feBlend mode="normal" in="SourceGraphic" in2="BackgroundImageFix" result="shape"/>
<feColorMatrix in="SourceAlpha" type="matrix" values="0 0 0 0 0 0 0 0 0 0 0 0 0 0 0 0 0 0 127 0" result="hardAlpha"/>
<feOffset dx="-0.25" dy="0.25"/>
<feGaussianBlur stdDeviation="0.25"/>
<feComposite in2="hardAlpha" operator="arithmetic" k2="-1" k3="1"/>
<feColorMatrix type="matrix" values="0 0 0 0 1 0 0 0 0 1 0 0 0 0 1 0 0 0 0.48 0"/>
<feBlend mode="normal" in2="shape" result="effect1_innerShadow_17_11558"/>
<feColorMatrix in="SourceAlpha" type="matrix" values="0 0 0 0 0 0 0 0 0 0 0 0 0 0 0 0 0 0 127 0" result="hardAlpha"/>
<feOffset dx="0.5" dy="0.25"/>
<feGaussianBlur stdDeviation="0.25"/>
<feComposite in2="hardAlpha" operator="arithmetic" k2="-1" k3="1"/>
<feColorMatrix type="matrix" values="0 0 0 0 0 0 0 0 0 0 0 0 0 0 0 0 0 0 0.4 0"/>
<feBlend mode="overlay" in2="effect1_innerShadow_17_11558" result="effect2_innerShadow_17_11558"/>
</filter>
<filter id="filter11_f_17_11558" x="20.3398" y="35" width="44" height="44" filterUnits="userSpaceOnUse" color-interpolation-filters="sRGB">
<feFlood flood-opacity="0" result="BackgroundImageFix"/>
<feBlend mode="normal" in="SourceGraphic" in2="BackgroundImageFix" result="shape"/>
<feGaussianBlur stdDeviation="3" result="effect1_foregroundBlur_17_11558"/>
</filter>
<filter id="filter12_ii_17_11558" x="41.3398" y="67.75" width="16" height="12.75" filterUnits="userSpaceOnUse" color-interpolation-filters="sRGB">
<feFlood flood-opacity="0" result="BackgroundImageFix"/>
<feBlend mode="normal" in="SourceGraphic" in2="BackgroundImageFix" result="shape"/>
<feColorMatrix in="SourceAlpha" type="matrix" values="0 0 0 0 0 0 0 0 0 0 0 0 0 0 0 0 0 0 127 0" result="hardAlpha"/>
<feOffset dx="1" dy="-0.25"/>
<feGaussianBlur stdDeviation="0.75"/>
<feComposite in2="hardAlpha" operator="arithmetic" k2="-1" k3="1"/>
<feColorMatrix type="matrix" values="0 0 0 0 0 0 0 0 0 0 0 0 0 0 0 0 0 0 0.32 0"/>
<feBlend mode="normal" in2="shape" result="effect1_innerShadow_17_11558"/>
<feColorMatrix in="SourceAlpha" type="matrix" values="0 0 0 0 0 0 0 0 0 0 0 0 0 0 0 0 0 0 127 0" result="hardAlpha"/>
<feOffset dx="-1" dy="0.5"/>
<feGaussianBlur stdDeviation="0.75"/>
<feComposite in2="hardAlpha" operator="arithmetic" k2="-1" k3="1"/>
<feColorMatrix type="matrix" values="0 0 0 0 1 0 0 0 0 1 0 0 0 0 1 0 0 0 0.56 0"/>
<feBlend mode="normal" in2="effect1_innerShadow_17_11558" result="effect2_innerShadow_17_11558"/>
</filter>
<filter id="filter13_i_17_11558" x="45.8769" y="72.1818" width="6.77646" height="1.9896" filterUnits="userSpaceOnUse" color-interpolation-filters="sRGB">
<feFlood flood-opacity="0" result="BackgroundImageFix"/>
<feBlend mode="normal" in="SourceGraphic" in2="BackgroundImageFix" result="shape"/>
<feColorMatrix in="SourceAlpha" type="matrix" values="0 0 0 0 0 0 0 0 0 0 0 0 0 0 0 0 0 0 127 0" result="hardAlpha"/>
<feOffset dx="-0.15" dy="0.15"/>
<feGaussianBlur stdDeviation="0.125"/>
<feComposite in2="hardAlpha" operator="arithmetic" k2="-1" k3="1"/>
<feColorMatrix type="matrix" values="0 0 0 0 0 0 0 0 0 0 0 0 0 0 0 0 0 0 0.48 0"/>
<feBlend mode="normal" in2="shape" result="effect1_innerShadow_17_11558"/>
</filter>
<filter id="filter14_iiii_17_11558" x="9.33984" y="-6" width="79" height="76" filterUnits="userSpaceOnUse" color-interpolation-filters="sRGB">
<feFlood flood-opacity="0" result="BackgroundImageFix"/>
<feBlend mode="normal" in="SourceGraphic" in2="BackgroundImageFix" result="shape"/>
<feColorMatrix in="SourceAlpha" type="matrix" values="0 0 0 0 0 0 0 0 0 0 0 0 0 0 0 0 0 0 127 0" result="hardAlpha"/>
<feOffset dx="2" dy="-4"/>
<feGaussianBlur stdDeviation="4"/>
<feComposite in2="hardAlpha" operator="arithmetic" k2="-1" k3="1"/>
<feColorMatrix type="matrix" values="0 0 0 0 0 0 0 0 0 0 0 0 0 0 0 0 0 0 0.16 0"/>
<feBlend mode="overlay" in2="shape" result="effect1_innerShadow_17_11558"/>
<feColorMatrix in="SourceAlpha" type="matrix" values="0 0 0 0 0 0 0 0 0 0 0 0 0 0 0 0 0 0 127 0" result="hardAlpha"/>
<feOffset dx="3" dy="-6"/>
<feGaussianBlur stdDeviation="4"/>
<feComposite in2="hardAlpha" operator="arithmetic" k2="-1" k3="1"/>
<feColorMatrix type="matrix" values="0 0 0 0 0 0 0 0 0 0 0 0 0 0 0 0 0 0 0.24 0"/>
<feBlend mode="overlay" in2="effect1_innerShadow_17_11558" result="effect2_innerShadow_17_11558"/>
<feColorMatrix in="SourceAlpha" type="matrix" values="0 0 0 0 0 0 0 0 0 0 0 0 0 0 0 0 0 0 127 0" result="hardAlpha"/>
<feOffset dx="-4" dy="2"/>
<feGaussianBlur stdDeviation="2"/>
<feComposite in2="hardAlpha" operator="arithmetic" k2="-1" k3="1"/>
<feColorMatrix type="matrix" values="0 0 0 0 1 0 0 0 0 1 0 0 0 0 1 0 0 0 0.32 0"/>
<feBlend mode="overlay" in2="effect2_innerShadow_17_11558" result="effect3_innerShadow_17_11558"/>
<feColorMatrix in="SourceAlpha" type="matrix" values="0 0 0 0 0 0 0 0 0 0 0 0 0 0 0 0 0 0 127 0" result="hardAlpha"/>
<feOffset/>
<feGaussianBlur stdDeviation="2"/>
<feComposite in2="hardAlpha" operator="arithmetic" k2="-1" k3="1"/>
<feColorMatrix type="matrix" values="0 0 0 0 1 0 0 0 0 1 0 0 0 0 1 0 0 0 0.24 0"/>
<feBlend mode="overlay" in2="effect3_innerShadow_17_11558" result="effect4_innerShadow_17_11558"/>
</filter>
<filter id="filter15_f_17_11558" x="22.3584" y="30.9651" width="29.9626" height="20.0701" filterUnits="userSpaceOnUse" color-interpolation-filters="sRGB">
<feFlood flood-opacity="0" result="BackgroundImageFix"/>
<feBlend mode="normal" in="SourceGraphic" in2="BackgroundImageFix" result="shape"/>
<feGaussianBlur stdDeviation="2" result="effect1_foregroundBlur_17_11558"/>
</filter>
<filter id="filter16_f_17_11558" x="5.24121" y="24.0565" width="26.8848" height="46.9886" filterUnits="userSpaceOnUse" color-interpolation-filters="sRGB">
<feFlood flood-opacity="0" result="BackgroundImageFix"/>
<feBlend mode="normal" in="SourceGraphic" in2="BackgroundImageFix" result="shape"/>
<feGaussianBlur stdDeviation="3" result="effect1_foregroundBlur_17_11558"/>
</filter>
<filter id="filter17_f_17_11558" x="26.3398" y="5" width="40" height="32.6154" filterUnits="userSpaceOnUse" color-interpolation-filters="sRGB">
<feFlood flood-opacity="0" result="BackgroundImageFix"/>
<feBlend mode="normal" in="SourceGraphic" in2="BackgroundImageFix" result="shape"/>
<feGaussianBlur stdDeviation="2" result="effect1_foregroundBlur_17_11558"/>
</filter>
<filter id="filter18_f_17_11558" x="27.519" y="27.7091" width="32.0613" height="29.6628" filterUnits="userSpaceOnUse" color-interpolation-filters="sRGB">
<feFlood flood-opacity="0" result="BackgroundImageFix"/>
<feBlend mode="normal" in="SourceGraphic" in2="BackgroundImageFix" result="shape"/>
<feGaussianBlur stdDeviation="3" result="effect1_foregroundBlur_17_11558"/>
</filter>
<filter id="filter19_f_17_11558" x="37.3103" y="2.23315" width="15.3779" height="25.2554" filterUnits="userSpaceOnUse" color-interpolation-filters="sRGB">
<feFlood flood-opacity="0" result="BackgroundImageFix"/>
<feBlend mode="normal" in="SourceGraphic" in2="BackgroundImageFix" result="shape"/>
<feGaussianBlur stdDeviation="1" result="effect1_foregroundBlur_17_11558"/>
</filter>
<filter id="filter20_f_17_11558" x="13.6345" y="45.1145" width="55.2175" height="28.9467" filterUnits="userSpaceOnUse" color-interpolation-filters="sRGB">
<feFlood flood-opacity="0" result="BackgroundImageFix"/>
<feBlend mode="normal" in="SourceGraphic" in2="BackgroundImageFix" result="shape"/>
<feGaussianBlur stdDeviation="2" result="effect1_foregroundBlur_17_11558"/>
</filter>
<filter id="filter21_f_17_11558" x="15.8228" y="44.6547" width="47.0569" height="22.9269" filterUnits="userSpaceOnUse" color-interpolation-filters="sRGB">
<feFlood flood-opacity="0" result="BackgroundImageFix"/>
<feBlend mode="normal" in="SourceGraphic" in2="BackgroundImageFix" result="shape"/>
<feGaussianBlur stdDeviation="3" result="effect1_foregroundBlur_17_11558"/>
</filter>
<filter id="filter22_f_17_11558" x="8.44067" y="15.2449" width="38.377" height="54.3536" filterUnits="userSpaceOnUse" color-interpolation-filters="sRGB">
<feFlood flood-opacity="0" result="BackgroundImageFix"/>
<feBlend mode="normal" in="SourceGraphic" in2="BackgroundImageFix" result="shape"/>
<feGaussianBlur stdDeviation="3" result="effect1_foregroundBlur_17_11558"/>
</filter>
<filter id="filter23_di_17_11558" x="29.3396" y="28.9998" width="10" height="7.64111" filterUnits="userSpaceOnUse" color-interpolation-filters="sRGB">
<feFlood flood-opacity="0" result="BackgroundImageFix"/>
<feColorMatrix in="SourceAlpha" type="matrix" values="0 0 0 0 0 0 0 0 0 0 0 0 0 0 0 0 0 0 127 0" result="hardAlpha"/>
<feOffset dy="1"/>
<feGaussianBlur stdDeviation="0.5"/>
<feComposite in2="hardAlpha" operator="out"/>
<feColorMatrix type="matrix" values="0 0 0 0 1 0 0 0 0 1 0 0 0 0 1 0 0 0 0.16 0"/>
<feBlend mode="overlay" in2="BackgroundImageFix" result="effect1_dropShadow_17_11558"/>
<feBlend mode="normal" in="SourceGraphic" in2="effect1_dropShadow_17_11558" result="shape"/>
<feColorMatrix in="SourceAlpha" type="matrix" values="0 0 0 0 0 0 0 0 0 0 0 0 0 0 0 0 0 0 127 0" result="hardAlpha"/>
<feOffset dy="-1"/>
<feGaussianBlur stdDeviation="0.5"/>
<feComposite in2="hardAlpha" operator="arithmetic" k2="-1" k3="1"/>
<feColorMatrix type="matrix" values="0 0 0 0 0.491667 0 0 0 0 0.483472 0 0 0 0 0.483472 0 0 0 0.35 0"/>
<feBlend mode="normal" in2="shape" result="effect2_innerShadow_17_11558"/>
</filter>
<filter id="filter24_f_17_11558" x="46.3586" y="30.9651" width="29.9626" height="20.0701" filterUnits="userSpaceOnUse" color-interpolation-filters="sRGB">
<feFlood flood-opacity="0" result="BackgroundImageFix"/>
<feBlend mode="normal" in="SourceGraphic" in2="BackgroundImageFix" result="shape"/>
<feGaussianBlur stdDeviation="2" result="effect1_foregroundBlur_17_11558"/>
</filter>
<filter id="filter25_f_17_11558" x="66.5537" y="24.0565" width="26.8848" height="46.9886" filterUnits="userSpaceOnUse" color-interpolation-filters="sRGB">
<feFlood flood-opacity="0" result="BackgroundImageFix"/>
<feBlend mode="normal" in="SourceGraphic" in2="BackgroundImageFix" result="shape"/>
<feGaussianBlur stdDeviation="3" result="effect1_foregroundBlur_17_11558"/>
</filter>
<filter id="filter26_f_17_11558" x="32.3398" y="5" width="40" height="32.6154" filterUnits="userSpaceOnUse" color-interpolation-filters="sRGB">
<feFlood flood-opacity="0" result="BackgroundImageFix"/>
<feBlend mode="normal" in="SourceGraphic" in2="BackgroundImageFix" result="shape"/>
<feGaussianBlur stdDeviation="2" result="effect1_foregroundBlur_17_11558"/>
</filter>
<filter id="filter27_f_17_11558" x="39.0994" y="27.7091" width="32.0613" height="29.6628" filterUnits="userSpaceOnUse" color-interpolation-filters="sRGB">
<feFlood flood-opacity="0" result="BackgroundImageFix"/>
<feBlend mode="normal" in="SourceGraphic" in2="BackgroundImageFix" result="shape"/>
<feGaussianBlur stdDeviation="3" result="effect1_foregroundBlur_17_11558"/>
</filter>
<filter id="filter28_f_17_11558" x="45.9915" y="2.23315" width="15.3779" height="25.2554" filterUnits="userSpaceOnUse" color-interpolation-filters="sRGB">
<feFlood flood-opacity="0" result="BackgroundImageFix"/>
<feBlend mode="normal" in="SourceGraphic" in2="BackgroundImageFix" result="shape"/>
<feGaussianBlur stdDeviation="1" result="effect1_foregroundBlur_17_11558"/>
</filter>
<filter id="filter29_f_17_11558" x="29.8276" y="45.1145" width="55.2175" height="28.9467" filterUnits="userSpaceOnUse" color-interpolation-filters="sRGB">
<feFlood flood-opacity="0" result="BackgroundImageFix"/>
<feBlend mode="normal" in="SourceGraphic" in2="BackgroundImageFix" result="shape"/>
<feGaussianBlur stdDeviation="2" result="effect1_foregroundBlur_17_11558"/>
</filter>
<filter id="filter30_f_17_11558" x="35.8" y="44.6547" width="47.0569" height="22.9269" filterUnits="userSpaceOnUse" color-interpolation-filters="sRGB">
<feFlood flood-opacity="0" result="BackgroundImageFix"/>
<feBlend mode="normal" in="SourceGraphic" in2="BackgroundImageFix" result="shape"/>
<feGaussianBlur stdDeviation="3" result="effect1_foregroundBlur_17_11558"/>
</filter>
<filter id="filter31_f_17_11558" x="51.8621" y="15.2449" width="38.377" height="54.3536" filterUnits="userSpaceOnUse" color-interpolation-filters="sRGB">
<feFlood flood-opacity="0" result="BackgroundImageFix"/>
<feBlend mode="normal" in="SourceGraphic" in2="BackgroundImageFix" result="shape"/>
<feGaussianBlur stdDeviation="3" result="effect1_foregroundBlur_17_11558"/>
</filter>
<filter id="filter32_di_17_11558" x="59.3401" y="28.9998" width="10" height="7.64111" filterUnits="userSpaceOnUse" color-interpolation-filters="sRGB">
<feFlood flood-opacity="0" result="BackgroundImageFix"/>
<feColorMatrix in="SourceAlpha" type="matrix" values="0 0 0 0 0 0 0 0 0 0 0 0 0 0 0 0 0 0 127 0" result="hardAlpha"/>
<feOffset dy="1"/>
<feGaussianBlur stdDeviation="0.5"/>
<feComposite in2="hardAlpha" operator="out"/>
<feColorMatrix type="matrix" values="0 0 0 0 1 0 0 0 0 1 0 0 0 0 1 0 0 0 0.16 0"/>
<feBlend mode="overlay" in2="BackgroundImageFix" result="effect1_dropShadow_17_11558"/>
<feBlend mode="normal" in="SourceGraphic" in2="effect1_dropShadow_17_11558" result="shape"/>
<feColorMatrix in="SourceAlpha" type="matrix" values="0 0 0 0 0 0 0 0 0 0 0 0 0 0 0 0 0 0 127 0" result="hardAlpha"/>
<feOffset dy="-1"/>
<feGaussianBlur stdDeviation="0.5"/>
<feComposite in2="hardAlpha" operator="arithmetic" k2="-1" k3="1"/>
<feColorMatrix type="matrix" values="0 0 0 0 0.491667 0 0 0 0 0.483472 0 0 0 0 0.483472 0 0 0 0.35 0"/>
<feBlend mode="normal" in2="shape" result="effect2_innerShadow_17_11558"/>
</filter>
<linearGradient id="paint0_linear_17_11558" x1="116.365" y1="-61.125" x2="41.6284" y2="-52.8196" gradientUnits="userSpaceOnUse">
<stop stop-opacity="0"/>
<stop offset="1"/>
</linearGradient>
<linearGradient id="paint1_linear_17_11558" x1="88.5035" y1="-4.00001" x2="52.2744" y2="109.57" gradientUnits="userSpaceOnUse">
<stop stop-color="white"/>
<stop offset="1"/>
</linearGradient>
<linearGradient id="paint2_linear_17_11558" x1="15.9999" y1="97.9999" x2="53.9999" y2="68.9999" gradientUnits="userSpaceOnUse">
<stop/>
<stop offset="1" stop-opacity="0"/>
</linearGradient>
<linearGradient id="paint3_linear_17_11558" x1="87.1512" y1="63.0972" x2="77.0406" y2="45.5852" gradientUnits="userSpaceOnUse">
<stop stop-opacity="0"/>
<stop offset="1"/>
</linearGradient>
<linearGradient id="paint4_linear_17_11558" x1="43.6379" y1="46.0969" x2="54.374" y2="29.4329" gradientUnits="userSpaceOnUse">
<stop stop-opacity="0"/>
<stop offset="1"/>
</linearGradient>
<linearGradient id="paint5_linear_17_11558" x1="18.0514" y1="43.0295" x2="37.1709" y2="36.4461" gradientUnits="userSpaceOnUse">
<stop/>
<stop offset="1" stop-opacity="0"/>
</linearGradient>
<linearGradient id="paint6_linear_17_11558" x1="93.9129" y1="55.6806" x2="83.8023" y2="38.1685" gradientUnits="userSpaceOnUse">
<stop stop-opacity="0"/>
<stop offset="1"/>
</linearGradient>
<linearGradient id="paint7_linear_17_11558" x1="50.3996" y1="38.6801" x2="61.1358" y2="22.0162" gradientUnits="userSpaceOnUse">
<stop stop-opacity="0"/>
<stop offset="1"/>
</linearGradient>
<linearGradient id="paint8_linear_17_11558" x1="22.8131" y1="34.6128" x2="41.9326" y2="28.0295" gradientUnits="userSpaceOnUse">
<stop/>
<stop offset="1" stop-opacity="0"/>
</linearGradient>
<linearGradient id="paint9_linear_17_11558" x1="45.8422" y1="30.4815" x2="56.6565" y2="12.1149" gradientUnits="userSpaceOnUse">
<stop stop-opacity="0"/>
<stop offset="1"/>
</linearGradient>
<linearGradient id="paint10_linear_17_11558" x1="99.8128" y1="47.1733" x2="85.5143" y2="32.8747" gradientUnits="userSpaceOnUse">
<stop stop-opacity="0"/>
<stop offset="1"/>
</linearGradient>
<linearGradient id="paint11_linear_17_11558" x1="26.5126" y1="26.8229" x2="46.3623" y2="22.9646" gradientUnits="userSpaceOnUse">
<stop/>
<stop offset="1" stop-opacity="0"/>
</linearGradient>
<linearGradient id="paint12_linear_17_11558" x1="50.6039" y1="25.0649" x2="61.4183" y2="6.69823" gradientUnits="userSpaceOnUse">
<stop stop-opacity="0"/>
<stop offset="1"/>
</linearGradient>
<linearGradient id="paint13_linear_17_11558" x1="104.575" y1="41.7567" x2="90.276" y2="27.4581" gradientUnits="userSpaceOnUse">
<stop stop-opacity="0"/>
<stop offset="1"/>
</linearGradient>
<linearGradient id="paint14_linear_17_11558" x1="31.2743" y1="21.4063" x2="51.124" y2="17.5479" gradientUnits="userSpaceOnUse">
<stop/>
<stop offset="1" stop-opacity="0"/>
</linearGradient>
<linearGradient id="paint15_linear_17_11558" x1="44.7594" y1="16.5554" x2="55.7833" y2="-3.88946" gradientUnits="userSpaceOnUse">
<stop stop-opacity="0"/>
<stop offset="1"/>
</linearGradient>
<linearGradient id="paint16_linear_17_11558" x1="110.276" y1="36.9371" x2="95.9392" y2="22.6008" gradientUnits="userSpaceOnUse">
<stop stop-opacity="0"/>
<stop offset="1"/>
</linearGradient>
<linearGradient id="paint17_linear_17_11558" x1="21.1112" y1="12.7353" x2="41.0133" y2="8.8667" gradientUnits="userSpaceOnUse">
<stop/>
<stop offset="1" stop-opacity="0"/>
</linearGradient>
<linearGradient id="paint18_linear_17_11558" x1="48.5172" y1="11.1388" x2="59.5411" y2="-9.30608" gradientUnits="userSpaceOnUse">
<stop stop-opacity="0"/>
<stop offset="1"/>
</linearGradient>
<linearGradient id="paint19_linear_17_11558" x1="114.033" y1="31.5205" x2="99.697" y2="17.1842" gradientUnits="userSpaceOnUse">
<stop stop-opacity="0"/>
<stop offset="1"/>
</linearGradient>
<linearGradient id="paint20_linear_17_11558" x1="24.8691" y1="7.31864" x2="44.7711" y2="3.45007" gradientUnits="userSpaceOnUse">
<stop/>
<stop offset="1" stop-opacity="0"/>
</linearGradient>
<linearGradient id="paint21_linear_17_11558" x1="47.4023" y1="53.2341" x2="66.7747" y2="64.2586" gradientUnits="userSpaceOnUse">
<stop/>
<stop offset="1" stop-opacity="0.64"/>
</linearGradient>
<linearGradient id="paint22_linear_17_11558" x1="63.8398" y1="58.5" x2="32.8398" y2="71.5" gradientUnits="userSpaceOnUse">
<stop stop-color="white"/>
<stop offset="1" stop-color="white" stop-opacity="0"/>
</linearGradient>
<linearGradient id="paint23_linear_17_11558" x1="63.8398" y1="58.5" x2="32.8398" y2="71.5" gradientUnits="userSpaceOnUse">
<stop stop-color="white"/>
<stop offset="1" stop-color="white" stop-opacity="0"/>
</linearGradient>
<linearGradient id="paint24_linear_17_11558" x1="34.506" y1="74.4574" x2="57.7189" y2="45.624" gradientUnits="userSpaceOnUse">
<stop stop-color="#503622"/>
<stop offset="1" stop-color="#A38C7B"/>
</linearGradient>
<radialGradient id="paint25_radial_17_11558" cx="0" cy="0" r="1" gradientUnits="userSpaceOnUse" gradientTransform="translate(44.6974 78.875) rotate(94.7619) scale(41.5059 48.0314)">
<stop offset="0.0729167" stop-color="#AD8050"/>
<stop offset="0.208115" stop-color="#DEC1A2"/>
<stop offset="0.326637" stop-color="#C7A065"/>
<stop offset="0.416465" stop-color="#F3E4D3"/>
<stop offset="0.494396" stop-color="#8B584A"/>
<stop offset="0.582197" stop-color="#9D6857"/>
<stop offset="0.708863" stop-color="#69423B"/>
<stop offset="0.815698" stop-color="#AF7662"/>
<stop offset="0.962916" stop-color="#835145"/>
</radialGradient>
<linearGradient id="paint26_linear_17_11558" x1="49.3398" y1="74.5" x2="49.3398" y2="70" gradientUnits="userSpaceOnUse">
<stop/>
<stop offset="1" stop-opacity="0"/>
</linearGradient>
<linearGradient id="paint27_linear_17_11558" x1="51.3398" y1="69.5" x2="50.3398" y2="75" gradientUnits="userSpaceOnUse">
<stop stop-color="white"/>
<stop offset="1" stop-color="white" stop-opacity="0"/>
</linearGradient>
<linearGradient id="paint28_linear_17_11558" x1="32.6819" y1="4" x2="32.6819" y2="66" gradientUnits="userSpaceOnUse">
<stop stop-color="white"/>
<stop offset="1" stop-color="white" stop-opacity="0"/>
</linearGradient>
<linearGradient id="paint29_linear_17_11558" x1="12.7554" y1="-10.5" x2="28.0183" y2="16.471" gradientUnits="userSpaceOnUse">
<stop/>
<stop offset="1" stop-opacity="0"/>
</linearGradient>
<linearGradient id="paint30_linear_17_11558" x1="12.7554" y1="-10.5" x2="28.0183" y2="16.471" gradientUnits="userSpaceOnUse">
<stop/>
<stop offset="1" stop-opacity="0"/>
</linearGradient>
<linearGradient id="paint31_linear_17_11558" x1="12.7554" y1="-10.4999" x2="28.0183" y2="16.4712" gradientUnits="userSpaceOnUse">
<stop/>
<stop offset="1" stop-opacity="0"/>
</linearGradient>
<radialGradient id="paint32_radial_17_11558" cx="0" cy="0" r="1" gradientUnits="userSpaceOnUse" gradientTransform="translate(37.3397 41.0002) rotate(90) scale(6 11)">
<stop stop-color="white"/>
<stop offset="1" stop-color="white" stop-opacity="0"/>
</radialGradient>
<radialGradient id="paint33_radial_17_11558" cx="0" cy="0" r="1" gradientUnits="userSpaceOnUse" gradientTransform="translate(18.6835 47.5508) rotate(90) scale(6 18.0388)">
<stop stop-color="white"/>
<stop offset="1" stop-color="white" stop-opacity="0"/>
</radialGradient>
<radialGradient id="paint34_radial_17_11558" cx="0" cy="0" r="1" gradientUnits="userSpaceOnUse" gradientTransform="translate(48.7641 19.2064) rotate(90) scale(10.2064 13.5758)">
<stop stop-color="white"/>
<stop offset="1" stop-color="white" stop-opacity="0"/>
</radialGradient>
<radialGradient id="paint35_radial_17_11558" cx="0" cy="0" r="1" gradientUnits="userSpaceOnUse" gradientTransform="translate(44.5989 42.1077) rotate(66.5917) scale(7.55103 8)">
<stop/>
<stop offset="1" stop-opacity="0"/>
</radialGradient>
<linearGradient id="paint36_linear_17_11558" x1="48.4639" y1="6.86549" x2="43.0287" y2="27.1499" gradientUnits="userSpaceOnUse">
<stop/>
<stop offset="1" stop-opacity="0"/>
</linearGradient>
<linearGradient id="paint37_linear_17_11558" x1="22.7679" y1="59.2377" x2="54.3863" y2="61.796" gradientUnits="userSpaceOnUse">
<stop stop-opacity="0"/>
<stop offset="1"/>
</linearGradient>
<linearGradient id="paint38_linear_17_11558" x1="25.926" y1="55.3166" x2="49.0828" y2="56.0616" gradientUnits="userSpaceOnUse">
<stop stop-opacity="0"/>
<stop offset="1"/>
</linearGradient>
<linearGradient id="paint39_linear_17_11558" x1="19.2177" y1="29.0562" x2="29.7917" y2="58.9637" gradientUnits="userSpaceOnUse">
<stop stop-color="white"/>
<stop offset="1" stop-color="white" stop-opacity="0"/>
</linearGradient>
<linearGradient id="paint40_linear_17_11558" x1="80.3396" y1="16" x2="31.3396" y2="68" gradientUnits="userSpaceOnUse">
<stop stop-color="#F5F5F5"/>
<stop offset="1" stop-color="#BCBCBC"/>
</linearGradient>
<radialGradient id="paint41_radial_17_11558" cx="0" cy="0" r="1" gradientUnits="userSpaceOnUse" gradientTransform="translate(34.3396 30.6409) rotate(-90) scale(8)">
<stop stop-color="#474747"/>
<stop offset="1"/>
</radialGradient>
<radialGradient id="paint42_radial_17_11558" cx="0" cy="0" r="1" gradientUnits="userSpaceOnUse" gradientTransform="translate(49.3396 37.5) rotate(90) scale(4.5 6.13636)">
<stop stop-color="#474747"/>
<stop offset="1"/>
</radialGradient>
<linearGradient id="paint43_linear_17_11558" x1="49.1729" y1="36.5" x2="49.1729" y2="40.189" gradientUnits="userSpaceOnUse">
<stop stop-color="#EFEFEF"/>
<stop offset="1" stop-color="#EFEFEF" stop-opacity="0"/>
</linearGradient>
<linearGradient id="paint44_linear_17_11558" x1="65.9977" y1="4" x2="65.9977" y2="66" gradientUnits="userSpaceOnUse">
<stop stop-color="white"/>
<stop offset="1" stop-color="white" stop-opacity="0"/>
</linearGradient>
<linearGradient id="paint45_linear_17_11558" x1="85.9243" y1="-10.5" x2="70.6614" y2="16.471" gradientUnits="userSpaceOnUse">
<stop/>
<stop offset="1" stop-opacity="0"/>
</linearGradient>
<linearGradient id="paint46_linear_17_11558" x1="85.9243" y1="-10.5" x2="70.6614" y2="16.471" gradientUnits="userSpaceOnUse">
<stop/>
<stop offset="1" stop-opacity="0"/>
</linearGradient>
<linearGradient id="paint47_linear_17_11558" x1="85.9243" y1="-10.4999" x2="70.6614" y2="16.4712" gradientUnits="userSpaceOnUse">
<stop/>
<stop offset="1" stop-opacity="0"/>
</linearGradient>
<radialGradient id="paint48_radial_17_11558" cx="0" cy="0" r="1" gradientUnits="userSpaceOnUse" gradientTransform="translate(11 6) rotate(90) scale(6 11)">
<stop stop-color="white"/>
<stop offset="1" stop-color="white" stop-opacity="0"/>
</radialGradient>
<radialGradient id="paint49_radial_17_11558" cx="0" cy="0" r="1" gradientUnits="userSpaceOnUse" gradientTransform="translate(18.0388 6) rotate(90) scale(6 18.0388)">
<stop stop-color="white"/>
<stop offset="1" stop-color="white" stop-opacity="0"/>
</radialGradient>
<radialGradient id="paint50_radial_17_11558" cx="0" cy="0" r="1" gradientUnits="userSpaceOnUse" gradientTransform="translate(49.9156 19.2064) rotate(90) scale(10.2064 13.5758)">
<stop stop-color="white"/>
<stop offset="1" stop-color="white" stop-opacity="0"/>
</radialGradient>
<radialGradient id="paint51_radial_17_11558" cx="0" cy="0" r="1" gradientUnits="userSpaceOnUse" gradientTransform="translate(54.0807 42.1077) rotate(113.408) scale(7.55103 8)">
<stop/>
<stop offset="1" stop-opacity="0"/>
</radialGradient>
<linearGradient id="paint52_linear_17_11558" x1="50.2158" y1="6.86549" x2="55.651" y2="27.1499" gradientUnits="userSpaceOnUse">
<stop/>
<stop offset="1" stop-opacity="0"/>
</linearGradient>
<linearGradient id="paint53_linear_17_11558" x1="75.9118" y1="59.2377" x2="44.2934" y2="61.796" gradientUnits="userSpaceOnUse">
<stop stop-opacity="0"/>
<stop offset="1"/>
</linearGradient>
<linearGradient id="paint54_linear_17_11558" x1="72.7537" y1="55.3166" x2="49.5969" y2="56.0616" gradientUnits="userSpaceOnUse">
<stop stop-opacity="0"/>
<stop offset="1"/>
</linearGradient>
<linearGradient id="paint55_linear_17_11558" x1="79.462" y1="29.0562" x2="68.888" y2="58.9637" gradientUnits="userSpaceOnUse">
<stop stop-color="white"/>
<stop offset="1" stop-color="white" stop-opacity="0"/>
</linearGradient>
<linearGradient id="paint56_linear_17_11558" x1="18.3401" y1="16" x2="67.3401" y2="68" gradientUnits="userSpaceOnUse">
<stop stop-color="#F5F5F5"/>
<stop offset="1" stop-color="#BCBCBC"/>
</linearGradient>
<radialGradient id="paint57_radial_17_11558" cx="0" cy="0" r="1" gradientUnits="userSpaceOnUse" gradientTransform="translate(64.3401 30.6409) rotate(-90) scale(8)">
<stop stop-color="#474747"/>
<stop offset="1"/>
</radialGradient>
<radialGradient id="paint58_radial_17_11558" cx="0" cy="0" r="1" gradientUnits="userSpaceOnUse" gradientTransform="translate(49.3401 37.5) rotate(90) scale(4.5 6.13636)">
<stop stop-color="#474747"/>
<stop offset="1"/>
</radialGradient>
<linearGradient id="paint59_linear_17_11558" x1="49.5068" y1="36.5" x2="49.5068" y2="40.189" gradientUnits="userSpaceOnUse">
<stop stop-color="#EFEFEF"/>
<stop offset="1" stop-color="#EFEFEF" stop-opacity="0"/>
</linearGradient>
</defs>
</svg>
