<svg width="89" height="235" viewBox="0 0 89 235" fill="none" xmlns="http://www.w3.org/2000/svg">
<g opacity="0.64" filter="url(#filter0_f_3_27708)">
<ellipse cx="55.1129" cy="222.131" rx="25.4366" ry="4.86863" fill="black"/>
</g>
<g filter="url(#filter1_i_3_27708)">
<ellipse cx="55.1129" cy="214.828" rx="29.0704" ry="4.86863" fill="#C4C4C4"/>
</g>
<path d="M83.1888 214.786C83.1889 214.786 83.1885 214.787 83.1874 214.79C83.1881 214.787 83.1887 214.786 83.1888 214.786ZM82.9594 214.621C83.0783 214.718 83.1369 214.788 83.1649 214.828C83.1369 214.869 83.0783 214.938 82.9594 215.036C82.6864 215.259 82.223 215.52 81.5307 215.794C80.1558 216.338 78.1072 216.849 75.5036 217.285C70.3125 218.154 63.1027 218.697 55.1129 218.697C47.1231 218.697 39.9133 218.154 34.7222 217.285C32.1186 216.849 30.07 216.338 28.6951 215.794C28.0028 215.52 27.5394 215.259 27.2664 215.036C27.1475 214.938 27.0889 214.869 27.0609 214.828C27.0889 214.788 27.1475 214.718 27.2664 214.621C27.5394 214.398 28.0028 214.137 28.6951 213.863C30.07 213.319 32.1186 212.808 34.7222 212.372C39.9133 211.503 47.1231 210.96 55.1129 210.96C63.1027 210.96 70.3125 211.503 75.5036 212.372C78.1072 212.808 80.1558 213.319 81.5307 213.863C82.223 214.137 82.6864 214.398 82.9594 214.621ZM27.037 214.786C27.0371 214.786 27.0377 214.787 27.0384 214.79C27.0373 214.787 27.0369 214.786 27.037 214.786ZM27.037 214.871C27.0369 214.871 27.0373 214.87 27.0384 214.867C27.0377 214.87 27.0371 214.871 27.037 214.871ZM83.1874 214.867C83.1885 214.87 83.1889 214.871 83.1888 214.871C83.1887 214.871 83.1881 214.87 83.1874 214.867Z" stroke="#BCBCBC" stroke-width="2"/>
<g opacity="0.64" filter="url(#filter2_f_3_27708)">
<ellipse cx="54.8099" cy="218.48" rx="20.8944" ry="4.26006" fill="black"/>
</g>
<path d="M84.0154 169.185C84.0154 170.894 82.1985 219.697 70.6914 220.914C70.6914 220.914 65.2407 222.131 54.9449 222.131C44.6492 222.131 39.1985 220.914 39.1985 220.914C27.6914 219.697 25.8745 170.798 25.8745 169.185C25.8745 166.496 38.8898 164.316 54.9449 164.316C71.0001 164.316 84.0154 166.496 84.0154 169.185Z" fill="#F9F9F9"/>
<path d="M84.0154 169.185C84.0154 170.894 82.1985 219.697 70.6914 220.914C70.6914 220.914 65.2407 222.131 54.9449 222.131C44.6492 222.131 39.1985 220.914 39.1985 220.914C27.6914 219.697 25.8745 170.798 25.8745 169.185C25.8745 166.496 38.8898 164.316 54.9449 164.316C71.0001 164.316 84.0154 166.496 84.0154 169.185Z" fill="url(#paint0_linear_3_27708)" fill-opacity="0.2"/>
<g filter="url(#filter3_i_3_27708)">
<ellipse cx="54.9449" cy="169.185" rx="29.0704" ry="4.86863" fill="#777777"/>
</g>
<g filter="url(#filter4_i_3_27708)">
<path fill-rule="evenodd" clip-rule="evenodd" d="M62.208 173.121C60.5172 173.077 59.0559 172.959 57.8456 172.795C56.1937 173.196 53.8766 173.445 51.3111 173.445C48.8031 173.445 46.5325 173.207 44.8887 172.821C44.4147 172.831 43.9303 172.836 43.4379 172.836C37.7517 172.836 33.1421 172.155 33.1421 171.315C33.1421 170.475 37.7517 169.794 43.4379 169.794C43.9303 169.794 44.4147 169.799 44.8887 169.809C46.5325 169.423 48.8031 169.185 51.3111 169.185C54.3381 169.185 57.0193 169.532 58.6701 170.066C59.4201 169.997 60.2352 169.939 61.1008 169.895C62.0434 169.459 63.4132 169.185 64.9379 169.185C66.4258 169.185 67.7662 169.446 68.706 169.864C73.3677 170.058 76.7477 170.634 76.7477 171.315C76.7477 171.961 72.8075 172.693 68.0976 172.997C67.2254 173.278 66.1289 173.445 64.9379 173.445C63.9351 173.445 62.9993 173.326 62.208 173.121Z" fill="#51483A"/>
</g>
<path d="M83.0208 169.142C83.0209 169.142 83.0205 169.144 83.0194 169.146C83.0201 169.144 83.0207 169.142 83.0208 169.142ZM82.7914 168.978C82.9103 169.075 82.969 169.144 82.997 169.185C82.969 169.226 82.9103 169.295 82.7914 169.392C82.5184 169.616 82.055 169.876 81.3627 170.15C79.9879 170.695 77.9393 171.205 75.3357 171.641C70.1445 172.511 62.9348 173.054 54.9449 173.054C46.9551 173.054 39.7454 172.511 34.5542 171.641C31.9506 171.205 29.902 170.695 28.5272 170.15C27.8348 169.876 27.3714 169.616 27.0985 169.392C26.9796 169.295 26.9209 169.226 26.8929 169.185C26.9209 169.144 26.9796 169.075 27.0985 168.978C27.3714 168.754 27.8348 168.494 28.5272 168.22C29.902 167.675 31.9506 167.165 34.5542 166.729C39.7454 165.859 46.9551 165.316 54.9449 165.316C62.9348 165.316 70.1445 165.859 75.3357 166.729C77.9393 167.165 79.9879 167.675 81.3627 168.22C82.055 168.494 82.5184 168.754 82.7914 168.978ZM26.8691 169.142C26.8692 169.142 26.8697 169.144 26.8704 169.146C26.8693 169.144 26.869 169.142 26.8691 169.142ZM26.8691 169.228C26.869 169.228 26.8693 169.226 26.8704 169.224C26.8697 169.226 26.8692 169.228 26.8691 169.228ZM83.0194 169.224C83.0205 169.226 83.0209 169.228 83.0208 169.228C83.0207 169.228 83.0201 169.226 83.0194 169.224Z" stroke="#828282" stroke-width="2"/>
<path fill-rule="evenodd" clip-rule="evenodd" d="M71.465 225.783C83.5777 224.566 84.1833 216.538 84.1833 214.828C84.1833 217.517 71.1681 219.697 55.1129 219.697C39.0578 219.697 26.0425 217.517 26.0425 214.828C26.0425 214.828 26.0425 214.828 26.0425 214.828C26.0425 216.441 26.6481 224.566 38.7608 225.783C50.8735 227 59.3523 227 71.465 225.783Z" fill="#F1F1F1"/>
<path fill-rule="evenodd" clip-rule="evenodd" d="M71.465 225.783C83.5777 224.566 84.1833 216.538 84.1833 214.828C84.1833 217.517 71.1681 219.697 55.1129 219.697C39.0578 219.697 26.0425 217.517 26.0425 214.828C26.0425 214.828 26.0425 214.828 26.0425 214.828C26.0425 216.441 26.6481 224.566 38.7608 225.783C50.8735 227 59.3523 227 71.465 225.783Z" fill="url(#paint1_linear_3_27708)" fill-opacity="0.2"/>
<path fill-rule="evenodd" clip-rule="evenodd" d="M82.8677 214.825C82.8692 214.826 82.8706 214.827 82.8721 214.828C82.8587 214.84 82.844 214.853 82.8278 214.866C82.579 215.069 82.1382 215.32 81.4548 215.591C80.0999 216.128 78.0678 216.635 75.4697 217.07C70.2928 217.937 63.095 218.48 55.1129 218.48C47.1308 218.48 39.933 217.937 34.7561 217.07C32.158 216.635 30.1259 216.128 28.771 215.591C28.0876 215.32 27.6468 215.069 27.398 214.866C27.3819 214.853 27.3671 214.84 27.3537 214.828L27.3594 214.823C26.7588 214.304 27.438 213.348 28.9575 212.701C27.0901 213.344 26.0425 214.066 26.0425 214.828C26.0425 217.517 39.0578 219.697 55.1129 219.697C71.1681 219.697 84.1833 217.517 84.1833 214.828C84.1833 214.066 83.1371 213.345 81.272 212.702C82.7909 213.35 83.4702 214.306 82.8677 214.825ZM82.9991 214.692C82.9991 214.692 82.9981 214.695 82.995 214.699C82.9973 214.695 82.9991 214.692 82.9991 214.692ZM27.2267 214.692C27.2267 214.692 27.2285 214.695 27.2308 214.699C27.2277 214.695 27.2267 214.692 27.2267 214.692ZM27.2267 214.965C27.2267 214.965 27.2277 214.962 27.2308 214.957C27.2285 214.962 27.2267 214.965 27.2267 214.965ZM82.995 214.957C82.9981 214.962 82.9991 214.965 82.9991 214.965C82.9991 214.965 82.9973 214.962 82.995 214.957Z" fill="#E7E7E7"/>
<g clip-path="url(#clip0_3_27708)" filter="url(#filter5_i_3_27708)">
<g filter="url(#filter6_i_3_27708)">
<path d="M14.8157 0C4.57816 58.8214 41.4143 142.513 52.0447 174.054H59.6709C55.5112 158.283 14.8157 0 14.8157 0Z" fill="url(#paint2_linear_3_27708)"/>
<path d="M14.8157 0C4.57816 58.8214 41.4143 142.513 52.0447 174.054H59.6709C55.5112 158.283 14.8157 0 14.8157 0Z" fill="url(#paint3_linear_3_27708)" fill-opacity="0.24" style="mix-blend-mode:overlay"/>
<path d="M14.8157 0C4.57816 58.8214 41.4143 142.513 52.0447 174.054H59.6709C55.5112 158.283 14.8157 0 14.8157 0Z" fill="url(#paint4_radial_3_27708)" fill-opacity="0.2"/>
<path d="M14.8157 0C4.57816 58.8214 41.4143 142.513 52.0447 174.054H59.6709C55.5112 158.283 14.8157 0 14.8157 0Z" fill="url(#paint5_radial_3_27708)" fill-opacity="0.84" style="mix-blend-mode:overlay"/>
<path d="M14.8157 0C4.57816 58.8214 41.4143 142.513 52.0447 174.054H59.6709C55.5112 158.283 14.8157 0 14.8157 0Z" fill="url(#paint6_linear_3_27708)" fill-opacity="0.56" style="mix-blend-mode:overlay"/>
</g>
<g filter="url(#filter7_i_3_27708)">
<path d="M46.3498 66.591C52.2306 90.8998 53.0315 148.361 50.2749 174.054H46.9057C47.212 158.49 40.3465 125.658 39.6114 118.84C38.6925 110.317 31.0352 97.7181 28.2786 87.3424C26.0733 79.0419 27.0534 37.0697 28.2786 22.1237C28.2786 20.2709 30.4226 22.1237 30.4226 22.1237C35.3233 26.5704 38.9988 36.2051 46.3498 66.591Z" fill="url(#paint7_linear_3_27708)"/>
<path d="M46.3498 66.591C52.2306 90.8998 53.0315 148.361 50.2749 174.054H46.9057C47.212 158.49 40.3465 125.658 39.6114 118.84C38.6925 110.317 31.0352 97.7181 28.2786 87.3424C26.0733 79.0419 27.0534 37.0697 28.2786 22.1237C28.2786 20.2709 30.4226 22.1237 30.4226 22.1237C35.3233 26.5704 38.9988 36.2051 46.3498 66.591Z" fill="url(#paint8_linear_3_27708)" fill-opacity="0.24" style="mix-blend-mode:overlay"/>
<path d="M46.3498 66.591C52.2306 90.8998 53.0315 148.361 50.2749 174.054H46.9057C47.212 158.49 40.3465 125.658 39.6114 118.84C38.6925 110.317 31.0352 97.7181 28.2786 87.3424C26.0733 79.0419 27.0534 37.0697 28.2786 22.1237C28.2786 20.2709 30.4226 22.1237 30.4226 22.1237C35.3233 26.5704 38.9988 36.2051 46.3498 66.591Z" fill="url(#paint9_radial_3_27708)" fill-opacity="0.2"/>
<path d="M46.3498 66.591C52.2306 90.8998 53.0315 148.361 50.2749 174.054H46.9057C47.212 158.49 40.3465 125.658 39.6114 118.84C38.6925 110.317 31.0352 97.7181 28.2786 87.3424C26.0733 79.0419 27.0534 37.0697 28.2786 22.1237C28.2786 20.2709 30.4226 22.1237 30.4226 22.1237C35.3233 26.5704 38.9988 36.2051 46.3498 66.591Z" fill="url(#paint10_radial_3_27708)" fill-opacity="0.84" style="mix-blend-mode:overlay"/>
<path d="M46.3498 66.591C52.2306 90.8998 53.0315 148.361 50.2749 174.054H46.9057C47.212 158.49 40.3465 125.658 39.6114 118.84C38.6925 110.317 31.0352 97.7181 28.2786 87.3424C26.0733 79.0419 27.0534 37.0697 28.2786 22.1237C28.2786 20.2709 30.4226 22.1237 30.4226 22.1237C35.3233 26.5704 38.9988 36.2051 46.3498 66.591Z" fill="url(#paint11_linear_3_27708)" fill-opacity="0.56" style="mix-blend-mode:overlay"/>
</g>
<g filter="url(#filter8_i_3_27708)">
<path d="M57.9331 58.1472C52.0771 84.4568 55.7985 146.247 58.5435 174.054H61.8984C61.5934 157.209 63.9111 122.076 64.643 114.697C65.558 105.472 73.183 91.8363 75.928 80.6066C78.124 71.6228 77.148 26.1961 75.928 10.02C75.928 8.01463 73.793 10.0199 73.793 10.0199C68.913 14.8327 65.2531 25.2603 57.9331 58.1472Z" fill="url(#paint12_linear_3_27708)"/>
<path d="M57.9331 58.1472C52.0771 84.4568 55.7985 146.247 58.5435 174.054H61.8984C61.5934 157.209 63.9111 122.076 64.643 114.697C65.558 105.472 73.183 91.8363 75.928 80.6066C78.124 71.6228 77.148 26.1961 75.928 10.02C75.928 8.01463 73.793 10.0199 73.793 10.0199C68.913 14.8327 65.2531 25.2603 57.9331 58.1472Z" fill="url(#paint13_linear_3_27708)" fill-opacity="0.24" style="mix-blend-mode:overlay"/>
<path d="M57.9331 58.1472C52.0771 84.4568 55.7985 146.247 58.5435 174.054H61.8984C61.5934 157.209 63.9111 122.076 64.643 114.697C65.558 105.472 73.183 91.8363 75.928 80.6066C78.124 71.6228 77.148 26.1961 75.928 10.02C75.928 8.01463 73.793 10.0199 73.793 10.0199C68.913 14.8327 65.2531 25.2603 57.9331 58.1472Z" fill="url(#paint14_radial_3_27708)" fill-opacity="0.2"/>
<path d="M57.9331 58.1472C52.0771 84.4568 55.7985 146.247 58.5435 174.054H61.8984C61.5934 157.209 63.9111 122.076 64.643 114.697C65.558 105.472 73.183 91.8363 75.928 80.6066C78.124 71.6228 77.148 26.1961 75.928 10.02C75.928 8.01463 73.793 10.0199 73.793 10.0199C68.913 14.8327 65.2531 25.2603 57.9331 58.1472Z" fill="url(#paint15_radial_3_27708)" fill-opacity="0.84" style="mix-blend-mode:overlay"/>
<path d="M57.9331 58.1472C52.0771 84.4568 55.7985 146.247 58.5435 174.054H61.8984C61.5934 157.209 63.9111 122.076 64.643 114.697C65.558 105.472 73.183 91.8363 75.928 80.6066C78.124 71.6228 77.148 26.1961 75.928 10.02C75.928 8.01463 73.793 10.0199 73.793 10.0199C68.913 14.8327 65.2531 25.2603 57.9331 58.1472Z" fill="url(#paint16_linear_3_27708)" fill-opacity="0.56" style="mix-blend-mode:overlay"/>
</g>
<g filter="url(#filter9_i_3_27708)">
<path d="M65.1974 107.445C60.5396 122.65 59.9052 158.592 62.0886 174.662H64.7571C64.2496 154.297 74.5957 138.016 77.8125 121.927C81.0293 105.839 80.4811 88.979 79.5107 79.6304C79.5107 78.4714 77.8125 79.6304 77.8125 79.6304C73.931 82.4118 71.0198 88.4382 65.1974 107.445Z" fill="url(#paint17_linear_3_27708)"/>
<path d="M65.1974 107.445C60.5396 122.65 59.9052 158.592 62.0886 174.662H64.7571C64.2496 154.297 74.5957 138.016 77.8125 121.927C81.0293 105.839 80.4811 88.979 79.5107 79.6304C79.5107 78.4714 77.8125 79.6304 77.8125 79.6304C73.931 82.4118 71.0198 88.4382 65.1974 107.445Z" fill="url(#paint18_linear_3_27708)" fill-opacity="0.24" style="mix-blend-mode:overlay"/>
<path d="M65.1974 107.445C60.5396 122.65 59.9052 158.592 62.0886 174.662H64.7571C64.2496 154.297 74.5957 138.016 77.8125 121.927C81.0293 105.839 80.4811 88.979 79.5107 79.6304C79.5107 78.4714 77.8125 79.6304 77.8125 79.6304C73.931 82.4118 71.0198 88.4382 65.1974 107.445Z" fill="url(#paint19_radial_3_27708)" fill-opacity="0.2"/>
<path d="M65.1974 107.445C60.5396 122.65 59.9052 158.592 62.0886 174.662H64.7571C64.2496 154.297 74.5957 138.016 77.8125 121.927C81.0293 105.839 80.4811 88.979 79.5107 79.6304C79.5107 78.4714 77.8125 79.6304 77.8125 79.6304C73.931 82.4118 71.0198 88.4382 65.1974 107.445Z" fill="url(#paint20_radial_3_27708)" fill-opacity="0.84" style="mix-blend-mode:overlay"/>
<path d="M65.1974 107.445C60.5396 122.65 59.9052 158.592 62.0886 174.662H64.7571C64.2496 154.297 74.5957 138.016 77.8125 121.927C81.0293 105.839 80.4811 88.979 79.5107 79.6304C79.5107 78.4714 77.8125 79.6304 77.8125 79.6304C73.931 82.4118 71.0198 88.4382 65.1974 107.445Z" fill="url(#paint21_linear_3_27708)" fill-opacity="0.56" style="mix-blend-mode:overlay"/>
</g>
<g filter="url(#filter10_i_3_27708)">
<path d="M52.3242 72.2613C58.1802 95.3671 54.4588 149.633 51.7139 174.054H48.3589C48.6639 159.26 46.3463 128.406 45.6143 121.925C44.6993 113.824 37.0743 101.848 34.3293 91.9857C32.1334 84.096 33.1094 44.2009 34.3293 29.9945C34.3293 28.2334 36.4643 29.9945 36.4643 29.9945C41.3443 34.2212 45.0043 43.379 52.3242 72.2613Z" fill="url(#paint22_linear_3_27708)"/>
<path d="M52.3242 72.2613C58.1802 95.3671 54.4588 149.633 51.7139 174.054H48.3589C48.6639 159.26 46.3463 128.406 45.6143 121.925C44.6993 113.824 37.0743 101.848 34.3293 91.9857C32.1334 84.096 33.1094 44.2009 34.3293 29.9945C34.3293 28.2334 36.4643 29.9945 36.4643 29.9945C41.3443 34.2212 45.0043 43.379 52.3242 72.2613Z" fill="url(#paint23_linear_3_27708)" fill-opacity="0.24" style="mix-blend-mode:overlay"/>
<path d="M52.3242 72.2613C58.1802 95.3671 54.4588 149.633 51.7139 174.054H48.3589C48.6639 159.26 46.3463 128.406 45.6143 121.925C44.6993 113.824 37.0743 101.848 34.3293 91.9857C32.1334 84.096 33.1094 44.2009 34.3293 29.9945C34.3293 28.2334 36.4643 29.9945 36.4643 29.9945C41.3443 34.2212 45.0043 43.379 52.3242 72.2613Z" fill="url(#paint24_radial_3_27708)" fill-opacity="0.2"/>
<path d="M52.3242 72.2613C58.1802 95.3671 54.4588 149.633 51.7139 174.054H48.3589C48.6639 159.26 46.3463 128.406 45.6143 121.925C44.6993 113.824 37.0743 101.848 34.3293 91.9857C32.1334 84.096 33.1094 44.2009 34.3293 29.9945C34.3293 28.2334 36.4643 29.9945 36.4643 29.9945C41.3443 34.2212 45.0043 43.379 52.3242 72.2613Z" fill="url(#paint25_radial_3_27708)" fill-opacity="0.84" style="mix-blend-mode:overlay"/>
<path d="M52.3242 72.2613C58.1802 95.3671 54.4588 149.633 51.7139 174.054H48.3589C48.6639 159.26 46.3463 128.406 45.6143 121.925C44.6993 113.824 37.0743 101.848 34.3293 91.9857C32.1334 84.096 33.1094 44.2009 34.3293 29.9945C34.3293 28.2334 36.4643 29.9945 36.4643 29.9945C41.3443 34.2212 45.0043 43.379 52.3242 72.2613Z" fill="url(#paint26_linear_3_27708)" fill-opacity="0.56" style="mix-blend-mode:overlay"/>
</g>
<g filter="url(#filter11_i_3_27708)">
<path d="M35.5402 75.9449C41.392 93.5296 49.1255 154.86 46.3824 173.445H43.0299C43.3346 162.187 41.0918 148.199 40.3603 143.266C36.8487 119.588 16.894 83.4505 14.151 75.9449C11.9566 69.9403 -1.42761 36.2807 -0.208477 25.469C-0.208477 24.1287 1.925 25.469 1.925 25.469C6.80152 28.6857 28.2254 53.9639 35.5402 75.9449Z" fill="url(#paint27_linear_3_27708)"/>
<path d="M35.5402 75.9449C41.392 93.5296 49.1255 154.86 46.3824 173.445H43.0299C43.3346 162.187 41.0918 148.199 40.3603 143.266C36.8487 119.588 16.894 83.4505 14.151 75.9449C11.9566 69.9403 -1.42761 36.2807 -0.208477 25.469C-0.208477 24.1287 1.925 25.469 1.925 25.469C6.80152 28.6857 28.2254 53.9639 35.5402 75.9449Z" fill="url(#paint28_linear_3_27708)" fill-opacity="0.24" style="mix-blend-mode:overlay"/>
<path d="M35.5402 75.9449C41.392 93.5296 49.1255 154.86 46.3824 173.445H43.0299C43.3346 162.187 41.0918 148.199 40.3603 143.266C36.8487 119.588 16.894 83.4505 14.151 75.9449C11.9566 69.9403 -1.42761 36.2807 -0.208477 25.469C-0.208477 24.1287 1.925 25.469 1.925 25.469C6.80152 28.6857 28.2254 53.9639 35.5402 75.9449Z" fill="url(#paint29_radial_3_27708)" fill-opacity="0.2"/>
<path d="M35.5402 75.9449C41.392 93.5296 49.1255 154.86 46.3824 173.445H43.0299C43.3346 162.187 41.0918 148.199 40.3603 143.266C36.8487 119.588 16.894 83.4505 14.151 75.9449C11.9566 69.9403 -1.42761 36.2807 -0.208477 25.469C-0.208477 24.1287 1.925 25.469 1.925 25.469C6.80152 28.6857 28.2254 53.9639 35.5402 75.9449Z" fill="url(#paint30_radial_3_27708)" fill-opacity="0.84" style="mix-blend-mode:overlay"/>
<path d="M35.5402 75.9449C41.392 93.5296 49.1255 154.86 46.3824 173.445H43.0299C43.3346 162.187 41.0918 148.199 40.3603 143.266C36.8487 119.588 16.894 83.4505 14.151 75.9449C11.9566 69.9403 -1.42761 36.2807 -0.208477 25.469C-0.208477 24.1287 1.925 25.469 1.925 25.469C6.80152 28.6857 28.2254 53.9639 35.5402 75.9449Z" fill="url(#paint31_linear_3_27708)" fill-opacity="0.56" style="mix-blend-mode:overlay"/>
</g>
<g filter="url(#filter12_i_3_27708)">
<path d="M35.5402 91.3629C41.392 106.057 49.1255 157.306 46.3824 172.836H43.0299C43.3346 163.429 41.0918 151.74 40.3603 147.618C36.8487 127.832 16.894 97.6349 14.151 91.3629C11.9566 86.3454 -1.42761 58.2187 -0.208477 49.1841C-0.208477 48.0641 1.925 49.1841 1.925 49.1841C6.80152 51.8721 28.2254 72.9952 35.5402 91.3629Z" fill="url(#paint32_linear_3_27708)"/>
<path d="M35.5402 91.3629C41.392 106.057 49.1255 157.306 46.3824 172.836H43.0299C43.3346 163.429 41.0918 151.74 40.3603 147.618C36.8487 127.832 16.894 97.6349 14.151 91.3629C11.9566 86.3454 -1.42761 58.2187 -0.208477 49.1841C-0.208477 48.0641 1.925 49.1841 1.925 49.1841C6.80152 51.8721 28.2254 72.9952 35.5402 91.3629Z" fill="url(#paint33_linear_3_27708)" fill-opacity="0.24" style="mix-blend-mode:overlay"/>
<path d="M35.5402 91.3629C41.392 106.057 49.1255 157.306 46.3824 172.836H43.0299C43.3346 163.429 41.0918 151.74 40.3603 147.618C36.8487 127.832 16.894 97.6349 14.151 91.3629C11.9566 86.3454 -1.42761 58.2187 -0.208477 49.1841C-0.208477 48.0641 1.925 49.1841 1.925 49.1841C6.80152 51.8721 28.2254 72.9952 35.5402 91.3629Z" fill="url(#paint34_radial_3_27708)" fill-opacity="0.2"/>
<path d="M35.5402 91.3629C41.392 106.057 49.1255 157.306 46.3824 172.836H43.0299C43.3346 163.429 41.0918 151.74 40.3603 147.618C36.8487 127.832 16.894 97.6349 14.151 91.3629C11.9566 86.3454 -1.42761 58.2187 -0.208477 49.1841C-0.208477 48.0641 1.925 49.1841 1.925 49.1841C6.80152 51.8721 28.2254 72.9952 35.5402 91.3629Z" fill="url(#paint35_radial_3_27708)" fill-opacity="0.84" style="mix-blend-mode:overlay"/>
<path d="M35.5402 91.3629C41.392 106.057 49.1255 157.306 46.3824 172.836H43.0299C43.3346 163.429 41.0918 151.74 40.3603 147.618C36.8487 127.832 16.894 97.6349 14.151 91.3629C11.9566 86.3454 -1.42761 58.2187 -0.208477 49.1841C-0.208477 48.0641 1.925 49.1841 1.925 49.1841C6.80152 51.8721 28.2254 72.9952 35.5402 91.3629Z" fill="url(#paint36_linear_3_27708)" fill-opacity="0.56" style="mix-blend-mode:overlay"/>
</g>
<g filter="url(#filter13_i_3_27708)">
<path d="M48.1496 98.2807C51.4117 111.975 50.9348 159.739 49.4057 174.213H46.3398C46.5097 165.445 46.4564 154.551 46.0487 150.71C44.0911 132.269 37.7554 104.126 36.2263 98.2807C35.003 93.6045 27.542 67.3908 28.2216 58.9707C28.2216 57.9269 29.4109 58.9707 29.4109 58.9707C32.1293 61.4759 44.072 81.1622 48.1496 98.2807Z" fill="url(#paint37_linear_3_27708)"/>
<path d="M48.1496 98.2807C51.4117 111.975 50.9348 159.739 49.4057 174.213H46.3398C46.5097 165.445 46.4564 154.551 46.0487 150.71C44.0911 132.269 37.7554 104.126 36.2263 98.2807C35.003 93.6045 27.542 67.3908 28.2216 58.9707C28.2216 57.9269 29.4109 58.9707 29.4109 58.9707C32.1293 61.4759 44.072 81.1622 48.1496 98.2807Z" fill="url(#paint38_linear_3_27708)" fill-opacity="0.24" style="mix-blend-mode:overlay"/>
<path d="M48.1496 98.2807C51.4117 111.975 50.9348 159.739 49.4057 174.213H46.3398C46.5097 165.445 46.4564 154.551 46.0487 150.71C44.0911 132.269 37.7554 104.126 36.2263 98.2807C35.003 93.6045 27.542 67.3908 28.2216 58.9707C28.2216 57.9269 29.4109 58.9707 29.4109 58.9707C32.1293 61.4759 44.072 81.1622 48.1496 98.2807Z" fill="url(#paint39_radial_3_27708)" fill-opacity="0.2"/>
<path d="M48.1496 98.2807C51.4117 111.975 50.9348 159.739 49.4057 174.213H46.3398C46.5097 165.445 46.4564 154.551 46.0487 150.71C44.0911 132.269 37.7554 104.126 36.2263 98.2807C35.003 93.6045 27.542 67.3908 28.2216 58.9707C28.2216 57.9269 29.4109 58.9707 29.4109 58.9707C32.1293 61.4759 44.072 81.1622 48.1496 98.2807Z" fill="url(#paint40_radial_3_27708)" fill-opacity="0.84" style="mix-blend-mode:overlay"/>
<path d="M48.1496 98.2807C51.4117 111.975 50.9348 159.739 49.4057 174.213H46.3398C46.5097 165.445 46.4564 154.551 46.0487 150.71C44.0911 132.269 37.7554 104.126 36.2263 98.2807C35.003 93.6045 27.542 67.3908 28.2216 58.9707C28.2216 57.9269 29.4109 58.9707 29.4109 58.9707C32.1293 61.4759 44.072 81.1622 48.1496 98.2807Z" fill="url(#paint41_linear_3_27708)" fill-opacity="0.56" style="mix-blend-mode:overlay"/>
</g>
<g filter="url(#filter14_i_3_27708)">
<path d="M65.6843 112.07C61.0955 124.2 58.137 158.852 57.2314 174.662H51.7976C51.9989 165.721 52.5825 145.271 53.3071 135.008C54.2127 122.178 52.7033 70.8609 52.7033 60.7529C52.7033 52.6665 56.9297 37.1676 59.043 30.429C60.1498 30.429 63.6918 35.5607 69.005 56.0877C75.6466 81.7464 71.4201 96.9084 65.6843 112.07Z" fill="url(#paint42_linear_3_27708)"/>
<path d="M65.6843 112.07C61.0955 124.2 58.137 158.852 57.2314 174.662H51.7976C51.9989 165.721 52.5825 145.271 53.3071 135.008C54.2127 122.178 52.7033 70.8609 52.7033 60.7529C52.7033 52.6665 56.9297 37.1676 59.043 30.429C60.1498 30.429 63.6918 35.5607 69.005 56.0877C75.6466 81.7464 71.4201 96.9084 65.6843 112.07Z" fill="url(#paint43_linear_3_27708)" fill-opacity="0.24" style="mix-blend-mode:overlay"/>
<path d="M65.6843 112.07C61.0955 124.2 58.137 158.852 57.2314 174.662H51.7976C51.9989 165.721 52.5825 145.271 53.3071 135.008C54.2127 122.178 52.7033 70.8609 52.7033 60.7529C52.7033 52.6665 56.9297 37.1676 59.043 30.429C60.1498 30.429 63.6918 35.5607 69.005 56.0877C75.6466 81.7464 71.4201 96.9084 65.6843 112.07Z" fill="url(#paint44_radial_3_27708)" fill-opacity="0.2"/>
<path d="M65.6843 112.07C61.0955 124.2 58.137 158.852 57.2314 174.662H51.7976C51.9989 165.721 52.5825 145.271 53.3071 135.008C54.2127 122.178 52.7033 70.8609 52.7033 60.7529C52.7033 52.6665 56.9297 37.1676 59.043 30.429C60.1498 30.429 63.6918 35.5607 69.005 56.0877C75.6466 81.7464 71.4201 96.9084 65.6843 112.07Z" fill="url(#paint45_radial_3_27708)" fill-opacity="0.84" style="mix-blend-mode:overlay"/>
<path d="M65.6843 112.07C61.0955 124.2 58.137 158.852 57.2314 174.662H51.7976C51.9989 165.721 52.5825 145.271 53.3071 135.008C54.2127 122.178 52.7033 70.8609 52.7033 60.7529C52.7033 52.6665 56.9297 37.1676 59.043 30.429C60.1498 30.429 63.6918 35.5607 69.005 56.0877C75.6466 81.7464 71.4201 96.9084 65.6843 112.07Z" fill="url(#paint46_linear_3_27708)" fill-opacity="0.56" style="mix-blend-mode:overlay"/>
</g>
<g filter="url(#filter15_i_3_27708)">
<path d="M65.7415 88.9857C62.4794 104.328 62.9563 157.838 64.4854 174.054H67.5513C67.3814 164.231 67.4347 152.026 67.8424 147.723C69.8 127.064 76.1357 95.5343 77.6648 88.9857C78.8881 83.7468 86.3491 54.3792 85.6695 44.946C85.6695 43.7766 84.4802 44.946 84.4802 44.946C81.7618 47.7525 69.8191 69.8075 65.7415 88.9857Z" fill="url(#paint47_linear_3_27708)"/>
<path d="M65.7415 88.9857C62.4794 104.328 62.9563 157.838 64.4854 174.054H67.5513C67.3814 164.231 67.4347 152.026 67.8424 147.723C69.8 127.064 76.1357 95.5343 77.6648 88.9857C78.8881 83.7468 86.3491 54.3792 85.6695 44.946C85.6695 43.7766 84.4802 44.946 84.4802 44.946C81.7618 47.7525 69.8191 69.8075 65.7415 88.9857Z" fill="url(#paint48_linear_3_27708)" fill-opacity="0.24" style="mix-blend-mode:overlay"/>
<path d="M65.7415 88.9857C62.4794 104.328 62.9563 157.838 64.4854 174.054H67.5513C67.3814 164.231 67.4347 152.026 67.8424 147.723C69.8 127.064 76.1357 95.5343 77.6648 88.9857C78.8881 83.7468 86.3491 54.3792 85.6695 44.946C85.6695 43.7766 84.4802 44.946 84.4802 44.946C81.7618 47.7525 69.8191 69.8075 65.7415 88.9857Z" fill="url(#paint49_radial_3_27708)" fill-opacity="0.2"/>
<path d="M65.7415 88.9857C62.4794 104.328 62.9563 157.838 64.4854 174.054H67.5513C67.3814 164.231 67.4347 152.026 67.8424 147.723C69.8 127.064 76.1357 95.5343 77.6648 88.9857C78.8881 83.7468 86.3491 54.3792 85.6695 44.946C85.6695 43.7766 84.4802 44.946 84.4802 44.946C81.7618 47.7525 69.8191 69.8075 65.7415 88.9857Z" fill="url(#paint50_radial_3_27708)" fill-opacity="0.84" style="mix-blend-mode:overlay"/>
<path d="M65.7415 88.9857C62.4794 104.328 62.9563 157.838 64.4854 174.054H67.5513C67.3814 164.231 67.4347 152.026 67.8424 147.723C69.8 127.064 76.1357 95.5343 77.6648 88.9857C78.8881 83.7468 86.3491 54.3792 85.6695 44.946C85.6695 43.7766 84.4802 44.946 84.4802 44.946C81.7618 47.7525 69.8191 69.8075 65.7415 88.9857Z" fill="url(#paint51_linear_3_27708)" fill-opacity="0.56" style="mix-blend-mode:overlay"/>
</g>
<g filter="url(#filter16_i_3_27708)">
<path d="M45.7845 115.952C50.3732 127.211 53.3317 159.378 54.2374 174.054H59.6711C59.4699 165.753 58.8862 146.771 58.1617 137.244C57.256 125.334 58.7655 77.698 58.7655 68.3151C58.7655 60.8087 54.539 46.4215 52.4258 40.1662C51.319 40.1662 47.777 44.9299 42.4637 63.9845C35.8222 87.8027 40.0486 101.877 45.7845 115.952Z" fill="url(#paint52_linear_3_27708)"/>
<path d="M45.7845 115.952C50.3732 127.211 53.3317 159.378 54.2374 174.054H59.6711C59.4699 165.753 58.8862 146.771 58.1617 137.244C57.256 125.334 58.7655 77.698 58.7655 68.3151C58.7655 60.8087 54.539 46.4215 52.4258 40.1662C51.319 40.1662 47.777 44.9299 42.4637 63.9845C35.8222 87.8027 40.0486 101.877 45.7845 115.952Z" fill="url(#paint53_linear_3_27708)" fill-opacity="0.24" style="mix-blend-mode:overlay"/>
<path d="M45.7845 115.952C50.3732 127.211 53.3317 159.378 54.2374 174.054H59.6711C59.4699 165.753 58.8862 146.771 58.1617 137.244C57.256 125.334 58.7655 77.698 58.7655 68.3151C58.7655 60.8087 54.539 46.4215 52.4258 40.1662C51.319 40.1662 47.777 44.9299 42.4637 63.9845C35.8222 87.8027 40.0486 101.877 45.7845 115.952Z" fill="url(#paint54_radial_3_27708)" fill-opacity="0.2"/>
<path d="M45.7845 115.952C50.3732 127.211 53.3317 159.378 54.2374 174.054H59.6711C59.4699 165.753 58.8862 146.771 58.1617 137.244C57.256 125.334 58.7655 77.698 58.7655 68.3151C58.7655 60.8087 54.539 46.4215 52.4258 40.1662C51.319 40.1662 47.777 44.9299 42.4637 63.9845C35.8222 87.8027 40.0486 101.877 45.7845 115.952Z" fill="url(#paint55_radial_3_27708)" fill-opacity="0.84" style="mix-blend-mode:overlay"/>
<path d="M45.7845 115.952C50.3732 127.211 53.3317 159.378 54.2374 174.054H59.6711C59.4699 165.753 58.8862 146.771 58.1617 137.244C57.256 125.334 58.7655 77.698 58.7655 68.3151C58.7655 60.8087 54.539 46.4215 52.4258 40.1662C51.319 40.1662 47.777 44.9299 42.4637 63.9845C35.8222 87.8027 40.0486 101.877 45.7845 115.952Z" fill="url(#paint56_linear_3_27708)" fill-opacity="0.56" style="mix-blend-mode:overlay"/>
</g>
</g>
<path fill-rule="evenodd" clip-rule="evenodd" d="M82.6997 169.181C82.7012 169.182 82.7027 169.184 82.7041 169.185C82.6907 169.197 82.676 169.209 82.6598 169.222C82.411 169.426 81.9703 169.677 81.2868 169.948C79.9319 170.484 77.8998 170.992 75.3017 171.427C70.1249 172.294 62.927 172.836 54.9449 172.836C46.9629 172.836 39.765 172.294 34.5882 171.427C31.99 170.992 29.958 170.484 28.6031 169.948C27.9196 169.677 27.4788 169.426 27.2301 169.222C27.2139 169.209 27.1992 169.197 27.1857 169.185L27.1914 169.18C26.5908 168.661 27.2701 167.705 28.7896 167.057C26.9221 167.7 25.8745 168.422 25.8745 169.185C25.8745 171.874 38.8898 174.054 54.9449 174.054C71.0001 174.054 84.0154 171.874 84.0154 169.185C84.0154 168.423 82.9691 167.701 81.104 167.059C82.6229 167.706 83.3022 168.662 82.6997 169.181ZM82.8311 169.049C82.8311 169.049 82.8302 169.051 82.8271 169.056C82.8293 169.051 82.8311 169.049 82.8311 169.049ZM27.0588 169.049C27.0588 169.049 27.0605 169.051 27.0628 169.056C27.0597 169.051 27.0588 169.049 27.0588 169.049ZM27.0588 169.321C27.0588 169.321 27.0597 169.319 27.0628 169.314C27.0605 169.319 27.0588 169.321 27.0588 169.321ZM82.8271 169.314C82.8302 169.319 82.8311 169.321 82.8311 169.321C82.8311 169.321 82.8293 169.319 82.8271 169.314Z" fill="#BEBEBE"/>
<defs>
<filter id="filter0_f_3_27708" x="21.6763" y="209.263" width="66.873" height="25.7373" filterUnits="userSpaceOnUse" color-interpolation-filters="sRGB">
<feFlood flood-opacity="0" result="BackgroundImageFix"/>
<feBlend mode="normal" in="SourceGraphic" in2="BackgroundImageFix" result="shape"/>
<feGaussianBlur stdDeviation="4" result="effect1_foregroundBlur_3_27708"/>
</filter>
<filter id="filter1_i_3_27708" x="26.0425" y="209.96" width="58.1406" height="13.7372" filterUnits="userSpaceOnUse" color-interpolation-filters="sRGB">
<feFlood flood-opacity="0" result="BackgroundImageFix"/>
<feBlend mode="normal" in="SourceGraphic" in2="BackgroundImageFix" result="shape"/>
<feColorMatrix in="SourceAlpha" type="matrix" values="0 0 0 0 0 0 0 0 0 0 0 0 0 0 0 0 0 0 127 0" result="hardAlpha"/>
<feOffset dy="4"/>
<feGaussianBlur stdDeviation="2"/>
<feComposite in2="hardAlpha" operator="arithmetic" k2="-1" k3="1"/>
<feColorMatrix type="matrix" values="0 0 0 0 0 0 0 0 0 0 0 0 0 0 0 0 0 0 0.25 0"/>
<feBlend mode="normal" in2="shape" result="effect1_innerShadow_3_27708"/>
</filter>
<filter id="filter2_f_3_27708" x="25.9155" y="206.22" width="57.7886" height="24.5201" filterUnits="userSpaceOnUse" color-interpolation-filters="sRGB">
<feFlood flood-opacity="0" result="BackgroundImageFix"/>
<feBlend mode="normal" in="SourceGraphic" in2="BackgroundImageFix" result="shape"/>
<feGaussianBlur stdDeviation="4" result="effect1_foregroundBlur_3_27708"/>
</filter>
<filter id="filter3_i_3_27708" x="25.8745" y="164.316" width="58.1406" height="13.7372" filterUnits="userSpaceOnUse" color-interpolation-filters="sRGB">
<feFlood flood-opacity="0" result="BackgroundImageFix"/>
<feBlend mode="normal" in="SourceGraphic" in2="BackgroundImageFix" result="shape"/>
<feColorMatrix in="SourceAlpha" type="matrix" values="0 0 0 0 0 0 0 0 0 0 0 0 0 0 0 0 0 0 127 0" result="hardAlpha"/>
<feOffset dy="4"/>
<feGaussianBlur stdDeviation="2"/>
<feComposite in2="hardAlpha" operator="arithmetic" k2="-1" k3="1"/>
<feColorMatrix type="matrix" values="0 0 0 0 0 0 0 0 0 0 0 0 0 0 0 0 0 0 0.25 0"/>
<feBlend mode="normal" in2="shape" result="effect1_innerShadow_3_27708"/>
</filter>
<filter id="filter4_i_3_27708" x="33.1421" y="167.185" width="43.6055" height="6.26004" filterUnits="userSpaceOnUse" color-interpolation-filters="sRGB">
<feFlood flood-opacity="0" result="BackgroundImageFix"/>
<feBlend mode="normal" in="SourceGraphic" in2="BackgroundImageFix" result="shape"/>
<feColorMatrix in="SourceAlpha" type="matrix" values="0 0 0 0 0 0 0 0 0 0 0 0 0 0 0 0 0 0 127 0" result="hardAlpha"/>
<feOffset dy="-2"/>
<feGaussianBlur stdDeviation="2"/>
<feComposite in2="hardAlpha" operator="arithmetic" k2="-1" k3="1"/>
<feColorMatrix type="matrix" values="0 0 0 0 0 0 0 0 0 0 0 0 0 0 0 0 0 0 0.32 0"/>
<feBlend mode="normal" in2="shape" result="effect1_innerShadow_3_27708"/>
</filter>
<filter id="filter5_i_3_27708" x="-8" y="0" width="94" height="176.836" filterUnits="userSpaceOnUse" color-interpolation-filters="sRGB">
<feFlood flood-opacity="0" result="BackgroundImageFix"/>
<feBlend mode="normal" in="SourceGraphic" in2="BackgroundImageFix" result="shape"/>
<feColorMatrix in="SourceAlpha" type="matrix" values="0 0 0 0 0 0 0 0 0 0 0 0 0 0 0 0 0 0 127 0" result="hardAlpha"/>
<feOffset dx="-8" dy="4"/>
<feGaussianBlur stdDeviation="6"/>
<feComposite in2="hardAlpha" operator="arithmetic" k2="-1" k3="1"/>
<feColorMatrix type="matrix" values="0 0 0 0 1 0 0 0 0 1 0 0 0 0 1 0 0 0 0.32 0"/>
<feBlend mode="overlay" in2="shape" result="effect1_innerShadow_3_27708"/>
</filter>
<filter id="filter6_i_3_27708" x="9.03711" y="0" width="50.6338" height="182.054" filterUnits="userSpaceOnUse" color-interpolation-filters="sRGB">
<feFlood flood-opacity="0" result="BackgroundImageFix"/>
<feBlend mode="normal" in="SourceGraphic" in2="BackgroundImageFix" result="shape"/>
<feColorMatrix in="SourceAlpha" type="matrix" values="0 0 0 0 0 0 0 0 0 0 0 0 0 0 0 0 0 0 127 0" result="hardAlpha"/>
<feOffset dx="-4" dy="8"/>
<feGaussianBlur stdDeviation="6"/>
<feComposite in2="hardAlpha" operator="arithmetic" k2="-1" k3="1"/>
<feColorMatrix type="matrix" values="0 0 0 0 0.784314 0 0 0 0 0.835294 0 0 0 0 0.521569 0 0 0 1 0"/>
<feBlend mode="normal" in2="shape" result="effect1_innerShadow_3_27708"/>
</filter>
<filter id="filter7_i_3_27708" x="22.9668" y="21.3003" width="28.8311" height="160.753" filterUnits="userSpaceOnUse" color-interpolation-filters="sRGB">
<feFlood flood-opacity="0" result="BackgroundImageFix"/>
<feBlend mode="normal" in="SourceGraphic" in2="BackgroundImageFix" result="shape"/>
<feColorMatrix in="SourceAlpha" type="matrix" values="0 0 0 0 0 0 0 0 0 0 0 0 0 0 0 0 0 0 127 0" result="hardAlpha"/>
<feOffset dx="-4" dy="8"/>
<feGaussianBlur stdDeviation="6"/>
<feComposite in2="hardAlpha" operator="arithmetic" k2="-1" k3="1"/>
<feColorMatrix type="matrix" values="0 0 0 0 0.784314 0 0 0 0 0.835294 0 0 0 0 0.521569 0 0 0 1 0"/>
<feBlend mode="normal" in2="shape" result="effect1_innerShadow_3_27708"/>
</filter>
<filter id="filter8_i_3_27708" x="50.8257" y="9.12869" width="26.4087" height="172.925" filterUnits="userSpaceOnUse" color-interpolation-filters="sRGB">
<feFlood flood-opacity="0" result="BackgroundImageFix"/>
<feBlend mode="normal" in="SourceGraphic" in2="BackgroundImageFix" result="shape"/>
<feColorMatrix in="SourceAlpha" type="matrix" values="0 0 0 0 0 0 0 0 0 0 0 0 0 0 0 0 0 0 127 0" result="hardAlpha"/>
<feOffset dx="-4" dy="8"/>
<feGaussianBlur stdDeviation="6"/>
<feComposite in2="hardAlpha" operator="arithmetic" k2="-1" k3="1"/>
<feColorMatrix type="matrix" values="0 0 0 0 0.784314 0 0 0 0 0.835294 0 0 0 0 0.521569 0 0 0 1 0"/>
<feBlend mode="normal" in2="shape" result="effect1_innerShadow_3_27708"/>
</filter>
<filter id="filter9_i_3_27708" x="56.8823" y="79.1153" width="23.3804" height="103.547" filterUnits="userSpaceOnUse" color-interpolation-filters="sRGB">
<feFlood flood-opacity="0" result="BackgroundImageFix"/>
<feBlend mode="normal" in="SourceGraphic" in2="BackgroundImageFix" result="shape"/>
<feColorMatrix in="SourceAlpha" type="matrix" values="0 0 0 0 0 0 0 0 0 0 0 0 0 0 0 0 0 0 127 0" result="hardAlpha"/>
<feOffset dx="-4" dy="8"/>
<feGaussianBlur stdDeviation="6"/>
<feComposite in2="hardAlpha" operator="arithmetic" k2="-1" k3="1"/>
<feColorMatrix type="matrix" values="0 0 0 0 0.784314 0 0 0 0 0.835294 0 0 0 0 0.521569 0 0 0 1 0"/>
<feBlend mode="normal" in2="shape" result="effect1_innerShadow_3_27708"/>
</filter>
<filter id="filter10_i_3_27708" x="29.0229" y="29.2118" width="26.4087" height="152.842" filterUnits="userSpaceOnUse" color-interpolation-filters="sRGB">
<feFlood flood-opacity="0" result="BackgroundImageFix"/>
<feBlend mode="normal" in="SourceGraphic" in2="BackgroundImageFix" result="shape"/>
<feColorMatrix in="SourceAlpha" type="matrix" values="0 0 0 0 0 0 0 0 0 0 0 0 0 0 0 0 0 0 127 0" result="hardAlpha"/>
<feOffset dx="-4" dy="8"/>
<feGaussianBlur stdDeviation="6"/>
<feComposite in2="hardAlpha" operator="arithmetic" k2="-1" k3="1"/>
<feColorMatrix type="matrix" values="0 0 0 0 0.784314 0 0 0 0 0.835294 0 0 0 0 0.521569 0 0 0 1 0"/>
<feBlend mode="normal" in2="shape" result="effect1_innerShadow_3_27708"/>
</filter>
<filter id="filter11_i_3_27708" x="-4.28662" y="24.8733" width="51.2393" height="156.572" filterUnits="userSpaceOnUse" color-interpolation-filters="sRGB">
<feFlood flood-opacity="0" result="BackgroundImageFix"/>
<feBlend mode="normal" in="SourceGraphic" in2="BackgroundImageFix" result="shape"/>
<feColorMatrix in="SourceAlpha" type="matrix" values="0 0 0 0 0 0 0 0 0 0 0 0 0 0 0 0 0 0 127 0" result="hardAlpha"/>
<feOffset dx="-4" dy="8"/>
<feGaussianBlur stdDeviation="6"/>
<feComposite in2="hardAlpha" operator="arithmetic" k2="-1" k3="1"/>
<feColorMatrix type="matrix" values="0 0 0 0 0.784314 0 0 0 0 0.835294 0 0 0 0 0.521569 0 0 0 1 0"/>
<feBlend mode="normal" in2="shape" result="effect1_innerShadow_3_27708"/>
</filter>
<filter id="filter12_i_3_27708" x="-0.286621" y="48.6863" width="51.2393" height="132.15" filterUnits="userSpaceOnUse" color-interpolation-filters="sRGB">
<feFlood flood-opacity="0" result="BackgroundImageFix"/>
<feBlend mode="normal" in="SourceGraphic" in2="BackgroundImageFix" result="shape"/>
<feColorMatrix in="SourceAlpha" type="matrix" values="0 0 0 0 0 0 0 0 0 0 0 0 0 0 0 0 0 0 127 0" result="hardAlpha"/>
<feOffset dx="4" dy="8"/>
<feGaussianBlur stdDeviation="6"/>
<feComposite in2="hardAlpha" operator="arithmetic" k2="-1" k3="1"/>
<feColorMatrix type="matrix" values="0 0 0 0 0.784314 0 0 0 0 0.835294 0 0 0 0 0.521569 0 0 0 1 0"/>
<feBlend mode="normal" in2="shape" result="effect1_innerShadow_3_27708"/>
</filter>
<filter id="filter13_i_3_27708" x="28.1777" y="58.5068" width="26.4087" height="123.706" filterUnits="userSpaceOnUse" color-interpolation-filters="sRGB">
<feFlood flood-opacity="0" result="BackgroundImageFix"/>
<feBlend mode="normal" in="SourceGraphic" in2="BackgroundImageFix" result="shape"/>
<feColorMatrix in="SourceAlpha" type="matrix" values="0 0 0 0 0 0 0 0 0 0 0 0 0 0 0 0 0 0 127 0" result="hardAlpha"/>
<feOffset dx="4" dy="8"/>
<feGaussianBlur stdDeviation="6"/>
<feComposite in2="hardAlpha" operator="arithmetic" k2="-1" k3="1"/>
<feColorMatrix type="matrix" values="0 0 0 0 0.784314 0 0 0 0 0.835294 0 0 0 0 0.521569 0 0 0 1 0"/>
<feBlend mode="normal" in2="shape" result="effect1_innerShadow_3_27708"/>
</filter>
<filter id="filter14_i_3_27708" x="51.7979" y="30.429" width="24.5913" height="152.233" filterUnits="userSpaceOnUse" color-interpolation-filters="sRGB">
<feFlood flood-opacity="0" result="BackgroundImageFix"/>
<feBlend mode="normal" in="SourceGraphic" in2="BackgroundImageFix" result="shape"/>
<feColorMatrix in="SourceAlpha" type="matrix" values="0 0 0 0 0 0 0 0 0 0 0 0 0 0 0 0 0 0 127 0" result="hardAlpha"/>
<feOffset dx="4" dy="8"/>
<feGaussianBlur stdDeviation="6"/>
<feComposite in2="hardAlpha" operator="arithmetic" k2="-1" k3="1"/>
<feColorMatrix type="matrix" values="0 0 0 0 0.784314 0 0 0 0 0.835294 0 0 0 0 0.521569 0 0 0 1 0"/>
<feBlend mode="normal" in2="shape" result="effect1_innerShadow_3_27708"/>
</filter>
<filter id="filter15_i_3_27708" x="59.3047" y="44.4263" width="26.4087" height="137.627" filterUnits="userSpaceOnUse" color-interpolation-filters="sRGB">
<feFlood flood-opacity="0" result="BackgroundImageFix"/>
<feBlend mode="normal" in="SourceGraphic" in2="BackgroundImageFix" result="shape"/>
<feColorMatrix in="SourceAlpha" type="matrix" values="0 0 0 0 0 0 0 0 0 0 0 0 0 0 0 0 0 0 127 0" result="hardAlpha"/>
<feOffset dx="-4" dy="8"/>
<feGaussianBlur stdDeviation="6"/>
<feComposite in2="hardAlpha" operator="arithmetic" k2="-1" k3="1"/>
<feColorMatrix type="matrix" values="0 0 0 0 0.784314 0 0 0 0 0.835294 0 0 0 0 0.521569 0 0 0 1 0"/>
<feBlend mode="normal" in2="shape" result="effect1_innerShadow_3_27708"/>
</filter>
<filter id="filter16_i_3_27708" x="35.0796" y="40.1662" width="24.5913" height="141.887" filterUnits="userSpaceOnUse" color-interpolation-filters="sRGB">
<feFlood flood-opacity="0" result="BackgroundImageFix"/>
<feBlend mode="normal" in="SourceGraphic" in2="BackgroundImageFix" result="shape"/>
<feColorMatrix in="SourceAlpha" type="matrix" values="0 0 0 0 0 0 0 0 0 0 0 0 0 0 0 0 0 0 127 0" result="hardAlpha"/>
<feOffset dx="-4" dy="8"/>
<feGaussianBlur stdDeviation="6"/>
<feComposite in2="hardAlpha" operator="arithmetic" k2="-1" k3="1"/>
<feColorMatrix type="matrix" values="0 0 0 0 0.784314 0 0 0 0 0.835294 0 0 0 0 0.521569 0 0 0 1 0"/>
<feBlend mode="normal" in2="shape" result="effect1_innerShadow_3_27708"/>
</filter>
<linearGradient id="paint0_linear_3_27708" x1="25.8745" y1="202.048" x2="81.8956" y2="202.048" gradientUnits="userSpaceOnUse">
<stop/>
<stop offset="1" stop-opacity="0"/>
</linearGradient>
<linearGradient id="paint1_linear_3_27708" x1="26.0425" y1="218.48" x2="82.0636" y2="218.48" gradientUnits="userSpaceOnUse">
<stop/>
<stop offset="1" stop-opacity="0"/>
</linearGradient>
<linearGradient id="paint2_linear_3_27708" x1="38.2805" y1="3.26351" x2="22.7772" y2="183.707" gradientUnits="userSpaceOnUse">
<stop stop-color="#A7C071"/>
<stop offset="1" stop-color="#44650D"/>
</linearGradient>
<linearGradient id="paint3_linear_3_27708" x1="36.4964" y1="20.9408" x2="9.17139" y2="153.348" gradientUnits="userSpaceOnUse">
<stop stop-opacity="0"/>
<stop offset="1"/>
</linearGradient>
<radialGradient id="paint4_radial_3_27708" cx="0" cy="0" r="1" gradientUnits="userSpaceOnUse" gradientTransform="translate(26.7529 81.8843) rotate(-86.1215) scale(70.9707 22.0198)">
<stop stop-color="#515151"/>
<stop offset="1" stop-opacity="0"/>
</radialGradient>
<radialGradient id="paint5_radial_3_27708" cx="0" cy="0" r="1" gradientUnits="userSpaceOnUse" gradientTransform="translate(38.1602 53.0651) rotate(90.6464) scale(116.447 31.2091)">
<stop stop-color="white" stop-opacity="0.16"/>
<stop offset="1" stop-color="white" stop-opacity="0"/>
</radialGradient>
<linearGradient id="paint6_linear_3_27708" x1="25.024" y1="228.635" x2="156.973" y2="-44.5667" gradientUnits="userSpaceOnUse">
<stop/>
<stop offset="1" stop-opacity="0"/>
</linearGradient>
<linearGradient id="paint7_linear_3_27708" x1="38.3566" y1="24.1644" x2="60.5036" y2="180.559" gradientUnits="userSpaceOnUse">
<stop stop-color="#A7C071"/>
<stop offset="1" stop-color="#44650D"/>
</linearGradient>
<linearGradient id="paint8_linear_3_27708" x1="39.3065" y1="39.6784" x2="76.2424" y2="148.267" gradientUnits="userSpaceOnUse">
<stop stop-opacity="0"/>
<stop offset="1"/>
</linearGradient>
<radialGradient id="paint9_radial_3_27708" cx="0" cy="0" r="1" gradientUnits="userSpaceOnUse" gradientTransform="translate(44.4946 93.1638) rotate(-92.3554) scale(62.1954 11.7418)">
<stop stop-color="#515151"/>
<stop offset="1" stop-opacity="0"/>
</radialGradient>
<radialGradient id="paint10_radial_3_27708" cx="0" cy="0" r="1" gradientUnits="userSpaceOnUse" gradientTransform="translate(38.4206 67.8714) rotate(89.6078) scale(102.193 16.6185)">
<stop stop-color="white" stop-opacity="0.16"/>
<stop offset="1" stop-color="white" stop-opacity="0"/>
</radialGradient>
<linearGradient id="paint11_linear_3_27708" x1="45.4152" y1="221.955" x2="-98.6688" y2="40.956" gradientUnits="userSpaceOnUse">
<stop/>
<stop offset="1" stop-opacity="0"/>
</linearGradient>
<linearGradient id="paint12_linear_3_27708" x1="66.9556" y1="12.221" x2="38.5881" y2="179.657" gradientUnits="userSpaceOnUse">
<stop stop-color="#A7C071"/>
<stop offset="1" stop-color="#44650D"/>
</linearGradient>
<linearGradient id="paint13_linear_3_27708" x1="66.0983" y1="28.9712" x2="20.4299" y2="141.192" gradientUnits="userSpaceOnUse">
<stop stop-opacity="0"/>
<stop offset="1"/>
</linearGradient>
<radialGradient id="paint14_radial_3_27708" cx="0" cy="0" r="1" gradientUnits="userSpaceOnUse" gradientTransform="translate(61.4164 86.7184) rotate(-88.0309) scale(67.1341 10.599)">
<stop stop-color="#515151"/>
<stop offset="1" stop-opacity="0"/>
</radialGradient>
<radialGradient id="paint15_radial_3_27708" cx="0" cy="0" r="1" gradientUnits="userSpaceOnUse" gradientTransform="translate(66.8978 59.4107) rotate(90.3278) scale(110.335 14.9973)">
<stop stop-color="white" stop-opacity="0.16"/>
<stop offset="1" stop-color="white" stop-opacity="0"/>
</radialGradient>
<linearGradient id="paint16_linear_3_27708" x1="60.5856" y1="225.772" x2="220.025" y2="58.3629" gradientUnits="userSpaceOnUse">
<stop/>
<stop offset="1" stop-opacity="0"/>
</linearGradient>
<linearGradient id="paint17_linear_3_27708" x1="71.3731" y1="80.9068" x2="60.1924" y2="179.424" gradientUnits="userSpaceOnUse">
<stop stop-color="#A7C071"/>
<stop offset="1" stop-color="#44650D"/>
</linearGradient>
<linearGradient id="paint18_linear_3_27708" x1="70.6316" y1="90.6108" x2="51.4029" y2="161.149" gradientUnits="userSpaceOnUse">
<stop stop-opacity="0"/>
<stop offset="1"/>
</linearGradient>
<radialGradient id="paint19_radial_3_27708" cx="0" cy="0" r="1" gradientUnits="userSpaceOnUse" gradientTransform="translate(66.5824 124.066) rotate(-87.0619) scale(38.9214 9.16003)">
<stop stop-color="#515151"/>
<stop offset="1" stop-opacity="0"/>
</radialGradient>
<radialGradient id="paint20_radial_3_27708" cx="0" cy="0" r="1" gradientUnits="userSpaceOnUse" gradientTransform="translate(71.3231 108.245) rotate(90.4893) scale(63.9222 12.9704)">
<stop stop-color="white" stop-opacity="0.16"/>
<stop offset="1" stop-color="white" stop-opacity="0"/>
</radialGradient>
<linearGradient id="paint21_linear_3_27708" x1="65.8639" y1="204.625" x2="149.728" y2="73.1694" gradientUnits="userSpaceOnUse">
<stop/>
<stop offset="1" stop-opacity="0"/>
</linearGradient>
<linearGradient id="paint22_linear_3_27708" x1="43.3017" y1="31.9276" x2="65.3217" y2="179.919" gradientUnits="userSpaceOnUse">
<stop stop-color="#A7C071"/>
<stop offset="1" stop-color="#44650D"/>
</linearGradient>
<linearGradient id="paint23_linear_3_27708" x1="44.159" y1="46.6381" x2="80.5655" y2="148.504" gradientUnits="userSpaceOnUse">
<stop stop-opacity="0"/>
<stop offset="1"/>
</linearGradient>
<radialGradient id="paint24_radial_3_27708" cx="0" cy="0" r="1" gradientUnits="userSpaceOnUse" gradientTransform="translate(48.8409 97.3533) rotate(-92.2419) scale(58.9694 10.5971)">
<stop stop-color="#515151"/>
<stop offset="1" stop-opacity="0"/>
</radialGradient>
<radialGradient id="paint25_radial_3_27708" cx="0" cy="0" r="1" gradientUnits="userSpaceOnUse" gradientTransform="translate(43.3595 73.3709) rotate(89.6268) scale(96.8997 14.9972)">
<stop stop-color="white" stop-opacity="0.16"/>
<stop offset="1" stop-color="white" stop-opacity="0"/>
</radialGradient>
<linearGradient id="paint26_linear_3_27708" x1="49.6717" y1="219.474" x2="-88.3122" y2="54.5047" gradientUnits="userSpaceOnUse">
<stop/>
<stop offset="1" stop-opacity="0"/>
</linearGradient>
<linearGradient id="paint27_linear_3_27708" x1="21.3814" y1="27.659" x2="32.5565" y2="182.013" gradientUnits="userSpaceOnUse">
<stop stop-color="#A7C071"/>
<stop offset="1" stop-color="#44650D"/>
</linearGradient>
<linearGradient id="paint28_linear_3_27708" x1="23.1887" y1="42.7483" x2="43.0788" y2="157.125" gradientUnits="userSpaceOnUse">
<stop stop-opacity="0"/>
<stop offset="1"/>
</linearGradient>
<radialGradient id="paint29_radial_3_27708" cx="0" cy="0" r="1" gradientUnits="userSpaceOnUse" gradientTransform="translate(33.0587 94.7696) rotate(-94.5999) scale(60.637 22.2849)">
<stop stop-color="#515151"/>
<stop offset="1" stop-opacity="0"/>
</radialGradient>
<radialGradient id="paint30_radial_3_27708" cx="0" cy="0" r="1" gradientUnits="userSpaceOnUse" gradientTransform="translate(21.5032 70.1696) rotate(89.233) scale(99.4019 31.6136)">
<stop stop-color="white" stop-opacity="0.16"/>
<stop offset="1" stop-color="white" stop-opacity="0"/>
</radialGradient>
<linearGradient id="paint31_linear_3_27708" x1="34.8101" y1="220.036" x2="-65.6063" y2="-26.6995" gradientUnits="userSpaceOnUse">
<stop/>
<stop offset="1" stop-opacity="0"/>
</linearGradient>
<linearGradient id="paint32_linear_3_27708" x1="21.3814" y1="51.0142" x2="29.1969" y2="180.2" gradientUnits="userSpaceOnUse">
<stop stop-color="#A7C071"/>
<stop offset="1" stop-color="#44650D"/>
</linearGradient>
<linearGradient id="paint33_linear_3_27708" x1="23.1887" y1="63.6232" x2="37.2014" y2="160.053" gradientUnits="userSpaceOnUse">
<stop stop-opacity="0"/>
<stop offset="1"/>
</linearGradient>
<radialGradient id="paint34_radial_3_27708" cx="0" cy="0" r="1" gradientUnits="userSpaceOnUse" gradientTransform="translate(33.0587 107.093) rotate(-95.4996) scale(50.7401 22.254)">
<stop stop-color="#515151"/>
<stop offset="1" stop-opacity="0"/>
</radialGradient>
<radialGradient id="paint35_radial_3_27708" cx="0" cy="0" r="1" gradientUnits="userSpaceOnUse" gradientTransform="translate(21.5032 86.537) rotate(89.0821) scale(83.0658 31.6123)">
<stop stop-color="white" stop-opacity="0.16"/>
<stop offset="1" stop-color="white" stop-opacity="0"/>
</radialGradient>
<linearGradient id="paint36_linear_3_27708" x1="34.8101" y1="211.769" x2="-38.4483" y2="-3.64502" gradientUnits="userSpaceOnUse">
<stop/>
<stop offset="1" stop-opacity="0"/>
</linearGradient>
<linearGradient id="paint37_linear_3_27708" x1="38.4565" y1="60.6763" x2="52.6196" y2="179.832" gradientUnits="userSpaceOnUse">
<stop stop-color="#A7C071"/>
<stop offset="1" stop-color="#44650D"/>
</linearGradient>
<linearGradient id="paint38_linear_3_27708" x1="39.3138" y1="72.4277" x2="63.5395" y2="157.28" gradientUnits="userSpaceOnUse">
<stop stop-opacity="0"/>
<stop offset="1"/>
</linearGradient>
<radialGradient id="paint39_radial_3_27708" cx="0" cy="0" r="1" gradientUnits="userSpaceOnUse" gradientTransform="translate(43.9957 112.941) rotate(-92.8056) scale(47.1278 10.5925)">
<stop stop-color="#515151"/>
<stop offset="1" stop-opacity="0"/>
</radialGradient>
<radialGradient id="paint40_radial_3_27708" cx="0" cy="0" r="1" gradientUnits="userSpaceOnUse" gradientTransform="translate(38.5143 93.783) rotate(89.5328) scale(77.4086 14.997)">
<stop stop-color="white" stop-opacity="0.16"/>
<stop offset="1" stop-color="white" stop-opacity="0"/>
</radialGradient>
<linearGradient id="paint41_linear_3_27708" x1="44.8265" y1="210.497" x2="-58.6388" y2="55.6477" gradientUnits="userSpaceOnUse">
<stop/>
<stop offset="1" stop-opacity="0"/>
</linearGradient>
<linearGradient id="paint42_linear_3_27708" x1="61.2427" y1="33.1333" x2="84.9153" y2="179.949" gradientUnits="userSpaceOnUse">
<stop stop-color="#A7C071"/>
<stop offset="1" stop-color="#44650D"/>
</linearGradient>
<linearGradient id="paint43_linear_3_27708" x1="62.0305" y1="47.782" x2="100.556" y2="147.256" gradientUnits="userSpaceOnUse">
<stop stop-opacity="0"/>
<stop offset="1"/>
</linearGradient>
<radialGradient id="paint44_radial_3_27708" cx="0" cy="0" r="1" gradientUnits="userSpaceOnUse" gradientTransform="translate(66.3328 98.2841) rotate(-92.0689) scale(58.715 9.73899)">
<stop stop-color="#515151"/>
<stop offset="1" stop-opacity="0"/>
</radialGradient>
<radialGradient id="paint45_radial_3_27708" cx="0" cy="0" r="1" gradientUnits="userSpaceOnUse" gradientTransform="translate(61.2958 74.4025) rotate(89.6556) scale(96.4923 13.7813)">
<stop stop-color="white" stop-opacity="0.16"/>
<stop offset="1" stop-color="white" stop-opacity="0"/>
</radialGradient>
<linearGradient id="paint46_linear_3_27708" x1="67.0963" y1="219.892" x2="-71.8343" y2="66.6143" gradientUnits="userSpaceOnUse">
<stop/>
<stop offset="1" stop-opacity="0"/>
</linearGradient>
<linearGradient id="paint47_linear_3_27708" x1="75.4346" y1="46.8568" x2="57.7213" y2="179.876" gradientUnits="userSpaceOnUse">
<stop stop-color="#A7C071"/>
<stop offset="1" stop-color="#44650D"/>
</linearGradient>
<linearGradient id="paint48_linear_3_27708" x1="74.5773" y1="60.0221" x2="44.745" y2="153.29" gradientUnits="userSpaceOnUse">
<stop stop-opacity="0"/>
<stop offset="1"/>
</linearGradient>
<radialGradient id="paint49_radial_3_27708" cx="0" cy="0" r="1" gradientUnits="userSpaceOnUse" gradientTransform="translate(69.8954 105.41) rotate(-87.4953) scale(52.7852 10.5951)">
<stop stop-color="#515151"/>
<stop offset="1" stop-opacity="0"/>
</radialGradient>
<radialGradient id="paint50_radial_3_27708" cx="0" cy="0" r="1" gradientUnits="userSpaceOnUse" gradientTransform="translate(75.3768 83.9468) rotate(90.417) scale(86.7216 14.9971)">
<stop stop-color="white" stop-opacity="0.16"/>
<stop offset="1" stop-color="white" stop-opacity="0"/>
</radialGradient>
<linearGradient id="paint51_linear_3_27708" x1="69.0646" y1="214.703" x2="189.446" y2="53.886" gradientUnits="userSpaceOnUse">
<stop/>
<stop offset="1" stop-opacity="0"/>
</linearGradient>
<linearGradient id="paint52_linear_3_27708" x1="50.226" y1="42.6766" x2="29.7559" y2="179.44" gradientUnits="userSpaceOnUse">
<stop stop-color="#A7C071"/>
<stop offset="1" stop-color="#44650D"/>
</linearGradient>
<linearGradient id="paint53_linear_3_27708" x1="49.4382" y1="56.2746" x2="15.6311" y2="150.309" gradientUnits="userSpaceOnUse">
<stop stop-opacity="0"/>
<stop offset="1"/>
</linearGradient>
<radialGradient id="paint54_radial_3_27708" cx="0" cy="0" r="1" gradientUnits="userSpaceOnUse" gradientTransform="translate(45.1359 103.154) rotate(-87.7714) scale(54.5091 9.73797)">
<stop stop-color="#515151"/>
<stop offset="1" stop-opacity="0"/>
</radialGradient>
<radialGradient id="paint55_radial_3_27708" cx="0" cy="0" r="1" gradientUnits="userSpaceOnUse" gradientTransform="translate(50.1729 80.9856) rotate(90.371) scale(89.5712 13.7812)">
<stop stop-color="white" stop-opacity="0.16"/>
<stop offset="1" stop-color="white" stop-opacity="0"/>
</radialGradient>
<linearGradient id="paint56_linear_3_27708" x1="44.3725" y1="216.039" x2="172.052" y2="64.2895" gradientUnits="userSpaceOnUse">
<stop/>
<stop offset="1" stop-opacity="0"/>
</linearGradient>
<clipPath id="clip0_3_27708">
<rect width="86" height="172.836" fill="white"/>
</clipPath>
</defs>
</svg>
