<svg width="153" height="213" viewBox="0 0 153 213" fill="none" xmlns="http://www.w3.org/2000/svg">
<g opacity="0.64" filter="url(#filter0_f_2_35426)">
<ellipse cx="76.4706" cy="198.195" rx="35.6863" ry="6.80498" fill="black"/>
</g>
<g filter="url(#filter1_i_2_35426)">
<ellipse cx="76.4706" cy="187.988" rx="40.7843" ry="6.80498" fill="#596058"/>
</g>
<path d="M116.255 187.988C116.255 188.021 116.236 188.224 115.794 188.584C115.365 188.934 114.672 189.316 113.683 189.706C111.715 190.482 108.809 191.202 105.145 191.813C97.8337 193.033 87.6953 193.793 76.4706 193.793C65.2459 193.793 55.1075 193.033 47.7963 191.813C44.1327 191.202 41.2261 190.482 39.2583 189.706C38.2694 189.316 37.5758 188.934 37.1468 188.584C36.7055 188.224 36.6863 188.021 36.6863 187.988C36.6863 187.954 36.7055 187.751 37.1468 187.391C37.5758 187.041 38.2694 186.659 39.2583 186.269C41.2261 185.493 44.1327 184.773 47.7963 184.162C55.1075 182.942 65.2459 182.183 76.4706 182.183C87.6953 182.183 97.8337 182.942 105.145 184.162C108.809 184.773 111.715 185.493 113.683 186.269C114.672 186.659 115.365 187.041 115.794 187.391C116.236 187.751 116.255 187.954 116.255 187.988Z" stroke="#646E62" stroke-width="2"/>
<g opacity="0.64" filter="url(#filter2_f_2_35426)">
<ellipse cx="76.0458" cy="193.091" rx="29.3137" ry="5.95435" fill="black"/>
</g>
<path d="M117.255 153.963C117.255 156.352 114.706 194.793 98.5621 196.494C98.5621 196.494 90.915 198.195 76.4706 198.195C62.0262 198.195 54.3791 196.494 54.3791 196.494C38.2353 194.793 35.6863 156.217 35.6863 153.963C35.6863 150.204 53.946 147.158 76.4706 147.158C98.9952 147.158 117.255 150.204 117.255 153.963Z" fill="#707B6E"/>
<path d="M117.255 153.963C117.255 156.352 114.706 194.793 98.5621 196.494C98.5621 196.494 90.915 198.195 76.4706 198.195C62.0262 198.195 54.3791 196.494 54.3791 196.494C38.2353 194.793 35.6863 156.217 35.6863 153.963C35.6863 150.204 53.946 147.158 76.4706 147.158C98.9952 147.158 117.255 150.204 117.255 153.963Z" fill="url(#paint0_linear_2_35426)" fill-opacity="0.2"/>
<g filter="url(#filter3_i_2_35426)">
<ellipse cx="76.4706" cy="153.963" rx="40.7843" ry="6.80499" fill="#545953"/>
</g>
<g filter="url(#filter4_i_2_35426)">
<path fill-rule="evenodd" clip-rule="evenodd" d="M86.6603 159.464C84.2883 159.402 82.2381 159.238 80.5401 159.008C78.2225 159.569 74.9717 159.917 71.3725 159.917C67.854 159.917 64.6685 159.584 62.3622 159.045C61.6972 159.059 61.0177 159.066 60.3268 159.066C52.3493 159.066 45.8823 158.114 45.8823 156.94C45.8823 155.765 52.3493 154.813 60.3268 154.813C61.0177 154.813 61.6972 154.82 62.3622 154.834C64.6685 154.296 67.854 153.963 71.3725 153.963C75.6192 153.963 79.3807 154.448 81.6968 155.194C82.749 155.097 83.8925 155.017 85.1069 154.955C86.4294 154.346 88.3512 153.963 90.4902 153.963C92.5776 153.963 94.4582 154.328 95.7767 154.911C102.317 155.183 107.059 155.989 107.059 156.94C107.059 157.843 101.531 158.866 94.9231 159.29C93.6994 159.683 92.1611 159.917 90.4902 159.917C89.0834 159.917 87.7705 159.751 86.6603 159.464Z" fill="#51483A"/>
</g>
<path d="M116.255 153.963C116.255 153.996 116.236 154.199 115.794 154.559C115.365 154.909 114.672 155.291 113.683 155.681C111.715 156.458 108.809 157.177 105.145 157.788C97.8337 159.008 87.6953 159.768 76.4706 159.768C65.2459 159.768 55.1075 159.008 47.7963 157.788C44.1327 157.177 41.2261 156.458 39.2583 155.681C38.2694 155.291 37.5758 154.909 37.1468 154.559C36.7055 154.199 36.6863 153.996 36.6863 153.963C36.6863 153.929 36.7055 153.726 37.1468 153.366C37.5758 153.016 38.2694 152.634 39.2583 152.244C41.2261 151.468 44.1327 150.748 47.7963 150.137C55.1075 148.917 65.2459 148.158 76.4706 148.158C87.6953 148.158 97.8337 148.917 105.145 150.137C108.809 150.748 111.715 151.468 113.683 152.244C114.672 152.634 115.365 153.016 115.794 153.366C116.236 153.726 116.255 153.929 116.255 153.963Z" stroke="#8F9B8C" stroke-width="2"/>
<path fill-rule="evenodd" clip-rule="evenodd" d="M99.4118 203.299C116.405 201.598 117.255 190.376 117.255 187.988C117.255 191.746 98.9952 194.793 76.4706 194.793C53.946 194.793 35.6863 191.746 35.6863 187.988C35.6863 187.988 35.6863 187.988 35.6863 187.988C35.6863 190.242 36.536 201.598 53.5294 203.299C70.5229 205 82.4183 205 99.4118 203.299Z" fill="#5D675C"/>
<path fill-rule="evenodd" clip-rule="evenodd" d="M99.4118 203.299C116.405 201.598 117.255 190.376 117.255 187.988C117.255 191.746 98.9952 194.793 76.4706 194.793C53.946 194.793 35.6863 191.746 35.6863 187.988C35.6863 187.988 35.6863 187.988 35.6863 187.988C35.6863 190.242 36.536 201.598 53.5294 203.299C70.5229 205 82.4183 205 99.4118 203.299Z" fill="url(#paint1_linear_2_35426)" fill-opacity="0.2"/>
<path fill-rule="evenodd" clip-rule="evenodd" d="M115.409 187.982C115.411 187.984 115.413 187.986 115.415 187.988C115.397 188.004 115.376 188.021 115.353 188.04C115.004 188.325 114.386 188.675 113.427 189.054C111.526 189.803 108.675 190.513 105.03 191.121C97.7672 192.333 87.669 193.091 76.4706 193.091C65.2721 193.091 55.1739 192.333 47.9111 191.121C44.266 190.513 41.4152 189.803 39.5143 189.054C38.5554 188.675 37.9371 188.325 37.588 188.04C37.5653 188.021 37.5447 188.004 37.5259 187.988L37.5338 187.981C36.6913 187.255 37.6442 185.919 39.776 185.014C37.156 185.912 35.6863 186.921 35.6863 187.988C35.6863 191.746 53.946 194.793 76.4706 194.793C98.9952 194.793 117.255 191.746 117.255 187.988C117.255 186.922 115.787 185.914 113.17 185.016C115.301 185.921 116.254 187.257 115.409 187.982ZM115.593 187.797C115.593 187.797 115.592 187.8 115.588 187.807L115.591 187.801C115.592 187.799 115.593 187.797 115.593 187.797ZM37.3477 187.797C37.3477 187.797 37.3502 187.8 37.3534 187.807C37.349 187.801 37.3477 187.797 37.3477 187.797ZM37.3477 188.178C37.3477 188.178 37.349 188.175 37.3534 188.168C37.3502 188.175 37.3477 188.178 37.3477 188.178ZM115.588 188.168C115.592 188.175 115.593 188.178 115.593 188.178C115.593 188.178 115.591 188.175 115.588 188.168Z" fill="#889386"/>
<g clip-path="url(#clip0_2_35426)">
<g filter="url(#filter5_i_2_35426)">
<path d="M33.0835 36.5768C18.7208 81.4218 70.4001 145.227 85.3139 169.274H96.0131C90.1772 157.251 33.0835 36.5768 33.0835 36.5768Z" fill="url(#paint2_linear_2_35426)"/>
<path d="M33.0835 36.5768C18.7208 81.4218 70.4001 145.227 85.3139 169.274H96.0131C90.1772 157.251 33.0835 36.5768 33.0835 36.5768Z" fill="url(#paint3_linear_2_35426)" fill-opacity="0.24" style="mix-blend-mode:overlay"/>
<path d="M33.0835 36.5768C18.7208 81.4218 70.4001 145.227 85.3139 169.274H96.0131C90.1772 157.251 33.0835 36.5768 33.0835 36.5768Z" fill="url(#paint4_radial_2_35426)" fill-opacity="0.2"/>
<path d="M33.0835 36.5768C18.7208 81.4218 70.4001 145.227 85.3139 169.274H96.0131C90.1772 157.251 33.0835 36.5768 33.0835 36.5768Z" fill="url(#paint5_radial_2_35426)" fill-opacity="0.84" style="mix-blend-mode:overlay"/>
<path d="M33.0835 36.5768C18.7208 81.4218 70.4001 145.227 85.3139 169.274H96.0131C90.1772 157.251 33.0835 36.5768 33.0835 36.5768Z" fill="url(#paint6_linear_2_35426)" fill-opacity="0.56" style="mix-blend-mode:overlay"/>
</g>
<g filter="url(#filter6_i_2_35426)">
<path d="M125.374 90.667C121.763 112.254 97.5858 153.619 83.0568 169.817L79.0343 167.332C86.2074 156.514 92.3711 128.153 94.4757 122.772C97.1066 116.047 93.4751 101.459 94.7222 92.063C95.7199 84.5463 115.249 55.4861 123.249 45.7842C124.059 44.4694 125.809 47.3656 125.809 47.3656C129.715 54.1356 129.889 63.6833 125.374 90.667Z" fill="url(#paint7_linear_2_35426)"/>
<path d="M125.374 90.667C121.763 112.254 97.5858 153.619 83.0568 169.817L79.0343 167.332C86.2074 156.514 92.3711 128.153 94.4757 122.772C97.1066 116.047 93.4751 101.459 94.7222 92.063C95.7199 84.5463 115.249 55.4861 123.249 45.7842C124.059 44.4694 125.809 47.3656 125.809 47.3656C129.715 54.1356 129.889 63.6833 125.374 90.667Z" fill="url(#paint8_linear_2_35426)" fill-opacity="0.24" style="mix-blend-mode:overlay"/>
<path d="M125.374 90.667C121.763 112.254 97.5858 153.619 83.0568 169.817L79.0343 167.332C86.2074 156.514 92.3711 128.153 94.4757 122.772C97.1066 116.047 93.4751 101.459 94.7222 92.063C95.7199 84.5463 115.249 55.4861 123.249 45.7842C124.059 44.4694 125.809 47.3656 125.809 47.3656C129.715 54.1356 129.889 63.6833 125.374 90.667Z" fill="url(#paint9_radial_2_35426)" fill-opacity="0.2"/>
<path d="M125.374 90.667C121.763 112.254 97.5858 153.619 83.0568 169.817L79.0343 167.332C86.2074 156.514 92.3711 128.153 94.4757 122.772C97.1066 116.047 93.4751 101.459 94.7222 92.063C95.7199 84.5463 115.249 55.4861 123.249 45.7842C124.059 44.4694 125.809 47.3656 125.809 47.3656C129.715 54.1356 129.889 63.6833 125.374 90.667Z" fill="url(#paint10_radial_2_35426)" fill-opacity="0.84" style="mix-blend-mode:overlay"/>
<path d="M125.374 90.667C121.763 112.254 97.5858 153.619 83.0568 169.817L79.0343 167.332C86.2074 156.514 92.3711 128.153 94.4757 122.772C97.1066 116.047 93.4751 101.459 94.7222 92.063C95.7199 84.5463 115.249 55.4861 123.249 45.7842C124.059 44.4694 125.809 47.3656 125.809 47.3656C129.715 54.1356 129.889 63.6833 125.374 90.667Z" fill="url(#paint11_linear_2_35426)" fill-opacity="0.56" style="mix-blend-mode:overlay"/>
</g>
<g filter="url(#filter7_i_2_35426)">
<path d="M81.6799 50.0583C73.4643 76.9259 78.6851 140.027 82.5362 168.423H87.243C86.8151 151.221 90.0666 115.343 91.0936 107.807C92.3773 98.3872 103.075 84.4619 106.926 72.994C110.007 63.8197 108.637 17.4294 106.926 0.910171C106.926 -1.13769 103.93 0.910138 103.93 0.910138C97.0841 5.82495 91.9494 16.4737 81.6799 50.0583Z" fill="url(#paint12_linear_2_35426)"/>
<path d="M81.6799 50.0583C73.4643 76.9259 78.6851 140.027 82.5362 168.423H87.243C86.8151 151.221 90.0666 115.343 91.0936 107.807C92.3773 98.3872 103.075 84.4619 106.926 72.994C110.007 63.8197 108.637 17.4294 106.926 0.910171C106.926 -1.13769 103.93 0.910138 103.93 0.910138C97.0841 5.82495 91.9494 16.4737 81.6799 50.0583Z" fill="url(#paint13_linear_2_35426)" fill-opacity="0.24" style="mix-blend-mode:overlay"/>
<path d="M81.6799 50.0583C73.4643 76.9259 78.6851 140.027 82.5362 168.423H87.243C86.8151 151.221 90.0666 115.343 91.0936 107.807C92.3773 98.3872 103.075 84.4619 106.926 72.994C110.007 63.8197 108.637 17.4294 106.926 0.910171C106.926 -1.13769 103.93 0.910138 103.93 0.910138C97.0841 5.82495 91.9494 16.4737 81.6799 50.0583Z" fill="url(#paint14_radial_2_35426)" fill-opacity="0.2"/>
<path d="M81.6799 50.0583C73.4643 76.9259 78.6851 140.027 82.5362 168.423H87.243C86.8151 151.221 90.0666 115.343 91.0936 107.807C92.3773 98.3872 103.075 84.4619 106.926 72.994C110.007 63.8197 108.637 17.4294 106.926 0.910171C106.926 -1.13769 103.93 0.910138 103.93 0.910138C97.0841 5.82495 91.9494 16.4737 81.6799 50.0583Z" fill="url(#paint15_radial_2_35426)" fill-opacity="0.84" style="mix-blend-mode:overlay"/>
<path d="M81.6799 50.0583C73.4643 76.9259 78.6851 140.027 82.5362 168.423H87.243C86.8151 151.221 90.0666 115.343 91.0936 107.807C92.3773 98.3872 103.075 84.4619 106.926 72.994C110.007 63.8197 108.637 17.4294 106.926 0.910171C106.926 -1.13769 103.93 0.910138 103.93 0.910138C97.0841 5.82495 91.9494 16.4737 81.6799 50.0583Z" fill="url(#paint16_linear_2_35426)" fill-opacity="0.56" style="mix-blend-mode:overlay"/>
</g>
<g filter="url(#filter8_i_2_35426)">
<path d="M92.7205 75.3225C86.1858 96.575 85.2958 146.812 88.3589 169.274H92.1028C91.3908 140.809 105.906 118.052 110.419 95.5652C114.932 73.078 114.163 49.5129 112.801 36.4461C112.801 34.8262 110.419 36.4461 110.419 36.4461C104.973 40.3337 100.889 48.757 92.7205 75.3225Z" fill="url(#paint17_linear_2_35426)"/>
<path d="M92.7205 75.3225C86.1858 96.575 85.2958 146.812 88.3589 169.274H92.1028C91.3908 140.809 105.906 118.052 110.419 95.5652C114.932 73.078 114.163 49.5129 112.801 36.4461C112.801 34.8262 110.419 36.4461 110.419 36.4461C104.973 40.3337 100.889 48.757 92.7205 75.3225Z" fill="url(#paint18_linear_2_35426)" fill-opacity="0.24" style="mix-blend-mode:overlay"/>
<path d="M92.7205 75.3225C86.1858 96.575 85.2958 146.812 88.3589 169.274H92.1028C91.3908 140.809 105.906 118.052 110.419 95.5652C114.932 73.078 114.163 49.5129 112.801 36.4461C112.801 34.8262 110.419 36.4461 110.419 36.4461C104.973 40.3337 100.889 48.757 92.7205 75.3225Z" fill="url(#paint19_radial_2_35426)" fill-opacity="0.2"/>
<path d="M92.7205 75.3225C86.1858 96.575 85.2958 146.812 88.3589 169.274H92.1028C91.3908 140.809 105.906 118.052 110.419 95.5652C114.932 73.078 114.163 49.5129 112.801 36.4461C112.801 34.8262 110.419 36.4461 110.419 36.4461C104.973 40.3337 100.889 48.757 92.7205 75.3225Z" fill="url(#paint20_radial_2_35426)" fill-opacity="0.84" style="mix-blend-mode:overlay"/>
<path d="M92.7205 75.3225C86.1858 96.575 85.2958 146.812 88.3589 169.274H92.1028C91.3908 140.809 105.906 118.052 110.419 95.5652C114.932 73.078 114.163 49.5129 112.801 36.4461C112.801 34.8262 110.419 36.4461 110.419 36.4461C104.973 40.3337 100.889 48.757 92.7205 75.3225Z" fill="url(#paint21_linear_2_35426)" fill-opacity="0.56" style="mix-blend-mode:overlay"/>
</g>
<g filter="url(#filter9_i_2_35426)">
<path d="M79.0843 69.368C86.0827 92.5683 78.0374 145.756 72.9174 169.613L68.2172 169.363C69.4165 154.811 67.7796 124.239 67.0923 117.799C66.2331 109.75 56.1756 97.384 52.8446 87.4632C50.1798 79.5265 53.6289 40.2928 56.0794 26.3869C56.1714 24.6517 59.0705 26.5456 59.0705 26.5456C65.6867 31.0728 70.3364 40.3677 79.0843 69.368Z" fill="url(#paint22_linear_2_35426)"/>
<path d="M79.0843 69.368C86.0827 92.5683 78.0374 145.756 72.9174 169.613L68.2172 169.363C69.4165 154.811 67.7796 124.239 67.0923 117.799C66.2331 109.75 56.1756 97.384 52.8446 87.4632C50.1798 79.5265 53.6289 40.2928 56.0794 26.3869C56.1714 24.6517 59.0705 26.5456 59.0705 26.5456C65.6867 31.0728 70.3364 40.3677 79.0843 69.368Z" fill="url(#paint23_linear_2_35426)" fill-opacity="0.24" style="mix-blend-mode:overlay"/>
<path d="M79.0843 69.368C86.0827 92.5683 78.0374 145.756 72.9174 169.613L68.2172 169.363C69.4165 154.811 67.7796 124.239 67.0923 117.799C66.2331 109.75 56.1756 97.384 52.8446 87.4632C50.1798 79.5265 53.6289 40.2928 56.0794 26.3869C56.1714 24.6517 59.0705 26.5456 59.0705 26.5456C65.6867 31.0728 70.3364 40.3677 79.0843 69.368Z" fill="url(#paint24_radial_2_35426)" fill-opacity="0.2"/>
<path d="M79.0843 69.368C86.0827 92.5683 78.0374 145.756 72.9174 169.613L68.2172 169.363C69.4165 154.811 67.7796 124.239 67.0923 117.799C66.2331 109.75 56.1756 97.384 52.8446 87.4632C50.1798 79.5265 53.6289 40.2928 56.0794 26.3869C56.1714 24.6517 59.0705 26.5456 59.0705 26.5456C65.6867 31.0728 70.3364 40.3677 79.0843 69.368Z" fill="url(#paint25_radial_2_35426)" fill-opacity="0.84" style="mix-blend-mode:overlay"/>
<path d="M79.0843 69.368C86.0827 92.5683 78.0374 145.756 72.9174 169.613L68.2172 169.363C69.4165 154.811 67.7796 124.239 67.0923 117.799C66.2331 109.75 56.1756 97.384 52.8446 87.4632C50.1798 79.5265 53.6289 40.2928 56.0794 26.3869C56.1714 24.6517 59.0705 26.5456 59.0705 26.5456C65.6867 31.0728 70.3364 40.3677 79.0843 69.368Z" fill="url(#paint26_linear_2_35426)" fill-opacity="0.56" style="mix-blend-mode:overlay"/>
</g>
<g filter="url(#filter10_i_2_35426)">
<path d="M55.3615 87.2154C63.5713 102.015 74.4209 153.632 70.5726 169.274H65.8691C66.2967 159.798 63.1501 148.026 62.1238 143.875C57.1972 123.946 29.2019 93.5323 25.3535 87.2154C22.2749 82.1618 3.49755 53.8331 5.20792 44.7337C5.20792 43.6057 8.20108 44.7337 8.20108 44.7337C15.0426 47.441 45.0992 68.7157 55.3615 87.2154Z" fill="url(#paint27_linear_2_35426)"/>
<path d="M55.3615 87.2154C63.5713 102.015 74.4209 153.632 70.5726 169.274H65.8691C66.2967 159.798 63.1501 148.026 62.1238 143.875C57.1972 123.946 29.2019 93.5323 25.3535 87.2154C22.2749 82.1618 3.49755 53.8331 5.20792 44.7337C5.20792 43.6057 8.20108 44.7337 8.20108 44.7337C15.0426 47.441 45.0992 68.7157 55.3615 87.2154Z" fill="url(#paint28_linear_2_35426)" fill-opacity="0.24" style="mix-blend-mode:overlay"/>
<path d="M55.3615 87.2154C63.5713 102.015 74.4209 153.632 70.5726 169.274H65.8691C66.2967 159.798 63.1501 148.026 62.1238 143.875C57.1972 123.946 29.2019 93.5323 25.3535 87.2154C22.2749 82.1618 3.49755 53.8331 5.20792 44.7337C5.20792 43.6057 8.20108 44.7337 8.20108 44.7337C15.0426 47.441 45.0992 68.7157 55.3615 87.2154Z" fill="url(#paint29_radial_2_35426)" fill-opacity="0.2"/>
<path d="M55.3615 87.2154C63.5713 102.015 74.4209 153.632 70.5726 169.274H65.8691C66.2967 159.798 63.1501 148.026 62.1238 143.875C57.1972 123.946 29.2019 93.5323 25.3535 87.2154C22.2749 82.1618 3.49755 53.8331 5.20792 44.7337C5.20792 43.6057 8.20108 44.7337 8.20108 44.7337C15.0426 47.441 45.0992 68.7157 55.3615 87.2154Z" fill="url(#paint30_radial_2_35426)" fill-opacity="0.84" style="mix-blend-mode:overlay"/>
<path d="M55.3615 87.2154C63.5713 102.015 74.4209 153.632 70.5726 169.274H65.8691C66.2967 159.798 63.1501 148.026 62.1238 143.875C57.1972 123.946 29.2019 93.5323 25.3535 87.2154C22.2749 82.1618 3.49755 53.8331 5.20792 44.7337C5.20792 43.6057 8.20108 44.7337 8.20108 44.7337C15.0426 47.441 45.0992 68.7157 55.3615 87.2154Z" fill="url(#paint31_linear_2_35426)" fill-opacity="0.56" style="mix-blend-mode:overlay"/>
</g>
<g filter="url(#filter11_i_2_35426)">
<path d="M50.2635 111.777C58.4733 122.147 69.3229 158.314 65.4746 169.274H60.7711C61.1987 162.635 58.0521 154.386 57.0258 151.477C52.0992 137.514 24.1039 116.203 20.2555 111.777C17.1768 108.236 -1.60047 88.3868 0.109901 82.0111C0.109901 81.2207 3.10306 82.011 3.10306 82.011C9.94457 83.908 40.0012 98.8148 50.2635 111.777Z" fill="url(#paint32_linear_2_35426)"/>
<path d="M50.2635 111.777C58.4733 122.147 69.3229 158.314 65.4746 169.274H60.7711C61.1987 162.635 58.0521 154.386 57.0258 151.477C52.0992 137.514 24.1039 116.203 20.2555 111.777C17.1768 108.236 -1.60047 88.3868 0.109901 82.0111C0.109901 81.2207 3.10306 82.011 3.10306 82.011C9.94457 83.908 40.0012 98.8148 50.2635 111.777Z" fill="url(#paint33_linear_2_35426)" fill-opacity="0.24" style="mix-blend-mode:overlay"/>
<path d="M50.2635 111.777C58.4733 122.147 69.3229 158.314 65.4746 169.274H60.7711C61.1987 162.635 58.0521 154.386 57.0258 151.477C52.0992 137.514 24.1039 116.203 20.2555 111.777C17.1768 108.236 -1.60047 88.3868 0.109901 82.0111C0.109901 81.2207 3.10306 82.011 3.10306 82.011C9.94457 83.908 40.0012 98.8148 50.2635 111.777Z" fill="url(#paint34_radial_2_35426)" fill-opacity="0.2"/>
<path d="M50.2635 111.777C58.4733 122.147 69.3229 158.314 65.4746 169.274H60.7711C61.1987 162.635 58.0521 154.386 57.0258 151.477C52.0992 137.514 24.1039 116.203 20.2555 111.777C17.1768 108.236 -1.60047 88.3868 0.109901 82.0111C0.109901 81.2207 3.10306 82.011 3.10306 82.011C9.94457 83.908 40.0012 98.8148 50.2635 111.777Z" fill="url(#paint35_radial_2_35426)" fill-opacity="0.84" style="mix-blend-mode:overlay"/>
<path d="M50.2635 111.777C58.4733 122.147 69.3229 158.314 65.4746 169.274H60.7711C61.1987 162.635 58.0521 154.386 57.0258 151.477C52.0992 137.514 24.1039 116.203 20.2555 111.777C17.1768 108.236 -1.60047 88.3868 0.109901 82.0111C0.109901 81.2207 3.10306 82.011 3.10306 82.011C9.94457 83.908 40.0012 98.8148 50.2635 111.777Z" fill="url(#paint36_linear_2_35426)" fill-opacity="0.56" style="mix-blend-mode:overlay"/>
</g>
<g filter="url(#filter12_i_2_35426)">
<path d="M67.9539 62.514C72.5304 81.6555 71.8613 148.415 69.7161 168.646H65.4148C65.6532 156.39 65.5784 141.164 65.0063 135.795C62.26 110.021 53.3713 70.6841 51.226 62.514C49.5098 55.9779 39.0425 19.3386 39.9959 7.56972C39.9959 6.11075 41.6644 7.56969 41.6644 7.56969C45.4782 11.0712 62.2332 38.5872 67.9539 62.514Z" fill="url(#paint37_linear_2_35426)"/>
<path d="M67.9539 62.514C72.5304 81.6555 71.8613 148.415 69.7161 168.646H65.4148C65.6532 156.39 65.5784 141.164 65.0063 135.795C62.26 110.021 53.3713 70.6841 51.226 62.514C49.5098 55.9779 39.0425 19.3386 39.9959 7.56972C39.9959 6.11075 41.6644 7.56969 41.6644 7.56969C45.4782 11.0712 62.2332 38.5872 67.9539 62.514Z" fill="url(#paint38_linear_2_35426)" fill-opacity="0.24" style="mix-blend-mode:overlay"/>
<path d="M67.9539 62.514C72.5304 81.6555 71.8613 148.415 69.7161 168.646H65.4148C65.6532 156.39 65.5784 141.164 65.0063 135.795C62.26 110.021 53.3713 70.6841 51.226 62.514C49.5098 55.9779 39.0425 19.3386 39.9959 7.56972C39.9959 6.11075 41.6644 7.56969 41.6644 7.56969C45.4782 11.0712 62.2332 38.5872 67.9539 62.514Z" fill="url(#paint39_radial_2_35426)" fill-opacity="0.2"/>
<path d="M67.9539 62.514C72.5304 81.6555 71.8613 148.415 69.7161 168.646H65.4148C65.6532 156.39 65.5784 141.164 65.0063 135.795C62.26 110.021 53.3713 70.6841 51.226 62.514C49.5098 55.9779 39.0425 19.3386 39.9959 7.56972C39.9959 6.11075 41.6644 7.56969 41.6644 7.56969C45.4782 11.0712 62.2332 38.5872 67.9539 62.514Z" fill="url(#paint40_radial_2_35426)" fill-opacity="0.84" style="mix-blend-mode:overlay"/>
<path d="M67.9539 62.514C72.5304 81.6555 71.8613 148.415 69.7161 168.646H65.4148C65.6532 156.39 65.5784 141.164 65.0063 135.795C62.26 110.021 53.3713 70.6841 51.226 62.514C49.5098 55.9779 39.0425 19.3386 39.9959 7.56972C39.9959 6.11075 41.6644 7.56969 41.6644 7.56969C45.4782 11.0712 62.2332 38.5872 67.9539 62.514Z" fill="url(#paint41_linear_2_35426)" fill-opacity="0.56" style="mix-blend-mode:overlay"/>
</g>
<g filter="url(#filter13_i_2_35426)">
<path d="M92.5542 102.829C86.1164 115.705 81.9658 152.491 80.6952 169.274H73.0719C73.3543 159.782 74.1731 138.074 75.1896 127.178C76.4602 113.559 74.3425 59.0827 74.3425 48.3525C74.3425 39.7683 80.272 23.3153 83.2368 16.1618C84.7896 16.1618 89.7588 21.6095 97.2131 43.4001C106.531 70.6384 100.601 86.7337 92.5542 102.829Z" fill="url(#paint42_linear_2_35426)"/>
<path d="M92.5542 102.829C86.1164 115.705 81.9658 152.491 80.6952 169.274H73.0719C73.3543 159.782 74.1731 138.074 75.1896 127.178C76.4602 113.559 74.3425 59.0827 74.3425 48.3525C74.3425 39.7683 80.272 23.3153 83.2368 16.1618C84.7896 16.1618 89.7588 21.6095 97.2131 43.4001C106.531 70.6384 100.601 86.7337 92.5542 102.829Z" fill="url(#paint43_linear_2_35426)" fill-opacity="0.24" style="mix-blend-mode:overlay"/>
<path d="M92.5542 102.829C86.1164 115.705 81.9658 152.491 80.6952 169.274H73.0719C73.3543 159.782 74.1731 138.074 75.1896 127.178C76.4602 113.559 74.3425 59.0827 74.3425 48.3525C74.3425 39.7683 80.272 23.3153 83.2368 16.1618C84.7896 16.1618 89.7588 21.6095 97.2131 43.4001C106.531 70.6384 100.601 86.7337 92.5542 102.829Z" fill="url(#paint44_radial_2_35426)" fill-opacity="0.2"/>
<path d="M92.5542 102.829C86.1164 115.705 81.9658 152.491 80.6952 169.274H73.0719C73.3543 159.782 74.1731 138.074 75.1896 127.178C76.4602 113.559 74.3425 59.0827 74.3425 48.3525C74.3425 39.7683 80.272 23.3153 83.2368 16.1618C84.7896 16.1618 89.7588 21.6095 97.2131 43.4001C106.531 70.6384 100.601 86.7337 92.5542 102.829Z" fill="url(#paint45_radial_2_35426)" fill-opacity="0.84" style="mix-blend-mode:overlay"/>
<path d="M92.5542 102.829C86.1164 115.705 81.9658 152.491 80.6952 169.274H73.0719C73.3543 159.782 74.1731 138.074 75.1896 127.178C76.4602 113.559 74.3425 59.0827 74.3425 48.3525C74.3425 39.7683 80.272 23.3153 83.2368 16.1618C84.7896 16.1618 89.7588 21.6095 97.2131 43.4001C106.531 70.6384 100.601 86.7337 92.5542 102.829Z" fill="url(#paint46_linear_2_35426)" fill-opacity="0.56" style="mix-blend-mode:overlay"/>
</g>
<g filter="url(#filter14_i_2_35426)">
<path d="M93.484 115.392C88.9075 124.957 89.5766 158.314 91.7218 168.423H96.0231C95.7847 162.3 95.8595 154.692 96.4315 152.009C99.1779 139.13 108.067 119.475 110.212 115.392C111.928 112.126 122.395 93.8187 121.442 87.9381C121.442 87.2091 119.773 87.9381 119.773 87.9381C115.96 89.6877 99.2047 103.437 93.484 115.392Z" fill="url(#paint47_linear_2_35426)"/>
<path d="M93.484 115.392C88.9075 124.957 89.5766 158.314 91.7218 168.423H96.0231C95.7847 162.3 95.8595 154.692 96.4315 152.009C99.1779 139.13 108.067 119.475 110.212 115.392C111.928 112.126 122.395 93.8187 121.442 87.9381C121.442 87.2091 119.773 87.9381 119.773 87.9381C115.96 89.6877 99.2047 103.437 93.484 115.392Z" fill="url(#paint48_linear_2_35426)" fill-opacity="0.24" style="mix-blend-mode:overlay"/>
<path d="M93.484 115.392C88.9075 124.957 89.5766 158.314 91.7218 168.423H96.0231C95.7847 162.3 95.8595 154.692 96.4315 152.009C99.1779 139.13 108.067 119.475 110.212 115.392C111.928 112.126 122.395 93.8187 121.442 87.9381C121.442 87.2091 119.773 87.9381 119.773 87.9381C115.96 89.6877 99.2047 103.437 93.484 115.392Z" fill="url(#paint49_radial_2_35426)" fill-opacity="0.2"/>
<path d="M93.484 115.392C88.9075 124.957 89.5766 158.314 91.7218 168.423H96.0231C95.7847 162.3 95.8595 154.692 96.4315 152.009C99.1779 139.13 108.067 119.475 110.212 115.392C111.928 112.126 122.395 93.8187 121.442 87.9381C121.442 87.2091 119.773 87.9381 119.773 87.9381C115.96 89.6877 99.2047 103.437 93.484 115.392Z" fill="url(#paint50_radial_2_35426)" fill-opacity="0.84" style="mix-blend-mode:overlay"/>
<path d="M93.484 115.392C88.9075 124.957 89.5766 158.314 91.7218 168.423H96.0231C95.7847 162.3 95.8595 154.692 96.4315 152.009C99.1779 139.13 108.067 119.475 110.212 115.392C111.928 112.126 122.395 93.8187 121.442 87.9381C121.442 87.2091 119.773 87.9381 119.773 87.9381C115.96 89.6877 99.2047 103.437 93.484 115.392Z" fill="url(#paint51_linear_2_35426)" fill-opacity="0.56" style="mix-blend-mode:overlay"/>
</g>
<g filter="url(#filter15_i_2_35426)">
<path d="M64.6354 114.529C71.0731 124.973 75.2238 154.81 76.4944 168.423H84.1177C83.8353 160.724 83.0165 143.116 82 134.279C80.7294 123.233 82.847 79.046 82.847 70.3426C82.847 63.3799 76.9176 50.0347 73.9528 44.2324C72.4 44.2324 67.4307 48.651 59.9765 66.3256C50.6587 88.4189 56.5882 101.474 64.6354 114.529Z" fill="url(#paint52_linear_2_35426)"/>
<path d="M64.6354 114.529C71.0731 124.973 75.2238 154.81 76.4944 168.423H84.1177C83.8353 160.724 83.0165 143.116 82 134.279C80.7294 123.233 82.847 79.046 82.847 70.3426C82.847 63.3799 76.9176 50.0347 73.9528 44.2324C72.4 44.2324 67.4307 48.651 59.9765 66.3256C50.6587 88.4189 56.5882 101.474 64.6354 114.529Z" fill="url(#paint53_linear_2_35426)" fill-opacity="0.24" style="mix-blend-mode:overlay"/>
<path d="M64.6354 114.529C71.0731 124.973 75.2238 154.81 76.4944 168.423H84.1177C83.8353 160.724 83.0165 143.116 82 134.279C80.7294 123.233 82.847 79.046 82.847 70.3426C82.847 63.3799 76.9176 50.0347 73.9528 44.2324C72.4 44.2324 67.4307 48.651 59.9765 66.3256C50.6587 88.4189 56.5882 101.474 64.6354 114.529Z" fill="url(#paint54_radial_2_35426)" fill-opacity="0.2"/>
<path d="M64.6354 114.529C71.0731 124.973 75.2238 154.81 76.4944 168.423H84.1177C83.8353 160.724 83.0165 143.116 82 134.279C80.7294 123.233 82.847 79.046 82.847 70.3426C82.847 63.3799 76.9176 50.0347 73.9528 44.2324C72.4 44.2324 67.4307 48.651 59.9765 66.3256C50.6587 88.4189 56.5882 101.474 64.6354 114.529Z" fill="url(#paint55_radial_2_35426)" fill-opacity="0.84" style="mix-blend-mode:overlay"/>
<path d="M64.6354 114.529C71.0731 124.973 75.2238 154.81 76.4944 168.423H84.1177C83.8353 160.724 83.0165 143.116 82 134.279C80.7294 123.233 82.847 79.046 82.847 70.3426C82.847 63.3799 76.9176 50.0347 73.9528 44.2324C72.4 44.2324 67.4307 48.651 59.9765 66.3256C50.6587 88.4189 56.5882 101.474 64.6354 114.529Z" fill="url(#paint56_linear_2_35426)" fill-opacity="0.56" style="mix-blend-mode:overlay"/>
</g>
</g>
<path fill-rule="evenodd" clip-rule="evenodd" d="M115.409 153.957C115.411 153.959 115.413 153.961 115.415 153.963C115.397 153.979 115.376 153.997 115.353 154.015C115.004 154.3 114.386 154.65 113.427 155.029C111.526 155.779 108.675 156.488 105.03 157.096C97.7672 158.308 87.669 159.066 76.4706 159.066C65.2721 159.066 55.1739 158.308 47.9111 157.096C44.266 156.488 41.4152 155.779 39.5143 155.029C38.5554 154.65 37.9371 154.3 37.588 154.015C37.5653 153.997 37.5447 153.979 37.5259 153.963L37.5338 153.956C36.6913 153.23 37.6442 151.894 39.776 150.989C37.156 151.887 35.6863 152.896 35.6863 153.963C35.6863 157.721 53.946 160.768 76.4706 160.768C98.9952 160.768 117.255 157.721 117.255 153.963C117.255 152.897 115.787 151.889 113.17 150.991C115.301 151.896 116.254 153.232 115.409 153.957ZM115.593 153.772C115.593 153.772 115.592 153.776 115.588 153.782L115.591 153.777C115.592 153.774 115.593 153.772 115.593 153.772ZM37.3477 153.772C37.3477 153.772 37.3502 153.776 37.3534 153.782C37.349 153.776 37.3477 153.772 37.3477 153.772ZM37.3477 154.153C37.3477 154.153 37.349 154.15 37.3534 154.143C37.3502 154.15 37.3477 154.153 37.3477 154.153ZM115.588 154.143C115.592 154.15 115.593 154.153 115.593 154.153C115.593 154.153 115.591 154.15 115.588 154.143Z" fill="#B6C1B3"/>
<defs>
<filter id="filter0_f_2_35426" x="32.7843" y="183.39" width="87.3726" height="29.61" filterUnits="userSpaceOnUse" color-interpolation-filters="sRGB">
<feFlood flood-opacity="0" result="BackgroundImageFix"/>
<feBlend mode="normal" in="SourceGraphic" in2="BackgroundImageFix" result="shape"/>
<feGaussianBlur stdDeviation="4" result="effect1_foregroundBlur_2_35426"/>
</filter>
<filter id="filter1_i_2_35426" x="35.6863" y="181.183" width="81.5686" height="17.61" filterUnits="userSpaceOnUse" color-interpolation-filters="sRGB">
<feFlood flood-opacity="0" result="BackgroundImageFix"/>
<feBlend mode="normal" in="SourceGraphic" in2="BackgroundImageFix" result="shape"/>
<feColorMatrix in="SourceAlpha" type="matrix" values="0 0 0 0 0 0 0 0 0 0 0 0 0 0 0 0 0 0 127 0" result="hardAlpha"/>
<feOffset dy="4"/>
<feGaussianBlur stdDeviation="2"/>
<feComposite in2="hardAlpha" operator="arithmetic" k2="-1" k3="1"/>
<feColorMatrix type="matrix" values="0 0 0 0 0 0 0 0 0 0 0 0 0 0 0 0 0 0 0.25 0"/>
<feBlend mode="normal" in2="shape" result="effect1_innerShadow_2_35426"/>
</filter>
<filter id="filter2_f_2_35426" x="38.7321" y="179.137" width="74.6274" height="27.9087" filterUnits="userSpaceOnUse" color-interpolation-filters="sRGB">
<feFlood flood-opacity="0" result="BackgroundImageFix"/>
<feBlend mode="normal" in="SourceGraphic" in2="BackgroundImageFix" result="shape"/>
<feGaussianBlur stdDeviation="4" result="effect1_foregroundBlur_2_35426"/>
</filter>
<filter id="filter3_i_2_35426" x="35.6863" y="147.158" width="81.5686" height="17.61" filterUnits="userSpaceOnUse" color-interpolation-filters="sRGB">
<feFlood flood-opacity="0" result="BackgroundImageFix"/>
<feBlend mode="normal" in="SourceGraphic" in2="BackgroundImageFix" result="shape"/>
<feColorMatrix in="SourceAlpha" type="matrix" values="0 0 0 0 0 0 0 0 0 0 0 0 0 0 0 0 0 0 127 0" result="hardAlpha"/>
<feOffset dy="4"/>
<feGaussianBlur stdDeviation="2"/>
<feComposite in2="hardAlpha" operator="arithmetic" k2="-1" k3="1"/>
<feColorMatrix type="matrix" values="0 0 0 0 0 0 0 0 0 0 0 0 0 0 0 0 0 0 0.25 0"/>
<feBlend mode="normal" in2="shape" result="effect1_innerShadow_2_35426"/>
</filter>
<filter id="filter4_i_2_35426" x="45.8823" y="151.963" width="61.1765" height="7.95435" filterUnits="userSpaceOnUse" color-interpolation-filters="sRGB">
<feFlood flood-opacity="0" result="BackgroundImageFix"/>
<feBlend mode="normal" in="SourceGraphic" in2="BackgroundImageFix" result="shape"/>
<feColorMatrix in="SourceAlpha" type="matrix" values="0 0 0 0 0 0 0 0 0 0 0 0 0 0 0 0 0 0 127 0" result="hardAlpha"/>
<feOffset dy="-2"/>
<feGaussianBlur stdDeviation="2"/>
<feComposite in2="hardAlpha" operator="arithmetic" k2="-1" k3="1"/>
<feColorMatrix type="matrix" values="0 0 0 0 0 0 0 0 0 0 0 0 0 0 0 0 0 0 0.32 0"/>
<feBlend mode="normal" in2="shape" result="effect1_innerShadow_2_35426"/>
</filter>
<filter id="filter5_i_2_35426" x="26.5883" y="36.5768" width="69.4248" height="140.697" filterUnits="userSpaceOnUse" color-interpolation-filters="sRGB">
<feFlood flood-opacity="0" result="BackgroundImageFix"/>
<feBlend mode="normal" in="SourceGraphic" in2="BackgroundImageFix" result="shape"/>
<feColorMatrix in="SourceAlpha" type="matrix" values="0 0 0 0 0 0 0 0 0 0 0 0 0 0 0 0 0 0 127 0" result="hardAlpha"/>
<feOffset dx="-4" dy="8"/>
<feGaussianBlur stdDeviation="6"/>
<feComposite in2="hardAlpha" operator="arithmetic" k2="-1" k3="1"/>
<feColorMatrix type="matrix" values="0 0 0 0 0.784314 0 0 0 0 0.835294 0 0 0 0 0.521569 0 0 0 1 0"/>
<feBlend mode="normal" in2="shape" result="effect1_innerShadow_2_35426"/>
</filter>
<filter id="filter6_i_2_35426" x="75.0343" y="45.4419" width="53.7156" height="132.375" filterUnits="userSpaceOnUse" color-interpolation-filters="sRGB">
<feFlood flood-opacity="0" result="BackgroundImageFix"/>
<feBlend mode="normal" in="SourceGraphic" in2="BackgroundImageFix" result="shape"/>
<feColorMatrix in="SourceAlpha" type="matrix" values="0 0 0 0 0 0 0 0 0 0 0 0 0 0 0 0 0 0 127 0" result="hardAlpha"/>
<feOffset dx="-4" dy="8"/>
<feGaussianBlur stdDeviation="6"/>
<feComposite in2="hardAlpha" operator="arithmetic" k2="-1" k3="1"/>
<feColorMatrix type="matrix" values="0 0 0 0 0.784314 0 0 0 0 0.835294 0 0 0 0 0.521569 0 0 0 1 0"/>
<feBlend mode="normal" in2="shape" result="effect1_innerShadow_2_35426"/>
</filter>
<filter id="filter7_i_2_35426" x="73.3203" y="0" width="35.4379" height="176.423" filterUnits="userSpaceOnUse" color-interpolation-filters="sRGB">
<feFlood flood-opacity="0" result="BackgroundImageFix"/>
<feBlend mode="normal" in="SourceGraphic" in2="BackgroundImageFix" result="shape"/>
<feColorMatrix in="SourceAlpha" type="matrix" values="0 0 0 0 0 0 0 0 0 0 0 0 0 0 0 0 0 0 127 0" result="hardAlpha"/>
<feOffset dx="-4" dy="8"/>
<feGaussianBlur stdDeviation="6"/>
<feComposite in2="hardAlpha" operator="arithmetic" k2="-1" k3="1"/>
<feColorMatrix type="matrix" values="0 0 0 0 0.784314 0 0 0 0 0.835294 0 0 0 0 0.521569 0 0 0 1 0"/>
<feBlend mode="normal" in2="shape" result="effect1_innerShadow_2_35426"/>
</filter>
<filter id="filter8_i_2_35426" x="82.6666" y="35.7262" width="31.1896" height="141.548" filterUnits="userSpaceOnUse" color-interpolation-filters="sRGB">
<feFlood flood-opacity="0" result="BackgroundImageFix"/>
<feBlend mode="normal" in="SourceGraphic" in2="BackgroundImageFix" result="shape"/>
<feColorMatrix in="SourceAlpha" type="matrix" values="0 0 0 0 0 0 0 0 0 0 0 0 0 0 0 0 0 0 127 0" result="hardAlpha"/>
<feOffset dx="-4" dy="8"/>
<feGaussianBlur stdDeviation="6"/>
<feComposite in2="hardAlpha" operator="arithmetic" k2="-1" k3="1"/>
<feColorMatrix type="matrix" values="0 0 0 0 0.784314 0 0 0 0 0.835294 0 0 0 0 0.521569 0 0 0 1 0"/>
<feBlend mode="normal" in2="shape" result="effect1_innerShadow_2_35426"/>
</filter>
<filter id="filter9_i_2_35426" x="47.8807" y="25.6548" width="33.9385" height="151.958" filterUnits="userSpaceOnUse" color-interpolation-filters="sRGB">
<feFlood flood-opacity="0" result="BackgroundImageFix"/>
<feBlend mode="normal" in="SourceGraphic" in2="BackgroundImageFix" result="shape"/>
<feColorMatrix in="SourceAlpha" type="matrix" values="0 0 0 0 0 0 0 0 0 0 0 0 0 0 0 0 0 0 127 0" result="hardAlpha"/>
<feOffset dx="-4" dy="8"/>
<feGaussianBlur stdDeviation="6"/>
<feComposite in2="hardAlpha" operator="arithmetic" k2="-1" k3="1"/>
<feColorMatrix type="matrix" values="0 0 0 0 0.784314 0 0 0 0 0.835294 0 0 0 0 0.521569 0 0 0 1 0"/>
<feBlend mode="normal" in2="shape" result="effect1_innerShadow_2_35426"/>
</filter>
<filter id="filter10_i_2_35426" x="1.09802" y="44.2324" width="70.2745" height="133.041" filterUnits="userSpaceOnUse" color-interpolation-filters="sRGB">
<feFlood flood-opacity="0" result="BackgroundImageFix"/>
<feBlend mode="normal" in="SourceGraphic" in2="BackgroundImageFix" result="shape"/>
<feColorMatrix in="SourceAlpha" type="matrix" values="0 0 0 0 0 0 0 0 0 0 0 0 0 0 0 0 0 0 127 0" result="hardAlpha"/>
<feOffset dx="-4" dy="8"/>
<feGaussianBlur stdDeviation="6"/>
<feComposite in2="hardAlpha" operator="arithmetic" k2="-1" k3="1"/>
<feColorMatrix type="matrix" values="0 0 0 0 0.784314 0 0 0 0 0.835294 0 0 0 0 0.521569 0 0 0 1 0"/>
<feBlend mode="normal" in2="shape" result="effect1_innerShadow_2_35426"/>
</filter>
<filter id="filter11_i_2_35426" x="0" y="81.6598" width="72.2745" height="95.6141" filterUnits="userSpaceOnUse" color-interpolation-filters="sRGB">
<feFlood flood-opacity="0" result="BackgroundImageFix"/>
<feBlend mode="normal" in="SourceGraphic" in2="BackgroundImageFix" result="shape"/>
<feColorMatrix in="SourceAlpha" type="matrix" values="0 0 0 0 0 0 0 0 0 0 0 0 0 0 0 0 0 0 127 0" result="hardAlpha"/>
<feOffset dx="6" dy="8"/>
<feGaussianBlur stdDeviation="6"/>
<feComposite in2="hardAlpha" operator="arithmetic" k2="-1" k3="1"/>
<feColorMatrix type="matrix" values="0 0 0 0 0.784314 0 0 0 0 0.835294 0 0 0 0 0.521569 0 0 0 1 0"/>
<feBlend mode="normal" in2="shape" result="effect1_innerShadow_2_35426"/>
</filter>
<filter id="filter12_i_2_35426" x="39.9347" y="6.92128" width="33.4379" height="169.724" filterUnits="userSpaceOnUse" color-interpolation-filters="sRGB">
<feFlood flood-opacity="0" result="BackgroundImageFix"/>
<feBlend mode="normal" in="SourceGraphic" in2="BackgroundImageFix" result="shape"/>
<feColorMatrix in="SourceAlpha" type="matrix" values="0 0 0 0 0 0 0 0 0 0 0 0 0 0 0 0 0 0 127 0" result="hardAlpha"/>
<feOffset dx="2" dy="8"/>
<feGaussianBlur stdDeviation="6"/>
<feComposite in2="hardAlpha" operator="arithmetic" k2="-1" k3="1"/>
<feColorMatrix type="matrix" values="0 0 0 0 0.784314 0 0 0 0 0.835294 0 0 0 0 0.521569 0 0 0 1 0"/>
<feBlend mode="normal" in2="shape" result="effect1_innerShadow_2_35426"/>
</filter>
<filter id="filter13_i_2_35426" x="69.0719" y="16.1618" width="32.8889" height="161.112" filterUnits="userSpaceOnUse" color-interpolation-filters="sRGB">
<feFlood flood-opacity="0" result="BackgroundImageFix"/>
<feBlend mode="normal" in="SourceGraphic" in2="BackgroundImageFix" result="shape"/>
<feColorMatrix in="SourceAlpha" type="matrix" values="0 0 0 0 0 0 0 0 0 0 0 0 0 0 0 0 0 0 127 0" result="hardAlpha"/>
<feOffset dx="-4" dy="8"/>
<feGaussianBlur stdDeviation="6"/>
<feComposite in2="hardAlpha" operator="arithmetic" k2="-1" k3="1"/>
<feColorMatrix type="matrix" values="0 0 0 0 0.784314 0 0 0 0 0.835294 0 0 0 0 0.521569 0 0 0 1 0"/>
<feBlend mode="normal" in2="shape" result="effect1_innerShadow_2_35426"/>
</filter>
<filter id="filter14_i_2_35426" x="86.0653" y="87.6141" width="35.4379" height="88.8091" filterUnits="userSpaceOnUse" color-interpolation-filters="sRGB">
<feFlood flood-opacity="0" result="BackgroundImageFix"/>
<feBlend mode="normal" in="SourceGraphic" in2="BackgroundImageFix" result="shape"/>
<feColorMatrix in="SourceAlpha" type="matrix" values="0 0 0 0 0 0 0 0 0 0 0 0 0 0 0 0 0 0 127 0" result="hardAlpha"/>
<feOffset dx="-4" dy="8"/>
<feGaussianBlur stdDeviation="6"/>
<feComposite in2="hardAlpha" operator="arithmetic" k2="-1" k3="1"/>
<feColorMatrix type="matrix" values="0 0 0 0 0.784314 0 0 0 0 0.835294 0 0 0 0 0.521569 0 0 0 1 0"/>
<feBlend mode="normal" in2="shape" result="effect1_innerShadow_2_35426"/>
</filter>
<filter id="filter15_i_2_35426" x="51.2288" y="44.2324" width="32.8889" height="132.191" filterUnits="userSpaceOnUse" color-interpolation-filters="sRGB">
<feFlood flood-opacity="0" result="BackgroundImageFix"/>
<feBlend mode="normal" in="SourceGraphic" in2="BackgroundImageFix" result="shape"/>
<feColorMatrix in="SourceAlpha" type="matrix" values="0 0 0 0 0 0 0 0 0 0 0 0 0 0 0 0 0 0 127 0" result="hardAlpha"/>
<feOffset dx="-4" dy="8"/>
<feGaussianBlur stdDeviation="6"/>
<feComposite in2="hardAlpha" operator="arithmetic" k2="-1" k3="1"/>
<feColorMatrix type="matrix" values="0 0 0 0 0.784314 0 0 0 0 0.835294 0 0 0 0 0.521569 0 0 0 1 0"/>
<feBlend mode="normal" in2="shape" result="effect1_innerShadow_2_35426"/>
</filter>
<linearGradient id="paint0_linear_2_35426" x1="35.6863" y1="180.466" x2="114.281" y2="180.466" gradientUnits="userSpaceOnUse">
<stop/>
<stop offset="1" stop-opacity="0"/>
</linearGradient>
<linearGradient id="paint1_linear_2_35426" x1="35.6863" y1="193.091" x2="114.281" y2="193.091" gradientUnits="userSpaceOnUse">
<stop/>
<stop offset="1" stop-opacity="0"/>
</linearGradient>
<linearGradient id="paint2_linear_2_35426" x1="66.0034" y1="39.0648" x2="59.5471" y2="177.348" gradientUnits="userSpaceOnUse">
<stop stop-color="#A7C071"/>
<stop offset="1" stop-color="#44650D"/>
</linearGradient>
<linearGradient id="paint3_linear_2_35426" x1="63.5004" y1="52.5419" x2="51.8441" y2="156.48" gradientUnits="userSpaceOnUse">
<stop stop-opacity="0"/>
<stop offset="1"/>
</linearGradient>
<radialGradient id="paint4_radial_2_35426" cx="0" cy="0" r="1" gradientUnits="userSpaceOnUse" gradientTransform="translate(49.8309 99.0047) rotate(-82.8886) scale(54.4021 30.7254)">
<stop stop-color="#515151"/>
<stop offset="1" stop-opacity="0"/>
</radialGradient>
<radialGradient id="paint5_radial_2_35426" cx="0" cy="0" r="1" gradientUnits="userSpaceOnUse" gradientTransform="translate(65.8347 77.0332) rotate(91.1893) scale(88.7921 43.7781)">
<stop stop-color="white" stop-opacity="0.16"/>
<stop offset="1" stop-color="white" stop-opacity="0"/>
</radialGradient>
<linearGradient id="paint6_linear_2_35426" x1="47.4052" y1="210.886" x2="110.479" y2="-29.4322" gradientUnits="userSpaceOnUse">
<stop/>
<stop offset="1" stop-opacity="0"/>
</linearGradient>
<linearGradient id="paint7_linear_2_35426" x1="134.389" y1="54.6656" x2="74.4332" y2="172.851" gradientUnits="userSpaceOnUse">
<stop stop-color="#A7C071"/>
<stop offset="1" stop-color="#44650D"/>
</linearGradient>
<linearGradient id="paint8_linear_2_35426" x1="128.737" y1="66.3749" x2="94.4155" y2="159.244" gradientUnits="userSpaceOnUse">
<stop stop-opacity="0"/>
<stop offset="1"/>
</linearGradient>
<radialGradient id="paint9_radial_2_35426" cx="0" cy="0" r="1" gradientUnits="userSpaceOnUse" gradientTransform="translate(111.537 108.154) rotate(-62.3113) scale(51.9281 16.4516)">
<stop stop-color="#515151"/>
<stop offset="1" stop-opacity="0"/>
</radialGradient>
<radialGradient id="paint10_radial_2_35426" cx="0" cy="0" r="1" gradientUnits="userSpaceOnUse" gradientTransform="translate(115.348 85.7271) rotate(120.99) scale(85.1895 23.3208)">
<stop stop-color="white" stop-opacity="0.16"/>
<stop offset="1" stop-color="white" stop-opacity="0"/>
</radialGradient>
<linearGradient id="paint11_linear_2_35426" x1="56.3027" y1="200.223" x2="81.114" y2="-21.3084" gradientUnits="userSpaceOnUse">
<stop/>
<stop offset="1" stop-opacity="0"/>
</linearGradient>
<linearGradient id="paint12_linear_2_35426" x1="94.338" y1="3.15794" x2="72.9709" y2="176.418" gradientUnits="userSpaceOnUse">
<stop stop-color="#A7C071"/>
<stop offset="1" stop-color="#44650D"/>
</linearGradient>
<linearGradient id="paint13_linear_2_35426" x1="93.1353" y1="20.2634" x2="56.7579" y2="143.068" gradientUnits="userSpaceOnUse">
<stop stop-opacity="0"/>
<stop offset="1"/>
</linearGradient>
<radialGradient id="paint14_radial_2_35426" cx="0" cy="0" r="1" gradientUnits="userSpaceOnUse" gradientTransform="translate(86.5668 79.2355) rotate(-87.2958) scale(68.594 14.862)">
<stop stop-color="#515151"/>
<stop offset="1" stop-opacity="0"/>
</radialGradient>
<radialGradient id="paint15_radial_2_35426" cx="0" cy="0" r="1" gradientUnits="userSpaceOnUse" gradientTransform="translate(94.2569 51.3485) rotate(90.4503) scale(112.677 21.0401)">
<stop stop-color="white" stop-opacity="0.16"/>
<stop offset="1" stop-color="white" stop-opacity="0"/>
</radialGradient>
<linearGradient id="paint16_linear_2_35426" x1="85.4012" y1="221.239" x2="238.057" y2="1.03676" gradientUnits="userSpaceOnUse">
<stop/>
<stop offset="1" stop-opacity="0"/>
</linearGradient>
<linearGradient id="paint17_linear_2_35426" x1="101.385" y1="38.2302" x2="85.814" y2="175.942" gradientUnits="userSpaceOnUse">
<stop stop-color="#A7C071"/>
<stop offset="1" stop-color="#44650D"/>
</linearGradient>
<linearGradient id="paint18_linear_2_35426" x1="100.344" y1="51.7936" x2="73.5544" y2="150.438" gradientUnits="userSpaceOnUse">
<stop stop-opacity="0"/>
<stop offset="1"/>
</linearGradient>
<radialGradient id="paint19_radial_2_35426" cx="0" cy="0" r="1" gradientUnits="userSpaceOnUse" gradientTransform="translate(94.6635 98.5543) rotate(-87.0509) scale(54.4017 12.8509)">
<stop stop-color="#515151"/>
<stop offset="1" stop-opacity="0"/>
</radialGradient>
<radialGradient id="paint20_radial_2_35426" cx="0" cy="0" r="1" gradientUnits="userSpaceOnUse" gradientTransform="translate(101.315 76.4419) rotate(90.4912) scale(89.3453 18.1967)">
<stop stop-color="white" stop-opacity="0.16"/>
<stop offset="1" stop-color="white" stop-opacity="0"/>
</radialGradient>
<linearGradient id="paint21_linear_2_35426" x1="93.6555" y1="211.153" x2="210.689" y2="27.0191" gradientUnits="userSpaceOnUse">
<stop/>
<stop offset="1" stop-opacity="0"/>
</linearGradient>
<linearGradient id="paint22_linear_2_35426" x1="68.5487" y1="28.9587" x2="76.1492" y2="177.2" gradientUnits="userSpaceOnUse">
<stop stop-color="#A7C071"/>
<stop offset="1" stop-color="#44650D"/>
</linearGradient>
<linearGradient id="paint23_linear_2_35426" x1="68.9821" y1="43.5158" x2="90.0889" y2="151.395" gradientUnits="userSpaceOnUse">
<stop stop-opacity="0"/>
<stop offset="1"/>
</linearGradient>
<radialGradient id="paint24_radial_2_35426" cx="0" cy="0" r="1" gradientUnits="userSpaceOnUse" gradientTransform="translate(72.8949 93.8307) rotate(-90.1544) scale(58.2264 14.8555)">
<stop stop-color="#515151"/>
<stop offset="1" stop-opacity="0"/>
</radialGradient>
<radialGradient id="paint25_radial_2_35426" cx="0" cy="0" r="1" gradientUnits="userSpaceOnUse" gradientTransform="translate(66.467 69.7946) rotate(92.5011) scale(95.6056 21.0399)">
<stop stop-color="white" stop-opacity="0.16"/>
<stop offset="1" stop-color="white" stop-opacity="0"/>
</radialGradient>
<linearGradient id="paint26_linear_2_35426" x1="67.6863" y1="214.211" x2="-42.1517" y2="2.56196" gradientUnits="userSpaceOnUse">
<stop/>
<stop offset="1" stop-opacity="0"/>
</linearGradient>
<linearGradient id="paint27_linear_2_35426" x1="35.4975" y1="46.5769" x2="41.1585" y2="176.92" gradientUnits="userSpaceOnUse">
<stop stop-color="#A7C071"/>
<stop offset="1" stop-color="#44650D"/>
</linearGradient>
<linearGradient id="paint28_linear_2_35426" x1="38.033" y1="59.2764" x2="48.2675" y2="157.382" gradientUnits="userSpaceOnUse">
<stop stop-opacity="0"/>
<stop offset="1"/>
</linearGradient>
<radialGradient id="paint29_radial_2_35426" cx="0" cy="0" r="1" gradientUnits="userSpaceOnUse" gradientTransform="translate(51.8801 103.059) rotate(-97.6387) scale(51.3246 31.0873)">
<stop stop-color="#515151"/>
<stop offset="1" stop-opacity="0"/>
</radialGradient>
<radialGradient id="paint30_radial_2_35426" cx="0" cy="0" r="1" gradientUnits="userSpaceOnUse" gradientTransform="translate(35.6683 82.3548) rotate(88.7215) scale(83.6723 44.3452)">
<stop stop-color="white" stop-opacity="0.16"/>
<stop offset="1" stop-color="white" stop-opacity="0"/>
</radialGradient>
<linearGradient id="paint31_linear_2_35426" x1="54.3372" y1="208.485" x2="-1.43466" y2="-19.951" gradientUnits="userSpaceOnUse">
<stop/>
<stop offset="1" stop-opacity="0"/>
</linearGradient>
<linearGradient id="paint32_linear_2_35426" x1="30.3995" y1="83.3025" x2="33.1814" y2="174.719" gradientUnits="userSpaceOnUse">
<stop stop-color="#A7C071"/>
<stop offset="1" stop-color="#44650D"/>
</linearGradient>
<linearGradient id="paint33_linear_2_35426" x1="32.9349" y1="92.2008" x2="37.9873" y2="161.32" gradientUnits="userSpaceOnUse">
<stop stop-opacity="0"/>
<stop offset="1"/>
</linearGradient>
<radialGradient id="paint34_radial_2_35426" cx="0" cy="0" r="1" gradientUnits="userSpaceOnUse" gradientTransform="translate(46.782 122.878) rotate(-100.836) scale(36.2901 30.8064)">
<stop stop-color="#515151"/>
<stop offset="1" stop-opacity="0"/>
</radialGradient>
<radialGradient id="paint35_radial_2_35426" cx="0" cy="0" r="1" gradientUnits="userSpaceOnUse" gradientTransform="translate(30.5703 108.371) rotate(88.1757) scale(58.6427 44.3337)">
<stop stop-color="white" stop-opacity="0.16"/>
<stop offset="1" stop-color="white" stop-opacity="0"/>
</radialGradient>
<linearGradient id="paint36_linear_2_35426" x1="49.2392" y1="196.749" x2="21.0506" y2="31.9691" gradientUnits="userSpaceOnUse">
<stop/>
<stop offset="1" stop-opacity="0"/>
</linearGradient>
<linearGradient id="paint37_linear_2_35426" x1="54.3549" y1="9.95361" x2="74.0791" y2="176.517" gradientUnits="userSpaceOnUse">
<stop stop-color="#A7C071"/>
<stop offset="1" stop-color="#44650D"/>
</linearGradient>
<linearGradient id="paint38_linear_2_35426" x1="55.5576" y1="26.3787" x2="89.311" y2="145.045" gradientUnits="userSpaceOnUse">
<stop stop-opacity="0"/>
<stop offset="1"/>
</linearGradient>
<radialGradient id="paint39_radial_2_35426" cx="0" cy="0" r="1" gradientUnits="userSpaceOnUse" gradientTransform="translate(62.1261 83.0052) rotate(-92.816) scale(65.872 14.8606)">
<stop stop-color="#515151"/>
<stop offset="1" stop-opacity="0"/>
</radialGradient>
<radialGradient id="paint40_radial_2_35426" cx="0" cy="0" r="1" gradientUnits="userSpaceOnUse" gradientTransform="translate(54.4359 56.2275) rotate(89.531) scale(108.196 21.0401)">
<stop stop-color="white" stop-opacity="0.16"/>
<stop offset="1" stop-color="white" stop-opacity="0"/>
</radialGradient>
<linearGradient id="paint41_linear_2_35426" x1="63.2917" y1="219.361" x2="-81.1163" y2="2.42671" gradientUnits="userSpaceOnUse">
<stop/>
<stop offset="1" stop-opacity="0"/>
</linearGradient>
<linearGradient id="paint42_linear_2_35426" x1="86.323" y1="19.0327" x2="105.546" y2="176.592" gradientUnits="userSpaceOnUse">
<stop stop-color="#A7C071"/>
<stop offset="1" stop-color="#44650D"/>
</linearGradient>
<linearGradient id="paint43_linear_2_35426" x1="87.4282" y1="34.5831" x2="120.201" y2="146.416" gradientUnits="userSpaceOnUse">
<stop stop-opacity="0"/>
<stop offset="1"/>
</linearGradient>
<radialGradient id="paint44_radial_2_35426" cx="0" cy="0" r="1" gradientUnits="userSpaceOnUse" gradientTransform="translate(93.4641 88.1941) rotate(-92.7334) scale(62.3597 13.6567)">
<stop stop-color="#515151"/>
<stop offset="1" stop-opacity="0"/>
</radialGradient>
<radialGradient id="paint45_radial_2_35426" cx="0" cy="0" r="1" gradientUnits="userSpaceOnUse" gradientTransform="translate(86.3974 62.8423) rotate(89.5448) scale(102.434 19.3341)">
<stop stop-color="white" stop-opacity="0.16"/>
<stop offset="1" stop-color="white" stop-opacity="0"/>
</radialGradient>
<linearGradient id="paint46_linear_2_35426" x1="94.5352" y1="217.288" x2="-43.7129" y2="15.7123" gradientUnits="userSpaceOnUse">
<stop/>
<stop offset="1" stop-opacity="0"/>
</linearGradient>
<linearGradient id="paint47_linear_2_35426" x1="107.083" y1="89.1293" x2="102.107" y2="173.229" gradientUnits="userSpaceOnUse">
<stop stop-color="#A7C071"/>
<stop offset="1" stop-color="#44650D"/>
</linearGradient>
<linearGradient id="paint48_linear_2_35426" x1="105.88" y1="97.3365" x2="96.9515" y2="160.159" gradientUnits="userSpaceOnUse">
<stop stop-opacity="0"/>
<stop offset="1"/>
</linearGradient>
<radialGradient id="paint49_radial_2_35426" cx="0" cy="0" r="1" gradientUnits="userSpaceOnUse" gradientTransform="translate(99.3118 125.631) rotate(-84.3778) scale(33.0335 14.807)">
<stop stop-color="#515151"/>
<stop offset="1" stop-opacity="0"/>
</radialGradient>
<radialGradient id="paint50_radial_2_35426" cx="0" cy="0" r="1" gradientUnits="userSpaceOnUse" gradientTransform="translate(107.002 112.251) rotate(90.9385) scale(54.0677 21.0379)">
<stop stop-color="white" stop-opacity="0.16"/>
<stop offset="1" stop-color="white" stop-opacity="0"/>
</radialGradient>
<linearGradient id="paint51_linear_2_35426" x1="98.1462" y1="193.764" x2="144.994" y2="52.918" gradientUnits="userSpaceOnUse">
<stop/>
<stop offset="1" stop-opacity="0"/>
</linearGradient>
<linearGradient id="paint52_linear_2_35426" x1="70.8666" y1="46.561" x2="58.156" y2="175.004" gradientUnits="userSpaceOnUse">
<stop stop-color="#A7C071"/>
<stop offset="1" stop-color="#44650D"/>
</linearGradient>
<linearGradient id="paint53_linear_2_35426" x1="69.7614" y1="59.1741" x2="47.6005" y2="152.405" gradientUnits="userSpaceOnUse">
<stop stop-opacity="0"/>
<stop offset="1"/>
</linearGradient>
<radialGradient id="paint54_radial_2_35426" cx="0" cy="0" r="1" gradientUnits="userSpaceOnUse" gradientTransform="translate(63.7255 102.659) rotate(-86.6314) scale(50.6106 13.6486)">
<stop stop-color="#515151"/>
<stop offset="1" stop-opacity="0"/>
</radialGradient>
<radialGradient id="paint55_radial_2_35426" cx="0" cy="0" r="1" gradientUnits="userSpaceOnUse" gradientTransform="translate(70.7921 82.0955) rotate(90.5612) scale(83.0864 19.3338)">
<stop stop-color="white" stop-opacity="0.16"/>
<stop offset="1" stop-color="white" stop-opacity="0"/>
</radialGradient>
<linearGradient id="paint56_linear_2_35426" x1="62.6544" y1="207.368" x2="164.785" y2="23.7758" gradientUnits="userSpaceOnUse">
<stop/>
<stop offset="1" stop-opacity="0"/>
</linearGradient>
<clipPath id="clip0_2_35426">
<rect width="152.092" height="159.917" fill="white"/>
</clipPath>
</defs>
</svg>
