<svg width="180" height="180" viewBox="0 0 180 180" fill="none" xmlns="http://www.w3.org/2000/svg">
<rect width="180" height="180" rx="40" fill="white"/>
<g opacity="0.32" filter="url(#filter0_f_62_21094)">
<path d="M36 118.5C36 135.897 63.6096 139 91.5 139C119.39 139 141 107.897 141 90.5C141 73.103 126.39 75 98.5 75C70.6096 75 36 85.103 36 118.5Z" fill="url(#paint0_linear_62_21094)"/>
</g>
<path fill-rule="evenodd" clip-rule="evenodd" d="M98.594 135.633C116.068 132.234 141.004 105.872 141.004 85.4998C141.004 63.6845 120.409 45.9998 95.0039 45.9998C80.6733 45.9998 67.8732 51.6269 59.4368 60.4484C47.2033 72.5505 40.0039 94.6631 40.0039 106.5C40.0039 123.344 42.0841 137 81.0039 137C89.7855 137 95.35 136.521 98.594 135.633Z" fill="#919597"/>
<g filter="url(#filter1_iiii_62_21094)">
<path fill-rule="evenodd" clip-rule="evenodd" d="M98.594 135.633C116.068 132.234 141.004 105.872 141.004 85.4998C141.004 63.6845 120.409 45.9998 95.0039 45.9998C80.6733 45.9998 67.8732 51.6269 59.4368 60.4484C47.2033 72.5505 40.0039 94.6631 40.0039 106.5C40.0039 123.344 42.0841 137 81.0039 137C89.7855 137 95.35 136.521 98.594 135.633Z" fill="url(#paint1_linear_62_21094)" fill-opacity="0.24" style="mix-blend-mode:overlay"/>
</g>
<g style="mix-blend-mode:overlay" opacity="0.24">
<path d="M83 106.5C83 123.345 127.92 137 81 137C42.0802 137 40 123.345 40 106.5C40 89.6552 54.5802 51.9999 77.5 51.9999C100.42 51.9999 83 89.6552 83 106.5Z" fill="url(#paint2_linear_62_21094)"/>
</g>
<g style="mix-blend-mode:overlay" opacity="0.32">
<mask id="mask0_62_21094" style="mask-type:alpha" maskUnits="userSpaceOnUse" x="40" y="46" width="101" height="91">
<path fill-rule="evenodd" clip-rule="evenodd" d="M98.5901 135.634C116.064 132.234 141 105.872 141 85.5C141 63.6848 120.405 46 95 46C80.6693 46 67.8693 51.6272 59.4329 60.4487C47.1994 72.5507 40 94.6633 40 106.5C40 123.345 42.0802 137 81 137C89.7816 137 95.3461 136.522 98.5901 135.634Z" fill="#919597"/>
</mask>
<g mask="url(#mask0_62_21094)">
<g filter="url(#filter2_f_62_21094)">
<path d="M105.16 93.8814C102.431 89.0094 98.6825 85.9466 100.219 85.0598C101.755 84.173 105.212 87.4037 107.941 92.2757C110.671 97.1476 109.043 100.813 109.043 100.813C107.507 101.699 107.89 98.7533 105.16 93.8814Z" fill="url(#paint3_linear_62_21094)"/>
<path fill-rule="evenodd" clip-rule="evenodd" d="M101.896 89.01C100.036 87.3798 96.8486 84.587 92.6709 83.4988C87.2382 82.0837 84.5222 80.8008 83.8885 79.7605C82.5499 80.2692 78.6607 79.7749 71.5514 77.8165C66.0805 76.3096 60.7714 76.8172 57.6725 77.1135C55.8583 77.2869 54.8017 77.388 54.9137 76.9699C55.2171 75.8377 63.4269 73.3774 72.1006 75.7666C75.7957 76.7844 79.3555 76.7044 81.8928 76.6474C82.7411 76.6284 83.4751 76.6119 84.0616 76.6398C84.2238 76.5578 84.4381 76.5868 84.7028 76.699C85.2165 76.7782 85.5302 76.9339 85.598 77.224C85.8823 77.4183 86.1972 77.6481 86.5419 77.8997C88.1468 79.0708 90.3985 80.7139 93.2201 81.4489C99.8437 83.1741 104.035 88.97 103.732 90.1021C103.62 90.5202 102.985 89.9644 101.896 89.01Z" fill="url(#paint4_linear_62_21094)"/>
<path d="M51.9629 79.7593C57.219 77.8729 62.0574 78.0206 61.48 76.3436C60.9025 74.6667 56.1735 74.8365 50.9174 76.7229C45.6613 78.6093 39.9497 74.8166 44.4852 82.443C45.0627 84.12 46.7068 81.6457 51.9629 79.7593Z" fill="url(#paint5_linear_62_21094)"/>
</g>
<g filter="url(#filter3_f_62_21094)">
<path d="M111.922 86.4647C109.193 81.5928 105.444 78.53 106.98 77.6432C108.516 76.7563 111.974 79.9871 114.703 84.859C117.432 89.731 115.805 93.396 115.805 93.396C114.269 94.2828 114.651 91.3367 111.922 86.4647Z" fill="url(#paint6_linear_62_21094)"/>
<path fill-rule="evenodd" clip-rule="evenodd" d="M108.658 81.5932C106.798 79.9631 103.61 77.1702 99.4326 76.082C93.8993 74.6408 91.1842 73.3365 90.6172 72.2861C89.237 72.8107 84.9346 72.2237 76.919 70.0158C70.8617 68.3473 65.036 68.7126 61.6357 68.9259C59.645 69.0507 58.4856 69.1234 58.5976 68.7053C58.901 67.5732 67.8647 65.3205 77.4683 67.9659C81.5595 69.0928 85.4726 69.1101 88.2617 69.1225C89.3186 69.1272 90.214 69.1311 90.8966 69.1945C91.0374 69.1542 91.211 69.1816 91.4164 69.2625C91.9441 69.3578 92.2701 69.5207 92.3512 69.8014C92.6377 69.997 92.9555 70.2289 93.3036 70.4829C94.9085 71.654 97.1602 73.2972 99.9819 74.0321C106.605 75.7573 110.797 81.5532 110.493 82.6854C110.381 83.1034 109.747 82.5476 108.658 81.5932Z" fill="url(#paint7_linear_62_21094)"/>
<path d="M56.7246 71.3427C61.9807 69.4563 66.8191 69.604 66.2417 67.927C65.6643 66.25 60.9352 66.4199 55.6791 68.3063C50.423 70.1926 44.7115 66.4 49.2469 74.0264C49.8244 75.7034 51.4686 73.2291 56.7246 71.3427Z" fill="url(#paint8_linear_62_21094)"/>
</g>
<g filter="url(#filter4_f_62_21094)">
<path fill-rule="evenodd" clip-rule="evenodd" d="M65.1227 62.613C68.0678 62.2101 73.052 61.5283 78.1241 62.9216C84.4902 64.6703 88.0867 65.2097 89.5049 64.7576C90.5071 65.8583 93.8915 67.1894 100.279 68.858C105.368 70.1874 109.344 73.27 111.693 75.0914C113.104 76.1859 113.929 76.825 114.055 76.355C114.39 75.1029 109.034 68.719 100.887 66.5908C97.4809 65.7012 94.709 63.8899 92.7082 62.5825C92.2242 62.2662 91.7853 61.9794 91.3934 61.7423C91.2984 61.4452 90.9681 61.2981 90.4485 61.2363C89.9676 61.03 89.608 60.9922 89.3771 61.202C88.9192 61.2115 88.3957 61.2404 87.8184 61.2723C85.432 61.4041 82.1258 61.5868 78.7316 60.6544C70.6119 58.4239 62.7811 61.2743 62.4456 62.5265C62.3197 62.9964 63.3531 62.8551 65.1227 62.613Z" fill="url(#paint9_linear_62_21094)"/>
<path d="M115.9 79.7879C112.002 75.7884 107.589 73.8001 108.843 72.546C110.097 71.2918 114.273 73.5176 118.17 77.5172C122.068 81.5167 121.444 85.4781 121.444 85.4781C120.19 86.7322 119.797 83.7875 115.9 79.7879Z" fill="url(#paint10_linear_62_21094)"/>
<path d="M60.6436 64.9543C66.111 63.8177 70.8818 64.6374 70.5434 62.8964C70.205 61.1554 65.4983 60.6654 60.0308 61.8019C54.5634 62.9384 49.4352 58.3878 52.8652 66.5712C53.2036 68.3122 55.1761 66.0908 60.6436 64.9543Z" fill="url(#paint11_linear_62_21094)"/>
</g>
<g filter="url(#filter5_f_62_21094)">
<path fill-rule="evenodd" clip-rule="evenodd" d="M69.8844 57.1964C72.8295 56.7935 77.8137 56.1117 82.8858 57.505C89.2519 59.2537 92.8484 59.7931 94.2667 59.341C95.2688 60.4416 98.6532 61.7728 105.041 63.4414C110.13 64.7708 114.106 67.8533 116.455 69.6748C117.866 70.7692 118.69 71.4084 118.816 70.9384C119.152 69.6863 113.795 63.3024 105.648 61.1742C102.243 60.2845 99.4707 58.4733 97.47 57.1659C96.9859 56.8496 96.547 56.5628 96.1552 56.3257C96.0601 56.0286 95.7298 55.8814 95.2102 55.8196C94.7293 55.6134 94.3697 55.5756 94.1388 55.7854C93.6809 55.7948 93.1574 55.8238 92.5801 55.8557C90.1937 55.9875 86.8875 56.1702 83.4933 55.2378C75.3736 53.0073 67.5428 55.8577 67.2073 57.1098C67.0814 57.5798 68.1148 57.4384 69.8844 57.1964Z" fill="url(#paint12_linear_62_21094)"/>
<path d="M120.661 74.3713C116.764 70.3717 112.351 68.3835 113.605 67.1293C114.859 65.8752 119.035 68.1009 122.932 72.1005C126.829 76.1001 126.206 80.0614 126.206 80.0614C124.952 81.3156 124.559 78.3709 120.661 74.3713Z" fill="url(#paint13_linear_62_21094)"/>
<path d="M65.4053 59.5376C70.8728 58.4011 75.6435 59.2208 75.3051 57.4798C74.9667 55.7387 70.26 55.2488 64.7925 56.3853C59.3251 57.5218 54.1969 52.9711 57.6269 61.1546C57.9653 62.8956 59.9378 60.6742 65.4053 59.5376Z" fill="url(#paint14_linear_62_21094)"/>
</g>
<g filter="url(#filter6_f_62_21094)">
<path fill-rule="evenodd" clip-rule="evenodd" d="M121.21 63.5513C118.174 61.465 113.106 57.9822 106.755 56.3187C98.6953 54.2076 94.3691 52.7333 93.0587 51.5138C91.3133 51.914 86.8298 51.0276 78.7963 48.8266C72.4646 47.0918 66.3339 47.5739 62.6616 47.8626C60.3895 48.0413 59.0584 48.1459 59.2032 47.6058C59.5818 46.1925 69.2328 43.4597 79.4819 46.2678C83.6764 47.417 87.7183 47.3892 90.6753 47.3689C91.5104 47.3632 92.2589 47.358 92.9 47.3802C93.1869 47.2292 93.6016 47.2833 94.1358 47.4846C94.7038 47.5774 95.0926 47.7386 95.2656 48.0151C95.8314 48.3163 96.4766 48.6947 97.1962 49.1168C99.7469 50.6129 103.233 52.6579 107.441 53.7599C117.721 56.4526 124.712 63.6448 124.334 65.058C124.189 65.5982 123.088 64.842 121.21 63.5513Z" fill="url(#paint15_linear_62_21094)"/>
<path d="M126.757 69.1197C123.076 64.8827 118.841 62.6987 120.092 61.4479C121.343 60.197 125.341 62.6179 129.021 66.8548C132.702 71.0918 131.993 75.1475 131.993 75.1475C130.742 76.3983 130.437 73.3566 126.757 69.1197Z" fill="url(#paint16_linear_62_21094)"/>
<path d="M55.1569 50.2879C60.5776 48.8335 65.3096 49.3908 64.9721 47.6544C64.6345 45.9179 59.9665 45.6894 54.5458 47.1438C49.1251 48.5982 44.0346 44.2989 47.445 52.357C47.7826 54.0935 49.7362 51.7423 55.1569 50.2879Z" fill="url(#paint17_linear_62_21094)"/>
</g>
<g filter="url(#filter7_f_62_21094)">
<path fill-rule="evenodd" clip-rule="evenodd" d="M124.968 58.1346C121.932 56.0484 116.863 52.5656 110.513 50.9021C102.453 48.791 98.1269 47.3166 96.8165 46.0972C95.0711 46.4974 90.5876 45.611 82.5541 43.41C76.2225 41.6752 70.0917 42.1573 66.4194 42.446C64.1473 42.6247 62.8162 42.7293 62.961 42.1891C63.3396 40.7759 72.9906 38.0431 83.2397 40.8511C87.4342 42.0004 91.4761 41.9726 94.4331 41.9523C95.2682 41.9466 96.0168 41.9414 96.6578 41.9635C96.9447 41.8125 97.3594 41.8667 97.8936 42.0679C98.4616 42.1608 98.8504 42.322 99.0234 42.5984C99.5892 42.8997 100.234 43.2781 100.954 43.7002C103.505 45.1963 106.991 47.2413 111.198 48.3433C121.478 51.036 128.47 58.2282 128.091 59.6414C127.947 60.1816 126.846 59.4254 124.968 58.1346Z" fill="url(#paint18_linear_62_21094)"/>
<path d="M130.514 63.703C126.834 59.4661 122.599 57.2821 123.85 56.0312C125.101 54.7804 129.099 57.2013 132.779 61.4382C136.46 65.6752 135.751 69.7309 135.751 69.7309C134.5 70.9817 134.195 67.94 130.514 63.703Z" fill="url(#paint19_linear_62_21094)"/>
<path d="M58.9147 44.8713C64.3354 43.4168 69.0674 43.9742 68.7299 42.2378C68.3923 40.5013 63.7243 40.2728 58.3036 41.7272C52.8829 43.1816 47.7924 38.8823 51.2029 46.9404C51.5404 48.6769 53.4941 46.3257 58.9147 44.8713Z" fill="url(#paint20_linear_62_21094)"/>
</g>
</g>
</g>
<mask id="mask1_62_21094" style="mask-type:alpha" maskUnits="userSpaceOnUse" x="40" y="45" width="101" height="92">
<path fill-rule="evenodd" clip-rule="evenodd" d="M98.5901 135.633C116.064 132.234 141 105.872 141 85.4998C141 63.6845 120.405 45.9998 95 45.9998C80.6693 45.9998 67.8693 51.6269 59.4329 60.4484C47.1994 72.5505 40 94.6631 40 106.5C40 123.344 42.0802 137 81 137C89.7816 137 95.3461 136.521 98.5901 135.633Z" fill="#919597"/>
</mask>
<g mask="url(#mask1_62_21094)">
<g style="mix-blend-mode:overlay" opacity="0.64" filter="url(#filter8_f_62_21094)">
<ellipse cx="71.4023" cy="92.2341" rx="31" ry="17.5" fill="url(#paint21_linear_62_21094)"/>
</g>
</g>
<g filter="url(#filter9_d_62_21094)">
<g filter="url(#filter10_ii_62_21094)">
<path d="M54.6957 80C46.1957 101.5 54.0689 111.5 75.7495 111.5C97.4301 111.5 92.1956 91.8256 89.2728 88.9269" stroke="#2B2827" stroke-width="1.5" stroke-linecap="round"/>
<path d="M54.6957 80C46.1957 101.5 54.0689 111.5 75.7495 111.5C97.4301 111.5 92.1956 91.8256 89.2728 88.9269" stroke="url(#paint22_linear_62_21094)" stroke-opacity="0.4" stroke-width="1.5" stroke-linecap="round" style="mix-blend-mode:overlay"/>
<path d="M54.6957 80C46.1957 101.5 54.0689 111.5 75.7495 111.5C97.4301 111.5 92.1956 91.8256 89.2728 88.9269" stroke="url(#paint23_linear_62_21094)" stroke-opacity="0.16" stroke-width="1.5" stroke-linecap="round" style="mix-blend-mode:lighten"/>
</g>
<mask id="mask2_62_21094" style="mask-type:alpha" maskUnits="userSpaceOnUse" x="50" y="79" width="43" height="34">
<path fill-rule="evenodd" clip-rule="evenodd" d="M54.9714 79.3025C55.3566 79.4548 55.5454 79.8905 55.3931 80.2757C51.1666 90.9663 51.1296 98.5192 54.5201 103.383C57.9152 108.254 64.9678 110.75 75.7495 110.75C81.0604 110.75 84.6238 109.545 86.9692 107.781C89.3068 106.023 90.512 103.651 91.0014 101.156C91.4932 98.6492 91.2575 96.0326 90.714 93.8587C90.443 92.7744 90.0987 91.8139 89.7404 91.0462C89.3756 90.2644 89.0188 89.7313 88.7446 89.4594C88.4505 89.1677 88.4486 88.6929 88.7402 88.3988C89.0319 88.1047 89.5068 88.1027 89.8009 88.3944C90.2574 88.8471 90.7036 89.563 91.0997 90.4119C91.5025 91.275 91.8773 92.3271 92.1692 93.4949C92.7518 95.8253 93.0176 98.6707 92.4734 101.445C91.9267 104.231 90.5581 106.959 87.8708 108.98C85.1914 110.995 81.2788 112.25 75.7495 112.25C64.8506 112.25 57.1262 109.746 53.2896 104.241C49.4483 98.7304 49.7247 90.5334 53.9982 79.7242C54.1505 79.339 54.5862 79.1502 54.9714 79.3025Z" fill="url(#paint24_linear_62_21094)"/>
</mask>
<g mask="url(#mask2_62_21094)">
<g style="mix-blend-mode:multiply" opacity="0.4" filter="url(#filter11_f_62_21094)">
<circle cx="66.3398" cy="96" r="16" fill="black"/>
</g>
</g>
</g>
<mask id="mask3_62_21094" style="mask-type:alpha" maskUnits="userSpaceOnUse" x="66" y="107" width="15" height="11">
<ellipse cx="73.3398" cy="112.5" rx="7" ry="5.5" fill="#D9D9D9"/>
</mask>
<g mask="url(#mask3_62_21094)">
<g filter="url(#filter12_ii_62_21094)">
<rect x="66.3398" y="107" width="14" height="12" fill="url(#paint25_radial_62_21094)"/>
</g>
<g opacity="0.64">
<mask id="path-32-outside-1_62_21094" maskUnits="userSpaceOnUse" x="69.3398" y="111" width="7" height="3" fill="black">
<rect fill="white" x="69.3398" y="111" width="7" height="3"/>
<path d="M70.7229 113.511C70.6667 113.511 70.6131 113.507 70.5622 113.498C70.5113 113.49 70.4666 113.478 70.4281 113.463L70.5347 113.115C70.5749 113.13 70.6116 113.139 70.6448 113.143C70.6785 113.147 70.7072 113.145 70.7309 113.136C70.7551 113.127 70.7726 113.11 70.7832 113.085L70.7939 113.06L70.3145 111.636H70.8259L71.046 112.581H71.0602L71.284 111.636H71.7989L71.3017 113.114C71.2769 113.189 71.2408 113.256 71.1934 113.316C71.1466 113.376 71.0851 113.424 71.0087 113.459C70.9324 113.494 70.8371 113.511 70.7229 113.511ZM72.5537 113.025C72.4057 113.025 72.2791 112.996 72.1737 112.937C72.0684 112.878 71.9876 112.796 71.9314 112.69C71.8751 112.584 71.847 112.461 71.847 112.322C71.847 112.182 71.8751 112.06 71.9314 111.954C71.9876 111.848 72.0684 111.766 72.1737 111.707C72.2791 111.648 72.4057 111.619 72.5537 111.619C72.7017 111.619 72.8283 111.648 72.9337 111.707C73.039 111.766 73.1198 111.848 73.176 111.954C73.2323 112.06 73.2604 112.182 73.2604 112.322C73.2604 112.461 73.2323 112.584 73.176 112.69C73.1198 112.796 73.039 112.878 72.9337 112.937C72.8283 112.996 72.7017 113.025 72.5537 113.025ZM72.5573 112.663C72.5987 112.663 72.6345 112.649 72.6647 112.621C72.6949 112.593 72.7182 112.553 72.7348 112.502C72.7514 112.45 72.7597 112.389 72.7597 112.318C72.7597 112.247 72.7514 112.185 72.7348 112.134C72.7182 112.083 72.6949 112.043 72.6647 112.015C72.6345 111.988 72.5987 111.974 72.5573 111.974C72.5135 111.974 72.4759 111.988 72.4445 112.015C72.4131 112.043 72.3892 112.083 72.3726 112.134C72.356 112.185 72.3477 112.247 72.3477 112.318C72.3477 112.389 72.356 112.45 72.3726 112.502C72.3892 112.553 72.4131 112.593 72.4445 112.621C72.4759 112.649 72.5135 112.663 72.5573 112.663ZM74.1162 113.025C73.9682 113.025 73.8416 112.996 73.7362 112.937C73.6309 112.878 73.5501 112.796 73.4939 112.69C73.4376 112.584 73.4095 112.461 73.4095 112.322C73.4095 112.182 73.4376 112.06 73.4939 111.954C73.5501 111.848 73.6309 111.766 73.7362 111.707C73.8416 111.648 73.9682 111.619 74.1162 111.619C74.2642 111.619 74.3908 111.648 74.4962 111.707C74.6015 111.766 74.6823 111.848 74.7385 111.954C74.7948 112.06 74.8229 112.182 74.8229 112.322C74.8229 112.461 74.7948 112.584 74.7385 112.69C74.6823 112.796 74.6015 112.878 74.4962 112.937C74.3908 112.996 74.2642 113.025 74.1162 113.025ZM74.1198 112.663C74.1612 112.663 74.197 112.649 74.2272 112.621C74.2574 112.593 74.2807 112.553 74.2973 112.502C74.3139 112.45 74.3222 112.389 74.3222 112.318C74.3222 112.247 74.3139 112.185 74.2973 112.134C74.2807 112.083 74.2574 112.043 74.2272 112.015C74.197 111.988 74.1612 111.974 74.1198 111.974C74.076 111.974 74.0384 111.988 74.007 112.015C73.9756 112.043 73.9517 112.083 73.9351 112.134C73.9185 112.185 73.9102 112.247 73.9102 112.318C73.9102 112.389 73.9185 112.45 73.9351 112.502C73.9517 112.553 73.9756 112.593 74.007 112.621C74.0384 112.649 74.076 112.663 74.1198 112.663ZM75.036 113V112.73L75.6325 112.016V112.009H75.0573V111.636H76.2114V111.935L75.6681 112.62V112.627H76.2327V113H75.036Z"/>
</mask>
<g filter="url(#filter13_i_62_21094)">
<path d="M70.7229 113.511C70.6667 113.511 70.6131 113.507 70.5622 113.498C70.5113 113.49 70.4666 113.478 70.4281 113.463L70.5347 113.115C70.5749 113.13 70.6116 113.139 70.6448 113.143C70.6785 113.147 70.7072 113.145 70.7309 113.136C70.7551 113.127 70.7726 113.11 70.7832 113.085L70.7939 113.06L70.3145 111.636H70.8259L71.046 112.581H71.0602L71.284 111.636H71.7989L71.3017 113.114C71.2769 113.189 71.2408 113.256 71.1934 113.316C71.1466 113.376 71.0851 113.424 71.0087 113.459C70.9324 113.494 70.8371 113.511 70.7229 113.511ZM72.5537 113.025C72.4057 113.025 72.2791 112.996 72.1737 112.937C72.0684 112.878 71.9876 112.796 71.9314 112.69C71.8751 112.584 71.847 112.461 71.847 112.322C71.847 112.182 71.8751 112.06 71.9314 111.954C71.9876 111.848 72.0684 111.766 72.1737 111.707C72.2791 111.648 72.4057 111.619 72.5537 111.619C72.7017 111.619 72.8283 111.648 72.9337 111.707C73.039 111.766 73.1198 111.848 73.176 111.954C73.2323 112.06 73.2604 112.182 73.2604 112.322C73.2604 112.461 73.2323 112.584 73.176 112.69C73.1198 112.796 73.039 112.878 72.9337 112.937C72.8283 112.996 72.7017 113.025 72.5537 113.025ZM72.5573 112.663C72.5987 112.663 72.6345 112.649 72.6647 112.621C72.6949 112.593 72.7182 112.553 72.7348 112.502C72.7514 112.45 72.7597 112.389 72.7597 112.318C72.7597 112.247 72.7514 112.185 72.7348 112.134C72.7182 112.083 72.6949 112.043 72.6647 112.015C72.6345 111.988 72.5987 111.974 72.5573 111.974C72.5135 111.974 72.4759 111.988 72.4445 112.015C72.4131 112.043 72.3892 112.083 72.3726 112.134C72.356 112.185 72.3477 112.247 72.3477 112.318C72.3477 112.389 72.356 112.45 72.3726 112.502C72.3892 112.553 72.4131 112.593 72.4445 112.621C72.4759 112.649 72.5135 112.663 72.5573 112.663ZM74.1162 113.025C73.9682 113.025 73.8416 112.996 73.7362 112.937C73.6309 112.878 73.5501 112.796 73.4939 112.69C73.4376 112.584 73.4095 112.461 73.4095 112.322C73.4095 112.182 73.4376 112.06 73.4939 111.954C73.5501 111.848 73.6309 111.766 73.7362 111.707C73.8416 111.648 73.9682 111.619 74.1162 111.619C74.2642 111.619 74.3908 111.648 74.4962 111.707C74.6015 111.766 74.6823 111.848 74.7385 111.954C74.7948 112.06 74.8229 112.182 74.8229 112.322C74.8229 112.461 74.7948 112.584 74.7385 112.69C74.6823 112.796 74.6015 112.878 74.4962 112.937C74.3908 112.996 74.2642 113.025 74.1162 113.025ZM74.1198 112.663C74.1612 112.663 74.197 112.649 74.2272 112.621C74.2574 112.593 74.2807 112.553 74.2973 112.502C74.3139 112.45 74.3222 112.389 74.3222 112.318C74.3222 112.247 74.3139 112.185 74.2973 112.134C74.2807 112.083 74.2574 112.043 74.2272 112.015C74.197 111.988 74.1612 111.974 74.1198 111.974C74.076 111.974 74.0384 111.988 74.007 112.015C73.9756 112.043 73.9517 112.083 73.9351 112.134C73.9185 112.185 73.9102 112.247 73.9102 112.318C73.9102 112.389 73.9185 112.45 73.9351 112.502C73.9517 112.553 73.9756 112.593 74.007 112.621C74.0384 112.649 74.076 112.663 74.1198 112.663ZM75.036 113V112.73L75.6325 112.016V112.009H75.0573V111.636H76.2114V111.935L75.6681 112.62V112.627H76.2327V113H75.036Z" fill="url(#paint26_linear_62_21094)"/>
</g>
<path d="M70.5622 113.498L70.5708 113.449L70.5702 113.449L70.5622 113.498ZM70.4281 113.463L70.3803 113.449L70.3667 113.493L70.4102 113.51L70.4281 113.463ZM70.5347 113.115L70.5513 113.068L70.5021 113.051L70.4869 113.101L70.5347 113.115ZM70.6448 113.143L70.6386 113.193L70.6387 113.193L70.6448 113.143ZM70.7309 113.136L70.7137 113.089L70.7133 113.089L70.7309 113.136ZM70.7832 113.085L70.8292 113.105L70.8292 113.105L70.7832 113.085ZM70.7939 113.06L70.8399 113.08L70.8474 113.063L70.8413 113.044L70.7939 113.06ZM70.3145 111.636V111.586H70.2449L70.2671 111.652L70.3145 111.636ZM70.8259 111.636L70.8746 111.625L70.8655 111.586H70.8259V111.636ZM71.046 112.581L70.9973 112.592L71.0063 112.631H71.046V112.581ZM71.0602 112.581V112.631H71.0998L71.1089 112.592L71.0602 112.581ZM71.284 111.636V111.586H71.2444L71.2353 111.625L71.284 111.636ZM71.7989 111.636L71.8463 111.652L71.8685 111.586H71.7989V111.636ZM71.3017 113.114L71.2543 113.098L71.2542 113.098L71.3017 113.114ZM71.1934 113.316L71.1542 113.285L71.1539 113.285L71.1934 113.316ZM71.0087 113.459L70.9879 113.414L70.9879 113.414L71.0087 113.459ZM70.7229 113.461C70.6693 113.461 70.6186 113.457 70.5708 113.449L70.5536 113.547C70.6076 113.557 70.664 113.561 70.7229 113.561V113.461ZM70.5702 113.449C70.5219 113.441 70.4807 113.43 70.4461 113.417L70.4102 113.51C70.4525 113.526 70.5007 113.539 70.5542 113.547L70.5702 113.449ZM70.4759 113.478L70.5825 113.13L70.4869 113.101L70.3803 113.449L70.4759 113.478ZM70.518 113.163C70.5608 113.178 70.601 113.188 70.6386 113.193L70.651 113.093C70.6222 113.09 70.5891 113.082 70.5513 113.068L70.518 113.163ZM70.6387 113.193C70.6778 113.197 70.7151 113.195 70.7484 113.183L70.7133 113.089C70.6993 113.094 70.6792 113.097 70.6508 113.093L70.6387 113.193ZM70.748 113.183C70.7859 113.169 70.8134 113.142 70.8292 113.105L70.7373 113.066C70.7318 113.078 70.7244 113.085 70.7137 113.089L70.748 113.183ZM70.8292 113.105L70.8399 113.08L70.7479 113.041L70.7373 113.066L70.8292 113.105ZM70.8413 113.044L70.3619 111.62L70.2671 111.652L70.7465 113.076L70.8413 113.044ZM70.3145 111.686H70.8259V111.586H70.3145V111.686ZM70.7772 111.648L70.9973 112.592L71.0947 112.57L70.8746 111.625L70.7772 111.648ZM71.046 112.631H71.0602V112.531H71.046V112.631ZM71.1089 112.592L71.3326 111.648L71.2353 111.625L71.0116 112.569L71.1089 112.592ZM71.284 111.686H71.7989V111.586H71.284V111.686ZM71.7515 111.62L71.2543 113.098L71.3491 113.13L71.8463 111.652L71.7515 111.62ZM71.2542 113.098C71.2312 113.168 71.1978 113.23 71.1542 113.285L71.2326 113.347C71.2837 113.283 71.3226 113.21 71.3492 113.129L71.2542 113.098ZM71.1539 113.285C71.1125 113.339 71.0577 113.382 70.9879 113.414L71.0295 113.504C71.1125 113.467 71.1807 113.414 71.2329 113.347L71.1539 113.285ZM70.9879 113.414C70.92 113.445 70.8324 113.461 70.7229 113.461V113.561C70.8418 113.561 70.9448 113.543 71.0295 113.504L70.9879 113.414ZM72.1737 112.937L72.1492 112.981L72.1494 112.981L72.1737 112.937ZM71.9314 112.69L71.8872 112.714L71.8873 112.714L71.9314 112.69ZM71.9314 111.954L71.9755 111.978L71.9755 111.978L71.9314 111.954ZM72.1737 111.707L72.198 111.751L72.1982 111.751L72.1737 111.707ZM72.9337 111.707L72.9092 111.751L72.9094 111.751L72.9337 111.707ZM73.176 111.954L73.1319 111.978L73.1319 111.978L73.176 111.954ZM73.176 112.69L73.2202 112.714L73.2202 112.714L73.176 112.69ZM72.9337 112.937L72.958 112.981L72.9582 112.981L72.9337 112.937ZM72.6647 112.621L72.6986 112.658L72.6986 112.658L72.6647 112.621ZM72.7348 112.502L72.7824 112.517L72.7824 112.517L72.7348 112.502ZM72.7348 112.134L72.6872 112.15L72.6873 112.15L72.7348 112.134ZM72.6647 112.015L72.6986 111.979L72.6986 111.979L72.6647 112.015ZM72.3726 112.134L72.4201 112.15L72.4202 112.15L72.3726 112.134ZM72.3726 112.502L72.4202 112.487L72.4202 112.487L72.3726 112.502ZM72.5537 112.975C72.4123 112.975 72.2944 112.947 72.198 112.893L72.1494 112.981C72.2637 113.044 72.3992 113.075 72.5537 113.075V112.975ZM72.1982 112.893C72.1011 112.839 72.0272 112.763 71.9755 112.667L71.8873 112.714C71.948 112.828 72.0357 112.917 72.1492 112.981L72.1982 112.893ZM71.9755 112.667C71.9237 112.569 71.897 112.455 71.897 112.322H71.797C71.797 112.468 71.8266 112.599 71.8872 112.714L71.9755 112.667ZM71.897 112.322C71.897 112.189 71.9237 112.075 71.9755 111.978L71.8873 111.931C71.8266 112.044 71.797 112.175 71.797 112.322H71.897ZM71.9755 111.978C72.0272 111.88 72.1011 111.805 72.198 111.751L72.1494 111.664C72.0357 111.727 71.948 111.816 71.8872 111.931L71.9755 111.978ZM72.1982 111.751C72.2946 111.697 72.4124 111.669 72.5537 111.669V111.569C72.3991 111.569 72.2636 111.6 72.1492 111.664L72.1982 111.751ZM72.5537 111.669C72.695 111.669 72.8128 111.697 72.9092 111.751L72.9582 111.664C72.8438 111.6 72.7083 111.569 72.5537 111.569V111.669ZM72.9094 111.751C73.0063 111.805 73.0802 111.88 73.1319 111.978L73.2202 111.931C73.1594 111.816 73.0717 111.727 72.958 111.664L72.9094 111.751ZM73.1319 111.978C73.1837 112.075 73.2104 112.189 73.2104 112.322H73.3104C73.3104 112.175 73.2809 112.044 73.2202 111.931L73.1319 111.978ZM73.2104 112.322C73.2104 112.455 73.1837 112.569 73.1319 112.667L73.2202 112.714C73.2809 112.599 73.3104 112.468 73.3104 112.322H73.2104ZM73.1319 112.667C73.0803 112.763 73.0063 112.839 72.9092 112.893L72.9582 112.981C73.0717 112.917 73.1594 112.828 73.2202 112.714L73.1319 112.667ZM72.9094 112.893C72.813 112.947 72.6951 112.975 72.5537 112.975V113.075C72.7083 113.075 72.8437 113.044 72.958 112.981L72.9094 112.893ZM72.5573 112.713C72.6111 112.713 72.6591 112.694 72.6986 112.658L72.6308 112.584C72.6099 112.603 72.5863 112.613 72.5573 112.613V112.713ZM72.6986 112.658C72.7368 112.622 72.764 112.574 72.7824 112.517L72.6872 112.487C72.6725 112.532 72.6529 112.564 72.6308 112.584L72.6986 112.658ZM72.7824 112.517C72.801 112.46 72.8097 112.393 72.8097 112.318H72.7097C72.7097 112.386 72.7018 112.441 72.6872 112.487L72.7824 112.517ZM72.8097 112.318C72.8097 112.243 72.801 112.176 72.7824 112.119L72.6873 112.15C72.7018 112.194 72.7097 112.25 72.7097 112.318H72.8097ZM72.7824 112.119C72.764 112.062 72.7368 112.014 72.6986 111.979L72.6308 112.052C72.6529 112.073 72.6725 112.104 72.6872 112.15L72.7824 112.119ZM72.6986 111.979C72.6591 111.942 72.6111 111.924 72.5573 111.924V112.024C72.5863 112.024 72.6099 112.033 72.6308 112.052L72.6986 111.979ZM72.5573 111.924C72.5018 111.924 72.4523 111.942 72.4113 111.978L72.4777 112.053C72.4995 112.034 72.5251 112.024 72.5573 112.024V111.924ZM72.4113 111.978C72.3716 112.013 72.3435 112.062 72.325 112.119L72.4202 112.15C72.4348 112.104 72.4547 112.073 72.4777 112.053L72.4113 111.978ZM72.3251 112.119C72.3064 112.176 72.2977 112.243 72.2977 112.318H72.3977C72.3977 112.25 72.4056 112.194 72.4201 112.15L72.3251 112.119ZM72.2977 112.318C72.2977 112.393 72.3064 112.46 72.325 112.517L72.4202 112.487C72.4056 112.441 72.3977 112.386 72.3977 112.318H72.2977ZM72.325 112.517C72.3435 112.575 72.3716 112.623 72.4113 112.658L72.4777 112.584C72.4547 112.563 72.4348 112.532 72.4202 112.487L72.325 112.517ZM72.4113 112.658C72.4523 112.695 72.5018 112.713 72.5573 112.713V112.613C72.5251 112.613 72.4995 112.603 72.4777 112.584L72.4113 112.658ZM73.7362 112.937L73.7117 112.981L73.7119 112.981L73.7362 112.937ZM73.4939 112.69L73.4497 112.714L73.4498 112.714L73.4939 112.69ZM73.4939 111.954L73.538 111.978L73.538 111.978L73.4939 111.954ZM73.7362 111.707L73.7605 111.751L73.7607 111.751L73.7362 111.707ZM74.4962 111.707L74.4717 111.751L74.4719 111.751L74.4962 111.707ZM74.7385 111.954L74.6944 111.978L74.6944 111.978L74.7385 111.954ZM74.7385 112.69L74.7827 112.714L74.7827 112.714L74.7385 112.69ZM74.4962 112.937L74.5205 112.981L74.5207 112.981L74.4962 112.937ZM74.2272 112.621L74.2611 112.658L74.2611 112.658L74.2272 112.621ZM74.2973 112.502L74.3449 112.517L74.3449 112.517L74.2973 112.502ZM74.2973 112.134L74.2497 112.15L74.2498 112.15L74.2973 112.134ZM74.2272 112.015L74.2611 111.979L74.2611 111.979L74.2272 112.015ZM73.9351 112.134L73.9826 112.15L73.9827 112.15L73.9351 112.134ZM73.9351 112.502L73.9827 112.487L73.9827 112.487L73.9351 112.502ZM74.1162 112.975C73.9748 112.975 73.8569 112.947 73.7605 112.893L73.7119 112.981C73.8262 113.044 73.9617 113.075 74.1162 113.075V112.975ZM73.7607 112.893C73.6636 112.839 73.5897 112.763 73.538 112.667L73.4498 112.714C73.5105 112.828 73.5982 112.917 73.7117 112.981L73.7607 112.893ZM73.538 112.667C73.4862 112.569 73.4595 112.455 73.4595 112.322H73.3595C73.3595 112.468 73.3891 112.599 73.4497 112.714L73.538 112.667ZM73.4595 112.322C73.4595 112.189 73.4862 112.075 73.538 111.978L73.4498 111.931C73.3891 112.044 73.3595 112.175 73.3595 112.322H73.4595ZM73.538 111.978C73.5897 111.88 73.6636 111.805 73.7605 111.751L73.7119 111.664C73.5982 111.727 73.5105 111.816 73.4497 111.931L73.538 111.978ZM73.7607 111.751C73.8571 111.697 73.9749 111.669 74.1162 111.669V111.569C73.9616 111.569 73.8261 111.6 73.7117 111.664L73.7607 111.751ZM74.1162 111.669C74.2575 111.669 74.3753 111.697 74.4717 111.751L74.5207 111.664C74.4063 111.6 74.2708 111.569 74.1162 111.569V111.669ZM74.4719 111.751C74.5688 111.805 74.6427 111.88 74.6944 111.978L74.7827 111.931C74.7219 111.816 74.6342 111.727 74.5205 111.664L74.4719 111.751ZM74.6944 111.978C74.7462 112.075 74.7729 112.189 74.7729 112.322H74.8729C74.8729 112.175 74.8434 112.044 74.7827 111.931L74.6944 111.978ZM74.7729 112.322C74.7729 112.455 74.7462 112.569 74.6944 112.667L74.7827 112.714C74.8434 112.599 74.8729 112.468 74.8729 112.322H74.7729ZM74.6944 112.667C74.6428 112.763 74.5688 112.839 74.4717 112.893L74.5207 112.981C74.6342 112.917 74.7219 112.828 74.7827 112.714L74.6944 112.667ZM74.4719 112.893C74.3755 112.947 74.2576 112.975 74.1162 112.975V113.075C74.2708 113.075 74.4062 113.044 74.5205 112.981L74.4719 112.893ZM74.1198 112.713C74.1736 112.713 74.2216 112.694 74.2611 112.658L74.1933 112.584C74.1724 112.603 74.1488 112.613 74.1198 112.613V112.713ZM74.2611 112.658C74.2993 112.622 74.3265 112.574 74.3449 112.517L74.2497 112.487C74.235 112.532 74.2154 112.564 74.1933 112.584L74.2611 112.658ZM74.3449 112.517C74.3635 112.46 74.3722 112.393 74.3722 112.318H74.2722C74.2722 112.386 74.2643 112.441 74.2497 112.487L74.3449 112.517ZM74.3722 112.318C74.3722 112.243 74.3635 112.176 74.3449 112.119L74.2498 112.15C74.2643 112.194 74.2722 112.25 74.2722 112.318H74.3722ZM74.3449 112.119C74.3265 112.062 74.2993 112.014 74.2611 111.979L74.1933 112.052C74.2154 112.073 74.235 112.104 74.2497 112.15L74.3449 112.119ZM74.2611 111.979C74.2216 111.942 74.1736 111.924 74.1198 111.924V112.024C74.1488 112.024 74.1724 112.033 74.1933 112.052L74.2611 111.979ZM74.1198 111.924C74.0643 111.924 74.0148 111.942 73.9738 111.978L74.0402 112.053C74.062 112.034 74.0876 112.024 74.1198 112.024V111.924ZM73.9738 111.978C73.9341 112.013 73.906 112.062 73.8875 112.119L73.9827 112.15C73.9973 112.104 74.0172 112.073 74.0402 112.053L73.9738 111.978ZM73.8876 112.119C73.8689 112.176 73.8602 112.243 73.8602 112.318H73.9602C73.9602 112.25 73.9681 112.194 73.9826 112.15L73.8876 112.119ZM73.8602 112.318C73.8602 112.393 73.8689 112.46 73.8875 112.517L73.9827 112.487C73.9681 112.441 73.9602 112.386 73.9602 112.318H73.8602ZM73.8875 112.517C73.906 112.575 73.9341 112.623 73.9738 112.658L74.0402 112.584C74.0172 112.563 73.9973 112.532 73.9827 112.487L73.8875 112.517ZM73.9738 112.658C74.0148 112.695 74.0643 112.713 74.1198 112.713V112.613C74.0876 112.613 74.062 112.603 74.0402 112.584L73.9738 112.658ZM75.036 113H74.986V113.05H75.036V113ZM75.036 112.73L74.9976 112.698L74.986 112.712V112.73H75.036ZM75.6325 112.016L75.6709 112.048L75.6825 112.034V112.016H75.6325ZM75.6325 112.009H75.6825V111.959H75.6325V112.009ZM75.0573 112.009H75.0073V112.059H75.0573V112.009ZM75.0573 111.636V111.586H75.0073V111.636H75.0573ZM76.2114 111.636H76.2614V111.586H76.2114V111.636ZM76.2114 111.935L76.2506 111.966L76.2614 111.952V111.935H76.2114ZM75.6681 112.62L75.6289 112.589L75.6181 112.603V112.62H75.6681ZM75.6681 112.627H75.6181V112.677H75.6681V112.627ZM76.2327 112.627H76.2827V112.577H76.2327V112.627ZM76.2327 113V113.05H76.2827V113H76.2327ZM75.086 113V112.73H74.986V113H75.086ZM75.0743 112.762L75.6709 112.048L75.5942 111.984L74.9976 112.698L75.0743 112.762ZM75.6825 112.016V112.009H75.5825V112.016H75.6825ZM75.6325 111.959H75.0573V112.059H75.6325V111.959ZM75.1073 112.009V111.636H75.0073V112.009H75.1073ZM75.0573 111.686H76.2114V111.586H75.0573V111.686ZM76.1614 111.636V111.935H76.2614V111.636H76.1614ZM76.1722 111.904L75.6289 112.589L75.7072 112.651L76.2506 111.966L76.1722 111.904ZM75.6181 112.62V112.627H75.7181V112.62H75.6181ZM75.6681 112.677H76.2327V112.577H75.6681V112.677ZM76.1827 112.627V113H76.2827V112.627H76.1827ZM76.2327 112.95H75.036V113.05H76.2327V112.95Z" fill="url(#paint27_linear_62_21094)" fill-opacity="0.8" mask="url(#path-32-outside-1_62_21094)"/>
</g>
</g>
<g filter="url(#filter14_iiii_62_21094)">
<path d="M41.8394 63C43.3396 51 44.3396 43 46.8396 43C49.3396 43 61.3396 51 61.3396 51C64.8396 50 73.3395 50 73.3395 50V105C73.3395 105 53.3395 105 45.3396 95.5C37.3396 86 40.3392 75 41.8394 63Z" fill="#919597"/>
<path d="M41.8394 63C43.3396 51 44.3396 43 46.8396 43C49.3396 43 61.3396 51 61.3396 51C64.8396 50 73.3395 50 73.3395 50V105C73.3395 105 53.3395 105 45.3396 95.5C37.3396 86 40.3392 75 41.8394 63Z" fill="url(#paint28_linear_62_21094)" fill-opacity="0.24" style="mix-blend-mode:overlay"/>
<mask id="mask4_62_21094" style="mask-type:alpha" maskUnits="userSpaceOnUse" x="40" y="43" width="34" height="62">
<path d="M41.8397 63C43.3399 51 44.3399 43 46.8398 43C49.3398 43 61.3398 51 61.3398 51C64.8398 50 73.3397 50 73.3397 50V105C73.3397 105 53.3398 105 45.3398 95.5C37.3398 86 40.3394 75 41.8397 63Z" fill="black"/>
</mask>
<g mask="url(#mask4_62_21094)">
<path opacity="0.4" d="M43.3398 68.4999C41.8086 72.8482 44.3397 44.5001 46.3398 44.5001C48.34 44.5001 58.7432 49.5836 59.7688 51.36C60.7945 53.1364 48.3504 54.2703 43.3398 68.4999Z" fill="url(#paint29_linear_62_21094)"/>
<g style="mix-blend-mode:overlay">
<path d="M43.3398 68.4999C41.8086 72.8482 44.3397 44.5001 46.3398 44.5001C48.34 44.5001 58.7432 49.5836 59.7688 51.36C60.7945 53.1364 48.3504 54.2703 43.3398 68.4999Z" fill="url(#paint30_linear_62_21094)"/>
</g>
<g style="mix-blend-mode:overlay" opacity="0.64">
<path d="M43.3398 68.5001C41.8086 72.8484 44.3397 44.5002 46.3398 44.5002C48.34 44.5003 58.7432 49.5837 59.7688 51.3601C60.7945 53.1365 48.3504 54.2704 43.3398 68.5001Z" fill="url(#paint31_linear_62_21094)"/>
</g>
<g style="mix-blend-mode:overlay" opacity="0.24" filter="url(#filter15_f_62_21094)">
<ellipse cx="61.3397" cy="80.0002" rx="11" ry="6" transform="rotate(-4 61.3397 80.0002)" fill="url(#paint32_radial_62_21094)"/>
</g>
<g style="mix-blend-mode:overlay" opacity="0.24" filter="url(#filter16_f_62_21094)">
<ellipse cx="42.6835" cy="86.5508" rx="18.0388" ry="6" transform="rotate(75 42.6835 86.5508)" fill="url(#paint33_radial_62_21094)"/>
</g>
<g style="mix-blend-mode:overlay" opacity="0.32" filter="url(#filter17_f_62_21094)">
<path d="M86.3398 58.2064C86.3398 63.8432 84.1406 72.6154 76.6429 72.6154C69.1452 72.6154 54.3398 60.8413 54.3398 55.2045C54.3398 49.5677 69.1452 48 76.6429 48C84.1406 48 86.3398 52.5696 86.3398 58.2064Z" fill="url(#paint34_radial_62_21094)"/>
</g>
<g style="mix-blend-mode:overlay" opacity="0.4" filter="url(#filter18_f_62_21094)">
<path d="M75.9405 77.9294C77.5973 81.7565 78.9863 88.2272 74.9317 89.9825C70.877 91.7378 59.4099 87.21 57.7531 83.3829C56.0963 79.5558 63.642 75.0253 67.6967 73.27C71.7513 71.5147 74.2837 74.1023 75.9405 77.9294Z" fill="url(#paint35_radial_62_21094)"/>
</g>
<g style="mix-blend-mode:overlay" opacity="0.64" filter="url(#filter19_f_62_21094)">
<path d="M67.7 52.8712C65.9847 59.2728 66.3075 64.9214 64.5942 64.4623C62.8809 64.0032 62.8825 58.4416 64.5978 52.04C66.3131 45.6384 72.6974 42.8222 74.4108 43.2813C76.1241 43.7404 69.4153 46.4696 67.7 52.8712Z" fill="url(#paint36_linear_62_21094)"/>
</g>
<g style="mix-blend-mode:overlay" opacity="0.56" filter="url(#filter20_f_62_21094)">
<path d="M62.7559 101.348C76.8825 103.585 89.217 103.728 88.8398 106.185C89.3316 108.614 74.8439 111.212 60.183 106.185C36.4235 95.029 41.6029 86.4711 43.3335 88.3826C46.1082 90.2349 45.9119 98.681 62.7559 101.348Z" fill="url(#paint37_linear_62_21094)"/>
</g>
<g style="mix-blend-mode:multiply" opacity="0.24" filter="url(#filter21_f_62_21094)">
<path d="M61.6872 96.4083C72.0563 98.03 81.0291 98.6446 80.8647 99.7154C81.3307 100.813 70.9152 101.316 60.0331 98.4346C42.2629 92.4336 45.6455 88.8761 46.989 89.7997C49.0888 90.7438 49.3236 94.4746 61.6872 96.4083Z" fill="url(#paint38_linear_62_21094)"/>
</g>
<g style="mix-blend-mode:overlay" opacity="0.4" filter="url(#filter22_f_62_21094)">
<path d="M46.9061 83.921C56.2047 94.7885 66.8722 101.697 64.4758 102.356C62.4595 103.797 39.8372 98.983 38.4407 83.5471C38.9234 57.3034 44.3789 59.1399 43.3405 61.5002C41.8399 73.5001 41.8399 78.0001 46.9061 83.921Z" fill="url(#paint39_linear_62_21094)"/>
</g>
</g>
<mask id="mask5_62_21094" style="mask-type:alpha" maskUnits="userSpaceOnUse" x="40" y="43" width="34" height="62">
<path d="M41.8394 63C43.3396 51 44.3396 43 46.8396 43C49.3396 43 61.3396 51 61.3396 51C64.8396 50 73.3395 50 73.3395 50V105C73.3395 105 53.3395 105 45.3396 95.5C37.3396 86 40.3392 75 41.8394 63Z" fill="url(#paint40_linear_62_21094)"/>
</mask>
<g mask="url(#mask5_62_21094)">
<g filter="url(#filter23_di_62_21094)">
<path d="M54.3396 69.6409C54.3396 67.4317 56.1305 71.6409 58.3396 71.6409C60.5487 71.6409 62.3396 67.4317 62.3396 69.6409C62.3396 71.85 60.5487 73.6409 58.3396 73.6409C56.1305 73.6409 54.3396 71.85 54.3396 69.6409Z" fill="url(#paint41_radial_62_21094)"/>
</g>
<path d="M77.3396 77C77.3396 78.0621 75.5487 81 73.3396 81C71.1305 81 69.8396 78.0621 69.8396 77C69.8396 75.9379 71.1305 75.5 73.3396 75.5C75.5487 75.5 77.3396 75.9379 77.3396 77Z" fill="url(#paint42_radial_62_21094)"/>
<g style="mix-blend-mode:soft-light">
<path d="M77.3396 77C77.3396 78.0621 75.5487 81 73.3396 81C71.1305 81 69.8396 78.0621 69.8396 77C69.8396 75.9379 71.1305 75.5 73.3396 75.5C75.5487 75.5 77.3396 75.9379 77.3396 77Z" fill="url(#paint43_linear_62_21094)"/>
</g>
<path d="M73.3396 81C73.3396 85 67.8396 87.5 65.8396 83.5" stroke="black" stroke-width="0.75" stroke-linecap="round" stroke-linejoin="round"/>
</g>
<path d="M54.34 82.0002C50.6292 81.1028 47.84 81.0001 43.34 81.5001" stroke="black" stroke-width="0.5" stroke-linecap="round" stroke-linejoin="round"/>
<path d="M54.4014 80.4522C51.9935 79.17 49.974 78.3429 46.5411 78.2635" stroke="black" stroke-width="0.5" stroke-linecap="round" stroke-linejoin="round"/>
<path d="M54.422 83.3406C51.6956 83.4341 49.5331 83.7276 46.5205 85.3752" stroke="black" stroke-width="0.5" stroke-linecap="round" stroke-linejoin="round"/>
<path d="M104.84 63C103.34 51 102.34 43 99.8401 43C97.3401 43 85.3401 51 85.3401 51C81.8401 50 73.3402 50 73.3402 50V105C73.3402 105 93.3402 105 101.34 95.5C109.34 86 106.34 75 104.84 63Z" fill="#919597"/>
<path d="M104.84 63C103.34 51 102.34 43 99.8401 43C97.3401 43 85.3401 51 85.3401 51C81.8401 50 73.3402 50 73.3402 50V105C73.3402 105 93.3402 105 101.34 95.5C109.34 86 106.34 75 104.84 63Z" fill="url(#paint44_linear_62_21094)" fill-opacity="0.24" style="mix-blend-mode:overlay"/>
<mask id="mask6_62_21094" style="mask-type:alpha" maskUnits="userSpaceOnUse" x="73" y="43" width="34" height="62">
<path d="M104.84 63C103.34 51 102.34 43 99.8398 43C97.3399 43 85.3399 51 85.3399 51C81.8398 50 73.34 50 73.34 50V105C73.34 105 93.3399 105 101.34 95.5C109.34 86 106.34 75 104.84 63Z" fill="black"/>
</mask>
<g mask="url(#mask6_62_21094)">
<path opacity="0.4" d="M103.34 68.4999C104.871 72.8482 102.34 44.5001 100.34 44.5001C98.3397 44.5001 87.9364 49.5836 86.9108 51.36C85.8852 53.1364 98.3293 54.2703 103.34 68.4999Z" fill="url(#paint45_linear_62_21094)"/>
<g style="mix-blend-mode:overlay">
<path d="M103.34 68.4999C104.871 72.8482 102.34 44.5001 100.34 44.5001C98.3397 44.5001 87.9364 49.5836 86.9108 51.36C85.8852 53.1364 98.3293 54.2703 103.34 68.4999Z" fill="url(#paint46_linear_62_21094)"/>
</g>
<g style="mix-blend-mode:overlay" opacity="0.64">
<path d="M103.34 68.5001C104.871 72.8484 102.34 44.5002 100.34 44.5002C98.3397 44.5003 87.9364 49.5837 86.9108 51.3601C85.8852 53.1365 98.3293 54.2704 103.34 68.5001Z" fill="url(#paint47_linear_62_21094)"/>
</g>
<g style="mix-blend-mode:overlay" opacity="0.24" filter="url(#filter24_f_62_21094)">
<ellipse cx="11" cy="6" rx="11" ry="6" transform="matrix(-0.997564 -0.0697565 -0.0697565 0.997564 96.7318 74.7821)" fill="url(#paint48_radial_62_21094)"/>
</g>
<g style="mix-blend-mode:overlay" opacity="0.24" filter="url(#filter25_f_62_21094)">
<ellipse cx="18.0388" cy="6" rx="18.0388" ry="6" transform="matrix(-0.258819 0.965926 0.965926 0.258819 102.869 67.5737)" fill="url(#paint49_radial_62_21094)"/>
</g>
<g style="mix-blend-mode:overlay" opacity="0.32" filter="url(#filter26_f_62_21094)">
<path d="M60.3398 58.2064C60.3398 63.8432 62.5391 72.6154 70.0368 72.6154C77.5345 72.6154 92.3398 60.8413 92.3398 55.2045C92.3398 49.5677 77.5345 48 70.0368 48C62.5391 48 60.3398 52.5696 60.3398 58.2064Z" fill="url(#paint50_radial_62_21094)"/>
</g>
<g style="mix-blend-mode:overlay" opacity="0.4" filter="url(#filter27_f_62_21094)">
<path d="M70.7392 77.9294C69.0824 81.7565 67.6934 88.2272 71.748 89.9825C75.8027 91.7378 87.2698 87.21 88.9266 83.3829C90.5834 79.5558 83.0377 75.0253 78.983 73.27C74.9284 71.5147 72.396 74.1023 70.7392 77.9294Z" fill="url(#paint51_radial_62_21094)"/>
</g>
<g style="mix-blend-mode:overlay" opacity="0.64" filter="url(#filter28_f_62_21094)">
<path d="M78.9796 52.8712C80.6949 59.2728 80.3722 64.9214 82.0855 64.4623C83.7988 64.0032 83.7972 58.4416 82.0819 52.04C80.3666 45.6384 73.9822 42.8222 72.2689 43.2813C70.5556 43.7404 77.2643 46.4696 78.9796 52.8712Z" fill="url(#paint52_linear_62_21094)"/>
</g>
<g style="mix-blend-mode:overlay" opacity="0.56" filter="url(#filter29_f_62_21094)">
<path d="M83.9238 101.348C69.7972 103.585 57.4626 103.728 57.8398 106.185C57.348 108.614 71.8358 111.212 86.4966 106.185C110.256 95.029 105.077 86.4711 103.346 88.3826C100.571 90.2349 100.768 98.681 83.9238 101.348Z" fill="url(#paint53_linear_62_21094)"/>
</g>
<g style="mix-blend-mode:multiply" opacity="0.24" filter="url(#filter30_f_62_21094)">
<path d="M84.9925 96.4083C74.6234 98.03 65.6506 98.6446 65.815 99.7154C65.349 100.813 75.7644 101.316 86.6466 98.4346C104.417 92.4336 101.034 88.8761 99.6907 89.7997C97.5909 90.7438 97.3561 94.4746 84.9925 96.4083Z" fill="url(#paint54_linear_62_21094)"/>
</g>
<g style="mix-blend-mode:overlay" opacity="0.4" filter="url(#filter31_f_62_21094)">
<path d="M99.7736 83.921C90.475 94.7885 79.8074 101.697 82.2039 102.356C84.2202 103.797 106.843 98.983 108.239 83.5471C107.756 57.3034 102.301 59.1399 103.339 61.5002C104.84 73.5001 104.84 78.0001 99.7736 83.921Z" fill="url(#paint55_linear_62_21094)"/>
</g>
</g>
<mask id="mask7_62_21094" style="mask-type:alpha" maskUnits="userSpaceOnUse" x="73" y="43" width="34" height="62">
<path d="M104.84 63C103.34 51 102.34 43 99.8401 43C97.3401 43 85.3401 51 85.3401 51C81.8401 50 73.3402 50 73.3402 50V105C73.3402 105 93.3402 105 101.34 95.5C109.34 86 106.34 75 104.84 63Z" fill="url(#paint56_linear_62_21094)"/>
</mask>
<g mask="url(#mask7_62_21094)">
<g filter="url(#filter32_di_62_21094)">
<path d="M92.3401 69.6409C92.3401 67.4317 90.5492 71.6409 88.3401 71.6409C86.1309 71.6409 84.3401 67.4317 84.3401 69.6409C84.3401 71.85 86.1309 73.6409 88.3401 73.6409C90.5492 73.6409 92.3401 71.85 92.3401 69.6409Z" fill="url(#paint57_radial_62_21094)"/>
</g>
<path d="M69.3401 77C69.3401 78.0621 71.1309 81 73.3401 81C75.5492 81 76.8401 78.0621 76.8401 77C76.8401 75.9379 75.5492 75.5 73.3401 75.5C71.1309 75.5 69.3401 75.9379 69.3401 77Z" fill="url(#paint58_radial_62_21094)"/>
<g style="mix-blend-mode:soft-light">
<path d="M69.3401 77C69.3401 78.0621 71.1309 81 73.3401 81C75.5492 81 76.8401 78.0621 76.8401 77C76.8401 75.9379 75.5492 75.5 73.3401 75.5C71.1309 75.5 69.3401 75.9379 69.3401 77Z" fill="url(#paint59_linear_62_21094)"/>
</g>
<path d="M73.3401 81C73.3401 85 78.8401 87.5 80.8401 83.5" stroke="black" stroke-width="0.75" stroke-linecap="round" stroke-linejoin="round"/>
</g>
<path d="M92.3397 82.0002C96.0505 81.1028 98.8397 81.0001 103.34 81.5001" stroke="black" stroke-width="0.5" stroke-linecap="round" stroke-linejoin="round"/>
<path d="M92.2783 80.4522C94.6862 79.17 96.7057 78.3429 100.139 78.2635" stroke="black" stroke-width="0.5" stroke-linecap="round" stroke-linejoin="round"/>
<path d="M92.2577 83.3406C94.9841 83.4341 97.1466 83.7276 100.159 85.3752" stroke="black" stroke-width="0.5" stroke-linecap="round" stroke-linejoin="round"/>
</g>
<defs>
<filter id="filter0_f_62_21094" x="24" y="62.9392" width="129" height="88.0608" filterUnits="userSpaceOnUse" color-interpolation-filters="sRGB">
<feFlood flood-opacity="0" result="BackgroundImageFix"/>
<feBlend mode="normal" in="SourceGraphic" in2="BackgroundImageFix" result="shape"/>
<feGaussianBlur stdDeviation="6" result="effect1_foregroundBlur_62_21094"/>
</filter>
<filter id="filter1_iiii_62_21094" x="36.0039" y="41.9998" width="113" height="107" filterUnits="userSpaceOnUse" color-interpolation-filters="sRGB">
<feFlood flood-opacity="0" result="BackgroundImageFix"/>
<feBlend mode="normal" in="SourceGraphic" in2="BackgroundImageFix" result="shape"/>
<feColorMatrix in="SourceAlpha" type="matrix" values="0 0 0 0 0 0 0 0 0 0 0 0 0 0 0 0 0 0 127 0" result="hardAlpha"/>
<feOffset dy="12"/>
<feGaussianBlur stdDeviation="16"/>
<feComposite in2="hardAlpha" operator="arithmetic" k2="-1" k3="1"/>
<feColorMatrix type="matrix" values="0 0 0 0 1 0 0 0 0 1 0 0 0 0 1 0 0 0 0.4 0"/>
<feBlend mode="overlay" in2="shape" result="effect1_innerShadow_62_21094"/>
<feColorMatrix in="SourceAlpha" type="matrix" values="0 0 0 0 0 0 0 0 0 0 0 0 0 0 0 0 0 0 127 0" result="hardAlpha"/>
<feOffset dx="2" dy="-4"/>
<feGaussianBlur stdDeviation="4"/>
<feComposite in2="hardAlpha" operator="arithmetic" k2="-1" k3="1"/>
<feColorMatrix type="matrix" values="0 0 0 0 0 0 0 0 0 0 0 0 0 0 0 0 0 0 0.24 0"/>
<feBlend mode="normal" in2="effect1_innerShadow_62_21094" result="effect2_innerShadow_62_21094"/>
<feColorMatrix in="SourceAlpha" type="matrix" values="0 0 0 0 0 0 0 0 0 0 0 0 0 0 0 0 0 0 127 0" result="hardAlpha"/>
<feOffset dx="8" dy="-4"/>
<feGaussianBlur stdDeviation="8"/>
<feComposite in2="hardAlpha" operator="arithmetic" k2="-1" k3="1"/>
<feColorMatrix type="matrix" values="0 0 0 0 0 0 0 0 0 0 0 0 0 0 0 0 0 0 0.24 0"/>
<feBlend mode="overlay" in2="effect2_innerShadow_62_21094" result="effect3_innerShadow_62_21094"/>
<feColorMatrix in="SourceAlpha" type="matrix" values="0 0 0 0 0 0 0 0 0 0 0 0 0 0 0 0 0 0 127 0" result="hardAlpha"/>
<feOffset dx="-4"/>
<feGaussianBlur stdDeviation="6"/>
<feComposite in2="hardAlpha" operator="arithmetic" k2="-1" k3="1"/>
<feColorMatrix type="matrix" values="0 0 0 0 1 0 0 0 0 1 0 0 0 0 1 0 0 0 0.56 0"/>
<feBlend mode="overlay" in2="effect3_innerShadow_62_21094" result="effect4_innerShadow_62_21094"/>
</filter>
<filter id="filter2_f_62_21094" x="40.837" y="72.7585" width="70.6876" height="30.2111" filterUnits="userSpaceOnUse" color-interpolation-filters="sRGB">
<feFlood flood-opacity="0" result="BackgroundImageFix"/>
<feBlend mode="normal" in="SourceGraphic" in2="BackgroundImageFix" result="shape"/>
<feGaussianBlur stdDeviation="1" result="effect1_foregroundBlur_62_21094"/>
</filter>
<filter id="filter3_f_62_21094" x="45.5988" y="64.7296" width="72.6876" height="30.8234" filterUnits="userSpaceOnUse" color-interpolation-filters="sRGB">
<feFlood flood-opacity="0" result="BackgroundImageFix"/>
<feBlend mode="normal" in="SourceGraphic" in2="BackgroundImageFix" result="shape"/>
<feGaussianBlur stdDeviation="1" result="effect1_foregroundBlur_62_21094"/>
</filter>
<filter id="filter4_f_62_21094" x="49.7561" y="57.8273" width="73.7246" height="29.9432" filterUnits="userSpaceOnUse" color-interpolation-filters="sRGB">
<feFlood flood-opacity="0" result="BackgroundImageFix"/>
<feBlend mode="normal" in="SourceGraphic" in2="BackgroundImageFix" result="shape"/>
<feGaussianBlur stdDeviation="1" result="effect1_foregroundBlur_62_21094"/>
</filter>
<filter id="filter5_f_62_21094" x="54.5178" y="52.4106" width="73.7246" height="29.9432" filterUnits="userSpaceOnUse" color-interpolation-filters="sRGB">
<feFlood flood-opacity="0" result="BackgroundImageFix"/>
<feBlend mode="normal" in="SourceGraphic" in2="BackgroundImageFix" result="shape"/>
<feGaussianBlur stdDeviation="1" result="effect1_foregroundBlur_62_21094"/>
</filter>
<filter id="filter6_f_62_21094" x="44.341" y="43.0491" width="89.7068" height="34.3822" filterUnits="userSpaceOnUse" color-interpolation-filters="sRGB">
<feFlood flood-opacity="0" result="BackgroundImageFix"/>
<feBlend mode="normal" in="SourceGraphic" in2="BackgroundImageFix" result="shape"/>
<feGaussianBlur stdDeviation="1" result="effect1_foregroundBlur_62_21094"/>
</filter>
<filter id="filter7_f_62_21094" x="48.0988" y="37.6324" width="89.7068" height="34.3822" filterUnits="userSpaceOnUse" color-interpolation-filters="sRGB">
<feFlood flood-opacity="0" result="BackgroundImageFix"/>
<feBlend mode="normal" in="SourceGraphic" in2="BackgroundImageFix" result="shape"/>
<feGaussianBlur stdDeviation="1" result="effect1_foregroundBlur_62_21094"/>
</filter>
<filter id="filter8_f_62_21094" x="32.4023" y="66.7341" width="78" height="51" filterUnits="userSpaceOnUse" color-interpolation-filters="sRGB">
<feFlood flood-opacity="0" result="BackgroundImageFix"/>
<feBlend mode="normal" in="SourceGraphic" in2="BackgroundImageFix" result="shape"/>
<feGaussianBlur stdDeviation="4" result="effect1_foregroundBlur_62_21094"/>
</filter>
<filter id="filter9_d_62_21094" x="45.0897" y="76.7498" width="49.1803" height="40.0002" filterUnits="userSpaceOnUse" color-interpolation-filters="sRGB">
<feFlood flood-opacity="0" result="BackgroundImageFix"/>
<feColorMatrix in="SourceAlpha" type="matrix" values="0 0 0 0 0 0 0 0 0 0 0 0 0 0 0 0 0 0 127 0" result="hardAlpha"/>
<feOffset dx="-2" dy="1"/>
<feGaussianBlur stdDeviation="1.75"/>
<feComposite in2="hardAlpha" operator="out"/>
<feColorMatrix type="matrix" values="0 0 0 0 0 0 0 0 0 0 0 0 0 0 0 0 0 0 0.24 0"/>
<feBlend mode="normal" in2="BackgroundImageFix" result="effect1_dropShadow_62_21094"/>
<feBlend mode="normal" in="SourceGraphic" in2="effect1_dropShadow_62_21094" result="shape"/>
</filter>
<filter id="filter10_ii_62_21094" x="50.3397" y="79.2498" width="42.9303" height="33.2502" filterUnits="userSpaceOnUse" color-interpolation-filters="sRGB">
<feFlood flood-opacity="0" result="BackgroundImageFix"/>
<feBlend mode="normal" in="SourceGraphic" in2="BackgroundImageFix" result="shape"/>
<feColorMatrix in="SourceAlpha" type="matrix" values="0 0 0 0 0 0 0 0 0 0 0 0 0 0 0 0 0 0 127 0" result="hardAlpha"/>
<feOffset dx="-0.25" dy="0.25"/>
<feGaussianBlur stdDeviation="0.25"/>
<feComposite in2="hardAlpha" operator="arithmetic" k2="-1" k3="1"/>
<feColorMatrix type="matrix" values="0 0 0 0 1 0 0 0 0 1 0 0 0 0 1 0 0 0 0.48 0"/>
<feBlend mode="normal" in2="shape" result="effect1_innerShadow_62_21094"/>
<feColorMatrix in="SourceAlpha" type="matrix" values="0 0 0 0 0 0 0 0 0 0 0 0 0 0 0 0 0 0 127 0" result="hardAlpha"/>
<feOffset dx="0.5" dy="0.25"/>
<feGaussianBlur stdDeviation="0.25"/>
<feComposite in2="hardAlpha" operator="arithmetic" k2="-1" k3="1"/>
<feColorMatrix type="matrix" values="0 0 0 0 0 0 0 0 0 0 0 0 0 0 0 0 0 0 0.4 0"/>
<feBlend mode="overlay" in2="effect1_innerShadow_62_21094" result="effect2_innerShadow_62_21094"/>
</filter>
<filter id="filter11_f_62_21094" x="44.3398" y="74" width="44" height="44" filterUnits="userSpaceOnUse" color-interpolation-filters="sRGB">
<feFlood flood-opacity="0" result="BackgroundImageFix"/>
<feBlend mode="normal" in="SourceGraphic" in2="BackgroundImageFix" result="shape"/>
<feGaussianBlur stdDeviation="3" result="effect1_foregroundBlur_62_21094"/>
</filter>
<filter id="filter12_ii_62_21094" x="65.3398" y="106.75" width="16" height="12.75" filterUnits="userSpaceOnUse" color-interpolation-filters="sRGB">
<feFlood flood-opacity="0" result="BackgroundImageFix"/>
<feBlend mode="normal" in="SourceGraphic" in2="BackgroundImageFix" result="shape"/>
<feColorMatrix in="SourceAlpha" type="matrix" values="0 0 0 0 0 0 0 0 0 0 0 0 0 0 0 0 0 0 127 0" result="hardAlpha"/>
<feOffset dx="1" dy="-0.25"/>
<feGaussianBlur stdDeviation="0.75"/>
<feComposite in2="hardAlpha" operator="arithmetic" k2="-1" k3="1"/>
<feColorMatrix type="matrix" values="0 0 0 0 0 0 0 0 0 0 0 0 0 0 0 0 0 0 0.32 0"/>
<feBlend mode="normal" in2="shape" result="effect1_innerShadow_62_21094"/>
<feColorMatrix in="SourceAlpha" type="matrix" values="0 0 0 0 0 0 0 0 0 0 0 0 0 0 0 0 0 0 127 0" result="hardAlpha"/>
<feOffset dx="-1" dy="0.5"/>
<feGaussianBlur stdDeviation="0.75"/>
<feComposite in2="hardAlpha" operator="arithmetic" k2="-1" k3="1"/>
<feColorMatrix type="matrix" values="0 0 0 0 1 0 0 0 0 1 0 0 0 0 1 0 0 0 0.56 0"/>
<feBlend mode="normal" in2="effect1_innerShadow_62_21094" result="effect2_innerShadow_62_21094"/>
</filter>
<filter id="filter13_i_62_21094" x="70.1645" y="111.619" width="6.06815" height="2.0427" filterUnits="userSpaceOnUse" color-interpolation-filters="sRGB">
<feFlood flood-opacity="0" result="BackgroundImageFix"/>
<feBlend mode="normal" in="SourceGraphic" in2="BackgroundImageFix" result="shape"/>
<feColorMatrix in="SourceAlpha" type="matrix" values="0 0 0 0 0 0 0 0 0 0 0 0 0 0 0 0 0 0 127 0" result="hardAlpha"/>
<feOffset dx="-0.15" dy="0.15"/>
<feGaussianBlur stdDeviation="0.125"/>
<feComposite in2="hardAlpha" operator="arithmetic" k2="-1" k3="1"/>
<feColorMatrix type="matrix" values="0 0 0 0 0 0 0 0 0 0 0 0 0 0 0 0 0 0 0.48 0"/>
<feBlend mode="normal" in2="shape" result="effect1_innerShadow_62_21094"/>
</filter>
<filter id="filter14_iiii_62_21094" x="33.3398" y="33" width="79" height="76" filterUnits="userSpaceOnUse" color-interpolation-filters="sRGB">
<feFlood flood-opacity="0" result="BackgroundImageFix"/>
<feBlend mode="normal" in="SourceGraphic" in2="BackgroundImageFix" result="shape"/>
<feColorMatrix in="SourceAlpha" type="matrix" values="0 0 0 0 0 0 0 0 0 0 0 0 0 0 0 0 0 0 127 0" result="hardAlpha"/>
<feOffset dx="2" dy="-4"/>
<feGaussianBlur stdDeviation="4"/>
<feComposite in2="hardAlpha" operator="arithmetic" k2="-1" k3="1"/>
<feColorMatrix type="matrix" values="0 0 0 0 0 0 0 0 0 0 0 0 0 0 0 0 0 0 0.16 0"/>
<feBlend mode="overlay" in2="shape" result="effect1_innerShadow_62_21094"/>
<feColorMatrix in="SourceAlpha" type="matrix" values="0 0 0 0 0 0 0 0 0 0 0 0 0 0 0 0 0 0 127 0" result="hardAlpha"/>
<feOffset dx="3" dy="-6"/>
<feGaussianBlur stdDeviation="4"/>
<feComposite in2="hardAlpha" operator="arithmetic" k2="-1" k3="1"/>
<feColorMatrix type="matrix" values="0 0 0 0 0 0 0 0 0 0 0 0 0 0 0 0 0 0 0.24 0"/>
<feBlend mode="overlay" in2="effect1_innerShadow_62_21094" result="effect2_innerShadow_62_21094"/>
<feColorMatrix in="SourceAlpha" type="matrix" values="0 0 0 0 0 0 0 0 0 0 0 0 0 0 0 0 0 0 127 0" result="hardAlpha"/>
<feOffset dx="-4" dy="2"/>
<feGaussianBlur stdDeviation="2"/>
<feComposite in2="hardAlpha" operator="arithmetic" k2="-1" k3="1"/>
<feColorMatrix type="matrix" values="0 0 0 0 1 0 0 0 0 1 0 0 0 0 1 0 0 0 0.32 0"/>
<feBlend mode="overlay" in2="effect2_innerShadow_62_21094" result="effect3_innerShadow_62_21094"/>
<feColorMatrix in="SourceAlpha" type="matrix" values="0 0 0 0 0 0 0 0 0 0 0 0 0 0 0 0 0 0 127 0" result="hardAlpha"/>
<feOffset/>
<feGaussianBlur stdDeviation="2"/>
<feComposite in2="hardAlpha" operator="arithmetic" k2="-1" k3="1"/>
<feColorMatrix type="matrix" values="0 0 0 0 1 0 0 0 0 1 0 0 0 0 1 0 0 0 0.24 0"/>
<feBlend mode="overlay" in2="effect3_innerShadow_62_21094" result="effect4_innerShadow_62_21094"/>
</filter>
<filter id="filter15_f_62_21094" x="46.3583" y="69.9651" width="29.9627" height="20.0701" filterUnits="userSpaceOnUse" color-interpolation-filters="sRGB">
<feFlood flood-opacity="0" result="BackgroundImageFix"/>
<feBlend mode="normal" in="SourceGraphic" in2="BackgroundImageFix" result="shape"/>
<feGaussianBlur stdDeviation="2" result="effect1_foregroundBlur_62_21094"/>
</filter>
<filter id="filter16_f_62_21094" x="29.2411" y="63.0565" width="26.8849" height="46.9886" filterUnits="userSpaceOnUse" color-interpolation-filters="sRGB">
<feFlood flood-opacity="0" result="BackgroundImageFix"/>
<feBlend mode="normal" in="SourceGraphic" in2="BackgroundImageFix" result="shape"/>
<feGaussianBlur stdDeviation="3" result="effect1_foregroundBlur_62_21094"/>
</filter>
<filter id="filter17_f_62_21094" x="50.3398" y="44" width="40" height="32.6154" filterUnits="userSpaceOnUse" color-interpolation-filters="sRGB">
<feFlood flood-opacity="0" result="BackgroundImageFix"/>
<feBlend mode="normal" in="SourceGraphic" in2="BackgroundImageFix" result="shape"/>
<feGaussianBlur stdDeviation="2" result="effect1_foregroundBlur_62_21094"/>
</filter>
<filter id="filter18_f_62_21094" x="51.5191" y="66.7091" width="32.0611" height="29.6628" filterUnits="userSpaceOnUse" color-interpolation-filters="sRGB">
<feFlood flood-opacity="0" result="BackgroundImageFix"/>
<feBlend mode="normal" in="SourceGraphic" in2="BackgroundImageFix" result="shape"/>
<feGaussianBlur stdDeviation="3" result="effect1_foregroundBlur_62_21094"/>
</filter>
<filter id="filter19_f_62_21094" x="61.3103" y="41.2332" width="15.3781" height="25.2554" filterUnits="userSpaceOnUse" color-interpolation-filters="sRGB">
<feFlood flood-opacity="0" result="BackgroundImageFix"/>
<feBlend mode="normal" in="SourceGraphic" in2="BackgroundImageFix" result="shape"/>
<feGaussianBlur stdDeviation="1" result="effect1_foregroundBlur_62_21094"/>
</filter>
<filter id="filter20_f_62_21094" x="37.6346" y="84.1145" width="55.2174" height="28.9467" filterUnits="userSpaceOnUse" color-interpolation-filters="sRGB">
<feFlood flood-opacity="0" result="BackgroundImageFix"/>
<feBlend mode="normal" in="SourceGraphic" in2="BackgroundImageFix" result="shape"/>
<feGaussianBlur stdDeviation="2" result="effect1_foregroundBlur_62_21094"/>
</filter>
<filter id="filter21_f_62_21094" x="39.8227" y="83.6547" width="47.0571" height="22.9269" filterUnits="userSpaceOnUse" color-interpolation-filters="sRGB">
<feFlood flood-opacity="0" result="BackgroundImageFix"/>
<feBlend mode="normal" in="SourceGraphic" in2="BackgroundImageFix" result="shape"/>
<feGaussianBlur stdDeviation="3" result="effect1_foregroundBlur_62_21094"/>
</filter>
<filter id="filter22_f_62_21094" x="32.4407" y="54.2449" width="38.377" height="54.3536" filterUnits="userSpaceOnUse" color-interpolation-filters="sRGB">
<feFlood flood-opacity="0" result="BackgroundImageFix"/>
<feBlend mode="normal" in="SourceGraphic" in2="BackgroundImageFix" result="shape"/>
<feGaussianBlur stdDeviation="3" result="effect1_foregroundBlur_62_21094"/>
</filter>
<filter id="filter23_di_62_21094" x="53.3396" y="67.9998" width="10" height="7.64111" filterUnits="userSpaceOnUse" color-interpolation-filters="sRGB">
<feFlood flood-opacity="0" result="BackgroundImageFix"/>
<feColorMatrix in="SourceAlpha" type="matrix" values="0 0 0 0 0 0 0 0 0 0 0 0 0 0 0 0 0 0 127 0" result="hardAlpha"/>
<feOffset dy="1"/>
<feGaussianBlur stdDeviation="0.5"/>
<feComposite in2="hardAlpha" operator="out"/>
<feColorMatrix type="matrix" values="0 0 0 0 1 0 0 0 0 1 0 0 0 0 1 0 0 0 0.16 0"/>
<feBlend mode="overlay" in2="BackgroundImageFix" result="effect1_dropShadow_62_21094"/>
<feBlend mode="normal" in="SourceGraphic" in2="effect1_dropShadow_62_21094" result="shape"/>
<feColorMatrix in="SourceAlpha" type="matrix" values="0 0 0 0 0 0 0 0 0 0 0 0 0 0 0 0 0 0 127 0" result="hardAlpha"/>
<feOffset dy="-1"/>
<feGaussianBlur stdDeviation="0.5"/>
<feComposite in2="hardAlpha" operator="arithmetic" k2="-1" k3="1"/>
<feColorMatrix type="matrix" values="0 0 0 0 0.491667 0 0 0 0 0.483472 0 0 0 0 0.483472 0 0 0 0.35 0"/>
<feBlend mode="normal" in2="shape" result="effect2_innerShadow_62_21094"/>
</filter>
<filter id="filter24_f_62_21094" x="70.3586" y="69.9651" width="29.9627" height="20.0701" filterUnits="userSpaceOnUse" color-interpolation-filters="sRGB">
<feFlood flood-opacity="0" result="BackgroundImageFix"/>
<feBlend mode="normal" in="SourceGraphic" in2="BackgroundImageFix" result="shape"/>
<feGaussianBlur stdDeviation="2" result="effect1_foregroundBlur_62_21094"/>
</filter>
<filter id="filter25_f_62_21094" x="90.5537" y="63.0565" width="26.8849" height="46.9886" filterUnits="userSpaceOnUse" color-interpolation-filters="sRGB">
<feFlood flood-opacity="0" result="BackgroundImageFix"/>
<feBlend mode="normal" in="SourceGraphic" in2="BackgroundImageFix" result="shape"/>
<feGaussianBlur stdDeviation="3" result="effect1_foregroundBlur_62_21094"/>
</filter>
<filter id="filter26_f_62_21094" x="56.3398" y="44" width="40" height="32.6154" filterUnits="userSpaceOnUse" color-interpolation-filters="sRGB">
<feFlood flood-opacity="0" result="BackgroundImageFix"/>
<feBlend mode="normal" in="SourceGraphic" in2="BackgroundImageFix" result="shape"/>
<feGaussianBlur stdDeviation="2" result="effect1_foregroundBlur_62_21094"/>
</filter>
<filter id="filter27_f_62_21094" x="63.0995" y="66.7091" width="32.0611" height="29.6628" filterUnits="userSpaceOnUse" color-interpolation-filters="sRGB">
<feFlood flood-opacity="0" result="BackgroundImageFix"/>
<feBlend mode="normal" in="SourceGraphic" in2="BackgroundImageFix" result="shape"/>
<feGaussianBlur stdDeviation="3" result="effect1_foregroundBlur_62_21094"/>
</filter>
<filter id="filter28_f_62_21094" x="69.9913" y="41.2332" width="15.3781" height="25.2554" filterUnits="userSpaceOnUse" color-interpolation-filters="sRGB">
<feFlood flood-opacity="0" result="BackgroundImageFix"/>
<feBlend mode="normal" in="SourceGraphic" in2="BackgroundImageFix" result="shape"/>
<feGaussianBlur stdDeviation="1" result="effect1_foregroundBlur_62_21094"/>
</filter>
<filter id="filter29_f_62_21094" x="53.8277" y="84.1145" width="55.2174" height="28.9467" filterUnits="userSpaceOnUse" color-interpolation-filters="sRGB">
<feFlood flood-opacity="0" result="BackgroundImageFix"/>
<feBlend mode="normal" in="SourceGraphic" in2="BackgroundImageFix" result="shape"/>
<feGaussianBlur stdDeviation="2" result="effect1_foregroundBlur_62_21094"/>
</filter>
<filter id="filter30_f_62_21094" x="59.7999" y="83.6547" width="47.0571" height="22.9269" filterUnits="userSpaceOnUse" color-interpolation-filters="sRGB">
<feFlood flood-opacity="0" result="BackgroundImageFix"/>
<feBlend mode="normal" in="SourceGraphic" in2="BackgroundImageFix" result="shape"/>
<feGaussianBlur stdDeviation="3" result="effect1_foregroundBlur_62_21094"/>
</filter>
<filter id="filter31_f_62_21094" x="75.8621" y="54.2449" width="38.377" height="54.3536" filterUnits="userSpaceOnUse" color-interpolation-filters="sRGB">
<feFlood flood-opacity="0" result="BackgroundImageFix"/>
<feBlend mode="normal" in="SourceGraphic" in2="BackgroundImageFix" result="shape"/>
<feGaussianBlur stdDeviation="3" result="effect1_foregroundBlur_62_21094"/>
</filter>
<filter id="filter32_di_62_21094" x="83.3401" y="67.9998" width="10" height="7.64111" filterUnits="userSpaceOnUse" color-interpolation-filters="sRGB">
<feFlood flood-opacity="0" result="BackgroundImageFix"/>
<feColorMatrix in="SourceAlpha" type="matrix" values="0 0 0 0 0 0 0 0 0 0 0 0 0 0 0 0 0 0 127 0" result="hardAlpha"/>
<feOffset dy="1"/>
<feGaussianBlur stdDeviation="0.5"/>
<feComposite in2="hardAlpha" operator="out"/>
<feColorMatrix type="matrix" values="0 0 0 0 1 0 0 0 0 1 0 0 0 0 1 0 0 0 0.16 0"/>
<feBlend mode="overlay" in2="BackgroundImageFix" result="effect1_dropShadow_62_21094"/>
<feBlend mode="normal" in="SourceGraphic" in2="effect1_dropShadow_62_21094" result="shape"/>
<feColorMatrix in="SourceAlpha" type="matrix" values="0 0 0 0 0 0 0 0 0 0 0 0 0 0 0 0 0 0 127 0" result="hardAlpha"/>
<feOffset dy="-1"/>
<feGaussianBlur stdDeviation="0.5"/>
<feComposite in2="hardAlpha" operator="arithmetic" k2="-1" k3="1"/>
<feColorMatrix type="matrix" values="0 0 0 0 0.491667 0 0 0 0 0.483472 0 0 0 0 0.483472 0 0 0 0.35 0"/>
<feBlend mode="normal" in2="shape" result="effect2_innerShadow_62_21094"/>
</filter>
<linearGradient id="paint0_linear_62_21094" x1="140.365" y1="-22.125" x2="65.6284" y2="-13.8196" gradientUnits="userSpaceOnUse">
<stop stop-opacity="0"/>
<stop offset="1"/>
</linearGradient>
<linearGradient id="paint1_linear_62_21094" x1="112.503" y1="35" x2="76.2744" y2="148.57" gradientUnits="userSpaceOnUse">
<stop stop-color="white"/>
<stop offset="1"/>
</linearGradient>
<linearGradient id="paint2_linear_62_21094" x1="39.9999" y1="137" x2="77.9999" y2="108" gradientUnits="userSpaceOnUse">
<stop/>
<stop offset="1" stop-opacity="0"/>
</linearGradient>
<linearGradient id="paint3_linear_62_21094" x1="111.151" y1="102.097" x2="101.041" y2="84.5852" gradientUnits="userSpaceOnUse">
<stop stop-opacity="0"/>
<stop offset="1"/>
</linearGradient>
<linearGradient id="paint4_linear_62_21094" x1="67.6379" y1="85.0969" x2="78.374" y2="68.4329" gradientUnits="userSpaceOnUse">
<stop stop-opacity="0"/>
<stop offset="1"/>
</linearGradient>
<linearGradient id="paint5_linear_62_21094" x1="42.0514" y1="82.0295" x2="61.1709" y2="75.4461" gradientUnits="userSpaceOnUse">
<stop/>
<stop offset="1" stop-opacity="0"/>
</linearGradient>
<linearGradient id="paint6_linear_62_21094" x1="117.913" y1="94.6806" x2="107.802" y2="77.1685" gradientUnits="userSpaceOnUse">
<stop stop-opacity="0"/>
<stop offset="1"/>
</linearGradient>
<linearGradient id="paint7_linear_62_21094" x1="74.3996" y1="77.6801" x2="85.1358" y2="61.0162" gradientUnits="userSpaceOnUse">
<stop stop-opacity="0"/>
<stop offset="1"/>
</linearGradient>
<linearGradient id="paint8_linear_62_21094" x1="46.8131" y1="73.6128" x2="65.9326" y2="67.0295" gradientUnits="userSpaceOnUse">
<stop/>
<stop offset="1" stop-opacity="0"/>
</linearGradient>
<linearGradient id="paint9_linear_62_21094" x1="69.8422" y1="69.4815" x2="80.6565" y2="51.1149" gradientUnits="userSpaceOnUse">
<stop stop-opacity="0"/>
<stop offset="1"/>
</linearGradient>
<linearGradient id="paint10_linear_62_21094" x1="123.813" y1="86.1733" x2="109.514" y2="71.8747" gradientUnits="userSpaceOnUse">
<stop stop-opacity="0"/>
<stop offset="1"/>
</linearGradient>
<linearGradient id="paint11_linear_62_21094" x1="50.5126" y1="65.8229" x2="70.3623" y2="61.9646" gradientUnits="userSpaceOnUse">
<stop/>
<stop offset="1" stop-opacity="0"/>
</linearGradient>
<linearGradient id="paint12_linear_62_21094" x1="74.6039" y1="64.0649" x2="85.4183" y2="45.6982" gradientUnits="userSpaceOnUse">
<stop stop-opacity="0"/>
<stop offset="1"/>
</linearGradient>
<linearGradient id="paint13_linear_62_21094" x1="128.575" y1="80.7567" x2="114.276" y2="66.4581" gradientUnits="userSpaceOnUse">
<stop stop-opacity="0"/>
<stop offset="1"/>
</linearGradient>
<linearGradient id="paint14_linear_62_21094" x1="55.2743" y1="60.4063" x2="75.124" y2="56.5479" gradientUnits="userSpaceOnUse">
<stop/>
<stop offset="1" stop-opacity="0"/>
</linearGradient>
<linearGradient id="paint15_linear_62_21094" x1="68.7594" y1="55.5554" x2="79.7833" y2="35.1105" gradientUnits="userSpaceOnUse">
<stop stop-opacity="0"/>
<stop offset="1"/>
</linearGradient>
<linearGradient id="paint16_linear_62_21094" x1="134.276" y1="75.9371" x2="119.939" y2="61.6008" gradientUnits="userSpaceOnUse">
<stop stop-opacity="0"/>
<stop offset="1"/>
</linearGradient>
<linearGradient id="paint17_linear_62_21094" x1="45.1112" y1="51.7353" x2="65.0133" y2="47.8667" gradientUnits="userSpaceOnUse">
<stop/>
<stop offset="1" stop-opacity="0"/>
</linearGradient>
<linearGradient id="paint18_linear_62_21094" x1="72.5172" y1="50.1388" x2="83.5411" y2="29.6939" gradientUnits="userSpaceOnUse">
<stop stop-opacity="0"/>
<stop offset="1"/>
</linearGradient>
<linearGradient id="paint19_linear_62_21094" x1="138.033" y1="70.5205" x2="123.697" y2="56.1842" gradientUnits="userSpaceOnUse">
<stop stop-opacity="0"/>
<stop offset="1"/>
</linearGradient>
<linearGradient id="paint20_linear_62_21094" x1="48.8691" y1="46.3186" x2="68.7711" y2="42.4501" gradientUnits="userSpaceOnUse">
<stop/>
<stop offset="1" stop-opacity="0"/>
</linearGradient>
<linearGradient id="paint21_linear_62_21094" x1="71.4023" y1="92.2341" x2="90.7747" y2="103.259" gradientUnits="userSpaceOnUse">
<stop/>
<stop offset="1" stop-opacity="0.64"/>
</linearGradient>
<linearGradient id="paint22_linear_62_21094" x1="87.8398" y1="97.5" x2="56.8398" y2="110.5" gradientUnits="userSpaceOnUse">
<stop stop-color="white"/>
<stop offset="1" stop-color="white" stop-opacity="0"/>
</linearGradient>
<linearGradient id="paint23_linear_62_21094" x1="87.8398" y1="97.5" x2="56.8398" y2="110.5" gradientUnits="userSpaceOnUse">
<stop stop-color="white"/>
<stop offset="1" stop-color="white" stop-opacity="0"/>
</linearGradient>
<linearGradient id="paint24_linear_62_21094" x1="58.5061" y1="113.457" x2="81.7189" y2="84.624" gradientUnits="userSpaceOnUse">
<stop stop-color="#503622"/>
<stop offset="1" stop-color="#A38C7B"/>
</linearGradient>
<radialGradient id="paint25_radial_62_21094" cx="0" cy="0" r="1" gradientUnits="userSpaceOnUse" gradientTransform="translate(68.6974 117.875) rotate(94.7619) scale(41.5059 48.0314)">
<stop offset="0.0729167" stop-color="#D5D4DF"/>
<stop offset="0.197917" stop-color="#847EAC"/>
<stop offset="0.270833" stop-color="#DFDCEF"/>
<stop offset="0.416465" stop-color="#DFDCEF"/>
<stop offset="0.494396" stop-color="#847BAA"/>
<stop offset="0.582197" stop-color="#DFDCEF"/>
<stop offset="0.708863" stop-color="#847BAA"/>
<stop offset="0.815698" stop-color="#DFDCEF"/>
<stop offset="0.962916" stop-color="#847BAA"/>
</radialGradient>
<linearGradient id="paint26_linear_62_21094" x1="73.3398" y1="113.5" x2="73.3398" y2="109" gradientUnits="userSpaceOnUse">
<stop/>
<stop offset="1" stop-opacity="0"/>
</linearGradient>
<linearGradient id="paint27_linear_62_21094" x1="75.3398" y1="108.5" x2="74.3398" y2="114" gradientUnits="userSpaceOnUse">
<stop stop-color="white"/>
<stop offset="1" stop-color="white" stop-opacity="0"/>
</linearGradient>
<linearGradient id="paint28_linear_62_21094" x1="56.6819" y1="43" x2="56.6819" y2="105" gradientUnits="userSpaceOnUse">
<stop stop-color="white"/>
<stop offset="1" stop-color="white" stop-opacity="0"/>
</linearGradient>
<linearGradient id="paint29_linear_62_21094" x1="36.7554" y1="28.5" x2="52.0183" y2="55.471" gradientUnits="userSpaceOnUse">
<stop/>
<stop offset="1" stop-opacity="0"/>
</linearGradient>
<linearGradient id="paint30_linear_62_21094" x1="36.7554" y1="28.5" x2="52.0183" y2="55.471" gradientUnits="userSpaceOnUse">
<stop/>
<stop offset="1" stop-opacity="0"/>
</linearGradient>
<linearGradient id="paint31_linear_62_21094" x1="36.7554" y1="28.5001" x2="52.0183" y2="55.4712" gradientUnits="userSpaceOnUse">
<stop/>
<stop offset="1" stop-opacity="0"/>
</linearGradient>
<radialGradient id="paint32_radial_62_21094" cx="0" cy="0" r="1" gradientUnits="userSpaceOnUse" gradientTransform="translate(61.3397 80.0002) rotate(90) scale(6 11)">
<stop stop-color="white"/>
<stop offset="1" stop-color="white" stop-opacity="0"/>
</radialGradient>
<radialGradient id="paint33_radial_62_21094" cx="0" cy="0" r="1" gradientUnits="userSpaceOnUse" gradientTransform="translate(42.6835 86.5508) rotate(90) scale(6 18.0388)">
<stop stop-color="white"/>
<stop offset="1" stop-color="white" stop-opacity="0"/>
</radialGradient>
<radialGradient id="paint34_radial_62_21094" cx="0" cy="0" r="1" gradientUnits="userSpaceOnUse" gradientTransform="translate(72.7641 58.2064) rotate(90) scale(10.2064 13.5758)">
<stop stop-color="white"/>
<stop offset="1" stop-color="white" stop-opacity="0"/>
</radialGradient>
<radialGradient id="paint35_radial_62_21094" cx="0" cy="0" r="1" gradientUnits="userSpaceOnUse" gradientTransform="translate(68.5989 81.1077) rotate(66.5917) scale(7.55103 8)">
<stop/>
<stop offset="1" stop-opacity="0"/>
</radialGradient>
<linearGradient id="paint36_linear_62_21094" x1="72.4639" y1="45.8655" x2="67.0287" y2="66.1499" gradientUnits="userSpaceOnUse">
<stop/>
<stop offset="1" stop-opacity="0"/>
</linearGradient>
<linearGradient id="paint37_linear_62_21094" x1="46.7679" y1="98.2377" x2="78.3863" y2="100.796" gradientUnits="userSpaceOnUse">
<stop stop-opacity="0"/>
<stop offset="1"/>
</linearGradient>
<linearGradient id="paint38_linear_62_21094" x1="49.926" y1="94.3166" x2="73.0828" y2="95.0616" gradientUnits="userSpaceOnUse">
<stop stop-opacity="0"/>
<stop offset="1"/>
</linearGradient>
<linearGradient id="paint39_linear_62_21094" x1="43.2177" y1="68.0562" x2="53.7917" y2="97.9637" gradientUnits="userSpaceOnUse">
<stop stop-color="white"/>
<stop offset="1" stop-color="white" stop-opacity="0"/>
</linearGradient>
<linearGradient id="paint40_linear_62_21094" x1="104.34" y1="55" x2="55.3396" y2="107" gradientUnits="userSpaceOnUse">
<stop stop-color="#F5F5F5"/>
<stop offset="1" stop-color="#BCBCBC"/>
</linearGradient>
<radialGradient id="paint41_radial_62_21094" cx="0" cy="0" r="1" gradientUnits="userSpaceOnUse" gradientTransform="translate(58.3396 69.6409) rotate(-90) scale(8)">
<stop stop-color="#474747"/>
<stop offset="1"/>
</radialGradient>
<radialGradient id="paint42_radial_62_21094" cx="0" cy="0" r="1" gradientUnits="userSpaceOnUse" gradientTransform="translate(73.3396 76.5) rotate(90) scale(4.5 6.13636)">
<stop stop-color="#474747"/>
<stop offset="1"/>
</radialGradient>
<linearGradient id="paint43_linear_62_21094" x1="73.1729" y1="75.5" x2="73.1729" y2="79.189" gradientUnits="userSpaceOnUse">
<stop stop-color="#EFEFEF"/>
<stop offset="1" stop-color="#EFEFEF" stop-opacity="0"/>
</linearGradient>
<linearGradient id="paint44_linear_62_21094" x1="89.9977" y1="43" x2="89.9977" y2="105" gradientUnits="userSpaceOnUse">
<stop stop-color="white"/>
<stop offset="1" stop-color="white" stop-opacity="0"/>
</linearGradient>
<linearGradient id="paint45_linear_62_21094" x1="109.924" y1="28.5" x2="94.6614" y2="55.471" gradientUnits="userSpaceOnUse">
<stop/>
<stop offset="1" stop-opacity="0"/>
</linearGradient>
<linearGradient id="paint46_linear_62_21094" x1="109.924" y1="28.5" x2="94.6614" y2="55.471" gradientUnits="userSpaceOnUse">
<stop/>
<stop offset="1" stop-opacity="0"/>
</linearGradient>
<linearGradient id="paint47_linear_62_21094" x1="109.924" y1="28.5001" x2="94.6614" y2="55.4712" gradientUnits="userSpaceOnUse">
<stop/>
<stop offset="1" stop-opacity="0"/>
</linearGradient>
<radialGradient id="paint48_radial_62_21094" cx="0" cy="0" r="1" gradientUnits="userSpaceOnUse" gradientTransform="translate(11 6) rotate(90) scale(6 11)">
<stop stop-color="white"/>
<stop offset="1" stop-color="white" stop-opacity="0"/>
</radialGradient>
<radialGradient id="paint49_radial_62_21094" cx="0" cy="0" r="1" gradientUnits="userSpaceOnUse" gradientTransform="translate(18.0388 6) rotate(90) scale(6 18.0388)">
<stop stop-color="white"/>
<stop offset="1" stop-color="white" stop-opacity="0"/>
</radialGradient>
<radialGradient id="paint50_radial_62_21094" cx="0" cy="0" r="1" gradientUnits="userSpaceOnUse" gradientTransform="translate(73.9156 58.2064) rotate(90) scale(10.2064 13.5758)">
<stop stop-color="white"/>
<stop offset="1" stop-color="white" stop-opacity="0"/>
</radialGradient>
<radialGradient id="paint51_radial_62_21094" cx="0" cy="0" r="1" gradientUnits="userSpaceOnUse" gradientTransform="translate(78.0807 81.1077) rotate(113.408) scale(7.55103 8)">
<stop/>
<stop offset="1" stop-opacity="0"/>
</radialGradient>
<linearGradient id="paint52_linear_62_21094" x1="74.2158" y1="45.8655" x2="79.651" y2="66.1499" gradientUnits="userSpaceOnUse">
<stop/>
<stop offset="1" stop-opacity="0"/>
</linearGradient>
<linearGradient id="paint53_linear_62_21094" x1="99.9118" y1="98.2377" x2="68.2934" y2="100.796" gradientUnits="userSpaceOnUse">
<stop stop-opacity="0"/>
<stop offset="1"/>
</linearGradient>
<linearGradient id="paint54_linear_62_21094" x1="96.7537" y1="94.3166" x2="73.5969" y2="95.0616" gradientUnits="userSpaceOnUse">
<stop stop-opacity="0"/>
<stop offset="1"/>
</linearGradient>
<linearGradient id="paint55_linear_62_21094" x1="103.462" y1="68.0562" x2="92.888" y2="97.9637" gradientUnits="userSpaceOnUse">
<stop stop-color="white"/>
<stop offset="1" stop-color="white" stop-opacity="0"/>
</linearGradient>
<linearGradient id="paint56_linear_62_21094" x1="42.3401" y1="55" x2="91.3401" y2="107" gradientUnits="userSpaceOnUse">
<stop stop-color="#F5F5F5"/>
<stop offset="1" stop-color="#BCBCBC"/>
</linearGradient>
<radialGradient id="paint57_radial_62_21094" cx="0" cy="0" r="1" gradientUnits="userSpaceOnUse" gradientTransform="translate(88.3401 69.6409) rotate(-90) scale(8)">
<stop stop-color="#474747"/>
<stop offset="1"/>
</radialGradient>
<radialGradient id="paint58_radial_62_21094" cx="0" cy="0" r="1" gradientUnits="userSpaceOnUse" gradientTransform="translate(73.3401 76.5) rotate(90) scale(4.5 6.13636)">
<stop stop-color="#474747"/>
<stop offset="1"/>
</radialGradient>
<linearGradient id="paint59_linear_62_21094" x1="73.5068" y1="75.5" x2="73.5068" y2="79.189" gradientUnits="userSpaceOnUse">
<stop stop-color="#EFEFEF"/>
<stop offset="1" stop-color="#EFEFEF" stop-opacity="0"/>
</linearGradient>
</defs>
</svg>
