<svg width="434" height="434" viewBox="0 0 434 434" fill="none" xmlns="http://www.w3.org/2000/svg">
<rect width="434" height="434" rx="80" fill="white"/>
<mask id="path-2-outside-1_61_20878" maskUnits="userSpaceOnUse" x="104" y="70" width="235" height="293" fill="black">
<rect fill="white" x="104" y="70" width="235" height="293"/>
<path d="M105 362V71.0909H230.568C252.159 71.0909 271.051 75.3523 287.244 83.875C303.438 92.3977 316.032 104.377 325.028 119.812C334.025 135.248 338.523 153.288 338.523 173.932C338.523 194.765 333.883 212.805 324.602 228.051C315.417 243.297 302.491 255.04 285.824 263.278C269.252 271.517 249.886 275.636 227.727 275.636H152.727V214.273H211.818C221.098 214.273 229.006 212.663 235.54 209.443C242.169 206.129 247.235 201.441 250.739 195.381C254.337 189.32 256.136 182.17 256.136 173.932C256.136 165.598 254.337 158.496 250.739 152.625C247.235 146.659 242.169 142.114 235.54 138.989C229.006 135.769 221.098 134.159 211.818 134.159H183.977V362H105Z"/>
</mask>
<path d="M105 362V71.0909H230.568C252.159 71.0909 271.051 75.3523 287.244 83.875C303.438 92.3977 316.032 104.377 325.028 119.812C334.025 135.248 338.523 153.288 338.523 173.932C338.523 194.765 333.883 212.805 324.602 228.051C315.417 243.297 302.491 255.04 285.824 263.278C269.252 271.517 249.886 275.636 227.727 275.636H152.727V214.273H211.818C221.098 214.273 229.006 212.663 235.54 209.443C242.169 206.129 247.235 201.441 250.739 195.381C254.337 189.32 256.136 182.17 256.136 173.932C256.136 165.598 254.337 158.496 250.739 152.625C247.235 146.659 242.169 142.114 235.54 138.989C229.006 135.769 221.098 134.159 211.818 134.159H183.977V362H105Z" fill="url(#paint0_linear_61_20878)"/>
<path d="M105 362H104.7V362.3H105V362ZM105 71.0909V70.7909H104.7V71.0909H105ZM287.244 83.875L287.105 84.1405L287.105 84.1405L287.244 83.875ZM325.028 119.812L325.288 119.661L325.288 119.661L325.028 119.812ZM324.602 228.051L324.346 227.895L324.345 227.896L324.602 228.051ZM285.824 263.278L285.691 263.009L285.69 263.01L285.824 263.278ZM152.727 275.636H152.427V275.936H152.727V275.636ZM152.727 214.273V213.973H152.427V214.273H152.727ZM235.54 209.443L235.672 209.712L235.674 209.712L235.54 209.443ZM250.739 195.381L250.481 195.228L250.479 195.231L250.739 195.381ZM250.739 152.625L250.48 152.777L250.483 152.782L250.739 152.625ZM235.54 138.989L235.407 139.258L235.412 139.26L235.54 138.989ZM183.977 134.159V133.859H183.677V134.159H183.977ZM183.977 362V362.3H184.277V362H183.977ZM105.3 362V71.0909H104.7V362H105.3ZM105 71.3909H230.568V70.7909H105V71.3909ZM230.568 71.3909C252.119 71.3909 270.962 75.6442 287.105 84.1405L287.384 83.6095C271.141 75.0604 252.199 70.7909 230.568 70.7909V71.3909ZM287.105 84.1405C303.249 92.6377 315.802 104.578 324.769 119.964L325.288 119.661C316.262 104.176 303.626 92.1578 287.384 83.6095L287.105 84.1405ZM324.769 119.964C333.735 135.347 338.223 153.333 338.223 173.932H338.823C338.823 153.243 334.314 135.15 325.288 119.661L324.769 119.964ZM338.223 173.932C338.223 194.719 333.593 212.703 324.346 227.895L324.859 228.207C334.172 212.907 338.823 194.811 338.823 173.932H338.223ZM324.345 227.896C315.191 243.091 302.309 254.795 285.691 263.009L285.957 263.547C302.672 255.284 315.643 243.504 324.859 228.206L324.345 227.896ZM285.69 263.01C269.167 271.224 249.849 275.336 227.727 275.336V275.936C249.924 275.936 269.337 271.81 285.957 263.547L285.69 263.01ZM227.727 275.336H152.727V275.936H227.727V275.336ZM153.027 275.636V214.273H152.427V275.636H153.027ZM152.727 214.573H211.818V213.973H152.727V214.573ZM211.818 214.573C221.132 214.573 229.087 212.957 235.672 209.712L235.407 209.174C228.924 212.369 221.065 213.973 211.818 213.973V214.573ZM235.674 209.712C242.352 206.372 247.463 201.645 250.998 195.531L250.479 195.231C247.006 201.237 241.985 205.885 235.406 209.175L235.674 209.712ZM250.997 195.534C254.627 189.42 256.436 182.215 256.436 173.932H255.836C255.836 182.126 254.047 189.221 250.481 195.228L250.997 195.534ZM256.436 173.932C256.436 165.555 254.627 158.396 250.994 152.468L250.483 152.782C254.047 158.597 255.836 165.642 255.836 173.932H256.436ZM250.997 152.473C247.461 146.452 242.348 141.866 235.668 138.717L235.412 139.26C241.989 142.361 247.009 146.866 250.48 152.777L250.997 152.473ZM235.672 138.72C229.087 135.475 221.132 133.859 211.818 133.859V134.459C221.065 134.459 228.924 136.063 235.407 139.258L235.672 138.72ZM211.818 133.859H183.977V134.459H211.818V133.859ZM183.677 134.159V362H184.277V134.159H183.677ZM183.977 361.7H105V362.3H183.977V361.7Z" fill="black" mask="url(#path-2-outside-1_61_20878)"/>
<defs>
<linearGradient id="paint0_linear_61_20878" x1="89.6304" y1="219.495" x2="342.546" y2="219.495" gradientUnits="userSpaceOnUse">
<stop stop-color="#847BAA"/>
<stop offset="1" stop-color="#7EC1D0"/>
</linearGradient>
</defs>
</svg>
